G75*
%MOIN*%
%OFA0B0*%
%FSLAX25Y25*%
%IPPOS*%
%LPD*%
%AMOC8*
5,1,8,0,0,1.08239X$1,22.5*
%
%ADD10C,0.00000*%
D10*
X0016998Y0005800D02*
X0016998Y0280761D01*
X0165699Y0280761D01*
X0165699Y0005800D01*
X0016998Y0005800D01*
X0047667Y0230800D02*
X0047669Y0230931D01*
X0047675Y0231063D01*
X0047685Y0231194D01*
X0047699Y0231325D01*
X0047717Y0231455D01*
X0047739Y0231584D01*
X0047764Y0231713D01*
X0047794Y0231841D01*
X0047828Y0231968D01*
X0047865Y0232095D01*
X0047906Y0232219D01*
X0047951Y0232343D01*
X0048000Y0232465D01*
X0048052Y0232586D01*
X0048108Y0232704D01*
X0048168Y0232822D01*
X0048231Y0232937D01*
X0048298Y0233050D01*
X0048368Y0233162D01*
X0048441Y0233271D01*
X0048517Y0233377D01*
X0048597Y0233482D01*
X0048680Y0233584D01*
X0048766Y0233683D01*
X0048855Y0233780D01*
X0048947Y0233874D01*
X0049042Y0233965D01*
X0049139Y0234054D01*
X0049239Y0234139D01*
X0049342Y0234221D01*
X0049447Y0234300D01*
X0049554Y0234376D01*
X0049664Y0234448D01*
X0049776Y0234517D01*
X0049890Y0234583D01*
X0050005Y0234645D01*
X0050123Y0234704D01*
X0050242Y0234759D01*
X0050363Y0234811D01*
X0050486Y0234858D01*
X0050610Y0234902D01*
X0050735Y0234943D01*
X0050861Y0234979D01*
X0050989Y0235012D01*
X0051117Y0235040D01*
X0051246Y0235065D01*
X0051376Y0235086D01*
X0051506Y0235103D01*
X0051637Y0235116D01*
X0051768Y0235125D01*
X0051899Y0235130D01*
X0052031Y0235131D01*
X0052162Y0235128D01*
X0052294Y0235121D01*
X0052425Y0235110D01*
X0052555Y0235095D01*
X0052685Y0235076D01*
X0052815Y0235053D01*
X0052943Y0235027D01*
X0053071Y0234996D01*
X0053198Y0234961D01*
X0053324Y0234923D01*
X0053448Y0234881D01*
X0053572Y0234835D01*
X0053693Y0234785D01*
X0053813Y0234732D01*
X0053932Y0234675D01*
X0054049Y0234615D01*
X0054163Y0234551D01*
X0054276Y0234483D01*
X0054387Y0234412D01*
X0054496Y0234338D01*
X0054602Y0234261D01*
X0054706Y0234180D01*
X0054807Y0234097D01*
X0054906Y0234010D01*
X0055002Y0233920D01*
X0055095Y0233827D01*
X0055186Y0233732D01*
X0055273Y0233634D01*
X0055358Y0233533D01*
X0055439Y0233430D01*
X0055517Y0233324D01*
X0055592Y0233216D01*
X0055664Y0233106D01*
X0055732Y0232994D01*
X0055797Y0232880D01*
X0055858Y0232763D01*
X0055916Y0232645D01*
X0055970Y0232525D01*
X0056021Y0232404D01*
X0056068Y0232281D01*
X0056111Y0232157D01*
X0056150Y0232032D01*
X0056186Y0231905D01*
X0056217Y0231777D01*
X0056245Y0231649D01*
X0056269Y0231520D01*
X0056289Y0231390D01*
X0056305Y0231259D01*
X0056317Y0231128D01*
X0056325Y0230997D01*
X0056329Y0230866D01*
X0056329Y0230734D01*
X0056325Y0230603D01*
X0056317Y0230472D01*
X0056305Y0230341D01*
X0056289Y0230210D01*
X0056269Y0230080D01*
X0056245Y0229951D01*
X0056217Y0229823D01*
X0056186Y0229695D01*
X0056150Y0229568D01*
X0056111Y0229443D01*
X0056068Y0229319D01*
X0056021Y0229196D01*
X0055970Y0229075D01*
X0055916Y0228955D01*
X0055858Y0228837D01*
X0055797Y0228720D01*
X0055732Y0228606D01*
X0055664Y0228494D01*
X0055592Y0228384D01*
X0055517Y0228276D01*
X0055439Y0228170D01*
X0055358Y0228067D01*
X0055273Y0227966D01*
X0055186Y0227868D01*
X0055095Y0227773D01*
X0055002Y0227680D01*
X0054906Y0227590D01*
X0054807Y0227503D01*
X0054706Y0227420D01*
X0054602Y0227339D01*
X0054496Y0227262D01*
X0054387Y0227188D01*
X0054276Y0227117D01*
X0054164Y0227049D01*
X0054049Y0226985D01*
X0053932Y0226925D01*
X0053813Y0226868D01*
X0053693Y0226815D01*
X0053572Y0226765D01*
X0053448Y0226719D01*
X0053324Y0226677D01*
X0053198Y0226639D01*
X0053071Y0226604D01*
X0052943Y0226573D01*
X0052815Y0226547D01*
X0052685Y0226524D01*
X0052555Y0226505D01*
X0052425Y0226490D01*
X0052294Y0226479D01*
X0052162Y0226472D01*
X0052031Y0226469D01*
X0051899Y0226470D01*
X0051768Y0226475D01*
X0051637Y0226484D01*
X0051506Y0226497D01*
X0051376Y0226514D01*
X0051246Y0226535D01*
X0051117Y0226560D01*
X0050989Y0226588D01*
X0050861Y0226621D01*
X0050735Y0226657D01*
X0050610Y0226698D01*
X0050486Y0226742D01*
X0050363Y0226789D01*
X0050242Y0226841D01*
X0050123Y0226896D01*
X0050005Y0226955D01*
X0049890Y0227017D01*
X0049776Y0227083D01*
X0049664Y0227152D01*
X0049554Y0227224D01*
X0049447Y0227300D01*
X0049342Y0227379D01*
X0049239Y0227461D01*
X0049139Y0227546D01*
X0049042Y0227635D01*
X0048947Y0227726D01*
X0048855Y0227820D01*
X0048766Y0227917D01*
X0048680Y0228016D01*
X0048597Y0228118D01*
X0048517Y0228223D01*
X0048441Y0228329D01*
X0048368Y0228438D01*
X0048298Y0228550D01*
X0048231Y0228663D01*
X0048168Y0228778D01*
X0048108Y0228896D01*
X0048052Y0229014D01*
X0048000Y0229135D01*
X0047951Y0229257D01*
X0047906Y0229381D01*
X0047865Y0229505D01*
X0047828Y0229632D01*
X0047794Y0229759D01*
X0047764Y0229887D01*
X0047739Y0230016D01*
X0047717Y0230145D01*
X0047699Y0230275D01*
X0047685Y0230406D01*
X0047675Y0230537D01*
X0047669Y0230669D01*
X0047667Y0230800D01*
X0127667Y0230800D02*
X0127669Y0230931D01*
X0127675Y0231063D01*
X0127685Y0231194D01*
X0127699Y0231325D01*
X0127717Y0231455D01*
X0127739Y0231584D01*
X0127764Y0231713D01*
X0127794Y0231841D01*
X0127828Y0231968D01*
X0127865Y0232095D01*
X0127906Y0232219D01*
X0127951Y0232343D01*
X0128000Y0232465D01*
X0128052Y0232586D01*
X0128108Y0232704D01*
X0128168Y0232822D01*
X0128231Y0232937D01*
X0128298Y0233050D01*
X0128368Y0233162D01*
X0128441Y0233271D01*
X0128517Y0233377D01*
X0128597Y0233482D01*
X0128680Y0233584D01*
X0128766Y0233683D01*
X0128855Y0233780D01*
X0128947Y0233874D01*
X0129042Y0233965D01*
X0129139Y0234054D01*
X0129239Y0234139D01*
X0129342Y0234221D01*
X0129447Y0234300D01*
X0129554Y0234376D01*
X0129664Y0234448D01*
X0129776Y0234517D01*
X0129890Y0234583D01*
X0130005Y0234645D01*
X0130123Y0234704D01*
X0130242Y0234759D01*
X0130363Y0234811D01*
X0130486Y0234858D01*
X0130610Y0234902D01*
X0130735Y0234943D01*
X0130861Y0234979D01*
X0130989Y0235012D01*
X0131117Y0235040D01*
X0131246Y0235065D01*
X0131376Y0235086D01*
X0131506Y0235103D01*
X0131637Y0235116D01*
X0131768Y0235125D01*
X0131899Y0235130D01*
X0132031Y0235131D01*
X0132162Y0235128D01*
X0132294Y0235121D01*
X0132425Y0235110D01*
X0132555Y0235095D01*
X0132685Y0235076D01*
X0132815Y0235053D01*
X0132943Y0235027D01*
X0133071Y0234996D01*
X0133198Y0234961D01*
X0133324Y0234923D01*
X0133448Y0234881D01*
X0133572Y0234835D01*
X0133693Y0234785D01*
X0133813Y0234732D01*
X0133932Y0234675D01*
X0134049Y0234615D01*
X0134163Y0234551D01*
X0134276Y0234483D01*
X0134387Y0234412D01*
X0134496Y0234338D01*
X0134602Y0234261D01*
X0134706Y0234180D01*
X0134807Y0234097D01*
X0134906Y0234010D01*
X0135002Y0233920D01*
X0135095Y0233827D01*
X0135186Y0233732D01*
X0135273Y0233634D01*
X0135358Y0233533D01*
X0135439Y0233430D01*
X0135517Y0233324D01*
X0135592Y0233216D01*
X0135664Y0233106D01*
X0135732Y0232994D01*
X0135797Y0232880D01*
X0135858Y0232763D01*
X0135916Y0232645D01*
X0135970Y0232525D01*
X0136021Y0232404D01*
X0136068Y0232281D01*
X0136111Y0232157D01*
X0136150Y0232032D01*
X0136186Y0231905D01*
X0136217Y0231777D01*
X0136245Y0231649D01*
X0136269Y0231520D01*
X0136289Y0231390D01*
X0136305Y0231259D01*
X0136317Y0231128D01*
X0136325Y0230997D01*
X0136329Y0230866D01*
X0136329Y0230734D01*
X0136325Y0230603D01*
X0136317Y0230472D01*
X0136305Y0230341D01*
X0136289Y0230210D01*
X0136269Y0230080D01*
X0136245Y0229951D01*
X0136217Y0229823D01*
X0136186Y0229695D01*
X0136150Y0229568D01*
X0136111Y0229443D01*
X0136068Y0229319D01*
X0136021Y0229196D01*
X0135970Y0229075D01*
X0135916Y0228955D01*
X0135858Y0228837D01*
X0135797Y0228720D01*
X0135732Y0228606D01*
X0135664Y0228494D01*
X0135592Y0228384D01*
X0135517Y0228276D01*
X0135439Y0228170D01*
X0135358Y0228067D01*
X0135273Y0227966D01*
X0135186Y0227868D01*
X0135095Y0227773D01*
X0135002Y0227680D01*
X0134906Y0227590D01*
X0134807Y0227503D01*
X0134706Y0227420D01*
X0134602Y0227339D01*
X0134496Y0227262D01*
X0134387Y0227188D01*
X0134276Y0227117D01*
X0134164Y0227049D01*
X0134049Y0226985D01*
X0133932Y0226925D01*
X0133813Y0226868D01*
X0133693Y0226815D01*
X0133572Y0226765D01*
X0133448Y0226719D01*
X0133324Y0226677D01*
X0133198Y0226639D01*
X0133071Y0226604D01*
X0132943Y0226573D01*
X0132815Y0226547D01*
X0132685Y0226524D01*
X0132555Y0226505D01*
X0132425Y0226490D01*
X0132294Y0226479D01*
X0132162Y0226472D01*
X0132031Y0226469D01*
X0131899Y0226470D01*
X0131768Y0226475D01*
X0131637Y0226484D01*
X0131506Y0226497D01*
X0131376Y0226514D01*
X0131246Y0226535D01*
X0131117Y0226560D01*
X0130989Y0226588D01*
X0130861Y0226621D01*
X0130735Y0226657D01*
X0130610Y0226698D01*
X0130486Y0226742D01*
X0130363Y0226789D01*
X0130242Y0226841D01*
X0130123Y0226896D01*
X0130005Y0226955D01*
X0129890Y0227017D01*
X0129776Y0227083D01*
X0129664Y0227152D01*
X0129554Y0227224D01*
X0129447Y0227300D01*
X0129342Y0227379D01*
X0129239Y0227461D01*
X0129139Y0227546D01*
X0129042Y0227635D01*
X0128947Y0227726D01*
X0128855Y0227820D01*
X0128766Y0227917D01*
X0128680Y0228016D01*
X0128597Y0228118D01*
X0128517Y0228223D01*
X0128441Y0228329D01*
X0128368Y0228438D01*
X0128298Y0228550D01*
X0128231Y0228663D01*
X0128168Y0228778D01*
X0128108Y0228896D01*
X0128052Y0229014D01*
X0128000Y0229135D01*
X0127951Y0229257D01*
X0127906Y0229381D01*
X0127865Y0229505D01*
X0127828Y0229632D01*
X0127794Y0229759D01*
X0127764Y0229887D01*
X0127739Y0230016D01*
X0127717Y0230145D01*
X0127699Y0230275D01*
X0127685Y0230406D01*
X0127675Y0230537D01*
X0127669Y0230669D01*
X0127667Y0230800D01*
M02*
