G75*
%MOIN*%
%OFA0B0*%
%FSLAX25Y25*%
%IPPOS*%
%LPD*%
%AMOC8*
5,1,8,0,0,1.08239X$1,22.5*
%
%ADD10C,0.00500*%
%ADD11C,0.00400*%
%ADD12C,0.00000*%
%ADD13C,0.00600*%
%ADD14C,0.00800*%
%ADD15C,0.00100*%
%ADD16R,0.02000X0.02000*%
%ADD17C,0.01000*%
D10*
X0035089Y0133753D02*
X0035089Y0172296D01*
X0068908Y0172296D01*
X0068908Y0133753D01*
X0035089Y0133753D01*
X0034298Y0213100D02*
X0034298Y0254400D01*
X0069698Y0254400D01*
X0069698Y0213100D01*
X0034298Y0213100D01*
X0059748Y0267550D02*
X0062751Y0267550D01*
X0064352Y0267550D02*
X0067355Y0267550D01*
X0068956Y0267550D02*
X0071208Y0267550D01*
X0071959Y0268301D01*
X0071959Y0271303D01*
X0071208Y0272054D01*
X0068956Y0272054D01*
X0068956Y0267550D01*
X0065853Y0269802D02*
X0064352Y0269802D01*
X0064352Y0272054D02*
X0064352Y0267550D01*
X0064352Y0272054D02*
X0067355Y0272054D01*
X0073560Y0270553D02*
X0075061Y0272054D01*
X0075061Y0267550D01*
X0073560Y0267550D02*
X0076562Y0267550D01*
X0078164Y0266799D02*
X0081166Y0266799D01*
X0082768Y0267550D02*
X0085770Y0267550D01*
X0082768Y0267550D02*
X0082768Y0272054D01*
X0059748Y0272054D02*
X0059748Y0267550D01*
X0114298Y0254400D02*
X0114298Y0213100D01*
X0149698Y0213100D01*
X0149698Y0254400D01*
X0114298Y0254400D01*
X0139748Y0267550D02*
X0142751Y0267550D01*
X0144352Y0267550D02*
X0147355Y0267550D01*
X0148956Y0267550D02*
X0151208Y0267550D01*
X0151959Y0268301D01*
X0151959Y0271303D01*
X0151208Y0272054D01*
X0148956Y0272054D01*
X0148956Y0267550D01*
X0145853Y0269802D02*
X0144352Y0269802D01*
X0144352Y0272054D02*
X0144352Y0267550D01*
X0144352Y0272054D02*
X0147355Y0272054D01*
X0153560Y0271303D02*
X0154311Y0272054D01*
X0155812Y0272054D01*
X0156562Y0271303D01*
X0156562Y0270553D01*
X0153560Y0267550D01*
X0156562Y0267550D01*
X0158164Y0266799D02*
X0161166Y0266799D01*
X0162768Y0267550D02*
X0162768Y0272054D01*
X0165020Y0272054D01*
X0165770Y0271303D01*
X0165770Y0269802D01*
X0165020Y0269051D01*
X0162768Y0269051D01*
X0164269Y0269051D02*
X0165770Y0267550D01*
X0139748Y0267550D02*
X0139748Y0272054D01*
X0148908Y0172296D02*
X0115089Y0172296D01*
X0115089Y0133753D01*
X0148908Y0133753D01*
X0148908Y0172296D01*
X0156782Y0106391D02*
X0107215Y0106391D01*
X0107215Y0040131D01*
X0156782Y0040131D01*
X0156782Y0106391D01*
D11*
X0128708Y0057297D02*
X0127173Y0057297D01*
X0126406Y0056530D01*
X0124871Y0054995D02*
X0121802Y0054995D01*
X0124104Y0057297D01*
X0124104Y0052693D01*
X0123337Y0051297D02*
X0123337Y0046693D01*
X0126406Y0048228D02*
X0127941Y0046693D01*
X0129475Y0048228D01*
X0129475Y0051297D01*
X0129475Y0052693D02*
X0126406Y0052693D01*
X0129475Y0055762D01*
X0129475Y0056530D01*
X0128708Y0057297D01*
X0126406Y0051297D02*
X0126406Y0048228D01*
X0124871Y0051297D02*
X0121802Y0051297D01*
X0120267Y0050530D02*
X0120267Y0048995D01*
X0119500Y0048228D01*
X0117198Y0048228D01*
X0117198Y0046693D02*
X0117198Y0051297D01*
X0119500Y0051297D01*
X0120267Y0050530D01*
X0120267Y0052693D02*
X0118733Y0054228D01*
X0119500Y0054228D02*
X0117198Y0054228D01*
X0117198Y0052693D02*
X0117198Y0057297D01*
X0119500Y0057297D01*
X0120267Y0056530D01*
X0120267Y0054995D01*
X0119500Y0054228D01*
X0131010Y0049762D02*
X0132545Y0051297D01*
X0132545Y0046693D01*
X0134079Y0046693D02*
X0131010Y0046693D01*
X0135614Y0046693D02*
X0138683Y0046693D01*
X0137148Y0046693D02*
X0137148Y0051297D01*
X0135614Y0049762D01*
X0140218Y0050530D02*
X0140985Y0051297D01*
X0142520Y0051297D01*
X0143287Y0050530D01*
X0143287Y0049762D01*
X0140218Y0046693D01*
X0143287Y0046693D01*
X0144822Y0048995D02*
X0147891Y0048995D01*
X0149426Y0048995D02*
X0152495Y0048995D01*
X0154030Y0048995D02*
X0157099Y0048995D01*
X0158633Y0050530D02*
X0159401Y0051297D01*
X0160935Y0051297D01*
X0161703Y0050530D01*
X0161703Y0049762D01*
X0158633Y0046693D01*
X0161703Y0046693D01*
X0163237Y0047460D02*
X0163237Y0050530D01*
X0164005Y0051297D01*
X0165539Y0051297D01*
X0166307Y0050530D01*
X0163237Y0047460D01*
X0164005Y0046693D01*
X0165539Y0046693D01*
X0166307Y0047460D01*
X0166307Y0050530D01*
X0167841Y0049762D02*
X0169376Y0051297D01*
X0170911Y0049762D01*
X0170911Y0046693D01*
X0170911Y0048995D02*
X0167841Y0048995D01*
X0167841Y0049762D02*
X0167841Y0046693D01*
X0172445Y0048995D02*
X0175515Y0048995D01*
X0177049Y0048995D02*
X0180118Y0048995D01*
X0180118Y0049762D02*
X0180118Y0046693D01*
X0181653Y0047460D02*
X0182420Y0046693D01*
X0183955Y0046693D01*
X0184722Y0047460D01*
X0184722Y0048995D01*
X0183955Y0049762D01*
X0183188Y0049762D01*
X0181653Y0048995D01*
X0181653Y0051297D01*
X0184722Y0051297D01*
X0186257Y0050530D02*
X0187024Y0051297D01*
X0188559Y0051297D01*
X0189326Y0050530D01*
X0186257Y0047460D01*
X0187024Y0046693D01*
X0188559Y0046693D01*
X0189326Y0047460D01*
X0189326Y0050530D01*
X0190861Y0050530D02*
X0191628Y0051297D01*
X0193163Y0051297D01*
X0193930Y0050530D01*
X0193930Y0049762D01*
X0193163Y0048995D01*
X0193930Y0048228D01*
X0193930Y0047460D01*
X0193163Y0046693D01*
X0191628Y0046693D01*
X0190861Y0047460D01*
X0192396Y0048995D02*
X0193163Y0048995D01*
X0186257Y0047460D02*
X0186257Y0050530D01*
X0180118Y0049762D02*
X0178584Y0051297D01*
X0177049Y0049762D01*
X0177049Y0046693D01*
X0156331Y0046693D02*
X0156331Y0051297D01*
X0154030Y0048995D01*
X0151728Y0046693D02*
X0151728Y0051297D01*
X0149426Y0048995D01*
X0128804Y0007804D02*
X0127269Y0007804D01*
X0126502Y0007037D01*
X0124967Y0007804D02*
X0123433Y0007804D01*
X0124200Y0007804D02*
X0124200Y0003967D01*
X0123433Y0003200D01*
X0122665Y0003200D01*
X0121898Y0003967D01*
X0126502Y0003200D02*
X0129571Y0006269D01*
X0129571Y0007037D01*
X0128804Y0007804D01*
X0129571Y0003200D02*
X0126502Y0003200D01*
X0049571Y0003200D02*
X0046502Y0003200D01*
X0048037Y0003200D02*
X0048037Y0007804D01*
X0046502Y0006269D01*
X0044967Y0007804D02*
X0043433Y0007804D01*
X0044200Y0007804D02*
X0044200Y0003967D01*
X0043433Y0003200D01*
X0042665Y0003200D01*
X0041898Y0003967D01*
X0042569Y0160000D02*
X0041802Y0160767D01*
X0044871Y0163837D01*
X0044871Y0160767D01*
X0044104Y0160000D01*
X0042569Y0160000D01*
X0041802Y0160767D02*
X0041802Y0163837D01*
X0042569Y0164604D01*
X0044104Y0164604D01*
X0044871Y0163837D01*
X0046406Y0164604D02*
X0046406Y0160000D01*
X0046406Y0161535D02*
X0048708Y0163069D01*
X0050243Y0162302D02*
X0052545Y0162302D01*
X0053312Y0161535D01*
X0053312Y0160767D01*
X0052545Y0160000D01*
X0050243Y0160000D01*
X0050243Y0164604D01*
X0052545Y0164604D01*
X0053312Y0163837D01*
X0053312Y0163069D01*
X0052545Y0162302D01*
X0051010Y0166000D02*
X0054079Y0166000D01*
X0051010Y0166000D02*
X0051010Y0170604D01*
X0049475Y0165233D02*
X0046406Y0165233D01*
X0044871Y0166767D02*
X0044871Y0167535D01*
X0044104Y0168302D01*
X0042569Y0168302D01*
X0041802Y0169069D01*
X0041802Y0169837D01*
X0042569Y0170604D01*
X0044104Y0170604D01*
X0044871Y0169837D01*
X0044871Y0169069D01*
X0044104Y0168302D01*
X0042569Y0168302D02*
X0041802Y0167535D01*
X0041802Y0166767D01*
X0042569Y0166000D01*
X0044104Y0166000D01*
X0044871Y0166767D01*
X0046406Y0161535D02*
X0048708Y0160000D01*
X0040267Y0160000D02*
X0037198Y0160000D01*
X0038733Y0160000D02*
X0038733Y0164604D01*
X0037198Y0163069D01*
X0037198Y0166000D02*
X0037198Y0170604D01*
X0039500Y0170604D01*
X0040267Y0169837D01*
X0040267Y0168302D01*
X0039500Y0167535D01*
X0037198Y0167535D01*
X0038733Y0167535D02*
X0040267Y0166000D01*
X0065311Y0206315D02*
X0068380Y0206315D01*
X0065311Y0206315D02*
X0065311Y0210919D01*
X0058278Y0213083D02*
X0058278Y0217020D01*
X0056309Y0217020D01*
X0056309Y0213083D01*
X0056309Y0217020D02*
X0055935Y0217020D01*
X0055935Y0218989D01*
X0062313Y0218989D02*
X0041640Y0218989D01*
X0045719Y0217020D02*
X0045698Y0213100D01*
X0047687Y0213083D02*
X0047687Y0217020D01*
X0048061Y0217020D01*
X0048061Y0218989D01*
X0047687Y0217020D02*
X0045719Y0217020D01*
X0051998Y0226863D02*
X0051998Y0234737D01*
X0062399Y0242587D02*
X0062681Y0242337D01*
X0062957Y0242081D01*
X0063226Y0241817D01*
X0063489Y0241547D01*
X0063745Y0241271D01*
X0063995Y0240989D01*
X0064237Y0240701D01*
X0064473Y0240407D01*
X0064701Y0240107D01*
X0064922Y0239802D01*
X0065136Y0239492D01*
X0065342Y0239177D01*
X0065541Y0238856D01*
X0065731Y0238531D01*
X0065914Y0238202D01*
X0066088Y0237868D01*
X0066255Y0237530D01*
X0066413Y0237188D01*
X0066563Y0236843D01*
X0066704Y0236493D01*
X0066837Y0236141D01*
X0066962Y0235785D01*
X0067078Y0235427D01*
X0067185Y0235066D01*
X0067283Y0234702D01*
X0067372Y0234336D01*
X0067453Y0233968D01*
X0067525Y0233598D01*
X0067587Y0233227D01*
X0067641Y0232854D01*
X0067686Y0232480D01*
X0067721Y0232105D01*
X0067748Y0231729D01*
X0067765Y0231353D01*
X0067773Y0230976D01*
X0067772Y0230599D01*
X0067762Y0230223D01*
X0067743Y0229846D01*
X0067715Y0229471D01*
X0067678Y0229096D01*
X0067631Y0228722D01*
X0067576Y0228349D01*
X0067512Y0227978D01*
X0067438Y0227609D01*
X0067356Y0227241D01*
X0067265Y0226876D01*
X0067165Y0226512D01*
X0067056Y0226152D01*
X0066938Y0225794D01*
X0066812Y0225439D01*
X0066678Y0225087D01*
X0066535Y0224738D01*
X0066383Y0224394D01*
X0066223Y0224052D01*
X0066055Y0223715D01*
X0065879Y0223382D01*
X0065695Y0223054D01*
X0065503Y0222729D01*
X0065303Y0222410D01*
X0065095Y0222096D01*
X0064880Y0221786D01*
X0064658Y0221482D01*
X0064428Y0221184D01*
X0064191Y0220891D01*
X0063947Y0220604D01*
X0063696Y0220323D01*
X0063439Y0220048D01*
X0063174Y0219779D01*
X0062904Y0219517D01*
X0062627Y0219262D01*
X0062344Y0219013D01*
X0055935Y0230800D02*
X0048061Y0230800D01*
X0041730Y0242627D02*
X0041446Y0242379D01*
X0041167Y0242124D01*
X0040895Y0241862D01*
X0040630Y0241594D01*
X0040371Y0241320D01*
X0040119Y0241039D01*
X0039873Y0240752D01*
X0039635Y0240460D01*
X0039404Y0240161D01*
X0039180Y0239857D01*
X0038963Y0239548D01*
X0038755Y0239234D01*
X0038553Y0238915D01*
X0038360Y0238591D01*
X0038174Y0238262D01*
X0037997Y0237929D01*
X0037827Y0237592D01*
X0037666Y0237251D01*
X0037513Y0236906D01*
X0037368Y0236557D01*
X0037232Y0236205D01*
X0037105Y0235850D01*
X0036986Y0235492D01*
X0036876Y0235131D01*
X0036774Y0234767D01*
X0036682Y0234402D01*
X0036598Y0234034D01*
X0036523Y0233664D01*
X0036458Y0233292D01*
X0036401Y0232919D01*
X0036353Y0232545D01*
X0036315Y0232169D01*
X0036285Y0231793D01*
X0036265Y0231416D01*
X0036253Y0231039D01*
X0036251Y0230662D01*
X0036258Y0230284D01*
X0036274Y0229907D01*
X0036300Y0229531D01*
X0036334Y0229155D01*
X0036378Y0228780D01*
X0036430Y0228406D01*
X0036492Y0228034D01*
X0036562Y0227663D01*
X0036642Y0227294D01*
X0036730Y0226928D01*
X0036827Y0226563D01*
X0036933Y0226201D01*
X0037048Y0225841D01*
X0037172Y0225485D01*
X0037304Y0225131D01*
X0037444Y0224781D01*
X0037593Y0224434D01*
X0037751Y0224091D01*
X0037916Y0223752D01*
X0038090Y0223417D01*
X0038272Y0223086D01*
X0038462Y0222760D01*
X0038659Y0222439D01*
X0038865Y0222122D01*
X0039078Y0221811D01*
X0039298Y0221504D01*
X0039526Y0221203D01*
X0039761Y0220908D01*
X0040003Y0220619D01*
X0040252Y0220335D01*
X0040508Y0220058D01*
X0040770Y0219787D01*
X0041039Y0219522D01*
X0041315Y0219264D01*
X0041596Y0219012D01*
X0040259Y0230761D02*
X0040263Y0231050D01*
X0040273Y0231339D01*
X0040291Y0231627D01*
X0040316Y0231915D01*
X0040348Y0232203D01*
X0040386Y0232489D01*
X0040432Y0232775D01*
X0040485Y0233059D01*
X0040545Y0233342D01*
X0040612Y0233623D01*
X0040686Y0233902D01*
X0040766Y0234180D01*
X0040853Y0234456D01*
X0040947Y0234729D01*
X0041048Y0235000D01*
X0041156Y0235268D01*
X0041269Y0235534D01*
X0041390Y0235797D01*
X0041517Y0236057D01*
X0041650Y0236313D01*
X0041789Y0236566D01*
X0041935Y0236816D01*
X0042086Y0237062D01*
X0042244Y0237305D01*
X0042407Y0237543D01*
X0042577Y0237777D01*
X0042752Y0238007D01*
X0042932Y0238233D01*
X0043119Y0238454D01*
X0043310Y0238671D01*
X0043507Y0238882D01*
X0043709Y0239089D01*
X0043916Y0239291D01*
X0044127Y0239488D01*
X0044344Y0239679D01*
X0044565Y0239866D01*
X0044791Y0240046D01*
X0045021Y0240221D01*
X0045255Y0240391D01*
X0045493Y0240554D01*
X0045736Y0240712D01*
X0045982Y0240863D01*
X0046232Y0241009D01*
X0046485Y0241148D01*
X0046741Y0241281D01*
X0047001Y0241408D01*
X0047264Y0241529D01*
X0047530Y0241642D01*
X0047798Y0241750D01*
X0048069Y0241851D01*
X0048342Y0241945D01*
X0048618Y0242032D01*
X0048896Y0242112D01*
X0049175Y0242186D01*
X0049456Y0242253D01*
X0049739Y0242313D01*
X0050023Y0242366D01*
X0050309Y0242412D01*
X0050595Y0242450D01*
X0050883Y0242482D01*
X0051171Y0242507D01*
X0051459Y0242525D01*
X0051748Y0242535D01*
X0052037Y0242539D01*
X0052326Y0242535D01*
X0052615Y0242525D01*
X0052903Y0242507D01*
X0053191Y0242482D01*
X0053479Y0242450D01*
X0053765Y0242412D01*
X0054051Y0242366D01*
X0054335Y0242313D01*
X0054618Y0242253D01*
X0054899Y0242186D01*
X0055178Y0242112D01*
X0055456Y0242032D01*
X0055732Y0241945D01*
X0056005Y0241851D01*
X0056276Y0241750D01*
X0056544Y0241642D01*
X0056810Y0241529D01*
X0057073Y0241408D01*
X0057333Y0241281D01*
X0057589Y0241148D01*
X0057842Y0241009D01*
X0058092Y0240863D01*
X0058338Y0240712D01*
X0058581Y0240554D01*
X0058819Y0240391D01*
X0059053Y0240221D01*
X0059283Y0240046D01*
X0059509Y0239866D01*
X0059730Y0239679D01*
X0059947Y0239488D01*
X0060158Y0239291D01*
X0060365Y0239089D01*
X0060567Y0238882D01*
X0060764Y0238671D01*
X0060955Y0238454D01*
X0061142Y0238233D01*
X0061322Y0238007D01*
X0061497Y0237777D01*
X0061667Y0237543D01*
X0061830Y0237305D01*
X0061988Y0237062D01*
X0062139Y0236816D01*
X0062285Y0236566D01*
X0062424Y0236313D01*
X0062557Y0236057D01*
X0062684Y0235797D01*
X0062805Y0235534D01*
X0062918Y0235268D01*
X0063026Y0235000D01*
X0063127Y0234729D01*
X0063221Y0234456D01*
X0063308Y0234180D01*
X0063388Y0233902D01*
X0063462Y0233623D01*
X0063529Y0233342D01*
X0063589Y0233059D01*
X0063642Y0232775D01*
X0063688Y0232489D01*
X0063726Y0232203D01*
X0063758Y0231915D01*
X0063783Y0231627D01*
X0063801Y0231339D01*
X0063811Y0231050D01*
X0063815Y0230761D01*
X0063811Y0230472D01*
X0063801Y0230183D01*
X0063783Y0229895D01*
X0063758Y0229607D01*
X0063726Y0229319D01*
X0063688Y0229033D01*
X0063642Y0228747D01*
X0063589Y0228463D01*
X0063529Y0228180D01*
X0063462Y0227899D01*
X0063388Y0227620D01*
X0063308Y0227342D01*
X0063221Y0227066D01*
X0063127Y0226793D01*
X0063026Y0226522D01*
X0062918Y0226254D01*
X0062805Y0225988D01*
X0062684Y0225725D01*
X0062557Y0225465D01*
X0062424Y0225209D01*
X0062285Y0224956D01*
X0062139Y0224706D01*
X0061988Y0224460D01*
X0061830Y0224217D01*
X0061667Y0223979D01*
X0061497Y0223745D01*
X0061322Y0223515D01*
X0061142Y0223289D01*
X0060955Y0223068D01*
X0060764Y0222851D01*
X0060567Y0222640D01*
X0060365Y0222433D01*
X0060158Y0222231D01*
X0059947Y0222034D01*
X0059730Y0221843D01*
X0059509Y0221656D01*
X0059283Y0221476D01*
X0059053Y0221301D01*
X0058819Y0221131D01*
X0058581Y0220968D01*
X0058338Y0220810D01*
X0058092Y0220659D01*
X0057842Y0220513D01*
X0057589Y0220374D01*
X0057333Y0220241D01*
X0057073Y0220114D01*
X0056810Y0219993D01*
X0056544Y0219880D01*
X0056276Y0219772D01*
X0056005Y0219671D01*
X0055732Y0219577D01*
X0055456Y0219490D01*
X0055178Y0219410D01*
X0054899Y0219336D01*
X0054618Y0219269D01*
X0054335Y0219209D01*
X0054051Y0219156D01*
X0053765Y0219110D01*
X0053479Y0219072D01*
X0053191Y0219040D01*
X0052903Y0219015D01*
X0052615Y0218997D01*
X0052326Y0218987D01*
X0052037Y0218983D01*
X0051748Y0218987D01*
X0051459Y0218997D01*
X0051171Y0219015D01*
X0050883Y0219040D01*
X0050595Y0219072D01*
X0050309Y0219110D01*
X0050023Y0219156D01*
X0049739Y0219209D01*
X0049456Y0219269D01*
X0049175Y0219336D01*
X0048896Y0219410D01*
X0048618Y0219490D01*
X0048342Y0219577D01*
X0048069Y0219671D01*
X0047798Y0219772D01*
X0047530Y0219880D01*
X0047264Y0219993D01*
X0047001Y0220114D01*
X0046741Y0220241D01*
X0046485Y0220374D01*
X0046232Y0220513D01*
X0045982Y0220659D01*
X0045736Y0220810D01*
X0045493Y0220968D01*
X0045255Y0221131D01*
X0045021Y0221301D01*
X0044791Y0221476D01*
X0044565Y0221656D01*
X0044344Y0221843D01*
X0044127Y0222034D01*
X0043916Y0222231D01*
X0043709Y0222433D01*
X0043507Y0222640D01*
X0043310Y0222851D01*
X0043119Y0223068D01*
X0042932Y0223289D01*
X0042752Y0223515D01*
X0042577Y0223745D01*
X0042407Y0223979D01*
X0042244Y0224217D01*
X0042086Y0224460D01*
X0041935Y0224706D01*
X0041789Y0224956D01*
X0041650Y0225209D01*
X0041517Y0225465D01*
X0041390Y0225725D01*
X0041269Y0225988D01*
X0041156Y0226254D01*
X0041048Y0226522D01*
X0040947Y0226793D01*
X0040853Y0227066D01*
X0040766Y0227342D01*
X0040686Y0227620D01*
X0040612Y0227899D01*
X0040545Y0228180D01*
X0040485Y0228463D01*
X0040432Y0228747D01*
X0040386Y0229033D01*
X0040348Y0229319D01*
X0040316Y0229607D01*
X0040291Y0229895D01*
X0040273Y0230183D01*
X0040263Y0230472D01*
X0040259Y0230761D01*
X0041640Y0242611D02*
X0062313Y0242611D01*
X0055935Y0248517D02*
X0048061Y0248517D01*
X0048061Y0254422D01*
X0055935Y0254422D02*
X0055935Y0248517D01*
X0044911Y0230800D02*
X0044913Y0230974D01*
X0044920Y0231148D01*
X0044930Y0231321D01*
X0044945Y0231495D01*
X0044964Y0231668D01*
X0044988Y0231840D01*
X0045015Y0232012D01*
X0045047Y0232183D01*
X0045083Y0232353D01*
X0045123Y0232522D01*
X0045168Y0232690D01*
X0045216Y0232857D01*
X0045269Y0233023D01*
X0045325Y0233188D01*
X0045386Y0233351D01*
X0045450Y0233512D01*
X0045519Y0233672D01*
X0045591Y0233830D01*
X0045668Y0233986D01*
X0045748Y0234141D01*
X0045832Y0234293D01*
X0045919Y0234443D01*
X0046011Y0234592D01*
X0046105Y0234737D01*
X0046204Y0234881D01*
X0046306Y0235022D01*
X0046411Y0235160D01*
X0046520Y0235296D01*
X0046632Y0235429D01*
X0046747Y0235559D01*
X0046865Y0235687D01*
X0046987Y0235811D01*
X0047111Y0235933D01*
X0047239Y0236051D01*
X0047369Y0236166D01*
X0047502Y0236278D01*
X0047638Y0236387D01*
X0047776Y0236492D01*
X0047917Y0236594D01*
X0048061Y0236693D01*
X0048206Y0236787D01*
X0048355Y0236879D01*
X0048505Y0236966D01*
X0048657Y0237050D01*
X0048812Y0237130D01*
X0048968Y0237207D01*
X0049126Y0237279D01*
X0049286Y0237348D01*
X0049447Y0237412D01*
X0049610Y0237473D01*
X0049775Y0237529D01*
X0049941Y0237582D01*
X0050108Y0237630D01*
X0050276Y0237675D01*
X0050445Y0237715D01*
X0050615Y0237751D01*
X0050786Y0237783D01*
X0050958Y0237810D01*
X0051130Y0237834D01*
X0051303Y0237853D01*
X0051477Y0237868D01*
X0051650Y0237878D01*
X0051824Y0237885D01*
X0051998Y0237887D01*
X0052172Y0237885D01*
X0052346Y0237878D01*
X0052519Y0237868D01*
X0052693Y0237853D01*
X0052866Y0237834D01*
X0053038Y0237810D01*
X0053210Y0237783D01*
X0053381Y0237751D01*
X0053551Y0237715D01*
X0053720Y0237675D01*
X0053888Y0237630D01*
X0054055Y0237582D01*
X0054221Y0237529D01*
X0054386Y0237473D01*
X0054549Y0237412D01*
X0054710Y0237348D01*
X0054870Y0237279D01*
X0055028Y0237207D01*
X0055184Y0237130D01*
X0055339Y0237050D01*
X0055491Y0236966D01*
X0055641Y0236879D01*
X0055790Y0236787D01*
X0055935Y0236693D01*
X0056079Y0236594D01*
X0056220Y0236492D01*
X0056358Y0236387D01*
X0056494Y0236278D01*
X0056627Y0236166D01*
X0056757Y0236051D01*
X0056885Y0235933D01*
X0057009Y0235811D01*
X0057131Y0235687D01*
X0057249Y0235559D01*
X0057364Y0235429D01*
X0057476Y0235296D01*
X0057585Y0235160D01*
X0057690Y0235022D01*
X0057792Y0234881D01*
X0057891Y0234737D01*
X0057985Y0234592D01*
X0058077Y0234443D01*
X0058164Y0234293D01*
X0058248Y0234141D01*
X0058328Y0233986D01*
X0058405Y0233830D01*
X0058477Y0233672D01*
X0058546Y0233512D01*
X0058610Y0233351D01*
X0058671Y0233188D01*
X0058727Y0233023D01*
X0058780Y0232857D01*
X0058828Y0232690D01*
X0058873Y0232522D01*
X0058913Y0232353D01*
X0058949Y0232183D01*
X0058981Y0232012D01*
X0059008Y0231840D01*
X0059032Y0231668D01*
X0059051Y0231495D01*
X0059066Y0231321D01*
X0059076Y0231148D01*
X0059083Y0230974D01*
X0059085Y0230800D01*
X0059083Y0230626D01*
X0059076Y0230452D01*
X0059066Y0230279D01*
X0059051Y0230105D01*
X0059032Y0229932D01*
X0059008Y0229760D01*
X0058981Y0229588D01*
X0058949Y0229417D01*
X0058913Y0229247D01*
X0058873Y0229078D01*
X0058828Y0228910D01*
X0058780Y0228743D01*
X0058727Y0228577D01*
X0058671Y0228412D01*
X0058610Y0228249D01*
X0058546Y0228088D01*
X0058477Y0227928D01*
X0058405Y0227770D01*
X0058328Y0227614D01*
X0058248Y0227459D01*
X0058164Y0227307D01*
X0058077Y0227157D01*
X0057985Y0227008D01*
X0057891Y0226863D01*
X0057792Y0226719D01*
X0057690Y0226578D01*
X0057585Y0226440D01*
X0057476Y0226304D01*
X0057364Y0226171D01*
X0057249Y0226041D01*
X0057131Y0225913D01*
X0057009Y0225789D01*
X0056885Y0225667D01*
X0056757Y0225549D01*
X0056627Y0225434D01*
X0056494Y0225322D01*
X0056358Y0225213D01*
X0056220Y0225108D01*
X0056079Y0225006D01*
X0055935Y0224907D01*
X0055790Y0224813D01*
X0055641Y0224721D01*
X0055491Y0224634D01*
X0055339Y0224550D01*
X0055184Y0224470D01*
X0055028Y0224393D01*
X0054870Y0224321D01*
X0054710Y0224252D01*
X0054549Y0224188D01*
X0054386Y0224127D01*
X0054221Y0224071D01*
X0054055Y0224018D01*
X0053888Y0223970D01*
X0053720Y0223925D01*
X0053551Y0223885D01*
X0053381Y0223849D01*
X0053210Y0223817D01*
X0053038Y0223790D01*
X0052866Y0223766D01*
X0052693Y0223747D01*
X0052519Y0223732D01*
X0052346Y0223722D01*
X0052172Y0223715D01*
X0051998Y0223713D01*
X0051824Y0223715D01*
X0051650Y0223722D01*
X0051477Y0223732D01*
X0051303Y0223747D01*
X0051130Y0223766D01*
X0050958Y0223790D01*
X0050786Y0223817D01*
X0050615Y0223849D01*
X0050445Y0223885D01*
X0050276Y0223925D01*
X0050108Y0223970D01*
X0049941Y0224018D01*
X0049775Y0224071D01*
X0049610Y0224127D01*
X0049447Y0224188D01*
X0049286Y0224252D01*
X0049126Y0224321D01*
X0048968Y0224393D01*
X0048812Y0224470D01*
X0048657Y0224550D01*
X0048505Y0224634D01*
X0048355Y0224721D01*
X0048206Y0224813D01*
X0048061Y0224907D01*
X0047917Y0225006D01*
X0047776Y0225108D01*
X0047638Y0225213D01*
X0047502Y0225322D01*
X0047369Y0225434D01*
X0047239Y0225549D01*
X0047111Y0225667D01*
X0046987Y0225789D01*
X0046865Y0225913D01*
X0046747Y0226041D01*
X0046632Y0226171D01*
X0046520Y0226304D01*
X0046411Y0226440D01*
X0046306Y0226578D01*
X0046204Y0226719D01*
X0046105Y0226863D01*
X0046011Y0227008D01*
X0045919Y0227157D01*
X0045832Y0227307D01*
X0045748Y0227459D01*
X0045668Y0227614D01*
X0045591Y0227770D01*
X0045519Y0227928D01*
X0045450Y0228088D01*
X0045386Y0228249D01*
X0045325Y0228412D01*
X0045269Y0228577D01*
X0045216Y0228743D01*
X0045168Y0228910D01*
X0045123Y0229078D01*
X0045083Y0229247D01*
X0045047Y0229417D01*
X0045015Y0229588D01*
X0044988Y0229760D01*
X0044964Y0229932D01*
X0044945Y0230105D01*
X0044930Y0230279D01*
X0044920Y0230452D01*
X0044913Y0230626D01*
X0044911Y0230800D01*
X0043887Y0230800D02*
X0043889Y0230999D01*
X0043897Y0231198D01*
X0043909Y0231397D01*
X0043926Y0231595D01*
X0043948Y0231793D01*
X0043975Y0231990D01*
X0044006Y0232187D01*
X0044043Y0232382D01*
X0044084Y0232577D01*
X0044130Y0232771D01*
X0044181Y0232963D01*
X0044236Y0233154D01*
X0044296Y0233344D01*
X0044361Y0233533D01*
X0044430Y0233719D01*
X0044504Y0233904D01*
X0044583Y0234087D01*
X0044666Y0234268D01*
X0044753Y0234447D01*
X0044845Y0234623D01*
X0044941Y0234798D01*
X0045041Y0234970D01*
X0045145Y0235139D01*
X0045254Y0235306D01*
X0045367Y0235470D01*
X0045483Y0235632D01*
X0045604Y0235790D01*
X0045728Y0235946D01*
X0045856Y0236098D01*
X0045988Y0236247D01*
X0046124Y0236393D01*
X0046263Y0236535D01*
X0046405Y0236674D01*
X0046551Y0236810D01*
X0046700Y0236942D01*
X0046852Y0237070D01*
X0047008Y0237194D01*
X0047166Y0237315D01*
X0047328Y0237431D01*
X0047492Y0237544D01*
X0047659Y0237653D01*
X0047828Y0237757D01*
X0048000Y0237857D01*
X0048175Y0237953D01*
X0048351Y0238045D01*
X0048530Y0238132D01*
X0048711Y0238215D01*
X0048894Y0238294D01*
X0049079Y0238368D01*
X0049265Y0238437D01*
X0049454Y0238502D01*
X0049644Y0238562D01*
X0049835Y0238617D01*
X0050027Y0238668D01*
X0050221Y0238714D01*
X0050416Y0238755D01*
X0050611Y0238792D01*
X0050808Y0238823D01*
X0051005Y0238850D01*
X0051203Y0238872D01*
X0051401Y0238889D01*
X0051600Y0238901D01*
X0051799Y0238909D01*
X0051998Y0238911D01*
X0052197Y0238909D01*
X0052396Y0238901D01*
X0052595Y0238889D01*
X0052793Y0238872D01*
X0052991Y0238850D01*
X0053188Y0238823D01*
X0053385Y0238792D01*
X0053580Y0238755D01*
X0053775Y0238714D01*
X0053969Y0238668D01*
X0054161Y0238617D01*
X0054352Y0238562D01*
X0054542Y0238502D01*
X0054731Y0238437D01*
X0054917Y0238368D01*
X0055102Y0238294D01*
X0055285Y0238215D01*
X0055466Y0238132D01*
X0055645Y0238045D01*
X0055821Y0237953D01*
X0055996Y0237857D01*
X0056168Y0237757D01*
X0056337Y0237653D01*
X0056504Y0237544D01*
X0056668Y0237431D01*
X0056830Y0237315D01*
X0056988Y0237194D01*
X0057144Y0237070D01*
X0057296Y0236942D01*
X0057445Y0236810D01*
X0057591Y0236674D01*
X0057733Y0236535D01*
X0057872Y0236393D01*
X0058008Y0236247D01*
X0058140Y0236098D01*
X0058268Y0235946D01*
X0058392Y0235790D01*
X0058513Y0235632D01*
X0058629Y0235470D01*
X0058742Y0235306D01*
X0058851Y0235139D01*
X0058955Y0234970D01*
X0059055Y0234798D01*
X0059151Y0234623D01*
X0059243Y0234447D01*
X0059330Y0234268D01*
X0059413Y0234087D01*
X0059492Y0233904D01*
X0059566Y0233719D01*
X0059635Y0233533D01*
X0059700Y0233344D01*
X0059760Y0233154D01*
X0059815Y0232963D01*
X0059866Y0232771D01*
X0059912Y0232577D01*
X0059953Y0232382D01*
X0059990Y0232187D01*
X0060021Y0231990D01*
X0060048Y0231793D01*
X0060070Y0231595D01*
X0060087Y0231397D01*
X0060099Y0231198D01*
X0060107Y0230999D01*
X0060109Y0230800D01*
X0060107Y0230601D01*
X0060099Y0230402D01*
X0060087Y0230203D01*
X0060070Y0230005D01*
X0060048Y0229807D01*
X0060021Y0229610D01*
X0059990Y0229413D01*
X0059953Y0229218D01*
X0059912Y0229023D01*
X0059866Y0228829D01*
X0059815Y0228637D01*
X0059760Y0228446D01*
X0059700Y0228256D01*
X0059635Y0228067D01*
X0059566Y0227881D01*
X0059492Y0227696D01*
X0059413Y0227513D01*
X0059330Y0227332D01*
X0059243Y0227153D01*
X0059151Y0226977D01*
X0059055Y0226802D01*
X0058955Y0226630D01*
X0058851Y0226461D01*
X0058742Y0226294D01*
X0058629Y0226130D01*
X0058513Y0225968D01*
X0058392Y0225810D01*
X0058268Y0225654D01*
X0058140Y0225502D01*
X0058008Y0225353D01*
X0057872Y0225207D01*
X0057733Y0225065D01*
X0057591Y0224926D01*
X0057445Y0224790D01*
X0057296Y0224658D01*
X0057144Y0224530D01*
X0056988Y0224406D01*
X0056830Y0224285D01*
X0056668Y0224169D01*
X0056504Y0224056D01*
X0056337Y0223947D01*
X0056168Y0223843D01*
X0055996Y0223743D01*
X0055821Y0223647D01*
X0055645Y0223555D01*
X0055466Y0223468D01*
X0055285Y0223385D01*
X0055102Y0223306D01*
X0054917Y0223232D01*
X0054731Y0223163D01*
X0054542Y0223098D01*
X0054352Y0223038D01*
X0054161Y0222983D01*
X0053969Y0222932D01*
X0053775Y0222886D01*
X0053580Y0222845D01*
X0053385Y0222808D01*
X0053188Y0222777D01*
X0052991Y0222750D01*
X0052793Y0222728D01*
X0052595Y0222711D01*
X0052396Y0222699D01*
X0052197Y0222691D01*
X0051998Y0222689D01*
X0051799Y0222691D01*
X0051600Y0222699D01*
X0051401Y0222711D01*
X0051203Y0222728D01*
X0051005Y0222750D01*
X0050808Y0222777D01*
X0050611Y0222808D01*
X0050416Y0222845D01*
X0050221Y0222886D01*
X0050027Y0222932D01*
X0049835Y0222983D01*
X0049644Y0223038D01*
X0049454Y0223098D01*
X0049265Y0223163D01*
X0049079Y0223232D01*
X0048894Y0223306D01*
X0048711Y0223385D01*
X0048530Y0223468D01*
X0048351Y0223555D01*
X0048175Y0223647D01*
X0048000Y0223743D01*
X0047828Y0223843D01*
X0047659Y0223947D01*
X0047492Y0224056D01*
X0047328Y0224169D01*
X0047166Y0224285D01*
X0047008Y0224406D01*
X0046852Y0224530D01*
X0046700Y0224658D01*
X0046551Y0224790D01*
X0046405Y0224926D01*
X0046263Y0225065D01*
X0046124Y0225207D01*
X0045988Y0225353D01*
X0045856Y0225502D01*
X0045728Y0225654D01*
X0045604Y0225810D01*
X0045483Y0225968D01*
X0045367Y0226130D01*
X0045254Y0226294D01*
X0045145Y0226461D01*
X0045041Y0226630D01*
X0044941Y0226802D01*
X0044845Y0226977D01*
X0044753Y0227153D01*
X0044666Y0227332D01*
X0044583Y0227513D01*
X0044504Y0227696D01*
X0044430Y0227881D01*
X0044361Y0228067D01*
X0044296Y0228256D01*
X0044236Y0228446D01*
X0044181Y0228637D01*
X0044130Y0228829D01*
X0044084Y0229023D01*
X0044043Y0229218D01*
X0044006Y0229413D01*
X0043975Y0229610D01*
X0043948Y0229807D01*
X0043926Y0230005D01*
X0043909Y0230203D01*
X0043897Y0230402D01*
X0043889Y0230601D01*
X0043887Y0230800D01*
X0041011Y0230800D02*
X0041014Y0231070D01*
X0041024Y0231339D01*
X0041041Y0231608D01*
X0041064Y0231877D01*
X0041094Y0232145D01*
X0041130Y0232412D01*
X0041173Y0232678D01*
X0041222Y0232943D01*
X0041278Y0233207D01*
X0041340Y0233470D01*
X0041409Y0233730D01*
X0041484Y0233989D01*
X0041566Y0234246D01*
X0041653Y0234501D01*
X0041747Y0234754D01*
X0041847Y0235005D01*
X0041954Y0235252D01*
X0042066Y0235498D01*
X0042184Y0235740D01*
X0042308Y0235979D01*
X0042438Y0236215D01*
X0042574Y0236448D01*
X0042716Y0236678D01*
X0042863Y0236904D01*
X0043015Y0237126D01*
X0043173Y0237345D01*
X0043336Y0237560D01*
X0043505Y0237770D01*
X0043679Y0237976D01*
X0043857Y0238178D01*
X0044041Y0238376D01*
X0044229Y0238569D01*
X0044422Y0238757D01*
X0044620Y0238941D01*
X0044822Y0239119D01*
X0045028Y0239293D01*
X0045238Y0239462D01*
X0045453Y0239625D01*
X0045672Y0239783D01*
X0045894Y0239935D01*
X0046120Y0240082D01*
X0046350Y0240224D01*
X0046583Y0240360D01*
X0046819Y0240490D01*
X0047058Y0240614D01*
X0047300Y0240732D01*
X0047546Y0240844D01*
X0047793Y0240951D01*
X0048044Y0241051D01*
X0048297Y0241145D01*
X0048552Y0241232D01*
X0048809Y0241314D01*
X0049068Y0241389D01*
X0049328Y0241458D01*
X0049591Y0241520D01*
X0049855Y0241576D01*
X0050120Y0241625D01*
X0050386Y0241668D01*
X0050653Y0241704D01*
X0050921Y0241734D01*
X0051190Y0241757D01*
X0051459Y0241774D01*
X0051728Y0241784D01*
X0051998Y0241787D01*
X0052268Y0241784D01*
X0052537Y0241774D01*
X0052806Y0241757D01*
X0053075Y0241734D01*
X0053343Y0241704D01*
X0053610Y0241668D01*
X0053876Y0241625D01*
X0054141Y0241576D01*
X0054405Y0241520D01*
X0054668Y0241458D01*
X0054928Y0241389D01*
X0055187Y0241314D01*
X0055444Y0241232D01*
X0055699Y0241145D01*
X0055952Y0241051D01*
X0056203Y0240951D01*
X0056450Y0240844D01*
X0056696Y0240732D01*
X0056938Y0240614D01*
X0057177Y0240490D01*
X0057413Y0240360D01*
X0057646Y0240224D01*
X0057876Y0240082D01*
X0058102Y0239935D01*
X0058324Y0239783D01*
X0058543Y0239625D01*
X0058758Y0239462D01*
X0058968Y0239293D01*
X0059174Y0239119D01*
X0059376Y0238941D01*
X0059574Y0238757D01*
X0059767Y0238569D01*
X0059955Y0238376D01*
X0060139Y0238178D01*
X0060317Y0237976D01*
X0060491Y0237770D01*
X0060660Y0237560D01*
X0060823Y0237345D01*
X0060981Y0237126D01*
X0061133Y0236904D01*
X0061280Y0236678D01*
X0061422Y0236448D01*
X0061558Y0236215D01*
X0061688Y0235979D01*
X0061812Y0235740D01*
X0061930Y0235498D01*
X0062042Y0235252D01*
X0062149Y0235005D01*
X0062249Y0234754D01*
X0062343Y0234501D01*
X0062430Y0234246D01*
X0062512Y0233989D01*
X0062587Y0233730D01*
X0062656Y0233470D01*
X0062718Y0233207D01*
X0062774Y0232943D01*
X0062823Y0232678D01*
X0062866Y0232412D01*
X0062902Y0232145D01*
X0062932Y0231877D01*
X0062955Y0231608D01*
X0062972Y0231339D01*
X0062982Y0231070D01*
X0062985Y0230800D01*
X0062982Y0230530D01*
X0062972Y0230261D01*
X0062955Y0229992D01*
X0062932Y0229723D01*
X0062902Y0229455D01*
X0062866Y0229188D01*
X0062823Y0228922D01*
X0062774Y0228657D01*
X0062718Y0228393D01*
X0062656Y0228130D01*
X0062587Y0227870D01*
X0062512Y0227611D01*
X0062430Y0227354D01*
X0062343Y0227099D01*
X0062249Y0226846D01*
X0062149Y0226595D01*
X0062042Y0226348D01*
X0061930Y0226102D01*
X0061812Y0225860D01*
X0061688Y0225621D01*
X0061558Y0225385D01*
X0061422Y0225152D01*
X0061280Y0224922D01*
X0061133Y0224696D01*
X0060981Y0224474D01*
X0060823Y0224255D01*
X0060660Y0224040D01*
X0060491Y0223830D01*
X0060317Y0223624D01*
X0060139Y0223422D01*
X0059955Y0223224D01*
X0059767Y0223031D01*
X0059574Y0222843D01*
X0059376Y0222659D01*
X0059174Y0222481D01*
X0058968Y0222307D01*
X0058758Y0222138D01*
X0058543Y0221975D01*
X0058324Y0221817D01*
X0058102Y0221665D01*
X0057876Y0221518D01*
X0057646Y0221376D01*
X0057413Y0221240D01*
X0057177Y0221110D01*
X0056938Y0220986D01*
X0056696Y0220868D01*
X0056450Y0220756D01*
X0056203Y0220649D01*
X0055952Y0220549D01*
X0055699Y0220455D01*
X0055444Y0220368D01*
X0055187Y0220286D01*
X0054928Y0220211D01*
X0054668Y0220142D01*
X0054405Y0220080D01*
X0054141Y0220024D01*
X0053876Y0219975D01*
X0053610Y0219932D01*
X0053343Y0219896D01*
X0053075Y0219866D01*
X0052806Y0219843D01*
X0052537Y0219826D01*
X0052268Y0219816D01*
X0051998Y0219813D01*
X0051728Y0219816D01*
X0051459Y0219826D01*
X0051190Y0219843D01*
X0050921Y0219866D01*
X0050653Y0219896D01*
X0050386Y0219932D01*
X0050120Y0219975D01*
X0049855Y0220024D01*
X0049591Y0220080D01*
X0049328Y0220142D01*
X0049068Y0220211D01*
X0048809Y0220286D01*
X0048552Y0220368D01*
X0048297Y0220455D01*
X0048044Y0220549D01*
X0047793Y0220649D01*
X0047546Y0220756D01*
X0047300Y0220868D01*
X0047058Y0220986D01*
X0046819Y0221110D01*
X0046583Y0221240D01*
X0046350Y0221376D01*
X0046120Y0221518D01*
X0045894Y0221665D01*
X0045672Y0221817D01*
X0045453Y0221975D01*
X0045238Y0222138D01*
X0045028Y0222307D01*
X0044822Y0222481D01*
X0044620Y0222659D01*
X0044422Y0222843D01*
X0044229Y0223031D01*
X0044041Y0223224D01*
X0043857Y0223422D01*
X0043679Y0223624D01*
X0043505Y0223830D01*
X0043336Y0224040D01*
X0043173Y0224255D01*
X0043015Y0224474D01*
X0042863Y0224696D01*
X0042716Y0224922D01*
X0042574Y0225152D01*
X0042438Y0225385D01*
X0042308Y0225621D01*
X0042184Y0225860D01*
X0042066Y0226102D01*
X0041954Y0226348D01*
X0041847Y0226595D01*
X0041747Y0226846D01*
X0041653Y0227099D01*
X0041566Y0227354D01*
X0041484Y0227611D01*
X0041409Y0227870D01*
X0041340Y0228130D01*
X0041278Y0228393D01*
X0041222Y0228657D01*
X0041173Y0228922D01*
X0041130Y0229188D01*
X0041094Y0229455D01*
X0041064Y0229723D01*
X0041041Y0229992D01*
X0041024Y0230261D01*
X0041014Y0230530D01*
X0041011Y0230800D01*
X0117198Y0170604D02*
X0117198Y0166000D01*
X0117198Y0167535D02*
X0119500Y0167535D01*
X0120267Y0168302D01*
X0120267Y0169837D01*
X0119500Y0170604D01*
X0117198Y0170604D01*
X0118733Y0167535D02*
X0120267Y0166000D01*
X0121802Y0166000D02*
X0121802Y0166767D01*
X0124871Y0169837D01*
X0124871Y0170604D01*
X0121802Y0170604D01*
X0122569Y0164604D02*
X0124104Y0164604D01*
X0124871Y0163837D01*
X0121802Y0160767D01*
X0122569Y0160000D01*
X0124104Y0160000D01*
X0124871Y0160767D01*
X0124871Y0163837D01*
X0126406Y0164604D02*
X0126406Y0160000D01*
X0126406Y0161535D02*
X0128708Y0163069D01*
X0130243Y0162302D02*
X0132545Y0162302D01*
X0133312Y0161535D01*
X0133312Y0160767D01*
X0132545Y0160000D01*
X0130243Y0160000D01*
X0130243Y0164604D01*
X0132545Y0164604D01*
X0133312Y0163837D01*
X0133312Y0163069D01*
X0132545Y0162302D01*
X0134079Y0166000D02*
X0132545Y0167535D01*
X0133312Y0167535D02*
X0131010Y0167535D01*
X0131010Y0166000D02*
X0131010Y0170604D01*
X0133312Y0170604D01*
X0134079Y0169837D01*
X0134079Y0168302D01*
X0133312Y0167535D01*
X0129475Y0165233D02*
X0126406Y0165233D01*
X0126406Y0161535D02*
X0128708Y0160000D01*
X0121802Y0160767D02*
X0121802Y0163837D01*
X0122569Y0164604D01*
X0118733Y0164604D02*
X0118733Y0160000D01*
X0120267Y0160000D02*
X0117198Y0160000D01*
X0117198Y0163069D02*
X0118733Y0164604D01*
X0145311Y0206315D02*
X0145311Y0210919D01*
X0147613Y0210919D01*
X0148380Y0210152D01*
X0148380Y0208617D01*
X0147613Y0207850D01*
X0145311Y0207850D01*
X0146845Y0207850D02*
X0148380Y0206315D01*
X0138278Y0213083D02*
X0138278Y0217020D01*
X0136309Y0217020D01*
X0136309Y0213083D01*
X0136309Y0217020D02*
X0135935Y0217020D01*
X0135935Y0218989D01*
X0142313Y0218989D02*
X0121640Y0218989D01*
X0125719Y0217020D02*
X0125698Y0213100D01*
X0127687Y0213083D02*
X0127687Y0217020D01*
X0128061Y0217020D01*
X0128061Y0218989D01*
X0127687Y0217020D02*
X0125719Y0217020D01*
X0131998Y0226863D02*
X0131998Y0234737D01*
X0142399Y0242587D02*
X0142681Y0242337D01*
X0142957Y0242081D01*
X0143226Y0241817D01*
X0143489Y0241547D01*
X0143745Y0241271D01*
X0143995Y0240989D01*
X0144237Y0240701D01*
X0144473Y0240407D01*
X0144701Y0240107D01*
X0144922Y0239802D01*
X0145136Y0239492D01*
X0145342Y0239177D01*
X0145541Y0238856D01*
X0145731Y0238531D01*
X0145914Y0238202D01*
X0146088Y0237868D01*
X0146255Y0237530D01*
X0146413Y0237188D01*
X0146563Y0236843D01*
X0146704Y0236493D01*
X0146837Y0236141D01*
X0146962Y0235785D01*
X0147078Y0235427D01*
X0147185Y0235066D01*
X0147283Y0234702D01*
X0147372Y0234336D01*
X0147453Y0233968D01*
X0147525Y0233598D01*
X0147587Y0233227D01*
X0147641Y0232854D01*
X0147686Y0232480D01*
X0147721Y0232105D01*
X0147748Y0231729D01*
X0147765Y0231353D01*
X0147773Y0230976D01*
X0147772Y0230599D01*
X0147762Y0230223D01*
X0147743Y0229846D01*
X0147715Y0229471D01*
X0147678Y0229096D01*
X0147631Y0228722D01*
X0147576Y0228349D01*
X0147512Y0227978D01*
X0147438Y0227609D01*
X0147356Y0227241D01*
X0147265Y0226876D01*
X0147165Y0226512D01*
X0147056Y0226152D01*
X0146938Y0225794D01*
X0146812Y0225439D01*
X0146678Y0225087D01*
X0146535Y0224738D01*
X0146383Y0224394D01*
X0146223Y0224052D01*
X0146055Y0223715D01*
X0145879Y0223382D01*
X0145695Y0223054D01*
X0145503Y0222729D01*
X0145303Y0222410D01*
X0145095Y0222096D01*
X0144880Y0221786D01*
X0144658Y0221482D01*
X0144428Y0221184D01*
X0144191Y0220891D01*
X0143947Y0220604D01*
X0143696Y0220323D01*
X0143439Y0220048D01*
X0143174Y0219779D01*
X0142904Y0219517D01*
X0142627Y0219262D01*
X0142344Y0219013D01*
X0135935Y0230800D02*
X0128061Y0230800D01*
X0121730Y0242627D02*
X0121446Y0242379D01*
X0121167Y0242124D01*
X0120895Y0241862D01*
X0120630Y0241594D01*
X0120371Y0241320D01*
X0120119Y0241039D01*
X0119873Y0240752D01*
X0119635Y0240460D01*
X0119404Y0240161D01*
X0119180Y0239857D01*
X0118963Y0239548D01*
X0118755Y0239234D01*
X0118553Y0238915D01*
X0118360Y0238591D01*
X0118174Y0238262D01*
X0117997Y0237929D01*
X0117827Y0237592D01*
X0117666Y0237251D01*
X0117513Y0236906D01*
X0117368Y0236557D01*
X0117232Y0236205D01*
X0117105Y0235850D01*
X0116986Y0235492D01*
X0116876Y0235131D01*
X0116774Y0234767D01*
X0116682Y0234402D01*
X0116598Y0234034D01*
X0116523Y0233664D01*
X0116458Y0233292D01*
X0116401Y0232919D01*
X0116353Y0232545D01*
X0116315Y0232169D01*
X0116285Y0231793D01*
X0116265Y0231416D01*
X0116253Y0231039D01*
X0116251Y0230662D01*
X0116258Y0230284D01*
X0116274Y0229907D01*
X0116300Y0229531D01*
X0116334Y0229155D01*
X0116378Y0228780D01*
X0116430Y0228406D01*
X0116492Y0228034D01*
X0116562Y0227663D01*
X0116642Y0227294D01*
X0116730Y0226928D01*
X0116827Y0226563D01*
X0116933Y0226201D01*
X0117048Y0225841D01*
X0117172Y0225485D01*
X0117304Y0225131D01*
X0117444Y0224781D01*
X0117593Y0224434D01*
X0117751Y0224091D01*
X0117916Y0223752D01*
X0118090Y0223417D01*
X0118272Y0223086D01*
X0118462Y0222760D01*
X0118659Y0222439D01*
X0118865Y0222122D01*
X0119078Y0221811D01*
X0119298Y0221504D01*
X0119526Y0221203D01*
X0119761Y0220908D01*
X0120003Y0220619D01*
X0120252Y0220335D01*
X0120508Y0220058D01*
X0120770Y0219787D01*
X0121039Y0219522D01*
X0121315Y0219264D01*
X0121596Y0219012D01*
X0120260Y0230761D02*
X0120264Y0231050D01*
X0120274Y0231339D01*
X0120292Y0231627D01*
X0120317Y0231915D01*
X0120349Y0232203D01*
X0120387Y0232489D01*
X0120433Y0232775D01*
X0120486Y0233059D01*
X0120546Y0233342D01*
X0120613Y0233623D01*
X0120687Y0233902D01*
X0120767Y0234180D01*
X0120854Y0234456D01*
X0120948Y0234729D01*
X0121049Y0235000D01*
X0121157Y0235268D01*
X0121270Y0235534D01*
X0121391Y0235797D01*
X0121518Y0236057D01*
X0121651Y0236313D01*
X0121790Y0236566D01*
X0121936Y0236816D01*
X0122087Y0237062D01*
X0122245Y0237305D01*
X0122408Y0237543D01*
X0122578Y0237777D01*
X0122753Y0238007D01*
X0122933Y0238233D01*
X0123120Y0238454D01*
X0123311Y0238671D01*
X0123508Y0238882D01*
X0123710Y0239089D01*
X0123917Y0239291D01*
X0124128Y0239488D01*
X0124345Y0239679D01*
X0124566Y0239866D01*
X0124792Y0240046D01*
X0125022Y0240221D01*
X0125256Y0240391D01*
X0125494Y0240554D01*
X0125737Y0240712D01*
X0125983Y0240863D01*
X0126233Y0241009D01*
X0126486Y0241148D01*
X0126742Y0241281D01*
X0127002Y0241408D01*
X0127265Y0241529D01*
X0127531Y0241642D01*
X0127799Y0241750D01*
X0128070Y0241851D01*
X0128343Y0241945D01*
X0128619Y0242032D01*
X0128897Y0242112D01*
X0129176Y0242186D01*
X0129457Y0242253D01*
X0129740Y0242313D01*
X0130024Y0242366D01*
X0130310Y0242412D01*
X0130596Y0242450D01*
X0130884Y0242482D01*
X0131172Y0242507D01*
X0131460Y0242525D01*
X0131749Y0242535D01*
X0132038Y0242539D01*
X0132327Y0242535D01*
X0132616Y0242525D01*
X0132904Y0242507D01*
X0133192Y0242482D01*
X0133480Y0242450D01*
X0133766Y0242412D01*
X0134052Y0242366D01*
X0134336Y0242313D01*
X0134619Y0242253D01*
X0134900Y0242186D01*
X0135179Y0242112D01*
X0135457Y0242032D01*
X0135733Y0241945D01*
X0136006Y0241851D01*
X0136277Y0241750D01*
X0136545Y0241642D01*
X0136811Y0241529D01*
X0137074Y0241408D01*
X0137334Y0241281D01*
X0137590Y0241148D01*
X0137843Y0241009D01*
X0138093Y0240863D01*
X0138339Y0240712D01*
X0138582Y0240554D01*
X0138820Y0240391D01*
X0139054Y0240221D01*
X0139284Y0240046D01*
X0139510Y0239866D01*
X0139731Y0239679D01*
X0139948Y0239488D01*
X0140159Y0239291D01*
X0140366Y0239089D01*
X0140568Y0238882D01*
X0140765Y0238671D01*
X0140956Y0238454D01*
X0141143Y0238233D01*
X0141323Y0238007D01*
X0141498Y0237777D01*
X0141668Y0237543D01*
X0141831Y0237305D01*
X0141989Y0237062D01*
X0142140Y0236816D01*
X0142286Y0236566D01*
X0142425Y0236313D01*
X0142558Y0236057D01*
X0142685Y0235797D01*
X0142806Y0235534D01*
X0142919Y0235268D01*
X0143027Y0235000D01*
X0143128Y0234729D01*
X0143222Y0234456D01*
X0143309Y0234180D01*
X0143389Y0233902D01*
X0143463Y0233623D01*
X0143530Y0233342D01*
X0143590Y0233059D01*
X0143643Y0232775D01*
X0143689Y0232489D01*
X0143727Y0232203D01*
X0143759Y0231915D01*
X0143784Y0231627D01*
X0143802Y0231339D01*
X0143812Y0231050D01*
X0143816Y0230761D01*
X0143812Y0230472D01*
X0143802Y0230183D01*
X0143784Y0229895D01*
X0143759Y0229607D01*
X0143727Y0229319D01*
X0143689Y0229033D01*
X0143643Y0228747D01*
X0143590Y0228463D01*
X0143530Y0228180D01*
X0143463Y0227899D01*
X0143389Y0227620D01*
X0143309Y0227342D01*
X0143222Y0227066D01*
X0143128Y0226793D01*
X0143027Y0226522D01*
X0142919Y0226254D01*
X0142806Y0225988D01*
X0142685Y0225725D01*
X0142558Y0225465D01*
X0142425Y0225209D01*
X0142286Y0224956D01*
X0142140Y0224706D01*
X0141989Y0224460D01*
X0141831Y0224217D01*
X0141668Y0223979D01*
X0141498Y0223745D01*
X0141323Y0223515D01*
X0141143Y0223289D01*
X0140956Y0223068D01*
X0140765Y0222851D01*
X0140568Y0222640D01*
X0140366Y0222433D01*
X0140159Y0222231D01*
X0139948Y0222034D01*
X0139731Y0221843D01*
X0139510Y0221656D01*
X0139284Y0221476D01*
X0139054Y0221301D01*
X0138820Y0221131D01*
X0138582Y0220968D01*
X0138339Y0220810D01*
X0138093Y0220659D01*
X0137843Y0220513D01*
X0137590Y0220374D01*
X0137334Y0220241D01*
X0137074Y0220114D01*
X0136811Y0219993D01*
X0136545Y0219880D01*
X0136277Y0219772D01*
X0136006Y0219671D01*
X0135733Y0219577D01*
X0135457Y0219490D01*
X0135179Y0219410D01*
X0134900Y0219336D01*
X0134619Y0219269D01*
X0134336Y0219209D01*
X0134052Y0219156D01*
X0133766Y0219110D01*
X0133480Y0219072D01*
X0133192Y0219040D01*
X0132904Y0219015D01*
X0132616Y0218997D01*
X0132327Y0218987D01*
X0132038Y0218983D01*
X0131749Y0218987D01*
X0131460Y0218997D01*
X0131172Y0219015D01*
X0130884Y0219040D01*
X0130596Y0219072D01*
X0130310Y0219110D01*
X0130024Y0219156D01*
X0129740Y0219209D01*
X0129457Y0219269D01*
X0129176Y0219336D01*
X0128897Y0219410D01*
X0128619Y0219490D01*
X0128343Y0219577D01*
X0128070Y0219671D01*
X0127799Y0219772D01*
X0127531Y0219880D01*
X0127265Y0219993D01*
X0127002Y0220114D01*
X0126742Y0220241D01*
X0126486Y0220374D01*
X0126233Y0220513D01*
X0125983Y0220659D01*
X0125737Y0220810D01*
X0125494Y0220968D01*
X0125256Y0221131D01*
X0125022Y0221301D01*
X0124792Y0221476D01*
X0124566Y0221656D01*
X0124345Y0221843D01*
X0124128Y0222034D01*
X0123917Y0222231D01*
X0123710Y0222433D01*
X0123508Y0222640D01*
X0123311Y0222851D01*
X0123120Y0223068D01*
X0122933Y0223289D01*
X0122753Y0223515D01*
X0122578Y0223745D01*
X0122408Y0223979D01*
X0122245Y0224217D01*
X0122087Y0224460D01*
X0121936Y0224706D01*
X0121790Y0224956D01*
X0121651Y0225209D01*
X0121518Y0225465D01*
X0121391Y0225725D01*
X0121270Y0225988D01*
X0121157Y0226254D01*
X0121049Y0226522D01*
X0120948Y0226793D01*
X0120854Y0227066D01*
X0120767Y0227342D01*
X0120687Y0227620D01*
X0120613Y0227899D01*
X0120546Y0228180D01*
X0120486Y0228463D01*
X0120433Y0228747D01*
X0120387Y0229033D01*
X0120349Y0229319D01*
X0120317Y0229607D01*
X0120292Y0229895D01*
X0120274Y0230183D01*
X0120264Y0230472D01*
X0120260Y0230761D01*
X0121640Y0242611D02*
X0142313Y0242611D01*
X0135935Y0248517D02*
X0128061Y0248517D01*
X0128061Y0254422D01*
X0135935Y0254422D02*
X0135935Y0248517D01*
X0124911Y0230800D02*
X0124913Y0230974D01*
X0124920Y0231148D01*
X0124930Y0231321D01*
X0124945Y0231495D01*
X0124964Y0231668D01*
X0124988Y0231840D01*
X0125015Y0232012D01*
X0125047Y0232183D01*
X0125083Y0232353D01*
X0125123Y0232522D01*
X0125168Y0232690D01*
X0125216Y0232857D01*
X0125269Y0233023D01*
X0125325Y0233188D01*
X0125386Y0233351D01*
X0125450Y0233512D01*
X0125519Y0233672D01*
X0125591Y0233830D01*
X0125668Y0233986D01*
X0125748Y0234141D01*
X0125832Y0234293D01*
X0125919Y0234443D01*
X0126011Y0234592D01*
X0126105Y0234737D01*
X0126204Y0234881D01*
X0126306Y0235022D01*
X0126411Y0235160D01*
X0126520Y0235296D01*
X0126632Y0235429D01*
X0126747Y0235559D01*
X0126865Y0235687D01*
X0126987Y0235811D01*
X0127111Y0235933D01*
X0127239Y0236051D01*
X0127369Y0236166D01*
X0127502Y0236278D01*
X0127638Y0236387D01*
X0127776Y0236492D01*
X0127917Y0236594D01*
X0128061Y0236693D01*
X0128206Y0236787D01*
X0128355Y0236879D01*
X0128505Y0236966D01*
X0128657Y0237050D01*
X0128812Y0237130D01*
X0128968Y0237207D01*
X0129126Y0237279D01*
X0129286Y0237348D01*
X0129447Y0237412D01*
X0129610Y0237473D01*
X0129775Y0237529D01*
X0129941Y0237582D01*
X0130108Y0237630D01*
X0130276Y0237675D01*
X0130445Y0237715D01*
X0130615Y0237751D01*
X0130786Y0237783D01*
X0130958Y0237810D01*
X0131130Y0237834D01*
X0131303Y0237853D01*
X0131477Y0237868D01*
X0131650Y0237878D01*
X0131824Y0237885D01*
X0131998Y0237887D01*
X0132172Y0237885D01*
X0132346Y0237878D01*
X0132519Y0237868D01*
X0132693Y0237853D01*
X0132866Y0237834D01*
X0133038Y0237810D01*
X0133210Y0237783D01*
X0133381Y0237751D01*
X0133551Y0237715D01*
X0133720Y0237675D01*
X0133888Y0237630D01*
X0134055Y0237582D01*
X0134221Y0237529D01*
X0134386Y0237473D01*
X0134549Y0237412D01*
X0134710Y0237348D01*
X0134870Y0237279D01*
X0135028Y0237207D01*
X0135184Y0237130D01*
X0135339Y0237050D01*
X0135491Y0236966D01*
X0135641Y0236879D01*
X0135790Y0236787D01*
X0135935Y0236693D01*
X0136079Y0236594D01*
X0136220Y0236492D01*
X0136358Y0236387D01*
X0136494Y0236278D01*
X0136627Y0236166D01*
X0136757Y0236051D01*
X0136885Y0235933D01*
X0137009Y0235811D01*
X0137131Y0235687D01*
X0137249Y0235559D01*
X0137364Y0235429D01*
X0137476Y0235296D01*
X0137585Y0235160D01*
X0137690Y0235022D01*
X0137792Y0234881D01*
X0137891Y0234737D01*
X0137985Y0234592D01*
X0138077Y0234443D01*
X0138164Y0234293D01*
X0138248Y0234141D01*
X0138328Y0233986D01*
X0138405Y0233830D01*
X0138477Y0233672D01*
X0138546Y0233512D01*
X0138610Y0233351D01*
X0138671Y0233188D01*
X0138727Y0233023D01*
X0138780Y0232857D01*
X0138828Y0232690D01*
X0138873Y0232522D01*
X0138913Y0232353D01*
X0138949Y0232183D01*
X0138981Y0232012D01*
X0139008Y0231840D01*
X0139032Y0231668D01*
X0139051Y0231495D01*
X0139066Y0231321D01*
X0139076Y0231148D01*
X0139083Y0230974D01*
X0139085Y0230800D01*
X0139083Y0230626D01*
X0139076Y0230452D01*
X0139066Y0230279D01*
X0139051Y0230105D01*
X0139032Y0229932D01*
X0139008Y0229760D01*
X0138981Y0229588D01*
X0138949Y0229417D01*
X0138913Y0229247D01*
X0138873Y0229078D01*
X0138828Y0228910D01*
X0138780Y0228743D01*
X0138727Y0228577D01*
X0138671Y0228412D01*
X0138610Y0228249D01*
X0138546Y0228088D01*
X0138477Y0227928D01*
X0138405Y0227770D01*
X0138328Y0227614D01*
X0138248Y0227459D01*
X0138164Y0227307D01*
X0138077Y0227157D01*
X0137985Y0227008D01*
X0137891Y0226863D01*
X0137792Y0226719D01*
X0137690Y0226578D01*
X0137585Y0226440D01*
X0137476Y0226304D01*
X0137364Y0226171D01*
X0137249Y0226041D01*
X0137131Y0225913D01*
X0137009Y0225789D01*
X0136885Y0225667D01*
X0136757Y0225549D01*
X0136627Y0225434D01*
X0136494Y0225322D01*
X0136358Y0225213D01*
X0136220Y0225108D01*
X0136079Y0225006D01*
X0135935Y0224907D01*
X0135790Y0224813D01*
X0135641Y0224721D01*
X0135491Y0224634D01*
X0135339Y0224550D01*
X0135184Y0224470D01*
X0135028Y0224393D01*
X0134870Y0224321D01*
X0134710Y0224252D01*
X0134549Y0224188D01*
X0134386Y0224127D01*
X0134221Y0224071D01*
X0134055Y0224018D01*
X0133888Y0223970D01*
X0133720Y0223925D01*
X0133551Y0223885D01*
X0133381Y0223849D01*
X0133210Y0223817D01*
X0133038Y0223790D01*
X0132866Y0223766D01*
X0132693Y0223747D01*
X0132519Y0223732D01*
X0132346Y0223722D01*
X0132172Y0223715D01*
X0131998Y0223713D01*
X0131824Y0223715D01*
X0131650Y0223722D01*
X0131477Y0223732D01*
X0131303Y0223747D01*
X0131130Y0223766D01*
X0130958Y0223790D01*
X0130786Y0223817D01*
X0130615Y0223849D01*
X0130445Y0223885D01*
X0130276Y0223925D01*
X0130108Y0223970D01*
X0129941Y0224018D01*
X0129775Y0224071D01*
X0129610Y0224127D01*
X0129447Y0224188D01*
X0129286Y0224252D01*
X0129126Y0224321D01*
X0128968Y0224393D01*
X0128812Y0224470D01*
X0128657Y0224550D01*
X0128505Y0224634D01*
X0128355Y0224721D01*
X0128206Y0224813D01*
X0128061Y0224907D01*
X0127917Y0225006D01*
X0127776Y0225108D01*
X0127638Y0225213D01*
X0127502Y0225322D01*
X0127369Y0225434D01*
X0127239Y0225549D01*
X0127111Y0225667D01*
X0126987Y0225789D01*
X0126865Y0225913D01*
X0126747Y0226041D01*
X0126632Y0226171D01*
X0126520Y0226304D01*
X0126411Y0226440D01*
X0126306Y0226578D01*
X0126204Y0226719D01*
X0126105Y0226863D01*
X0126011Y0227008D01*
X0125919Y0227157D01*
X0125832Y0227307D01*
X0125748Y0227459D01*
X0125668Y0227614D01*
X0125591Y0227770D01*
X0125519Y0227928D01*
X0125450Y0228088D01*
X0125386Y0228249D01*
X0125325Y0228412D01*
X0125269Y0228577D01*
X0125216Y0228743D01*
X0125168Y0228910D01*
X0125123Y0229078D01*
X0125083Y0229247D01*
X0125047Y0229417D01*
X0125015Y0229588D01*
X0124988Y0229760D01*
X0124964Y0229932D01*
X0124945Y0230105D01*
X0124930Y0230279D01*
X0124920Y0230452D01*
X0124913Y0230626D01*
X0124911Y0230800D01*
X0123887Y0230800D02*
X0123889Y0230999D01*
X0123897Y0231198D01*
X0123909Y0231397D01*
X0123926Y0231595D01*
X0123948Y0231793D01*
X0123975Y0231990D01*
X0124006Y0232187D01*
X0124043Y0232382D01*
X0124084Y0232577D01*
X0124130Y0232771D01*
X0124181Y0232963D01*
X0124236Y0233154D01*
X0124296Y0233344D01*
X0124361Y0233533D01*
X0124430Y0233719D01*
X0124504Y0233904D01*
X0124583Y0234087D01*
X0124666Y0234268D01*
X0124753Y0234447D01*
X0124845Y0234623D01*
X0124941Y0234798D01*
X0125041Y0234970D01*
X0125145Y0235139D01*
X0125254Y0235306D01*
X0125367Y0235470D01*
X0125483Y0235632D01*
X0125604Y0235790D01*
X0125728Y0235946D01*
X0125856Y0236098D01*
X0125988Y0236247D01*
X0126124Y0236393D01*
X0126263Y0236535D01*
X0126405Y0236674D01*
X0126551Y0236810D01*
X0126700Y0236942D01*
X0126852Y0237070D01*
X0127008Y0237194D01*
X0127166Y0237315D01*
X0127328Y0237431D01*
X0127492Y0237544D01*
X0127659Y0237653D01*
X0127828Y0237757D01*
X0128000Y0237857D01*
X0128175Y0237953D01*
X0128351Y0238045D01*
X0128530Y0238132D01*
X0128711Y0238215D01*
X0128894Y0238294D01*
X0129079Y0238368D01*
X0129265Y0238437D01*
X0129454Y0238502D01*
X0129644Y0238562D01*
X0129835Y0238617D01*
X0130027Y0238668D01*
X0130221Y0238714D01*
X0130416Y0238755D01*
X0130611Y0238792D01*
X0130808Y0238823D01*
X0131005Y0238850D01*
X0131203Y0238872D01*
X0131401Y0238889D01*
X0131600Y0238901D01*
X0131799Y0238909D01*
X0131998Y0238911D01*
X0132197Y0238909D01*
X0132396Y0238901D01*
X0132595Y0238889D01*
X0132793Y0238872D01*
X0132991Y0238850D01*
X0133188Y0238823D01*
X0133385Y0238792D01*
X0133580Y0238755D01*
X0133775Y0238714D01*
X0133969Y0238668D01*
X0134161Y0238617D01*
X0134352Y0238562D01*
X0134542Y0238502D01*
X0134731Y0238437D01*
X0134917Y0238368D01*
X0135102Y0238294D01*
X0135285Y0238215D01*
X0135466Y0238132D01*
X0135645Y0238045D01*
X0135821Y0237953D01*
X0135996Y0237857D01*
X0136168Y0237757D01*
X0136337Y0237653D01*
X0136504Y0237544D01*
X0136668Y0237431D01*
X0136830Y0237315D01*
X0136988Y0237194D01*
X0137144Y0237070D01*
X0137296Y0236942D01*
X0137445Y0236810D01*
X0137591Y0236674D01*
X0137733Y0236535D01*
X0137872Y0236393D01*
X0138008Y0236247D01*
X0138140Y0236098D01*
X0138268Y0235946D01*
X0138392Y0235790D01*
X0138513Y0235632D01*
X0138629Y0235470D01*
X0138742Y0235306D01*
X0138851Y0235139D01*
X0138955Y0234970D01*
X0139055Y0234798D01*
X0139151Y0234623D01*
X0139243Y0234447D01*
X0139330Y0234268D01*
X0139413Y0234087D01*
X0139492Y0233904D01*
X0139566Y0233719D01*
X0139635Y0233533D01*
X0139700Y0233344D01*
X0139760Y0233154D01*
X0139815Y0232963D01*
X0139866Y0232771D01*
X0139912Y0232577D01*
X0139953Y0232382D01*
X0139990Y0232187D01*
X0140021Y0231990D01*
X0140048Y0231793D01*
X0140070Y0231595D01*
X0140087Y0231397D01*
X0140099Y0231198D01*
X0140107Y0230999D01*
X0140109Y0230800D01*
X0140107Y0230601D01*
X0140099Y0230402D01*
X0140087Y0230203D01*
X0140070Y0230005D01*
X0140048Y0229807D01*
X0140021Y0229610D01*
X0139990Y0229413D01*
X0139953Y0229218D01*
X0139912Y0229023D01*
X0139866Y0228829D01*
X0139815Y0228637D01*
X0139760Y0228446D01*
X0139700Y0228256D01*
X0139635Y0228067D01*
X0139566Y0227881D01*
X0139492Y0227696D01*
X0139413Y0227513D01*
X0139330Y0227332D01*
X0139243Y0227153D01*
X0139151Y0226977D01*
X0139055Y0226802D01*
X0138955Y0226630D01*
X0138851Y0226461D01*
X0138742Y0226294D01*
X0138629Y0226130D01*
X0138513Y0225968D01*
X0138392Y0225810D01*
X0138268Y0225654D01*
X0138140Y0225502D01*
X0138008Y0225353D01*
X0137872Y0225207D01*
X0137733Y0225065D01*
X0137591Y0224926D01*
X0137445Y0224790D01*
X0137296Y0224658D01*
X0137144Y0224530D01*
X0136988Y0224406D01*
X0136830Y0224285D01*
X0136668Y0224169D01*
X0136504Y0224056D01*
X0136337Y0223947D01*
X0136168Y0223843D01*
X0135996Y0223743D01*
X0135821Y0223647D01*
X0135645Y0223555D01*
X0135466Y0223468D01*
X0135285Y0223385D01*
X0135102Y0223306D01*
X0134917Y0223232D01*
X0134731Y0223163D01*
X0134542Y0223098D01*
X0134352Y0223038D01*
X0134161Y0222983D01*
X0133969Y0222932D01*
X0133775Y0222886D01*
X0133580Y0222845D01*
X0133385Y0222808D01*
X0133188Y0222777D01*
X0132991Y0222750D01*
X0132793Y0222728D01*
X0132595Y0222711D01*
X0132396Y0222699D01*
X0132197Y0222691D01*
X0131998Y0222689D01*
X0131799Y0222691D01*
X0131600Y0222699D01*
X0131401Y0222711D01*
X0131203Y0222728D01*
X0131005Y0222750D01*
X0130808Y0222777D01*
X0130611Y0222808D01*
X0130416Y0222845D01*
X0130221Y0222886D01*
X0130027Y0222932D01*
X0129835Y0222983D01*
X0129644Y0223038D01*
X0129454Y0223098D01*
X0129265Y0223163D01*
X0129079Y0223232D01*
X0128894Y0223306D01*
X0128711Y0223385D01*
X0128530Y0223468D01*
X0128351Y0223555D01*
X0128175Y0223647D01*
X0128000Y0223743D01*
X0127828Y0223843D01*
X0127659Y0223947D01*
X0127492Y0224056D01*
X0127328Y0224169D01*
X0127166Y0224285D01*
X0127008Y0224406D01*
X0126852Y0224530D01*
X0126700Y0224658D01*
X0126551Y0224790D01*
X0126405Y0224926D01*
X0126263Y0225065D01*
X0126124Y0225207D01*
X0125988Y0225353D01*
X0125856Y0225502D01*
X0125728Y0225654D01*
X0125604Y0225810D01*
X0125483Y0225968D01*
X0125367Y0226130D01*
X0125254Y0226294D01*
X0125145Y0226461D01*
X0125041Y0226630D01*
X0124941Y0226802D01*
X0124845Y0226977D01*
X0124753Y0227153D01*
X0124666Y0227332D01*
X0124583Y0227513D01*
X0124504Y0227696D01*
X0124430Y0227881D01*
X0124361Y0228067D01*
X0124296Y0228256D01*
X0124236Y0228446D01*
X0124181Y0228637D01*
X0124130Y0228829D01*
X0124084Y0229023D01*
X0124043Y0229218D01*
X0124006Y0229413D01*
X0123975Y0229610D01*
X0123948Y0229807D01*
X0123926Y0230005D01*
X0123909Y0230203D01*
X0123897Y0230402D01*
X0123889Y0230601D01*
X0123887Y0230800D01*
X0121011Y0230800D02*
X0121014Y0231070D01*
X0121024Y0231339D01*
X0121041Y0231608D01*
X0121064Y0231877D01*
X0121094Y0232145D01*
X0121130Y0232412D01*
X0121173Y0232678D01*
X0121222Y0232943D01*
X0121278Y0233207D01*
X0121340Y0233470D01*
X0121409Y0233730D01*
X0121484Y0233989D01*
X0121566Y0234246D01*
X0121653Y0234501D01*
X0121747Y0234754D01*
X0121847Y0235005D01*
X0121954Y0235252D01*
X0122066Y0235498D01*
X0122184Y0235740D01*
X0122308Y0235979D01*
X0122438Y0236215D01*
X0122574Y0236448D01*
X0122716Y0236678D01*
X0122863Y0236904D01*
X0123015Y0237126D01*
X0123173Y0237345D01*
X0123336Y0237560D01*
X0123505Y0237770D01*
X0123679Y0237976D01*
X0123857Y0238178D01*
X0124041Y0238376D01*
X0124229Y0238569D01*
X0124422Y0238757D01*
X0124620Y0238941D01*
X0124822Y0239119D01*
X0125028Y0239293D01*
X0125238Y0239462D01*
X0125453Y0239625D01*
X0125672Y0239783D01*
X0125894Y0239935D01*
X0126120Y0240082D01*
X0126350Y0240224D01*
X0126583Y0240360D01*
X0126819Y0240490D01*
X0127058Y0240614D01*
X0127300Y0240732D01*
X0127546Y0240844D01*
X0127793Y0240951D01*
X0128044Y0241051D01*
X0128297Y0241145D01*
X0128552Y0241232D01*
X0128809Y0241314D01*
X0129068Y0241389D01*
X0129328Y0241458D01*
X0129591Y0241520D01*
X0129855Y0241576D01*
X0130120Y0241625D01*
X0130386Y0241668D01*
X0130653Y0241704D01*
X0130921Y0241734D01*
X0131190Y0241757D01*
X0131459Y0241774D01*
X0131728Y0241784D01*
X0131998Y0241787D01*
X0132268Y0241784D01*
X0132537Y0241774D01*
X0132806Y0241757D01*
X0133075Y0241734D01*
X0133343Y0241704D01*
X0133610Y0241668D01*
X0133876Y0241625D01*
X0134141Y0241576D01*
X0134405Y0241520D01*
X0134668Y0241458D01*
X0134928Y0241389D01*
X0135187Y0241314D01*
X0135444Y0241232D01*
X0135699Y0241145D01*
X0135952Y0241051D01*
X0136203Y0240951D01*
X0136450Y0240844D01*
X0136696Y0240732D01*
X0136938Y0240614D01*
X0137177Y0240490D01*
X0137413Y0240360D01*
X0137646Y0240224D01*
X0137876Y0240082D01*
X0138102Y0239935D01*
X0138324Y0239783D01*
X0138543Y0239625D01*
X0138758Y0239462D01*
X0138968Y0239293D01*
X0139174Y0239119D01*
X0139376Y0238941D01*
X0139574Y0238757D01*
X0139767Y0238569D01*
X0139955Y0238376D01*
X0140139Y0238178D01*
X0140317Y0237976D01*
X0140491Y0237770D01*
X0140660Y0237560D01*
X0140823Y0237345D01*
X0140981Y0237126D01*
X0141133Y0236904D01*
X0141280Y0236678D01*
X0141422Y0236448D01*
X0141558Y0236215D01*
X0141688Y0235979D01*
X0141812Y0235740D01*
X0141930Y0235498D01*
X0142042Y0235252D01*
X0142149Y0235005D01*
X0142249Y0234754D01*
X0142343Y0234501D01*
X0142430Y0234246D01*
X0142512Y0233989D01*
X0142587Y0233730D01*
X0142656Y0233470D01*
X0142718Y0233207D01*
X0142774Y0232943D01*
X0142823Y0232678D01*
X0142866Y0232412D01*
X0142902Y0232145D01*
X0142932Y0231877D01*
X0142955Y0231608D01*
X0142972Y0231339D01*
X0142982Y0231070D01*
X0142985Y0230800D01*
X0142982Y0230530D01*
X0142972Y0230261D01*
X0142955Y0229992D01*
X0142932Y0229723D01*
X0142902Y0229455D01*
X0142866Y0229188D01*
X0142823Y0228922D01*
X0142774Y0228657D01*
X0142718Y0228393D01*
X0142656Y0228130D01*
X0142587Y0227870D01*
X0142512Y0227611D01*
X0142430Y0227354D01*
X0142343Y0227099D01*
X0142249Y0226846D01*
X0142149Y0226595D01*
X0142042Y0226348D01*
X0141930Y0226102D01*
X0141812Y0225860D01*
X0141688Y0225621D01*
X0141558Y0225385D01*
X0141422Y0225152D01*
X0141280Y0224922D01*
X0141133Y0224696D01*
X0140981Y0224474D01*
X0140823Y0224255D01*
X0140660Y0224040D01*
X0140491Y0223830D01*
X0140317Y0223624D01*
X0140139Y0223422D01*
X0139955Y0223224D01*
X0139767Y0223031D01*
X0139574Y0222843D01*
X0139376Y0222659D01*
X0139174Y0222481D01*
X0138968Y0222307D01*
X0138758Y0222138D01*
X0138543Y0221975D01*
X0138324Y0221817D01*
X0138102Y0221665D01*
X0137876Y0221518D01*
X0137646Y0221376D01*
X0137413Y0221240D01*
X0137177Y0221110D01*
X0136938Y0220986D01*
X0136696Y0220868D01*
X0136450Y0220756D01*
X0136203Y0220649D01*
X0135952Y0220549D01*
X0135699Y0220455D01*
X0135444Y0220368D01*
X0135187Y0220286D01*
X0134928Y0220211D01*
X0134668Y0220142D01*
X0134405Y0220080D01*
X0134141Y0220024D01*
X0133876Y0219975D01*
X0133610Y0219932D01*
X0133343Y0219896D01*
X0133075Y0219866D01*
X0132806Y0219843D01*
X0132537Y0219826D01*
X0132268Y0219816D01*
X0131998Y0219813D01*
X0131728Y0219816D01*
X0131459Y0219826D01*
X0131190Y0219843D01*
X0130921Y0219866D01*
X0130653Y0219896D01*
X0130386Y0219932D01*
X0130120Y0219975D01*
X0129855Y0220024D01*
X0129591Y0220080D01*
X0129328Y0220142D01*
X0129068Y0220211D01*
X0128809Y0220286D01*
X0128552Y0220368D01*
X0128297Y0220455D01*
X0128044Y0220549D01*
X0127793Y0220649D01*
X0127546Y0220756D01*
X0127300Y0220868D01*
X0127058Y0220986D01*
X0126819Y0221110D01*
X0126583Y0221240D01*
X0126350Y0221376D01*
X0126120Y0221518D01*
X0125894Y0221665D01*
X0125672Y0221817D01*
X0125453Y0221975D01*
X0125238Y0222138D01*
X0125028Y0222307D01*
X0124822Y0222481D01*
X0124620Y0222659D01*
X0124422Y0222843D01*
X0124229Y0223031D01*
X0124041Y0223224D01*
X0123857Y0223422D01*
X0123679Y0223624D01*
X0123505Y0223830D01*
X0123336Y0224040D01*
X0123173Y0224255D01*
X0123015Y0224474D01*
X0122863Y0224696D01*
X0122716Y0224922D01*
X0122574Y0225152D01*
X0122438Y0225385D01*
X0122308Y0225621D01*
X0122184Y0225860D01*
X0122066Y0226102D01*
X0121954Y0226348D01*
X0121847Y0226595D01*
X0121747Y0226846D01*
X0121653Y0227099D01*
X0121566Y0227354D01*
X0121484Y0227611D01*
X0121409Y0227870D01*
X0121340Y0228130D01*
X0121278Y0228393D01*
X0121222Y0228657D01*
X0121173Y0228922D01*
X0121130Y0229188D01*
X0121094Y0229455D01*
X0121064Y0229723D01*
X0121041Y0229992D01*
X0121024Y0230261D01*
X0121014Y0230530D01*
X0121011Y0230800D01*
D12*
X0127998Y0230800D02*
X0135998Y0230800D01*
X0131998Y0226800D02*
X0131998Y0234800D01*
X0131998Y0261800D02*
X0131998Y0269800D01*
X0127998Y0265800D02*
X0135998Y0265800D01*
X0095998Y0265800D02*
X0087998Y0265800D01*
X0091998Y0261800D02*
X0091998Y0269800D01*
X0055998Y0265800D02*
X0047998Y0265800D01*
X0051998Y0261800D02*
X0051998Y0269800D01*
X0051998Y0234800D02*
X0051998Y0226800D01*
X0047998Y0230800D02*
X0055998Y0230800D01*
X0051998Y0154800D02*
X0051998Y0146800D01*
X0047998Y0150800D02*
X0055998Y0150800D01*
X0127998Y0150800D02*
X0135998Y0150800D01*
X0131998Y0146800D02*
X0131998Y0154800D01*
X0131998Y0084800D02*
X0131998Y0076800D01*
X0127998Y0080800D02*
X0135998Y0080800D01*
X0131998Y0019800D02*
X0131998Y0011800D01*
X0127998Y0015800D02*
X0135998Y0015800D01*
X0055998Y0015800D02*
X0047998Y0015800D01*
X0051998Y0011800D02*
X0051998Y0019800D01*
D13*
X0036998Y0010800D02*
X0066998Y0010800D01*
X0066998Y0020800D01*
X0066998Y0023300D01*
X0036998Y0023300D01*
X0036998Y0020800D01*
X0066998Y0020800D01*
X0036998Y0020800D02*
X0036998Y0010800D01*
X0116998Y0010800D02*
X0146998Y0010800D01*
X0146998Y0020800D01*
X0146998Y0023300D01*
X0116998Y0023300D01*
X0116998Y0020800D01*
X0146998Y0020800D01*
X0116998Y0020800D02*
X0116998Y0010800D01*
X0114498Y0255800D02*
X0109498Y0255800D01*
X0106998Y0258300D01*
X0106998Y0273300D01*
X0109498Y0275800D01*
X0114498Y0275800D01*
X0116998Y0273300D01*
X0116998Y0258300D01*
X0114498Y0255800D01*
X0106998Y0258300D02*
X0104498Y0255800D01*
X0099498Y0255800D01*
X0096998Y0258300D01*
X0096998Y0273300D01*
X0099498Y0275800D01*
X0104498Y0275800D01*
X0106998Y0273300D01*
X0096998Y0273300D02*
X0094498Y0275800D01*
X0089498Y0275800D01*
X0086998Y0273300D01*
X0086998Y0258300D01*
X0089498Y0255800D01*
X0094498Y0255800D01*
X0096998Y0258300D01*
X0086998Y0258300D02*
X0084498Y0255800D01*
X0079498Y0255800D01*
X0076998Y0258300D01*
X0076998Y0273300D01*
X0079498Y0275800D01*
X0084498Y0275800D01*
X0086998Y0273300D01*
X0076998Y0273300D02*
X0074498Y0275800D01*
X0069498Y0275800D01*
X0066998Y0273300D01*
X0066998Y0258300D01*
X0069498Y0255800D01*
X0074498Y0255800D01*
X0076998Y0258300D01*
X0047513Y0261814D02*
X0047415Y0261928D01*
X0047319Y0262044D01*
X0047227Y0262162D01*
X0047137Y0262283D01*
X0047050Y0262406D01*
X0046967Y0262531D01*
X0046887Y0262658D01*
X0046809Y0262787D01*
X0046736Y0262918D01*
X0046665Y0263050D01*
X0046598Y0263185D01*
X0046534Y0263321D01*
X0046474Y0263459D01*
X0046417Y0263598D01*
X0046363Y0263738D01*
X0046313Y0263880D01*
X0046267Y0264023D01*
X0046224Y0264167D01*
X0046185Y0264313D01*
X0046150Y0264459D01*
X0046118Y0264606D01*
X0046090Y0264753D01*
X0046066Y0264902D01*
X0046045Y0265051D01*
X0046028Y0265200D01*
X0046015Y0265350D01*
X0046006Y0265500D01*
X0046000Y0265650D01*
X0045998Y0265800D01*
X0051998Y0271800D02*
X0052152Y0271798D01*
X0052306Y0271792D01*
X0052460Y0271782D01*
X0052614Y0271768D01*
X0052767Y0271751D01*
X0052919Y0271729D01*
X0053071Y0271703D01*
X0053223Y0271674D01*
X0053373Y0271640D01*
X0053523Y0271603D01*
X0053671Y0271562D01*
X0053819Y0271517D01*
X0053965Y0271468D01*
X0054110Y0271416D01*
X0054253Y0271360D01*
X0054396Y0271300D01*
X0054536Y0271237D01*
X0054675Y0271170D01*
X0054812Y0271099D01*
X0054947Y0271025D01*
X0055080Y0270948D01*
X0055212Y0270867D01*
X0055341Y0270783D01*
X0055468Y0270695D01*
X0055592Y0270604D01*
X0055714Y0270511D01*
X0055834Y0270413D01*
X0055951Y0270313D01*
X0056066Y0270210D01*
X0056178Y0270104D01*
X0056287Y0269996D01*
X0056393Y0269884D01*
X0056497Y0269770D01*
X0056597Y0269653D01*
X0056695Y0269534D01*
X0056789Y0269412D01*
X0056880Y0269287D01*
X0051998Y0259800D02*
X0051846Y0259802D01*
X0051695Y0259808D01*
X0051544Y0259817D01*
X0051392Y0259831D01*
X0051242Y0259848D01*
X0051092Y0259869D01*
X0050942Y0259894D01*
X0050793Y0259922D01*
X0050645Y0259955D01*
X0050498Y0259991D01*
X0050351Y0260030D01*
X0050206Y0260074D01*
X0050062Y0260121D01*
X0049919Y0260172D01*
X0049778Y0260226D01*
X0049637Y0260284D01*
X0049499Y0260345D01*
X0049362Y0260410D01*
X0049226Y0260479D01*
X0049093Y0260550D01*
X0048961Y0260625D01*
X0048831Y0260704D01*
X0048704Y0260785D01*
X0048578Y0260870D01*
X0048454Y0260958D01*
X0048333Y0261049D01*
X0048214Y0261143D01*
X0048098Y0261241D01*
X0047984Y0261341D01*
X0047872Y0261443D01*
X0047764Y0261549D01*
X0047658Y0261657D01*
X0047554Y0261768D01*
X0047454Y0261882D01*
X0047356Y0261998D01*
X0047262Y0262117D01*
X0057998Y0265800D02*
X0057996Y0265952D01*
X0057990Y0266104D01*
X0057981Y0266255D01*
X0057967Y0266406D01*
X0057950Y0266557D01*
X0057929Y0266708D01*
X0057904Y0266857D01*
X0057875Y0267007D01*
X0057843Y0267155D01*
X0057807Y0267302D01*
X0057767Y0267449D01*
X0057723Y0267594D01*
X0057676Y0267739D01*
X0057625Y0267882D01*
X0057571Y0268023D01*
X0057513Y0268164D01*
X0057451Y0268303D01*
X0057386Y0268440D01*
X0057318Y0268575D01*
X0057246Y0268709D01*
X0057170Y0268841D01*
X0057092Y0268971D01*
X0057010Y0269099D01*
X0056925Y0269224D01*
X0056837Y0269348D01*
X0056745Y0269469D01*
X0056651Y0269588D01*
X0056554Y0269705D01*
X0057998Y0265800D02*
X0057996Y0265646D01*
X0057990Y0265491D01*
X0057980Y0265337D01*
X0057966Y0265184D01*
X0057948Y0265030D01*
X0057927Y0264877D01*
X0057901Y0264725D01*
X0057871Y0264574D01*
X0057838Y0264423D01*
X0057800Y0264273D01*
X0057759Y0264124D01*
X0057714Y0263977D01*
X0057665Y0263830D01*
X0057613Y0263685D01*
X0057557Y0263541D01*
X0057497Y0263399D01*
X0057433Y0263258D01*
X0057366Y0263119D01*
X0057295Y0262982D01*
X0057221Y0262847D01*
X0057143Y0262713D01*
X0057062Y0262582D01*
X0056978Y0262453D01*
X0056890Y0262326D01*
X0056799Y0262201D01*
X0056705Y0262079D01*
X0056607Y0261959D01*
X0051998Y0271800D02*
X0051848Y0271798D01*
X0051697Y0271792D01*
X0051547Y0271783D01*
X0051398Y0271770D01*
X0051248Y0271753D01*
X0051099Y0271732D01*
X0050951Y0271708D01*
X0050803Y0271680D01*
X0050656Y0271648D01*
X0050510Y0271613D01*
X0050365Y0271573D01*
X0050221Y0271531D01*
X0050078Y0271484D01*
X0049936Y0271434D01*
X0049795Y0271381D01*
X0049656Y0271324D01*
X0049518Y0271264D01*
X0049382Y0271200D01*
X0049248Y0271133D01*
X0049115Y0271062D01*
X0048984Y0270988D01*
X0048855Y0270911D01*
X0048728Y0270830D01*
X0048603Y0270747D01*
X0048480Y0270660D01*
X0048359Y0270571D01*
X0048241Y0270478D01*
X0048125Y0270382D01*
X0048011Y0270284D01*
X0047900Y0270183D01*
X0047791Y0270078D01*
X0047686Y0269972D01*
X0047582Y0269862D01*
X0047482Y0269750D01*
X0047384Y0269636D01*
X0047290Y0269519D01*
X0047198Y0269400D01*
X0051998Y0259800D02*
X0052150Y0259802D01*
X0052301Y0259808D01*
X0052452Y0259817D01*
X0052604Y0259831D01*
X0052754Y0259848D01*
X0052904Y0259869D01*
X0053054Y0259894D01*
X0053203Y0259922D01*
X0053351Y0259955D01*
X0053498Y0259991D01*
X0053645Y0260030D01*
X0053790Y0260074D01*
X0053934Y0260121D01*
X0054077Y0260172D01*
X0054218Y0260226D01*
X0054359Y0260284D01*
X0054497Y0260345D01*
X0054634Y0260410D01*
X0054770Y0260479D01*
X0054903Y0260550D01*
X0055035Y0260625D01*
X0055165Y0260704D01*
X0055292Y0260785D01*
X0055418Y0260870D01*
X0055542Y0260958D01*
X0055663Y0261049D01*
X0055782Y0261143D01*
X0055898Y0261241D01*
X0056012Y0261341D01*
X0056124Y0261443D01*
X0056232Y0261549D01*
X0056338Y0261657D01*
X0056442Y0261768D01*
X0056542Y0261882D01*
X0056640Y0261998D01*
X0056734Y0262117D01*
X0055998Y0265800D02*
X0055996Y0265674D01*
X0055990Y0265549D01*
X0055980Y0265424D01*
X0055966Y0265299D01*
X0055949Y0265174D01*
X0055927Y0265050D01*
X0055902Y0264927D01*
X0055872Y0264805D01*
X0055839Y0264684D01*
X0055802Y0264564D01*
X0055762Y0264445D01*
X0055717Y0264328D01*
X0055669Y0264211D01*
X0055617Y0264097D01*
X0055562Y0263984D01*
X0055503Y0263873D01*
X0055441Y0263764D01*
X0055375Y0263657D01*
X0055306Y0263552D01*
X0055234Y0263449D01*
X0055159Y0263348D01*
X0055080Y0263250D01*
X0054998Y0263155D01*
X0054914Y0263062D01*
X0054826Y0262972D01*
X0054736Y0262884D01*
X0054643Y0262800D01*
X0054548Y0262718D01*
X0054450Y0262639D01*
X0054349Y0262564D01*
X0054246Y0262492D01*
X0054141Y0262423D01*
X0054034Y0262357D01*
X0053925Y0262295D01*
X0053814Y0262236D01*
X0053701Y0262181D01*
X0053587Y0262129D01*
X0053470Y0262081D01*
X0053353Y0262036D01*
X0053234Y0261996D01*
X0053114Y0261959D01*
X0052993Y0261926D01*
X0052871Y0261896D01*
X0052748Y0261871D01*
X0052624Y0261849D01*
X0052499Y0261832D01*
X0052374Y0261818D01*
X0052249Y0261808D01*
X0052124Y0261802D01*
X0051998Y0261800D01*
X0045998Y0265800D02*
X0046000Y0265954D01*
X0046006Y0266109D01*
X0046016Y0266263D01*
X0046030Y0266416D01*
X0046048Y0266570D01*
X0046069Y0266723D01*
X0046095Y0266875D01*
X0046125Y0267026D01*
X0046158Y0267177D01*
X0046196Y0267327D01*
X0046237Y0267476D01*
X0046282Y0267623D01*
X0046331Y0267770D01*
X0046383Y0267915D01*
X0046439Y0268059D01*
X0046499Y0268201D01*
X0046563Y0268342D01*
X0046630Y0268481D01*
X0046701Y0268618D01*
X0046775Y0268753D01*
X0046853Y0268887D01*
X0046934Y0269018D01*
X0047018Y0269147D01*
X0047106Y0269274D01*
X0047197Y0269399D01*
X0047291Y0269521D01*
X0047389Y0269641D01*
X0051998Y0263300D02*
X0052096Y0263302D01*
X0052194Y0263308D01*
X0052292Y0263317D01*
X0052389Y0263331D01*
X0052486Y0263348D01*
X0052582Y0263369D01*
X0052677Y0263394D01*
X0052771Y0263422D01*
X0052863Y0263455D01*
X0052955Y0263490D01*
X0053045Y0263530D01*
X0053133Y0263572D01*
X0053220Y0263619D01*
X0053304Y0263668D01*
X0053387Y0263721D01*
X0053467Y0263777D01*
X0053546Y0263837D01*
X0053622Y0263899D01*
X0053695Y0263964D01*
X0053766Y0264032D01*
X0053834Y0264103D01*
X0053899Y0264176D01*
X0053961Y0264252D01*
X0054021Y0264331D01*
X0054077Y0264411D01*
X0054130Y0264494D01*
X0054179Y0264578D01*
X0054226Y0264665D01*
X0054268Y0264753D01*
X0054308Y0264843D01*
X0054343Y0264935D01*
X0054376Y0265027D01*
X0054404Y0265121D01*
X0054429Y0265216D01*
X0054450Y0265312D01*
X0054467Y0265409D01*
X0054481Y0265506D01*
X0054490Y0265604D01*
X0054496Y0265702D01*
X0054498Y0265800D01*
X0051998Y0269800D02*
X0051872Y0269798D01*
X0051747Y0269792D01*
X0051622Y0269782D01*
X0051497Y0269768D01*
X0051372Y0269751D01*
X0051248Y0269729D01*
X0051125Y0269704D01*
X0051003Y0269674D01*
X0050882Y0269641D01*
X0050762Y0269604D01*
X0050643Y0269564D01*
X0050526Y0269519D01*
X0050409Y0269471D01*
X0050295Y0269419D01*
X0050182Y0269364D01*
X0050071Y0269305D01*
X0049962Y0269243D01*
X0049855Y0269177D01*
X0049750Y0269108D01*
X0049647Y0269036D01*
X0049546Y0268961D01*
X0049448Y0268882D01*
X0049353Y0268800D01*
X0049260Y0268716D01*
X0049170Y0268628D01*
X0049082Y0268538D01*
X0048998Y0268445D01*
X0048916Y0268350D01*
X0048837Y0268252D01*
X0048762Y0268151D01*
X0048690Y0268048D01*
X0048621Y0267943D01*
X0048555Y0267836D01*
X0048493Y0267727D01*
X0048434Y0267616D01*
X0048379Y0267503D01*
X0048327Y0267389D01*
X0048279Y0267272D01*
X0048234Y0267155D01*
X0048194Y0267036D01*
X0048157Y0266916D01*
X0048124Y0266795D01*
X0048094Y0266673D01*
X0048069Y0266550D01*
X0048047Y0266426D01*
X0048030Y0266301D01*
X0048016Y0266176D01*
X0048006Y0266051D01*
X0048000Y0265926D01*
X0047998Y0265800D01*
X0049498Y0265800D02*
X0049500Y0265898D01*
X0049506Y0265996D01*
X0049515Y0266094D01*
X0049529Y0266191D01*
X0049546Y0266288D01*
X0049567Y0266384D01*
X0049592Y0266479D01*
X0049620Y0266573D01*
X0049653Y0266665D01*
X0049688Y0266757D01*
X0049728Y0266847D01*
X0049770Y0266935D01*
X0049817Y0267022D01*
X0049866Y0267106D01*
X0049919Y0267189D01*
X0049975Y0267269D01*
X0050035Y0267348D01*
X0050097Y0267424D01*
X0050162Y0267497D01*
X0050230Y0267568D01*
X0050301Y0267636D01*
X0050374Y0267701D01*
X0050450Y0267763D01*
X0050529Y0267823D01*
X0050609Y0267879D01*
X0050692Y0267932D01*
X0050776Y0267981D01*
X0050863Y0268028D01*
X0050951Y0268070D01*
X0051041Y0268110D01*
X0051133Y0268145D01*
X0051225Y0268178D01*
X0051319Y0268206D01*
X0051414Y0268231D01*
X0051510Y0268252D01*
X0051607Y0268269D01*
X0051704Y0268283D01*
X0051802Y0268292D01*
X0051900Y0268298D01*
X0051998Y0268300D01*
X0131998Y0271800D02*
X0132152Y0271798D01*
X0132306Y0271792D01*
X0132460Y0271782D01*
X0132614Y0271768D01*
X0132767Y0271751D01*
X0132919Y0271729D01*
X0133071Y0271703D01*
X0133223Y0271674D01*
X0133373Y0271640D01*
X0133523Y0271603D01*
X0133671Y0271562D01*
X0133819Y0271517D01*
X0133965Y0271468D01*
X0134110Y0271416D01*
X0134253Y0271360D01*
X0134396Y0271300D01*
X0134536Y0271237D01*
X0134675Y0271170D01*
X0134812Y0271099D01*
X0134947Y0271025D01*
X0135080Y0270948D01*
X0135212Y0270867D01*
X0135341Y0270783D01*
X0135468Y0270695D01*
X0135592Y0270604D01*
X0135714Y0270511D01*
X0135834Y0270413D01*
X0135951Y0270313D01*
X0136066Y0270210D01*
X0136178Y0270104D01*
X0136287Y0269996D01*
X0136393Y0269884D01*
X0136497Y0269770D01*
X0136597Y0269653D01*
X0136695Y0269534D01*
X0136789Y0269412D01*
X0136880Y0269287D01*
X0131998Y0259800D02*
X0131846Y0259802D01*
X0131695Y0259808D01*
X0131544Y0259817D01*
X0131392Y0259831D01*
X0131242Y0259848D01*
X0131092Y0259869D01*
X0130942Y0259894D01*
X0130793Y0259922D01*
X0130645Y0259955D01*
X0130498Y0259991D01*
X0130351Y0260030D01*
X0130206Y0260074D01*
X0130062Y0260121D01*
X0129919Y0260172D01*
X0129778Y0260226D01*
X0129637Y0260284D01*
X0129499Y0260345D01*
X0129362Y0260410D01*
X0129226Y0260479D01*
X0129093Y0260550D01*
X0128961Y0260625D01*
X0128831Y0260704D01*
X0128704Y0260785D01*
X0128578Y0260870D01*
X0128454Y0260958D01*
X0128333Y0261049D01*
X0128214Y0261143D01*
X0128098Y0261241D01*
X0127984Y0261341D01*
X0127872Y0261443D01*
X0127764Y0261549D01*
X0127658Y0261657D01*
X0127554Y0261768D01*
X0127454Y0261882D01*
X0127356Y0261998D01*
X0127262Y0262117D01*
X0127513Y0261814D02*
X0127415Y0261928D01*
X0127319Y0262044D01*
X0127227Y0262162D01*
X0127137Y0262283D01*
X0127050Y0262406D01*
X0126967Y0262531D01*
X0126887Y0262658D01*
X0126809Y0262787D01*
X0126736Y0262918D01*
X0126665Y0263050D01*
X0126598Y0263185D01*
X0126534Y0263321D01*
X0126474Y0263459D01*
X0126417Y0263598D01*
X0126363Y0263738D01*
X0126313Y0263880D01*
X0126267Y0264023D01*
X0126224Y0264167D01*
X0126185Y0264313D01*
X0126150Y0264459D01*
X0126118Y0264606D01*
X0126090Y0264753D01*
X0126066Y0264902D01*
X0126045Y0265051D01*
X0126028Y0265200D01*
X0126015Y0265350D01*
X0126006Y0265500D01*
X0126000Y0265650D01*
X0125998Y0265800D01*
X0131998Y0259800D02*
X0132150Y0259802D01*
X0132301Y0259808D01*
X0132452Y0259817D01*
X0132604Y0259831D01*
X0132754Y0259848D01*
X0132904Y0259869D01*
X0133054Y0259894D01*
X0133203Y0259922D01*
X0133351Y0259955D01*
X0133498Y0259991D01*
X0133645Y0260030D01*
X0133790Y0260074D01*
X0133934Y0260121D01*
X0134077Y0260172D01*
X0134218Y0260226D01*
X0134359Y0260284D01*
X0134497Y0260345D01*
X0134634Y0260410D01*
X0134770Y0260479D01*
X0134903Y0260550D01*
X0135035Y0260625D01*
X0135165Y0260704D01*
X0135292Y0260785D01*
X0135418Y0260870D01*
X0135542Y0260958D01*
X0135663Y0261049D01*
X0135782Y0261143D01*
X0135898Y0261241D01*
X0136012Y0261341D01*
X0136124Y0261443D01*
X0136232Y0261549D01*
X0136338Y0261657D01*
X0136442Y0261768D01*
X0136542Y0261882D01*
X0136640Y0261998D01*
X0136734Y0262117D01*
X0137998Y0265800D02*
X0137996Y0265952D01*
X0137990Y0266104D01*
X0137981Y0266255D01*
X0137967Y0266406D01*
X0137950Y0266557D01*
X0137929Y0266708D01*
X0137904Y0266857D01*
X0137875Y0267007D01*
X0137843Y0267155D01*
X0137807Y0267302D01*
X0137767Y0267449D01*
X0137723Y0267594D01*
X0137676Y0267739D01*
X0137625Y0267882D01*
X0137571Y0268023D01*
X0137513Y0268164D01*
X0137451Y0268303D01*
X0137386Y0268440D01*
X0137318Y0268575D01*
X0137246Y0268709D01*
X0137170Y0268841D01*
X0137092Y0268971D01*
X0137010Y0269099D01*
X0136925Y0269224D01*
X0136837Y0269348D01*
X0136745Y0269469D01*
X0136651Y0269588D01*
X0136554Y0269705D01*
X0137998Y0265800D02*
X0137996Y0265646D01*
X0137990Y0265491D01*
X0137980Y0265337D01*
X0137966Y0265184D01*
X0137948Y0265030D01*
X0137927Y0264877D01*
X0137901Y0264725D01*
X0137871Y0264574D01*
X0137838Y0264423D01*
X0137800Y0264273D01*
X0137759Y0264124D01*
X0137714Y0263977D01*
X0137665Y0263830D01*
X0137613Y0263685D01*
X0137557Y0263541D01*
X0137497Y0263399D01*
X0137433Y0263258D01*
X0137366Y0263119D01*
X0137295Y0262982D01*
X0137221Y0262847D01*
X0137143Y0262713D01*
X0137062Y0262582D01*
X0136978Y0262453D01*
X0136890Y0262326D01*
X0136799Y0262201D01*
X0136705Y0262079D01*
X0136607Y0261959D01*
X0131998Y0271800D02*
X0131848Y0271798D01*
X0131697Y0271792D01*
X0131547Y0271783D01*
X0131398Y0271770D01*
X0131248Y0271753D01*
X0131099Y0271732D01*
X0130951Y0271708D01*
X0130803Y0271680D01*
X0130656Y0271648D01*
X0130510Y0271613D01*
X0130365Y0271573D01*
X0130221Y0271531D01*
X0130078Y0271484D01*
X0129936Y0271434D01*
X0129795Y0271381D01*
X0129656Y0271324D01*
X0129518Y0271264D01*
X0129382Y0271200D01*
X0129248Y0271133D01*
X0129115Y0271062D01*
X0128984Y0270988D01*
X0128855Y0270911D01*
X0128728Y0270830D01*
X0128603Y0270747D01*
X0128480Y0270660D01*
X0128359Y0270571D01*
X0128241Y0270478D01*
X0128125Y0270382D01*
X0128011Y0270284D01*
X0127900Y0270183D01*
X0127791Y0270078D01*
X0127686Y0269972D01*
X0127582Y0269862D01*
X0127482Y0269750D01*
X0127384Y0269636D01*
X0127290Y0269519D01*
X0127198Y0269400D01*
X0131998Y0261800D02*
X0132124Y0261802D01*
X0132249Y0261808D01*
X0132374Y0261818D01*
X0132499Y0261832D01*
X0132624Y0261849D01*
X0132748Y0261871D01*
X0132871Y0261896D01*
X0132993Y0261926D01*
X0133114Y0261959D01*
X0133234Y0261996D01*
X0133353Y0262036D01*
X0133470Y0262081D01*
X0133587Y0262129D01*
X0133701Y0262181D01*
X0133814Y0262236D01*
X0133925Y0262295D01*
X0134034Y0262357D01*
X0134141Y0262423D01*
X0134246Y0262492D01*
X0134349Y0262564D01*
X0134450Y0262639D01*
X0134548Y0262718D01*
X0134643Y0262800D01*
X0134736Y0262884D01*
X0134826Y0262972D01*
X0134914Y0263062D01*
X0134998Y0263155D01*
X0135080Y0263250D01*
X0135159Y0263348D01*
X0135234Y0263449D01*
X0135306Y0263552D01*
X0135375Y0263657D01*
X0135441Y0263764D01*
X0135503Y0263873D01*
X0135562Y0263984D01*
X0135617Y0264097D01*
X0135669Y0264211D01*
X0135717Y0264328D01*
X0135762Y0264445D01*
X0135802Y0264564D01*
X0135839Y0264684D01*
X0135872Y0264805D01*
X0135902Y0264927D01*
X0135927Y0265050D01*
X0135949Y0265174D01*
X0135966Y0265299D01*
X0135980Y0265424D01*
X0135990Y0265549D01*
X0135996Y0265674D01*
X0135998Y0265800D01*
X0134498Y0265800D02*
X0134496Y0265702D01*
X0134490Y0265604D01*
X0134481Y0265506D01*
X0134467Y0265409D01*
X0134450Y0265312D01*
X0134429Y0265216D01*
X0134404Y0265121D01*
X0134376Y0265027D01*
X0134343Y0264935D01*
X0134308Y0264843D01*
X0134268Y0264753D01*
X0134226Y0264665D01*
X0134179Y0264578D01*
X0134130Y0264494D01*
X0134077Y0264411D01*
X0134021Y0264331D01*
X0133961Y0264252D01*
X0133899Y0264176D01*
X0133834Y0264103D01*
X0133766Y0264032D01*
X0133695Y0263964D01*
X0133622Y0263899D01*
X0133546Y0263837D01*
X0133467Y0263777D01*
X0133387Y0263721D01*
X0133304Y0263668D01*
X0133220Y0263619D01*
X0133133Y0263572D01*
X0133045Y0263530D01*
X0132955Y0263490D01*
X0132863Y0263455D01*
X0132771Y0263422D01*
X0132677Y0263394D01*
X0132582Y0263369D01*
X0132486Y0263348D01*
X0132389Y0263331D01*
X0132292Y0263317D01*
X0132194Y0263308D01*
X0132096Y0263302D01*
X0131998Y0263300D01*
X0125998Y0265800D02*
X0126000Y0265954D01*
X0126006Y0266109D01*
X0126016Y0266263D01*
X0126030Y0266416D01*
X0126048Y0266570D01*
X0126069Y0266723D01*
X0126095Y0266875D01*
X0126125Y0267026D01*
X0126158Y0267177D01*
X0126196Y0267327D01*
X0126237Y0267476D01*
X0126282Y0267623D01*
X0126331Y0267770D01*
X0126383Y0267915D01*
X0126439Y0268059D01*
X0126499Y0268201D01*
X0126563Y0268342D01*
X0126630Y0268481D01*
X0126701Y0268618D01*
X0126775Y0268753D01*
X0126853Y0268887D01*
X0126934Y0269018D01*
X0127018Y0269147D01*
X0127106Y0269274D01*
X0127197Y0269399D01*
X0127291Y0269521D01*
X0127389Y0269641D01*
X0127998Y0265800D02*
X0128000Y0265926D01*
X0128006Y0266051D01*
X0128016Y0266176D01*
X0128030Y0266301D01*
X0128047Y0266426D01*
X0128069Y0266550D01*
X0128094Y0266673D01*
X0128124Y0266795D01*
X0128157Y0266916D01*
X0128194Y0267036D01*
X0128234Y0267155D01*
X0128279Y0267272D01*
X0128327Y0267389D01*
X0128379Y0267503D01*
X0128434Y0267616D01*
X0128493Y0267727D01*
X0128555Y0267836D01*
X0128621Y0267943D01*
X0128690Y0268048D01*
X0128762Y0268151D01*
X0128837Y0268252D01*
X0128916Y0268350D01*
X0128998Y0268445D01*
X0129082Y0268538D01*
X0129170Y0268628D01*
X0129260Y0268716D01*
X0129353Y0268800D01*
X0129448Y0268882D01*
X0129546Y0268961D01*
X0129647Y0269036D01*
X0129750Y0269108D01*
X0129855Y0269177D01*
X0129962Y0269243D01*
X0130071Y0269305D01*
X0130182Y0269364D01*
X0130295Y0269419D01*
X0130409Y0269471D01*
X0130526Y0269519D01*
X0130643Y0269564D01*
X0130762Y0269604D01*
X0130882Y0269641D01*
X0131003Y0269674D01*
X0131125Y0269704D01*
X0131248Y0269729D01*
X0131372Y0269751D01*
X0131497Y0269768D01*
X0131622Y0269782D01*
X0131747Y0269792D01*
X0131872Y0269798D01*
X0131998Y0269800D01*
X0131998Y0268300D02*
X0131900Y0268298D01*
X0131802Y0268292D01*
X0131704Y0268283D01*
X0131607Y0268269D01*
X0131510Y0268252D01*
X0131414Y0268231D01*
X0131319Y0268206D01*
X0131225Y0268178D01*
X0131133Y0268145D01*
X0131041Y0268110D01*
X0130951Y0268070D01*
X0130863Y0268028D01*
X0130776Y0267981D01*
X0130692Y0267932D01*
X0130609Y0267879D01*
X0130529Y0267823D01*
X0130450Y0267763D01*
X0130374Y0267701D01*
X0130301Y0267636D01*
X0130230Y0267568D01*
X0130162Y0267497D01*
X0130097Y0267424D01*
X0130035Y0267348D01*
X0129975Y0267269D01*
X0129919Y0267189D01*
X0129866Y0267106D01*
X0129817Y0267022D01*
X0129770Y0266935D01*
X0129728Y0266847D01*
X0129688Y0266757D01*
X0129653Y0266665D01*
X0129620Y0266573D01*
X0129592Y0266479D01*
X0129567Y0266384D01*
X0129546Y0266288D01*
X0129529Y0266191D01*
X0129515Y0266094D01*
X0129506Y0265996D01*
X0129500Y0265898D01*
X0129498Y0265800D01*
D14*
X0074498Y0253300D02*
X0069498Y0253300D01*
X0041998Y0150800D02*
X0042001Y0151045D01*
X0042010Y0151291D01*
X0042025Y0151536D01*
X0042046Y0151780D01*
X0042073Y0152024D01*
X0042106Y0152267D01*
X0042145Y0152510D01*
X0042190Y0152751D01*
X0042241Y0152991D01*
X0042298Y0153230D01*
X0042360Y0153467D01*
X0042429Y0153703D01*
X0042503Y0153937D01*
X0042583Y0154169D01*
X0042668Y0154399D01*
X0042759Y0154627D01*
X0042856Y0154852D01*
X0042958Y0155076D01*
X0043066Y0155296D01*
X0043179Y0155514D01*
X0043297Y0155729D01*
X0043421Y0155941D01*
X0043549Y0156150D01*
X0043683Y0156356D01*
X0043822Y0156558D01*
X0043966Y0156757D01*
X0044115Y0156952D01*
X0044268Y0157144D01*
X0044426Y0157332D01*
X0044588Y0157516D01*
X0044756Y0157695D01*
X0044927Y0157871D01*
X0045103Y0158042D01*
X0045282Y0158210D01*
X0045466Y0158372D01*
X0045654Y0158530D01*
X0045846Y0158683D01*
X0046041Y0158832D01*
X0046240Y0158976D01*
X0046442Y0159115D01*
X0046648Y0159249D01*
X0046857Y0159377D01*
X0047069Y0159501D01*
X0047284Y0159619D01*
X0047502Y0159732D01*
X0047722Y0159840D01*
X0047946Y0159942D01*
X0048171Y0160039D01*
X0048399Y0160130D01*
X0048629Y0160215D01*
X0048861Y0160295D01*
X0049095Y0160369D01*
X0049331Y0160438D01*
X0049568Y0160500D01*
X0049807Y0160557D01*
X0050047Y0160608D01*
X0050288Y0160653D01*
X0050531Y0160692D01*
X0050774Y0160725D01*
X0051018Y0160752D01*
X0051262Y0160773D01*
X0051507Y0160788D01*
X0051753Y0160797D01*
X0051998Y0160800D01*
X0052243Y0160797D01*
X0052489Y0160788D01*
X0052734Y0160773D01*
X0052978Y0160752D01*
X0053222Y0160725D01*
X0053465Y0160692D01*
X0053708Y0160653D01*
X0053949Y0160608D01*
X0054189Y0160557D01*
X0054428Y0160500D01*
X0054665Y0160438D01*
X0054901Y0160369D01*
X0055135Y0160295D01*
X0055367Y0160215D01*
X0055597Y0160130D01*
X0055825Y0160039D01*
X0056050Y0159942D01*
X0056274Y0159840D01*
X0056494Y0159732D01*
X0056712Y0159619D01*
X0056927Y0159501D01*
X0057139Y0159377D01*
X0057348Y0159249D01*
X0057554Y0159115D01*
X0057756Y0158976D01*
X0057955Y0158832D01*
X0058150Y0158683D01*
X0058342Y0158530D01*
X0058530Y0158372D01*
X0058714Y0158210D01*
X0058893Y0158042D01*
X0059069Y0157871D01*
X0059240Y0157695D01*
X0059408Y0157516D01*
X0059570Y0157332D01*
X0059728Y0157144D01*
X0059881Y0156952D01*
X0060030Y0156757D01*
X0060174Y0156558D01*
X0060313Y0156356D01*
X0060447Y0156150D01*
X0060575Y0155941D01*
X0060699Y0155729D01*
X0060817Y0155514D01*
X0060930Y0155296D01*
X0061038Y0155076D01*
X0061140Y0154852D01*
X0061237Y0154627D01*
X0061328Y0154399D01*
X0061413Y0154169D01*
X0061493Y0153937D01*
X0061567Y0153703D01*
X0061636Y0153467D01*
X0061698Y0153230D01*
X0061755Y0152991D01*
X0061806Y0152751D01*
X0061851Y0152510D01*
X0061890Y0152267D01*
X0061923Y0152024D01*
X0061950Y0151780D01*
X0061971Y0151536D01*
X0061986Y0151291D01*
X0061995Y0151045D01*
X0061998Y0150800D01*
X0061995Y0150555D01*
X0061986Y0150309D01*
X0061971Y0150064D01*
X0061950Y0149820D01*
X0061923Y0149576D01*
X0061890Y0149333D01*
X0061851Y0149090D01*
X0061806Y0148849D01*
X0061755Y0148609D01*
X0061698Y0148370D01*
X0061636Y0148133D01*
X0061567Y0147897D01*
X0061493Y0147663D01*
X0061413Y0147431D01*
X0061328Y0147201D01*
X0061237Y0146973D01*
X0061140Y0146748D01*
X0061038Y0146524D01*
X0060930Y0146304D01*
X0060817Y0146086D01*
X0060699Y0145871D01*
X0060575Y0145659D01*
X0060447Y0145450D01*
X0060313Y0145244D01*
X0060174Y0145042D01*
X0060030Y0144843D01*
X0059881Y0144648D01*
X0059728Y0144456D01*
X0059570Y0144268D01*
X0059408Y0144084D01*
X0059240Y0143905D01*
X0059069Y0143729D01*
X0058893Y0143558D01*
X0058714Y0143390D01*
X0058530Y0143228D01*
X0058342Y0143070D01*
X0058150Y0142917D01*
X0057955Y0142768D01*
X0057756Y0142624D01*
X0057554Y0142485D01*
X0057348Y0142351D01*
X0057139Y0142223D01*
X0056927Y0142099D01*
X0056712Y0141981D01*
X0056494Y0141868D01*
X0056274Y0141760D01*
X0056050Y0141658D01*
X0055825Y0141561D01*
X0055597Y0141470D01*
X0055367Y0141385D01*
X0055135Y0141305D01*
X0054901Y0141231D01*
X0054665Y0141162D01*
X0054428Y0141100D01*
X0054189Y0141043D01*
X0053949Y0140992D01*
X0053708Y0140947D01*
X0053465Y0140908D01*
X0053222Y0140875D01*
X0052978Y0140848D01*
X0052734Y0140827D01*
X0052489Y0140812D01*
X0052243Y0140803D01*
X0051998Y0140800D01*
X0051753Y0140803D01*
X0051507Y0140812D01*
X0051262Y0140827D01*
X0051018Y0140848D01*
X0050774Y0140875D01*
X0050531Y0140908D01*
X0050288Y0140947D01*
X0050047Y0140992D01*
X0049807Y0141043D01*
X0049568Y0141100D01*
X0049331Y0141162D01*
X0049095Y0141231D01*
X0048861Y0141305D01*
X0048629Y0141385D01*
X0048399Y0141470D01*
X0048171Y0141561D01*
X0047946Y0141658D01*
X0047722Y0141760D01*
X0047502Y0141868D01*
X0047284Y0141981D01*
X0047069Y0142099D01*
X0046857Y0142223D01*
X0046648Y0142351D01*
X0046442Y0142485D01*
X0046240Y0142624D01*
X0046041Y0142768D01*
X0045846Y0142917D01*
X0045654Y0143070D01*
X0045466Y0143228D01*
X0045282Y0143390D01*
X0045103Y0143558D01*
X0044927Y0143729D01*
X0044756Y0143905D01*
X0044588Y0144084D01*
X0044426Y0144268D01*
X0044268Y0144456D01*
X0044115Y0144648D01*
X0043966Y0144843D01*
X0043822Y0145042D01*
X0043683Y0145244D01*
X0043549Y0145450D01*
X0043421Y0145659D01*
X0043297Y0145871D01*
X0043179Y0146086D01*
X0043066Y0146304D01*
X0042958Y0146524D01*
X0042856Y0146748D01*
X0042759Y0146973D01*
X0042668Y0147201D01*
X0042583Y0147431D01*
X0042503Y0147663D01*
X0042429Y0147897D01*
X0042360Y0148133D01*
X0042298Y0148370D01*
X0042241Y0148609D01*
X0042190Y0148849D01*
X0042145Y0149090D01*
X0042106Y0149333D01*
X0042073Y0149576D01*
X0042046Y0149820D01*
X0042025Y0150064D01*
X0042010Y0150309D01*
X0042001Y0150555D01*
X0041998Y0150800D01*
X0042451Y0148339D02*
X0061644Y0148339D01*
X0056329Y0148339D02*
X0047667Y0148339D01*
X0047600Y0148462D01*
X0047535Y0148587D01*
X0047475Y0148714D01*
X0047418Y0148843D01*
X0047364Y0148973D01*
X0047315Y0149104D01*
X0047269Y0149237D01*
X0047226Y0149371D01*
X0047188Y0149506D01*
X0047153Y0149642D01*
X0047123Y0149779D01*
X0047096Y0149917D01*
X0047073Y0150056D01*
X0047054Y0150195D01*
X0047039Y0150335D01*
X0047028Y0150475D01*
X0047020Y0150615D01*
X0047017Y0150756D01*
X0047018Y0150896D01*
X0047023Y0151036D01*
X0047031Y0151177D01*
X0047044Y0151317D01*
X0047060Y0151456D01*
X0047081Y0151595D01*
X0047105Y0151734D01*
X0047134Y0151871D01*
X0047166Y0152008D01*
X0047202Y0152144D01*
X0047241Y0152279D01*
X0047285Y0152412D01*
X0047332Y0152544D01*
X0047383Y0152675D01*
X0047438Y0152805D01*
X0047497Y0152933D01*
X0047559Y0153059D01*
X0047624Y0153183D01*
X0047693Y0153305D01*
X0047765Y0153426D01*
X0047841Y0153544D01*
X0047920Y0153660D01*
X0048002Y0153774D01*
X0048088Y0153886D01*
X0048176Y0153995D01*
X0048268Y0154101D01*
X0048363Y0154205D01*
X0048460Y0154306D01*
X0048561Y0154405D01*
X0048664Y0154500D01*
X0048769Y0154593D01*
X0048878Y0154682D01*
X0048988Y0154769D01*
X0049101Y0154852D01*
X0049217Y0154932D01*
X0049335Y0155009D01*
X0049454Y0155083D01*
X0049576Y0155153D01*
X0049700Y0155219D01*
X0049825Y0155282D01*
X0049953Y0155342D01*
X0050082Y0155398D01*
X0050212Y0155450D01*
X0050344Y0155498D01*
X0050477Y0155543D01*
X0050611Y0155584D01*
X0050747Y0155621D01*
X0050883Y0155655D01*
X0051021Y0155684D01*
X0051159Y0155710D01*
X0051298Y0155732D01*
X0051437Y0155749D01*
X0051577Y0155763D01*
X0051717Y0155773D01*
X0051858Y0155779D01*
X0051998Y0155781D01*
X0052138Y0155779D01*
X0052279Y0155773D01*
X0052419Y0155763D01*
X0052559Y0155749D01*
X0052698Y0155732D01*
X0052837Y0155710D01*
X0052975Y0155684D01*
X0053113Y0155655D01*
X0053249Y0155621D01*
X0053385Y0155584D01*
X0053519Y0155543D01*
X0053652Y0155498D01*
X0053784Y0155450D01*
X0053914Y0155398D01*
X0054043Y0155342D01*
X0054171Y0155282D01*
X0054296Y0155219D01*
X0054420Y0155153D01*
X0054542Y0155083D01*
X0054661Y0155009D01*
X0054779Y0154932D01*
X0054895Y0154852D01*
X0055008Y0154769D01*
X0055118Y0154682D01*
X0055227Y0154593D01*
X0055332Y0154500D01*
X0055435Y0154405D01*
X0055536Y0154306D01*
X0055633Y0154205D01*
X0055728Y0154101D01*
X0055820Y0153995D01*
X0055908Y0153886D01*
X0055994Y0153774D01*
X0056076Y0153660D01*
X0056155Y0153544D01*
X0056231Y0153426D01*
X0056303Y0153305D01*
X0056372Y0153183D01*
X0056437Y0153059D01*
X0056499Y0152933D01*
X0056558Y0152805D01*
X0056613Y0152675D01*
X0056664Y0152544D01*
X0056711Y0152412D01*
X0056755Y0152279D01*
X0056794Y0152144D01*
X0056830Y0152008D01*
X0056862Y0151871D01*
X0056891Y0151734D01*
X0056915Y0151595D01*
X0056936Y0151456D01*
X0056952Y0151317D01*
X0056965Y0151177D01*
X0056973Y0151036D01*
X0056978Y0150896D01*
X0056979Y0150756D01*
X0056976Y0150615D01*
X0056968Y0150475D01*
X0056957Y0150335D01*
X0056942Y0150195D01*
X0056923Y0150056D01*
X0056900Y0149917D01*
X0056873Y0149779D01*
X0056843Y0149642D01*
X0056808Y0149506D01*
X0056770Y0149371D01*
X0056727Y0149237D01*
X0056681Y0149104D01*
X0056632Y0148973D01*
X0056578Y0148843D01*
X0056521Y0148714D01*
X0056461Y0148587D01*
X0056396Y0148462D01*
X0056329Y0148339D01*
X0122451Y0148339D02*
X0141644Y0148339D01*
X0136329Y0148339D02*
X0127667Y0148339D01*
X0121998Y0150800D02*
X0122001Y0151045D01*
X0122010Y0151291D01*
X0122025Y0151536D01*
X0122046Y0151780D01*
X0122073Y0152024D01*
X0122106Y0152267D01*
X0122145Y0152510D01*
X0122190Y0152751D01*
X0122241Y0152991D01*
X0122298Y0153230D01*
X0122360Y0153467D01*
X0122429Y0153703D01*
X0122503Y0153937D01*
X0122583Y0154169D01*
X0122668Y0154399D01*
X0122759Y0154627D01*
X0122856Y0154852D01*
X0122958Y0155076D01*
X0123066Y0155296D01*
X0123179Y0155514D01*
X0123297Y0155729D01*
X0123421Y0155941D01*
X0123549Y0156150D01*
X0123683Y0156356D01*
X0123822Y0156558D01*
X0123966Y0156757D01*
X0124115Y0156952D01*
X0124268Y0157144D01*
X0124426Y0157332D01*
X0124588Y0157516D01*
X0124756Y0157695D01*
X0124927Y0157871D01*
X0125103Y0158042D01*
X0125282Y0158210D01*
X0125466Y0158372D01*
X0125654Y0158530D01*
X0125846Y0158683D01*
X0126041Y0158832D01*
X0126240Y0158976D01*
X0126442Y0159115D01*
X0126648Y0159249D01*
X0126857Y0159377D01*
X0127069Y0159501D01*
X0127284Y0159619D01*
X0127502Y0159732D01*
X0127722Y0159840D01*
X0127946Y0159942D01*
X0128171Y0160039D01*
X0128399Y0160130D01*
X0128629Y0160215D01*
X0128861Y0160295D01*
X0129095Y0160369D01*
X0129331Y0160438D01*
X0129568Y0160500D01*
X0129807Y0160557D01*
X0130047Y0160608D01*
X0130288Y0160653D01*
X0130531Y0160692D01*
X0130774Y0160725D01*
X0131018Y0160752D01*
X0131262Y0160773D01*
X0131507Y0160788D01*
X0131753Y0160797D01*
X0131998Y0160800D01*
X0132243Y0160797D01*
X0132489Y0160788D01*
X0132734Y0160773D01*
X0132978Y0160752D01*
X0133222Y0160725D01*
X0133465Y0160692D01*
X0133708Y0160653D01*
X0133949Y0160608D01*
X0134189Y0160557D01*
X0134428Y0160500D01*
X0134665Y0160438D01*
X0134901Y0160369D01*
X0135135Y0160295D01*
X0135367Y0160215D01*
X0135597Y0160130D01*
X0135825Y0160039D01*
X0136050Y0159942D01*
X0136274Y0159840D01*
X0136494Y0159732D01*
X0136712Y0159619D01*
X0136927Y0159501D01*
X0137139Y0159377D01*
X0137348Y0159249D01*
X0137554Y0159115D01*
X0137756Y0158976D01*
X0137955Y0158832D01*
X0138150Y0158683D01*
X0138342Y0158530D01*
X0138530Y0158372D01*
X0138714Y0158210D01*
X0138893Y0158042D01*
X0139069Y0157871D01*
X0139240Y0157695D01*
X0139408Y0157516D01*
X0139570Y0157332D01*
X0139728Y0157144D01*
X0139881Y0156952D01*
X0140030Y0156757D01*
X0140174Y0156558D01*
X0140313Y0156356D01*
X0140447Y0156150D01*
X0140575Y0155941D01*
X0140699Y0155729D01*
X0140817Y0155514D01*
X0140930Y0155296D01*
X0141038Y0155076D01*
X0141140Y0154852D01*
X0141237Y0154627D01*
X0141328Y0154399D01*
X0141413Y0154169D01*
X0141493Y0153937D01*
X0141567Y0153703D01*
X0141636Y0153467D01*
X0141698Y0153230D01*
X0141755Y0152991D01*
X0141806Y0152751D01*
X0141851Y0152510D01*
X0141890Y0152267D01*
X0141923Y0152024D01*
X0141950Y0151780D01*
X0141971Y0151536D01*
X0141986Y0151291D01*
X0141995Y0151045D01*
X0141998Y0150800D01*
X0141995Y0150555D01*
X0141986Y0150309D01*
X0141971Y0150064D01*
X0141950Y0149820D01*
X0141923Y0149576D01*
X0141890Y0149333D01*
X0141851Y0149090D01*
X0141806Y0148849D01*
X0141755Y0148609D01*
X0141698Y0148370D01*
X0141636Y0148133D01*
X0141567Y0147897D01*
X0141493Y0147663D01*
X0141413Y0147431D01*
X0141328Y0147201D01*
X0141237Y0146973D01*
X0141140Y0146748D01*
X0141038Y0146524D01*
X0140930Y0146304D01*
X0140817Y0146086D01*
X0140699Y0145871D01*
X0140575Y0145659D01*
X0140447Y0145450D01*
X0140313Y0145244D01*
X0140174Y0145042D01*
X0140030Y0144843D01*
X0139881Y0144648D01*
X0139728Y0144456D01*
X0139570Y0144268D01*
X0139408Y0144084D01*
X0139240Y0143905D01*
X0139069Y0143729D01*
X0138893Y0143558D01*
X0138714Y0143390D01*
X0138530Y0143228D01*
X0138342Y0143070D01*
X0138150Y0142917D01*
X0137955Y0142768D01*
X0137756Y0142624D01*
X0137554Y0142485D01*
X0137348Y0142351D01*
X0137139Y0142223D01*
X0136927Y0142099D01*
X0136712Y0141981D01*
X0136494Y0141868D01*
X0136274Y0141760D01*
X0136050Y0141658D01*
X0135825Y0141561D01*
X0135597Y0141470D01*
X0135367Y0141385D01*
X0135135Y0141305D01*
X0134901Y0141231D01*
X0134665Y0141162D01*
X0134428Y0141100D01*
X0134189Y0141043D01*
X0133949Y0140992D01*
X0133708Y0140947D01*
X0133465Y0140908D01*
X0133222Y0140875D01*
X0132978Y0140848D01*
X0132734Y0140827D01*
X0132489Y0140812D01*
X0132243Y0140803D01*
X0131998Y0140800D01*
X0131753Y0140803D01*
X0131507Y0140812D01*
X0131262Y0140827D01*
X0131018Y0140848D01*
X0130774Y0140875D01*
X0130531Y0140908D01*
X0130288Y0140947D01*
X0130047Y0140992D01*
X0129807Y0141043D01*
X0129568Y0141100D01*
X0129331Y0141162D01*
X0129095Y0141231D01*
X0128861Y0141305D01*
X0128629Y0141385D01*
X0128399Y0141470D01*
X0128171Y0141561D01*
X0127946Y0141658D01*
X0127722Y0141760D01*
X0127502Y0141868D01*
X0127284Y0141981D01*
X0127069Y0142099D01*
X0126857Y0142223D01*
X0126648Y0142351D01*
X0126442Y0142485D01*
X0126240Y0142624D01*
X0126041Y0142768D01*
X0125846Y0142917D01*
X0125654Y0143070D01*
X0125466Y0143228D01*
X0125282Y0143390D01*
X0125103Y0143558D01*
X0124927Y0143729D01*
X0124756Y0143905D01*
X0124588Y0144084D01*
X0124426Y0144268D01*
X0124268Y0144456D01*
X0124115Y0144648D01*
X0123966Y0144843D01*
X0123822Y0145042D01*
X0123683Y0145244D01*
X0123549Y0145450D01*
X0123421Y0145659D01*
X0123297Y0145871D01*
X0123179Y0146086D01*
X0123066Y0146304D01*
X0122958Y0146524D01*
X0122856Y0146748D01*
X0122759Y0146973D01*
X0122668Y0147201D01*
X0122583Y0147431D01*
X0122503Y0147663D01*
X0122429Y0147897D01*
X0122360Y0148133D01*
X0122298Y0148370D01*
X0122241Y0148609D01*
X0122190Y0148849D01*
X0122145Y0149090D01*
X0122106Y0149333D01*
X0122073Y0149576D01*
X0122046Y0149820D01*
X0122025Y0150064D01*
X0122010Y0150309D01*
X0122001Y0150555D01*
X0121998Y0150800D01*
X0127667Y0148339D02*
X0127600Y0148462D01*
X0127535Y0148587D01*
X0127475Y0148714D01*
X0127418Y0148843D01*
X0127364Y0148973D01*
X0127315Y0149104D01*
X0127269Y0149237D01*
X0127226Y0149371D01*
X0127188Y0149506D01*
X0127153Y0149642D01*
X0127123Y0149779D01*
X0127096Y0149917D01*
X0127073Y0150056D01*
X0127054Y0150195D01*
X0127039Y0150335D01*
X0127028Y0150475D01*
X0127020Y0150615D01*
X0127017Y0150756D01*
X0127018Y0150896D01*
X0127023Y0151036D01*
X0127031Y0151177D01*
X0127044Y0151317D01*
X0127060Y0151456D01*
X0127081Y0151595D01*
X0127105Y0151734D01*
X0127134Y0151871D01*
X0127166Y0152008D01*
X0127202Y0152144D01*
X0127241Y0152279D01*
X0127285Y0152412D01*
X0127332Y0152544D01*
X0127383Y0152675D01*
X0127438Y0152805D01*
X0127497Y0152933D01*
X0127559Y0153059D01*
X0127624Y0153183D01*
X0127693Y0153305D01*
X0127765Y0153426D01*
X0127841Y0153544D01*
X0127920Y0153660D01*
X0128002Y0153774D01*
X0128088Y0153886D01*
X0128176Y0153995D01*
X0128268Y0154101D01*
X0128363Y0154205D01*
X0128460Y0154306D01*
X0128561Y0154405D01*
X0128664Y0154500D01*
X0128769Y0154593D01*
X0128878Y0154682D01*
X0128988Y0154769D01*
X0129101Y0154852D01*
X0129217Y0154932D01*
X0129335Y0155009D01*
X0129454Y0155083D01*
X0129576Y0155153D01*
X0129700Y0155219D01*
X0129825Y0155282D01*
X0129953Y0155342D01*
X0130082Y0155398D01*
X0130212Y0155450D01*
X0130344Y0155498D01*
X0130477Y0155543D01*
X0130611Y0155584D01*
X0130747Y0155621D01*
X0130883Y0155655D01*
X0131021Y0155684D01*
X0131159Y0155710D01*
X0131298Y0155732D01*
X0131437Y0155749D01*
X0131577Y0155763D01*
X0131717Y0155773D01*
X0131858Y0155779D01*
X0131998Y0155781D01*
X0132138Y0155779D01*
X0132279Y0155773D01*
X0132419Y0155763D01*
X0132559Y0155749D01*
X0132698Y0155732D01*
X0132837Y0155710D01*
X0132975Y0155684D01*
X0133113Y0155655D01*
X0133249Y0155621D01*
X0133385Y0155584D01*
X0133519Y0155543D01*
X0133652Y0155498D01*
X0133784Y0155450D01*
X0133914Y0155398D01*
X0134043Y0155342D01*
X0134171Y0155282D01*
X0134296Y0155219D01*
X0134420Y0155153D01*
X0134542Y0155083D01*
X0134661Y0155009D01*
X0134779Y0154932D01*
X0134895Y0154852D01*
X0135008Y0154769D01*
X0135118Y0154682D01*
X0135227Y0154593D01*
X0135332Y0154500D01*
X0135435Y0154405D01*
X0135536Y0154306D01*
X0135633Y0154205D01*
X0135728Y0154101D01*
X0135820Y0153995D01*
X0135908Y0153886D01*
X0135994Y0153774D01*
X0136076Y0153660D01*
X0136155Y0153544D01*
X0136231Y0153426D01*
X0136303Y0153305D01*
X0136372Y0153183D01*
X0136437Y0153059D01*
X0136499Y0152933D01*
X0136558Y0152805D01*
X0136613Y0152675D01*
X0136664Y0152544D01*
X0136711Y0152412D01*
X0136755Y0152279D01*
X0136794Y0152144D01*
X0136830Y0152008D01*
X0136862Y0151871D01*
X0136891Y0151734D01*
X0136915Y0151595D01*
X0136936Y0151456D01*
X0136952Y0151317D01*
X0136965Y0151177D01*
X0136973Y0151036D01*
X0136978Y0150896D01*
X0136979Y0150756D01*
X0136976Y0150615D01*
X0136968Y0150475D01*
X0136957Y0150335D01*
X0136942Y0150195D01*
X0136923Y0150056D01*
X0136900Y0149917D01*
X0136873Y0149779D01*
X0136843Y0149642D01*
X0136808Y0149506D01*
X0136770Y0149371D01*
X0136727Y0149237D01*
X0136681Y0149104D01*
X0136632Y0148973D01*
X0136578Y0148843D01*
X0136521Y0148714D01*
X0136461Y0148587D01*
X0136396Y0148462D01*
X0136329Y0148339D01*
X0121998Y0080800D02*
X0122001Y0081045D01*
X0122010Y0081291D01*
X0122025Y0081536D01*
X0122046Y0081780D01*
X0122073Y0082024D01*
X0122106Y0082267D01*
X0122145Y0082510D01*
X0122190Y0082751D01*
X0122241Y0082991D01*
X0122298Y0083230D01*
X0122360Y0083467D01*
X0122429Y0083703D01*
X0122503Y0083937D01*
X0122583Y0084169D01*
X0122668Y0084399D01*
X0122759Y0084627D01*
X0122856Y0084852D01*
X0122958Y0085076D01*
X0123066Y0085296D01*
X0123179Y0085514D01*
X0123297Y0085729D01*
X0123421Y0085941D01*
X0123549Y0086150D01*
X0123683Y0086356D01*
X0123822Y0086558D01*
X0123966Y0086757D01*
X0124115Y0086952D01*
X0124268Y0087144D01*
X0124426Y0087332D01*
X0124588Y0087516D01*
X0124756Y0087695D01*
X0124927Y0087871D01*
X0125103Y0088042D01*
X0125282Y0088210D01*
X0125466Y0088372D01*
X0125654Y0088530D01*
X0125846Y0088683D01*
X0126041Y0088832D01*
X0126240Y0088976D01*
X0126442Y0089115D01*
X0126648Y0089249D01*
X0126857Y0089377D01*
X0127069Y0089501D01*
X0127284Y0089619D01*
X0127502Y0089732D01*
X0127722Y0089840D01*
X0127946Y0089942D01*
X0128171Y0090039D01*
X0128399Y0090130D01*
X0128629Y0090215D01*
X0128861Y0090295D01*
X0129095Y0090369D01*
X0129331Y0090438D01*
X0129568Y0090500D01*
X0129807Y0090557D01*
X0130047Y0090608D01*
X0130288Y0090653D01*
X0130531Y0090692D01*
X0130774Y0090725D01*
X0131018Y0090752D01*
X0131262Y0090773D01*
X0131507Y0090788D01*
X0131753Y0090797D01*
X0131998Y0090800D01*
X0132243Y0090797D01*
X0132489Y0090788D01*
X0132734Y0090773D01*
X0132978Y0090752D01*
X0133222Y0090725D01*
X0133465Y0090692D01*
X0133708Y0090653D01*
X0133949Y0090608D01*
X0134189Y0090557D01*
X0134428Y0090500D01*
X0134665Y0090438D01*
X0134901Y0090369D01*
X0135135Y0090295D01*
X0135367Y0090215D01*
X0135597Y0090130D01*
X0135825Y0090039D01*
X0136050Y0089942D01*
X0136274Y0089840D01*
X0136494Y0089732D01*
X0136712Y0089619D01*
X0136927Y0089501D01*
X0137139Y0089377D01*
X0137348Y0089249D01*
X0137554Y0089115D01*
X0137756Y0088976D01*
X0137955Y0088832D01*
X0138150Y0088683D01*
X0138342Y0088530D01*
X0138530Y0088372D01*
X0138714Y0088210D01*
X0138893Y0088042D01*
X0139069Y0087871D01*
X0139240Y0087695D01*
X0139408Y0087516D01*
X0139570Y0087332D01*
X0139728Y0087144D01*
X0139881Y0086952D01*
X0140030Y0086757D01*
X0140174Y0086558D01*
X0140313Y0086356D01*
X0140447Y0086150D01*
X0140575Y0085941D01*
X0140699Y0085729D01*
X0140817Y0085514D01*
X0140930Y0085296D01*
X0141038Y0085076D01*
X0141140Y0084852D01*
X0141237Y0084627D01*
X0141328Y0084399D01*
X0141413Y0084169D01*
X0141493Y0083937D01*
X0141567Y0083703D01*
X0141636Y0083467D01*
X0141698Y0083230D01*
X0141755Y0082991D01*
X0141806Y0082751D01*
X0141851Y0082510D01*
X0141890Y0082267D01*
X0141923Y0082024D01*
X0141950Y0081780D01*
X0141971Y0081536D01*
X0141986Y0081291D01*
X0141995Y0081045D01*
X0141998Y0080800D01*
X0141995Y0080555D01*
X0141986Y0080309D01*
X0141971Y0080064D01*
X0141950Y0079820D01*
X0141923Y0079576D01*
X0141890Y0079333D01*
X0141851Y0079090D01*
X0141806Y0078849D01*
X0141755Y0078609D01*
X0141698Y0078370D01*
X0141636Y0078133D01*
X0141567Y0077897D01*
X0141493Y0077663D01*
X0141413Y0077431D01*
X0141328Y0077201D01*
X0141237Y0076973D01*
X0141140Y0076748D01*
X0141038Y0076524D01*
X0140930Y0076304D01*
X0140817Y0076086D01*
X0140699Y0075871D01*
X0140575Y0075659D01*
X0140447Y0075450D01*
X0140313Y0075244D01*
X0140174Y0075042D01*
X0140030Y0074843D01*
X0139881Y0074648D01*
X0139728Y0074456D01*
X0139570Y0074268D01*
X0139408Y0074084D01*
X0139240Y0073905D01*
X0139069Y0073729D01*
X0138893Y0073558D01*
X0138714Y0073390D01*
X0138530Y0073228D01*
X0138342Y0073070D01*
X0138150Y0072917D01*
X0137955Y0072768D01*
X0137756Y0072624D01*
X0137554Y0072485D01*
X0137348Y0072351D01*
X0137139Y0072223D01*
X0136927Y0072099D01*
X0136712Y0071981D01*
X0136494Y0071868D01*
X0136274Y0071760D01*
X0136050Y0071658D01*
X0135825Y0071561D01*
X0135597Y0071470D01*
X0135367Y0071385D01*
X0135135Y0071305D01*
X0134901Y0071231D01*
X0134665Y0071162D01*
X0134428Y0071100D01*
X0134189Y0071043D01*
X0133949Y0070992D01*
X0133708Y0070947D01*
X0133465Y0070908D01*
X0133222Y0070875D01*
X0132978Y0070848D01*
X0132734Y0070827D01*
X0132489Y0070812D01*
X0132243Y0070803D01*
X0131998Y0070800D01*
X0131753Y0070803D01*
X0131507Y0070812D01*
X0131262Y0070827D01*
X0131018Y0070848D01*
X0130774Y0070875D01*
X0130531Y0070908D01*
X0130288Y0070947D01*
X0130047Y0070992D01*
X0129807Y0071043D01*
X0129568Y0071100D01*
X0129331Y0071162D01*
X0129095Y0071231D01*
X0128861Y0071305D01*
X0128629Y0071385D01*
X0128399Y0071470D01*
X0128171Y0071561D01*
X0127946Y0071658D01*
X0127722Y0071760D01*
X0127502Y0071868D01*
X0127284Y0071981D01*
X0127069Y0072099D01*
X0126857Y0072223D01*
X0126648Y0072351D01*
X0126442Y0072485D01*
X0126240Y0072624D01*
X0126041Y0072768D01*
X0125846Y0072917D01*
X0125654Y0073070D01*
X0125466Y0073228D01*
X0125282Y0073390D01*
X0125103Y0073558D01*
X0124927Y0073729D01*
X0124756Y0073905D01*
X0124588Y0074084D01*
X0124426Y0074268D01*
X0124268Y0074456D01*
X0124115Y0074648D01*
X0123966Y0074843D01*
X0123822Y0075042D01*
X0123683Y0075244D01*
X0123549Y0075450D01*
X0123421Y0075659D01*
X0123297Y0075871D01*
X0123179Y0076086D01*
X0123066Y0076304D01*
X0122958Y0076524D01*
X0122856Y0076748D01*
X0122759Y0076973D01*
X0122668Y0077201D01*
X0122583Y0077431D01*
X0122503Y0077663D01*
X0122429Y0077897D01*
X0122360Y0078133D01*
X0122298Y0078370D01*
X0122241Y0078609D01*
X0122190Y0078849D01*
X0122145Y0079090D01*
X0122106Y0079333D01*
X0122073Y0079576D01*
X0122046Y0079820D01*
X0122025Y0080064D01*
X0122010Y0080309D01*
X0122001Y0080555D01*
X0121998Y0080800D01*
X0122451Y0078339D02*
X0141644Y0078339D01*
X0136329Y0078339D02*
X0127667Y0078339D01*
X0127600Y0078462D01*
X0127535Y0078587D01*
X0127475Y0078714D01*
X0127418Y0078843D01*
X0127364Y0078973D01*
X0127315Y0079104D01*
X0127269Y0079237D01*
X0127226Y0079371D01*
X0127188Y0079506D01*
X0127153Y0079642D01*
X0127123Y0079779D01*
X0127096Y0079917D01*
X0127073Y0080056D01*
X0127054Y0080195D01*
X0127039Y0080335D01*
X0127028Y0080475D01*
X0127020Y0080615D01*
X0127017Y0080756D01*
X0127018Y0080896D01*
X0127023Y0081036D01*
X0127031Y0081177D01*
X0127044Y0081317D01*
X0127060Y0081456D01*
X0127081Y0081595D01*
X0127105Y0081734D01*
X0127134Y0081871D01*
X0127166Y0082008D01*
X0127202Y0082144D01*
X0127241Y0082279D01*
X0127285Y0082412D01*
X0127332Y0082544D01*
X0127383Y0082675D01*
X0127438Y0082805D01*
X0127497Y0082933D01*
X0127559Y0083059D01*
X0127624Y0083183D01*
X0127693Y0083305D01*
X0127765Y0083426D01*
X0127841Y0083544D01*
X0127920Y0083660D01*
X0128002Y0083774D01*
X0128088Y0083886D01*
X0128176Y0083995D01*
X0128268Y0084101D01*
X0128363Y0084205D01*
X0128460Y0084306D01*
X0128561Y0084405D01*
X0128664Y0084500D01*
X0128769Y0084593D01*
X0128878Y0084682D01*
X0128988Y0084769D01*
X0129101Y0084852D01*
X0129217Y0084932D01*
X0129335Y0085009D01*
X0129454Y0085083D01*
X0129576Y0085153D01*
X0129700Y0085219D01*
X0129825Y0085282D01*
X0129953Y0085342D01*
X0130082Y0085398D01*
X0130212Y0085450D01*
X0130344Y0085498D01*
X0130477Y0085543D01*
X0130611Y0085584D01*
X0130747Y0085621D01*
X0130883Y0085655D01*
X0131021Y0085684D01*
X0131159Y0085710D01*
X0131298Y0085732D01*
X0131437Y0085749D01*
X0131577Y0085763D01*
X0131717Y0085773D01*
X0131858Y0085779D01*
X0131998Y0085781D01*
X0132138Y0085779D01*
X0132279Y0085773D01*
X0132419Y0085763D01*
X0132559Y0085749D01*
X0132698Y0085732D01*
X0132837Y0085710D01*
X0132975Y0085684D01*
X0133113Y0085655D01*
X0133249Y0085621D01*
X0133385Y0085584D01*
X0133519Y0085543D01*
X0133652Y0085498D01*
X0133784Y0085450D01*
X0133914Y0085398D01*
X0134043Y0085342D01*
X0134171Y0085282D01*
X0134296Y0085219D01*
X0134420Y0085153D01*
X0134542Y0085083D01*
X0134661Y0085009D01*
X0134779Y0084932D01*
X0134895Y0084852D01*
X0135008Y0084769D01*
X0135118Y0084682D01*
X0135227Y0084593D01*
X0135332Y0084500D01*
X0135435Y0084405D01*
X0135536Y0084306D01*
X0135633Y0084205D01*
X0135728Y0084101D01*
X0135820Y0083995D01*
X0135908Y0083886D01*
X0135994Y0083774D01*
X0136076Y0083660D01*
X0136155Y0083544D01*
X0136231Y0083426D01*
X0136303Y0083305D01*
X0136372Y0083183D01*
X0136437Y0083059D01*
X0136499Y0082933D01*
X0136558Y0082805D01*
X0136613Y0082675D01*
X0136664Y0082544D01*
X0136711Y0082412D01*
X0136755Y0082279D01*
X0136794Y0082144D01*
X0136830Y0082008D01*
X0136862Y0081871D01*
X0136891Y0081734D01*
X0136915Y0081595D01*
X0136936Y0081456D01*
X0136952Y0081317D01*
X0136965Y0081177D01*
X0136973Y0081036D01*
X0136978Y0080896D01*
X0136979Y0080756D01*
X0136976Y0080615D01*
X0136968Y0080475D01*
X0136957Y0080335D01*
X0136942Y0080195D01*
X0136923Y0080056D01*
X0136900Y0079917D01*
X0136873Y0079779D01*
X0136843Y0079642D01*
X0136808Y0079506D01*
X0136770Y0079371D01*
X0136727Y0079237D01*
X0136681Y0079104D01*
X0136632Y0078973D01*
X0136578Y0078843D01*
X0136521Y0078714D01*
X0136461Y0078587D01*
X0136396Y0078462D01*
X0136329Y0078339D01*
D15*
X0104326Y0253250D02*
X0104576Y0253500D01*
X0104576Y0253750D01*
X0104326Y0254001D01*
X0103575Y0254001D01*
X0103575Y0253500D01*
X0103825Y0253250D01*
X0104326Y0253250D01*
X0103575Y0254001D02*
X0104075Y0254501D01*
X0104576Y0254751D01*
X0102602Y0254751D02*
X0102602Y0253250D01*
X0102102Y0253250D02*
X0103102Y0253250D01*
X0102102Y0254251D02*
X0102602Y0254751D01*
X0101629Y0254751D02*
X0101129Y0254751D01*
X0101379Y0254751D02*
X0101379Y0253500D01*
X0101129Y0253250D01*
X0100879Y0253250D01*
X0100628Y0253500D01*
D16*
X0101998Y0260800D03*
X0101998Y0270800D03*
X0091998Y0270800D03*
X0091998Y0260800D03*
X0081998Y0260800D03*
X0081998Y0270800D03*
X0071998Y0270800D03*
X0071998Y0260800D03*
X0111998Y0260800D03*
X0111998Y0270800D03*
X0121998Y0015800D03*
X0131998Y0015800D03*
X0141998Y0015800D03*
X0061998Y0015800D03*
X0051998Y0015800D03*
X0041998Y0015800D03*
D17*
X0058198Y0260800D02*
X0058198Y0270800D01*
X0051998Y0273800D02*
X0051806Y0273798D01*
X0051614Y0273791D01*
X0051422Y0273779D01*
X0051230Y0273763D01*
X0051039Y0273742D01*
X0050849Y0273717D01*
X0050659Y0273687D01*
X0050470Y0273653D01*
X0050282Y0273614D01*
X0050095Y0273570D01*
X0049909Y0273522D01*
X0049724Y0273470D01*
X0049540Y0273413D01*
X0049358Y0273352D01*
X0049178Y0273286D01*
X0048999Y0273216D01*
X0048821Y0273142D01*
X0048646Y0273064D01*
X0048472Y0272981D01*
X0048301Y0272894D01*
X0048132Y0272804D01*
X0047965Y0272709D01*
X0047800Y0272610D01*
X0047637Y0272507D01*
X0047478Y0272400D01*
X0047320Y0272290D01*
X0047166Y0272176D01*
X0047014Y0272058D01*
X0046865Y0271936D01*
X0046719Y0271811D01*
X0046577Y0271683D01*
X0046437Y0271551D01*
X0046300Y0271416D01*
X0046167Y0271277D01*
X0046037Y0271136D01*
X0045911Y0270991D01*
X0045788Y0270843D01*
X0045669Y0270693D01*
X0045553Y0270539D01*
X0045441Y0270383D01*
X0045333Y0270224D01*
X0045228Y0270063D01*
X0045128Y0269899D01*
X0045032Y0269733D01*
X0044939Y0269565D01*
X0045052Y0261831D02*
X0045151Y0261662D01*
X0045255Y0261496D01*
X0045362Y0261332D01*
X0045473Y0261171D01*
X0045588Y0261013D01*
X0045707Y0260858D01*
X0045830Y0260705D01*
X0045956Y0260556D01*
X0046086Y0260410D01*
X0046220Y0260267D01*
X0046357Y0260127D01*
X0046497Y0259991D01*
X0046641Y0259858D01*
X0046788Y0259729D01*
X0046938Y0259603D01*
X0047091Y0259482D01*
X0047247Y0259363D01*
X0047406Y0259249D01*
X0047567Y0259139D01*
X0047732Y0259033D01*
X0047898Y0258930D01*
X0048068Y0258832D01*
X0048239Y0258738D01*
X0048413Y0258648D01*
X0048589Y0258563D01*
X0048767Y0258481D01*
X0048947Y0258405D01*
X0049129Y0258332D01*
X0049312Y0258264D01*
X0049497Y0258201D01*
X0049684Y0258142D01*
X0049872Y0258088D01*
X0050061Y0258038D01*
X0050251Y0257993D01*
X0050443Y0257953D01*
X0050635Y0257917D01*
X0050828Y0257886D01*
X0051022Y0257860D01*
X0051217Y0257838D01*
X0051412Y0257822D01*
X0051607Y0257810D01*
X0051803Y0257802D01*
X0051998Y0257800D01*
X0045185Y0261607D02*
X0045086Y0261772D01*
X0044991Y0261939D01*
X0044901Y0262108D01*
X0044814Y0262279D01*
X0044732Y0262453D01*
X0044654Y0262628D01*
X0044580Y0262805D01*
X0044510Y0262984D01*
X0044445Y0263164D01*
X0044384Y0263346D01*
X0044327Y0263529D01*
X0044275Y0263714D01*
X0044227Y0263900D01*
X0044184Y0264087D01*
X0044145Y0264275D01*
X0044110Y0264463D01*
X0044081Y0264653D01*
X0044055Y0264843D01*
X0044035Y0265034D01*
X0044019Y0265225D01*
X0044007Y0265417D01*
X0044000Y0265608D01*
X0043998Y0265800D01*
X0044000Y0265988D01*
X0044007Y0266176D01*
X0044018Y0266364D01*
X0044033Y0266552D01*
X0044053Y0266739D01*
X0044078Y0266925D01*
X0044106Y0267111D01*
X0044139Y0267297D01*
X0044177Y0267481D01*
X0044218Y0267664D01*
X0044264Y0267847D01*
X0044315Y0268028D01*
X0044369Y0268208D01*
X0044428Y0268387D01*
X0044491Y0268564D01*
X0044558Y0268740D01*
X0044629Y0268914D01*
X0044704Y0269087D01*
X0044784Y0269257D01*
X0044867Y0269426D01*
X0044954Y0269593D01*
X0051998Y0273800D02*
X0052193Y0273798D01*
X0052387Y0273791D01*
X0052581Y0273779D01*
X0052775Y0273762D01*
X0052969Y0273741D01*
X0053162Y0273715D01*
X0053354Y0273684D01*
X0053546Y0273649D01*
X0053736Y0273609D01*
X0053926Y0273564D01*
X0054114Y0273515D01*
X0054301Y0273461D01*
X0054487Y0273403D01*
X0054671Y0273340D01*
X0054854Y0273273D01*
X0055035Y0273201D01*
X0055214Y0273125D01*
X0055391Y0273045D01*
X0055566Y0272960D01*
X0055740Y0272871D01*
X0055910Y0272778D01*
X0056079Y0272681D01*
X0056245Y0272579D01*
X0056409Y0272474D01*
X0056570Y0272365D01*
X0056729Y0272252D01*
X0056884Y0272135D01*
X0057037Y0272014D01*
X0057186Y0271889D01*
X0057333Y0271761D01*
X0057477Y0271630D01*
X0057617Y0271495D01*
X0057754Y0271356D01*
X0057887Y0271215D01*
X0058017Y0271070D01*
X0058144Y0270922D01*
X0058105Y0260632D02*
X0057978Y0260486D01*
X0057849Y0260344D01*
X0057715Y0260204D01*
X0057579Y0260068D01*
X0057439Y0259935D01*
X0057296Y0259805D01*
X0057149Y0259679D01*
X0057000Y0259557D01*
X0056848Y0259438D01*
X0056693Y0259323D01*
X0056536Y0259211D01*
X0056376Y0259104D01*
X0056213Y0259000D01*
X0056047Y0258901D01*
X0055880Y0258805D01*
X0055710Y0258713D01*
X0055538Y0258626D01*
X0055364Y0258542D01*
X0055188Y0258463D01*
X0055010Y0258389D01*
X0054830Y0258318D01*
X0054649Y0258252D01*
X0054466Y0258190D01*
X0054282Y0258133D01*
X0054096Y0258080D01*
X0053909Y0258032D01*
X0053721Y0257988D01*
X0053532Y0257949D01*
X0053342Y0257914D01*
X0053152Y0257884D01*
X0052961Y0257858D01*
X0052769Y0257837D01*
X0052576Y0257821D01*
X0052384Y0257809D01*
X0052191Y0257802D01*
X0051998Y0257800D01*
X0125052Y0261831D02*
X0125151Y0261662D01*
X0125255Y0261496D01*
X0125362Y0261332D01*
X0125473Y0261171D01*
X0125588Y0261013D01*
X0125707Y0260858D01*
X0125830Y0260705D01*
X0125956Y0260556D01*
X0126086Y0260410D01*
X0126220Y0260267D01*
X0126357Y0260127D01*
X0126497Y0259991D01*
X0126641Y0259858D01*
X0126788Y0259729D01*
X0126938Y0259603D01*
X0127091Y0259482D01*
X0127247Y0259363D01*
X0127406Y0259249D01*
X0127567Y0259139D01*
X0127732Y0259033D01*
X0127898Y0258930D01*
X0128068Y0258832D01*
X0128239Y0258738D01*
X0128413Y0258648D01*
X0128589Y0258563D01*
X0128767Y0258481D01*
X0128947Y0258405D01*
X0129129Y0258332D01*
X0129312Y0258264D01*
X0129497Y0258201D01*
X0129684Y0258142D01*
X0129872Y0258088D01*
X0130061Y0258038D01*
X0130251Y0257993D01*
X0130443Y0257953D01*
X0130635Y0257917D01*
X0130828Y0257886D01*
X0131022Y0257860D01*
X0131217Y0257838D01*
X0131412Y0257822D01*
X0131607Y0257810D01*
X0131803Y0257802D01*
X0131998Y0257800D01*
X0125185Y0261607D02*
X0125086Y0261772D01*
X0124991Y0261939D01*
X0124901Y0262108D01*
X0124814Y0262279D01*
X0124732Y0262453D01*
X0124654Y0262628D01*
X0124580Y0262805D01*
X0124510Y0262984D01*
X0124445Y0263164D01*
X0124384Y0263346D01*
X0124327Y0263529D01*
X0124275Y0263714D01*
X0124227Y0263900D01*
X0124184Y0264087D01*
X0124145Y0264275D01*
X0124110Y0264463D01*
X0124081Y0264653D01*
X0124055Y0264843D01*
X0124035Y0265034D01*
X0124019Y0265225D01*
X0124007Y0265417D01*
X0124000Y0265608D01*
X0123998Y0265800D01*
X0124000Y0265988D01*
X0124007Y0266176D01*
X0124018Y0266364D01*
X0124033Y0266552D01*
X0124053Y0266739D01*
X0124078Y0266925D01*
X0124106Y0267111D01*
X0124139Y0267297D01*
X0124177Y0267481D01*
X0124218Y0267664D01*
X0124264Y0267847D01*
X0124315Y0268028D01*
X0124369Y0268208D01*
X0124428Y0268387D01*
X0124491Y0268564D01*
X0124558Y0268740D01*
X0124629Y0268914D01*
X0124704Y0269087D01*
X0124784Y0269257D01*
X0124867Y0269426D01*
X0124954Y0269593D01*
X0131998Y0273800D02*
X0132193Y0273798D01*
X0132387Y0273791D01*
X0132581Y0273779D01*
X0132775Y0273762D01*
X0132969Y0273741D01*
X0133162Y0273715D01*
X0133354Y0273684D01*
X0133546Y0273649D01*
X0133736Y0273609D01*
X0133926Y0273564D01*
X0134114Y0273515D01*
X0134301Y0273461D01*
X0134487Y0273403D01*
X0134671Y0273340D01*
X0134854Y0273273D01*
X0135035Y0273201D01*
X0135214Y0273125D01*
X0135391Y0273045D01*
X0135566Y0272960D01*
X0135740Y0272871D01*
X0135910Y0272778D01*
X0136079Y0272681D01*
X0136245Y0272579D01*
X0136409Y0272474D01*
X0136570Y0272365D01*
X0136729Y0272252D01*
X0136884Y0272135D01*
X0137037Y0272014D01*
X0137186Y0271889D01*
X0137333Y0271761D01*
X0137477Y0271630D01*
X0137617Y0271495D01*
X0137754Y0271356D01*
X0137887Y0271215D01*
X0138017Y0271070D01*
X0138144Y0270922D01*
X0138198Y0270800D02*
X0138198Y0260800D01*
X0131998Y0273800D02*
X0131806Y0273798D01*
X0131614Y0273791D01*
X0131422Y0273779D01*
X0131230Y0273763D01*
X0131039Y0273742D01*
X0130849Y0273717D01*
X0130659Y0273687D01*
X0130470Y0273653D01*
X0130282Y0273614D01*
X0130095Y0273570D01*
X0129909Y0273522D01*
X0129724Y0273470D01*
X0129540Y0273413D01*
X0129358Y0273352D01*
X0129178Y0273286D01*
X0128999Y0273216D01*
X0128821Y0273142D01*
X0128646Y0273064D01*
X0128472Y0272981D01*
X0128301Y0272894D01*
X0128132Y0272804D01*
X0127965Y0272709D01*
X0127800Y0272610D01*
X0127637Y0272507D01*
X0127478Y0272400D01*
X0127320Y0272290D01*
X0127166Y0272176D01*
X0127014Y0272058D01*
X0126865Y0271936D01*
X0126719Y0271811D01*
X0126577Y0271683D01*
X0126437Y0271551D01*
X0126300Y0271416D01*
X0126167Y0271277D01*
X0126037Y0271136D01*
X0125911Y0270991D01*
X0125788Y0270843D01*
X0125669Y0270693D01*
X0125553Y0270539D01*
X0125441Y0270383D01*
X0125333Y0270224D01*
X0125228Y0270063D01*
X0125128Y0269899D01*
X0125032Y0269733D01*
X0124939Y0269565D01*
X0131998Y0257800D02*
X0132191Y0257802D01*
X0132384Y0257809D01*
X0132576Y0257821D01*
X0132769Y0257837D01*
X0132961Y0257858D01*
X0133152Y0257884D01*
X0133342Y0257914D01*
X0133532Y0257949D01*
X0133721Y0257988D01*
X0133909Y0258032D01*
X0134096Y0258080D01*
X0134282Y0258133D01*
X0134466Y0258190D01*
X0134649Y0258252D01*
X0134830Y0258318D01*
X0135010Y0258389D01*
X0135188Y0258463D01*
X0135364Y0258542D01*
X0135538Y0258626D01*
X0135710Y0258713D01*
X0135880Y0258805D01*
X0136047Y0258901D01*
X0136213Y0259000D01*
X0136376Y0259104D01*
X0136536Y0259211D01*
X0136693Y0259323D01*
X0136848Y0259438D01*
X0137000Y0259557D01*
X0137149Y0259679D01*
X0137296Y0259805D01*
X0137439Y0259935D01*
X0137579Y0260068D01*
X0137715Y0260204D01*
X0137849Y0260344D01*
X0137978Y0260486D01*
X0138105Y0260632D01*
M02*
