%
M48
M72
T01C0.00787
T02C0.01181
T03C0.01378
T04C0.03200
T05C0.03937
T06C0.04000
T07C0.05906
T08C0.08661
T09C0.11024
%
T01
X69097Y106998
T02
X115602Y174146
X91998Y175800
X66998Y180800
X61998Y180800
T03
X71998Y190800
X76998Y185800
X66998Y200800
X71998Y205800
X46998Y190800
X76798Y165800
X96998Y135800
X96998Y100800
X101998Y100800
X86998Y90800
X86998Y85800
X92901Y67653
X66998Y70800
X61998Y90800
X61998Y95800
X61998Y100800
X55201Y112598
X46998Y115800
X37097Y115652
X46998Y130800
X41998Y95800
X66998Y45800
X126998Y155800
X117228Y170570
X116998Y195800
X121998Y210800
X111998Y220800
T04
X126998Y265800
X136998Y265800
X56998Y265800
X46998Y265800
T05
X42156Y123241
X51998Y123241
X61841Y123241
X122156Y123241
X131998Y123241
X141841Y123241
X143809Y37493
X135935Y37493
X128061Y37493
X120187Y37493
X112313Y37493
X151683Y37493
T06
X41998Y15800
X51998Y15800
X61998Y15800
X121998Y15800
X131998Y15800
X141998Y15800
X131998Y208300
X131998Y218300
X131998Y248300
X111998Y260800
X111998Y270800
X101998Y270800
X101998Y260800
X91998Y260800
X91998Y270800
X81998Y270800
X81998Y260800
X71998Y260800
X71998Y270800
X51998Y248300
X51998Y218300
X51998Y208300
T07
X33494Y150800
X70502Y150800
X113494Y150800
X150502Y150800
T08
X131998Y230800
X51998Y230800
T09
X109163Y80800
X154833Y80800
M30
