G75*
%MOIN*%
%OFA0B0*%
%FSLAX25Y25*%
%IPPOS*%
%LPD*%
%AMOC8*
5,1,8,0,0,1.08239X$1,22.5*
%
%ADD10C,0.00400*%
%ADD11C,0.00300*%
%ADD12R,0.02756X0.01772*%
%ADD13R,0.02756X0.01575*%
%ADD14C,0.00000*%
%ADD15C,0.00200*%
%ADD16R,0.01969X0.03740*%
%ADD17R,0.01772X0.02756*%
%ADD18R,0.01575X0.02756*%
%ADD19R,0.03740X0.01969*%
%ADD20C,0.01000*%
%ADD21R,0.03346X0.02953*%
%ADD22R,0.05315X0.03543*%
%ADD23C,0.00800*%
%ADD24C,0.00600*%
%ADD25R,0.04331X0.01929*%
%ADD26C,0.00500*%
%ADD27R,0.01800X0.02300*%
%ADD28R,0.01600X0.03400*%
%ADD29R,0.03400X0.01600*%
D10*
X0036600Y0078500D02*
X0038135Y0078500D01*
X0038902Y0079267D01*
X0040437Y0078500D02*
X0043506Y0078500D01*
X0041971Y0078500D02*
X0041971Y0083104D01*
X0043506Y0081569D01*
X0045041Y0080802D02*
X0045041Y0082337D01*
X0045808Y0083104D01*
X0048110Y0083104D01*
X0048110Y0078500D01*
X0048110Y0080035D02*
X0045808Y0080035D01*
X0045041Y0080802D01*
X0046575Y0080035D02*
X0045041Y0078500D01*
X0045041Y0083500D02*
X0046575Y0085035D01*
X0045808Y0085035D02*
X0048110Y0085035D01*
X0048110Y0083500D02*
X0048110Y0088104D01*
X0045808Y0088104D01*
X0045041Y0087337D01*
X0045041Y0085802D01*
X0045808Y0085035D01*
X0043506Y0086569D02*
X0041971Y0088104D01*
X0041971Y0083500D01*
X0040437Y0083500D02*
X0043506Y0083500D01*
X0038902Y0084267D02*
X0038135Y0083500D01*
X0036600Y0083500D01*
X0035833Y0084267D01*
X0035833Y0085802D01*
X0036600Y0086569D01*
X0037367Y0086569D01*
X0038902Y0085802D01*
X0038902Y0088104D01*
X0035833Y0088104D01*
X0036600Y0083104D02*
X0035833Y0082337D01*
X0035833Y0081569D01*
X0036600Y0080802D01*
X0035833Y0080035D01*
X0035833Y0079267D01*
X0036600Y0078500D01*
X0036600Y0080802D02*
X0037367Y0080802D01*
X0038902Y0082337D02*
X0038135Y0083104D01*
X0036600Y0083104D01*
X0036600Y0098500D02*
X0036600Y0103104D01*
X0038902Y0100802D01*
X0035833Y0100802D01*
X0035597Y0099150D02*
X0038400Y0099150D01*
X0040437Y0098500D02*
X0043506Y0098500D01*
X0041971Y0098500D02*
X0041971Y0103104D01*
X0043506Y0101569D01*
X0045041Y0100802D02*
X0045041Y0102337D01*
X0045808Y0103104D01*
X0048110Y0103104D01*
X0048110Y0098500D01*
X0048110Y0100035D02*
X0045808Y0100035D01*
X0045041Y0100802D01*
X0046575Y0100035D02*
X0045041Y0098500D01*
X0038400Y0102501D02*
X0035597Y0102501D01*
X0036996Y0103500D02*
X0036229Y0104267D01*
X0036996Y0103500D02*
X0038531Y0103500D01*
X0039298Y0104267D01*
X0039298Y0107337D01*
X0038531Y0108104D01*
X0036996Y0108104D01*
X0036229Y0107337D01*
X0034694Y0105802D02*
X0034694Y0104267D01*
X0033927Y0103500D01*
X0032392Y0103500D01*
X0031625Y0104267D01*
X0031625Y0105035D01*
X0032392Y0105802D01*
X0034694Y0105802D01*
X0033160Y0107337D01*
X0031625Y0108104D01*
X0031625Y0113500D02*
X0034694Y0113500D01*
X0033160Y0113500D02*
X0033160Y0118104D01*
X0034694Y0116569D01*
X0036229Y0115802D02*
X0036996Y0115035D01*
X0039298Y0115035D01*
X0037763Y0115035D02*
X0036229Y0113500D01*
X0036229Y0115802D02*
X0036229Y0117337D01*
X0036996Y0118104D01*
X0039298Y0118104D01*
X0039298Y0113500D01*
X0047021Y0113104D02*
X0050090Y0113104D01*
X0050090Y0110802D01*
X0048556Y0111569D01*
X0047788Y0111569D01*
X0047021Y0110802D01*
X0047021Y0109267D01*
X0047788Y0108500D01*
X0049323Y0108500D01*
X0050090Y0109267D01*
X0051625Y0110802D02*
X0054694Y0110802D01*
X0052392Y0113104D01*
X0052392Y0108500D01*
X0055597Y0107501D02*
X0058400Y0107501D01*
X0058531Y0108500D02*
X0056996Y0108500D01*
X0056229Y0109267D01*
X0058531Y0108500D02*
X0059298Y0109267D01*
X0059298Y0112337D01*
X0058531Y0113104D01*
X0056996Y0113104D01*
X0056229Y0112337D01*
X0055597Y0104150D02*
X0058400Y0104150D01*
X0064698Y0104292D02*
X0064698Y0107361D01*
X0064698Y0105827D02*
X0069302Y0105827D01*
X0067767Y0104292D01*
X0067000Y0102757D02*
X0068535Y0102757D01*
X0069302Y0101990D01*
X0069302Y0099688D01*
X0064698Y0099688D01*
X0066233Y0099688D02*
X0066233Y0101990D01*
X0067000Y0102757D01*
X0066233Y0101223D02*
X0064698Y0102757D01*
X0064698Y0108896D02*
X0065465Y0108896D01*
X0068535Y0111965D01*
X0069302Y0111965D01*
X0069302Y0108896D01*
X0069698Y0109663D02*
X0070465Y0108896D01*
X0071233Y0108896D01*
X0072000Y0109663D01*
X0072000Y0111198D01*
X0071233Y0111965D01*
X0070465Y0111965D01*
X0069698Y0111198D01*
X0069698Y0109663D01*
X0069698Y0107361D02*
X0069698Y0104292D01*
X0069698Y0102757D02*
X0071233Y0101223D01*
X0071233Y0101990D02*
X0071233Y0099688D01*
X0069698Y0099688D02*
X0074302Y0099688D01*
X0074302Y0101990D01*
X0073535Y0102757D01*
X0072000Y0102757D01*
X0071233Y0101990D01*
X0072767Y0104292D02*
X0074302Y0105827D01*
X0069698Y0105827D01*
X0072767Y0108896D02*
X0073535Y0108896D01*
X0074302Y0109663D01*
X0074302Y0111198D01*
X0073535Y0111965D01*
X0072767Y0111965D01*
X0072000Y0111198D01*
X0072000Y0109663D02*
X0072767Y0108896D01*
X0079698Y0109663D02*
X0079698Y0111198D01*
X0080465Y0111965D01*
X0083535Y0111965D01*
X0084302Y0111198D01*
X0084302Y0109663D01*
X0083535Y0108896D01*
X0082767Y0108896D01*
X0082000Y0109663D01*
X0082000Y0111965D01*
X0080349Y0112202D02*
X0080349Y0109398D01*
X0080465Y0108896D02*
X0079698Y0109663D01*
X0079698Y0107361D02*
X0079698Y0104292D01*
X0079698Y0102757D02*
X0081233Y0101223D01*
X0081233Y0101990D02*
X0081233Y0099688D01*
X0079698Y0099688D02*
X0084302Y0099688D01*
X0084302Y0101990D01*
X0083535Y0102757D01*
X0082000Y0102757D01*
X0081233Y0101990D01*
X0082767Y0104292D02*
X0084302Y0105827D01*
X0079698Y0105827D01*
X0083699Y0109398D02*
X0083699Y0112202D01*
X0084698Y0110802D02*
X0085465Y0111569D01*
X0084698Y0110802D02*
X0084698Y0109267D01*
X0085465Y0108500D01*
X0088535Y0108500D01*
X0089302Y0109267D01*
X0089302Y0110802D01*
X0088535Y0111569D01*
X0088535Y0113104D02*
X0087767Y0113104D01*
X0087000Y0113871D01*
X0087000Y0115406D01*
X0086233Y0116173D01*
X0085465Y0116173D01*
X0084698Y0115406D01*
X0084698Y0113871D01*
X0085465Y0113104D01*
X0086233Y0113104D01*
X0087000Y0113871D01*
X0087000Y0115406D02*
X0087767Y0116173D01*
X0088535Y0116173D01*
X0089302Y0115406D01*
X0089302Y0113871D01*
X0088535Y0113104D01*
X0094698Y0113104D02*
X0097767Y0116173D01*
X0098535Y0116173D01*
X0099302Y0115406D01*
X0099302Y0113871D01*
X0098535Y0113104D01*
X0098535Y0111569D02*
X0097000Y0111569D01*
X0096233Y0110802D01*
X0096233Y0108500D01*
X0096233Y0110035D02*
X0094698Y0111569D01*
X0094698Y0113104D02*
X0094698Y0116173D01*
X0095465Y0117708D02*
X0094698Y0118475D01*
X0094698Y0120010D01*
X0095465Y0120777D01*
X0098535Y0120777D01*
X0095465Y0117708D01*
X0098535Y0117708D01*
X0099302Y0118475D01*
X0099302Y0120010D01*
X0098535Y0120777D01*
X0098535Y0111569D02*
X0099302Y0110802D01*
X0099302Y0108500D01*
X0094698Y0108500D01*
X0073648Y0077202D02*
X0073648Y0074398D01*
X0070297Y0074398D02*
X0070297Y0077202D01*
X0069302Y0076198D02*
X0068535Y0076965D01*
X0067767Y0076965D01*
X0067000Y0076198D01*
X0067000Y0074663D01*
X0067767Y0073896D01*
X0068535Y0073896D01*
X0069302Y0074663D01*
X0069302Y0076198D01*
X0068535Y0072361D02*
X0067767Y0072361D01*
X0067000Y0071594D01*
X0066233Y0072361D01*
X0065465Y0072361D01*
X0064698Y0071594D01*
X0064698Y0070059D01*
X0065465Y0069292D01*
X0065465Y0067757D02*
X0064698Y0066990D01*
X0064698Y0065456D01*
X0065465Y0064688D01*
X0068535Y0064688D01*
X0069302Y0065456D01*
X0069302Y0066990D01*
X0068535Y0067757D01*
X0068535Y0069292D02*
X0069302Y0070059D01*
X0069302Y0071594D01*
X0068535Y0072361D01*
X0067000Y0071594D02*
X0067000Y0070827D01*
X0066233Y0073896D02*
X0067000Y0074663D01*
X0066233Y0073896D02*
X0065465Y0073896D01*
X0064698Y0074663D01*
X0064698Y0076198D01*
X0065465Y0076965D01*
X0066233Y0076965D01*
X0067000Y0076198D01*
X0029323Y0113500D02*
X0030090Y0114267D01*
X0030090Y0115802D01*
X0027788Y0115802D01*
X0027021Y0115035D01*
X0027021Y0114267D01*
X0027788Y0113500D01*
X0029323Y0113500D01*
X0030090Y0115802D02*
X0028556Y0117337D01*
X0027021Y0118104D01*
X0049698Y0159688D02*
X0054302Y0159688D01*
X0054302Y0161990D01*
X0053535Y0162757D01*
X0052000Y0162757D01*
X0051233Y0161990D01*
X0051233Y0159688D01*
X0051233Y0161223D02*
X0049698Y0162757D01*
X0049698Y0164292D02*
X0049698Y0167361D01*
X0049698Y0165827D02*
X0054302Y0165827D01*
X0052767Y0164292D01*
X0054698Y0165059D02*
X0054698Y0166594D01*
X0055465Y0167361D01*
X0055465Y0168896D02*
X0054698Y0168896D01*
X0055465Y0168896D02*
X0058535Y0171965D01*
X0059302Y0171965D01*
X0059302Y0168896D01*
X0059698Y0168896D02*
X0059698Y0171965D01*
X0060297Y0172202D02*
X0060297Y0169398D01*
X0059698Y0168896D02*
X0062767Y0171965D01*
X0063535Y0171965D01*
X0064302Y0171198D01*
X0064302Y0169663D01*
X0063535Y0168896D01*
X0063648Y0169398D02*
X0063648Y0172202D01*
X0059698Y0167361D02*
X0059698Y0164292D01*
X0059302Y0165059D02*
X0058535Y0164292D01*
X0055465Y0164292D01*
X0054698Y0165059D01*
X0052767Y0168896D02*
X0054302Y0170431D01*
X0049698Y0170431D01*
X0049698Y0171965D02*
X0049698Y0168896D01*
X0058535Y0167361D02*
X0059302Y0166594D01*
X0059302Y0165059D01*
X0059698Y0165827D02*
X0064302Y0165827D01*
X0062767Y0164292D01*
X0062000Y0162757D02*
X0061233Y0161990D01*
X0061233Y0159688D01*
X0061233Y0161223D02*
X0059698Y0162757D01*
X0062000Y0162757D02*
X0063535Y0162757D01*
X0064302Y0161990D01*
X0064302Y0159688D01*
X0059698Y0159688D01*
X0072788Y0183500D02*
X0072021Y0184267D01*
X0072021Y0187337D01*
X0072788Y0188104D01*
X0074323Y0188104D01*
X0075090Y0187337D01*
X0075090Y0186569D01*
X0074323Y0185802D01*
X0072021Y0185802D01*
X0072788Y0183500D02*
X0074323Y0183500D01*
X0075090Y0184267D01*
X0076625Y0184267D02*
X0077392Y0183500D01*
X0078927Y0183500D01*
X0079694Y0184267D01*
X0081229Y0184267D02*
X0081996Y0183500D01*
X0083531Y0183500D01*
X0084298Y0184267D01*
X0084298Y0187337D01*
X0083531Y0188104D01*
X0081996Y0188104D01*
X0081229Y0187337D01*
X0079694Y0187337D02*
X0078927Y0188104D01*
X0077392Y0188104D01*
X0076625Y0187337D01*
X0076625Y0186569D01*
X0077392Y0185802D01*
X0076625Y0185035D01*
X0076625Y0184267D01*
X0077392Y0185802D02*
X0078160Y0185802D01*
X0080597Y0182501D02*
X0083400Y0182501D01*
X0083400Y0179150D02*
X0080597Y0179150D01*
X0097021Y0184267D02*
X0097788Y0183500D01*
X0099323Y0183500D01*
X0100090Y0184267D01*
X0100090Y0185802D01*
X0097788Y0185802D01*
X0097021Y0185035D01*
X0097021Y0184267D01*
X0100090Y0185802D02*
X0098556Y0187337D01*
X0097021Y0188104D01*
X0101625Y0185802D02*
X0104694Y0185802D01*
X0102392Y0188104D01*
X0102392Y0183500D01*
X0105597Y0182501D02*
X0108400Y0182501D01*
X0108531Y0183500D02*
X0106996Y0183500D01*
X0106229Y0184267D01*
X0108531Y0183500D02*
X0109298Y0184267D01*
X0109298Y0187337D01*
X0108531Y0188104D01*
X0106996Y0188104D01*
X0106229Y0187337D01*
X0105597Y0179150D02*
X0108400Y0179150D01*
X0115465Y0171965D02*
X0114698Y0171198D01*
X0114698Y0169663D01*
X0115465Y0168896D01*
X0115465Y0167361D02*
X0114698Y0166594D01*
X0114698Y0165059D01*
X0115465Y0164292D01*
X0118535Y0164292D01*
X0119302Y0165059D01*
X0119302Y0166594D01*
X0118535Y0167361D01*
X0119698Y0167361D02*
X0119698Y0164292D01*
X0119698Y0162757D02*
X0121233Y0161223D01*
X0121233Y0161990D02*
X0121233Y0159688D01*
X0119698Y0159688D02*
X0124302Y0159688D01*
X0124302Y0161990D01*
X0123535Y0162757D01*
X0122000Y0162757D01*
X0121233Y0161990D01*
X0122767Y0164292D02*
X0124302Y0165827D01*
X0119698Y0165827D01*
X0119302Y0168896D02*
X0117000Y0168896D01*
X0117767Y0170431D01*
X0117767Y0171198D01*
X0117000Y0171965D01*
X0115465Y0171965D01*
X0119302Y0171965D02*
X0119302Y0168896D01*
X0119698Y0169663D02*
X0120465Y0168896D01*
X0123535Y0171965D01*
X0120465Y0171965D01*
X0119698Y0171198D01*
X0119698Y0169663D01*
X0120297Y0169398D02*
X0120297Y0172202D01*
X0120465Y0168896D02*
X0123535Y0168896D01*
X0124302Y0169663D01*
X0124302Y0171198D01*
X0123535Y0171965D01*
X0123648Y0172202D02*
X0123648Y0169398D01*
X0134698Y0168500D02*
X0139302Y0168500D01*
X0139302Y0170802D01*
X0138535Y0171569D01*
X0137000Y0171569D01*
X0136233Y0170802D01*
X0136233Y0168500D01*
X0136233Y0170035D02*
X0134698Y0171569D01*
X0135465Y0173104D02*
X0134698Y0173871D01*
X0134698Y0175406D01*
X0135465Y0176173D01*
X0138535Y0176173D01*
X0139302Y0175406D01*
X0139302Y0173871D01*
X0138535Y0173104D01*
X0137767Y0173104D01*
X0137000Y0173871D01*
X0137000Y0176173D01*
X0112343Y0148104D02*
X0113110Y0147337D01*
X0113110Y0144267D01*
X0112343Y0143500D01*
X0110808Y0143500D01*
X0110041Y0144267D01*
X0108506Y0143500D02*
X0105437Y0143500D01*
X0106971Y0143500D02*
X0106971Y0148104D01*
X0108506Y0146569D01*
X0110041Y0147337D02*
X0110808Y0148104D01*
X0112343Y0148104D01*
X0103902Y0147337D02*
X0103902Y0144267D01*
X0100833Y0147337D01*
X0100833Y0144267D01*
X0101600Y0143500D01*
X0103135Y0143500D01*
X0103902Y0144267D01*
X0103902Y0147337D02*
X0103135Y0148104D01*
X0101600Y0148104D01*
X0100833Y0147337D01*
X0100597Y0149099D02*
X0103400Y0149099D01*
X0103400Y0152450D02*
X0100597Y0152450D01*
X0094302Y0204688D02*
X0089698Y0204688D01*
X0091233Y0204688D02*
X0091233Y0206990D01*
X0092000Y0207757D01*
X0093535Y0207757D01*
X0094302Y0206990D01*
X0094302Y0204688D01*
X0091233Y0206223D02*
X0089698Y0207757D01*
X0090465Y0209292D02*
X0089698Y0210059D01*
X0089698Y0211594D01*
X0090465Y0212361D01*
X0091233Y0212361D01*
X0092000Y0211594D01*
X0092000Y0209292D01*
X0090465Y0209292D01*
X0092000Y0209292D02*
X0093535Y0210827D01*
X0094302Y0212361D01*
X0093535Y0213500D02*
X0090465Y0213500D01*
X0089698Y0214267D01*
X0089698Y0215802D01*
X0090465Y0216569D01*
X0089698Y0216965D02*
X0089698Y0213896D01*
X0092767Y0216965D01*
X0093535Y0216965D01*
X0094302Y0216198D01*
X0094302Y0214663D01*
X0093535Y0213896D01*
X0093535Y0213500D02*
X0094302Y0214267D01*
X0094302Y0215802D01*
X0093535Y0216569D01*
X0092000Y0218104D02*
X0092000Y0221173D01*
X0093535Y0222708D02*
X0094302Y0223475D01*
X0094302Y0225010D01*
X0093535Y0225777D01*
X0092767Y0225777D01*
X0089698Y0222708D01*
X0089698Y0225777D01*
X0090777Y0226825D02*
X0092077Y0226825D01*
X0092077Y0227223D02*
X0090478Y0227223D01*
X0090305Y0227454D02*
X0089715Y0229422D01*
X0089715Y0232375D01*
X0090305Y0234146D01*
X0092077Y0236312D01*
X0092077Y0225288D01*
X0092077Y0225091D01*
X0090305Y0227454D01*
X0090255Y0227622D02*
X0092077Y0227622D01*
X0092077Y0228020D02*
X0090135Y0228020D01*
X0090016Y0228419D02*
X0092077Y0228419D01*
X0092077Y0228817D02*
X0089896Y0228817D01*
X0089776Y0229216D02*
X0092077Y0229216D01*
X0092077Y0229614D02*
X0089715Y0229614D01*
X0089715Y0230013D02*
X0092077Y0230013D01*
X0092077Y0230412D02*
X0089715Y0230412D01*
X0089715Y0230810D02*
X0092077Y0230810D01*
X0092077Y0231209D02*
X0089715Y0231209D01*
X0089715Y0231607D02*
X0092077Y0231607D01*
X0092077Y0232006D02*
X0089715Y0232006D01*
X0089724Y0232404D02*
X0092077Y0232404D01*
X0092077Y0232803D02*
X0089857Y0232803D01*
X0089990Y0233201D02*
X0092077Y0233201D01*
X0092077Y0233600D02*
X0090123Y0233600D01*
X0090256Y0233998D02*
X0092077Y0233998D01*
X0092077Y0234397D02*
X0090510Y0234397D01*
X0090836Y0234795D02*
X0092077Y0234795D01*
X0092077Y0235194D02*
X0091162Y0235194D01*
X0091488Y0235592D02*
X0092077Y0235592D01*
X0092077Y0235991D02*
X0091814Y0235991D01*
X0092274Y0236706D02*
X0092274Y0224894D01*
X0092077Y0225231D02*
X0091972Y0225231D01*
X0092077Y0225629D02*
X0091673Y0225629D01*
X0091374Y0226028D02*
X0092077Y0226028D01*
X0092077Y0226426D02*
X0091076Y0226426D01*
X0088730Y0227454D02*
X0088730Y0222532D01*
X0100935Y0222532D01*
X0105266Y0226863D01*
X0105266Y0234737D01*
X0100935Y0239068D01*
X0088730Y0239068D01*
X0088730Y0234146D01*
X0088730Y0239068D02*
X0088730Y0222532D01*
X0100935Y0222532D01*
X0105266Y0226863D01*
X0105266Y0234737D02*
X0100935Y0239068D01*
X0088730Y0239068D01*
X0088730Y0241863D02*
X0093061Y0237532D01*
X0105266Y0237532D01*
X0105266Y0242454D01*
X0103795Y0242765D02*
X0101919Y0242765D01*
X0101919Y0242367D02*
X0103620Y0242367D01*
X0103691Y0242454D02*
X0101919Y0240288D01*
X0101919Y0251312D01*
X0101919Y0251509D01*
X0103691Y0249146D01*
X0104282Y0247178D01*
X0104282Y0244225D01*
X0103691Y0242454D01*
X0103294Y0241968D02*
X0101919Y0241968D01*
X0101919Y0241570D02*
X0102968Y0241570D01*
X0102642Y0241171D02*
X0101919Y0241171D01*
X0101919Y0240773D02*
X0102316Y0240773D01*
X0101990Y0240374D02*
X0101919Y0240374D01*
X0101723Y0239894D02*
X0101723Y0251706D01*
X0101919Y0251134D02*
X0102200Y0251134D01*
X0101919Y0250736D02*
X0102499Y0250736D01*
X0102798Y0250337D02*
X0101919Y0250337D01*
X0101919Y0249939D02*
X0103097Y0249939D01*
X0103396Y0249540D02*
X0101919Y0249540D01*
X0101919Y0249142D02*
X0103693Y0249142D01*
X0103812Y0248743D02*
X0101919Y0248743D01*
X0101919Y0248345D02*
X0103932Y0248345D01*
X0104051Y0247946D02*
X0101919Y0247946D01*
X0101919Y0247548D02*
X0104171Y0247548D01*
X0104282Y0247149D02*
X0101919Y0247149D01*
X0101919Y0246750D02*
X0104282Y0246750D01*
X0104282Y0246352D02*
X0101919Y0246352D01*
X0101919Y0245953D02*
X0104282Y0245953D01*
X0104282Y0245555D02*
X0101919Y0245555D01*
X0101919Y0245156D02*
X0104282Y0245156D01*
X0104282Y0244758D02*
X0101919Y0244758D01*
X0101919Y0244359D02*
X0104282Y0244359D01*
X0104194Y0243961D02*
X0101919Y0243961D01*
X0101919Y0243562D02*
X0104061Y0243562D01*
X0103928Y0243164D02*
X0101919Y0243164D01*
X0103261Y0243796D02*
X0103261Y0240727D01*
X0106330Y0243796D01*
X0107098Y0243796D01*
X0107865Y0243029D01*
X0107865Y0241494D01*
X0107098Y0240727D01*
X0107098Y0239192D02*
X0107865Y0238425D01*
X0107865Y0236123D01*
X0103261Y0236123D01*
X0103261Y0238425D01*
X0104028Y0239192D01*
X0107098Y0239192D01*
X0105266Y0237532D02*
X0105266Y0254068D01*
X0093061Y0254068D01*
X0088730Y0249737D01*
X0088730Y0241863D01*
X0093061Y0237532D01*
X0105266Y0237532D01*
X0089321Y0230800D02*
X0089323Y0230988D01*
X0089330Y0231177D01*
X0089342Y0231365D01*
X0089358Y0231552D01*
X0089379Y0231740D01*
X0089404Y0231926D01*
X0089434Y0232112D01*
X0089469Y0232298D01*
X0089508Y0232482D01*
X0089551Y0232665D01*
X0089599Y0232848D01*
X0089652Y0233029D01*
X0089708Y0233208D01*
X0089770Y0233386D01*
X0089835Y0233563D01*
X0089905Y0233738D01*
X0089980Y0233911D01*
X0090058Y0234082D01*
X0090141Y0234252D01*
X0090227Y0234419D01*
X0090318Y0234584D01*
X0090413Y0234747D01*
X0090512Y0234907D01*
X0090615Y0235065D01*
X0090721Y0235220D01*
X0090832Y0235373D01*
X0090946Y0235523D01*
X0091064Y0235670D01*
X0091185Y0235814D01*
X0091310Y0235956D01*
X0091438Y0236094D01*
X0091570Y0236228D01*
X0091704Y0236360D01*
X0091842Y0236488D01*
X0091984Y0236613D01*
X0092128Y0236734D01*
X0092275Y0236852D01*
X0092425Y0236966D01*
X0092578Y0237077D01*
X0092733Y0237183D01*
X0092891Y0237286D01*
X0093051Y0237385D01*
X0093214Y0237480D01*
X0093379Y0237571D01*
X0093546Y0237657D01*
X0093716Y0237740D01*
X0093887Y0237818D01*
X0094060Y0237893D01*
X0094235Y0237963D01*
X0094412Y0238028D01*
X0094590Y0238090D01*
X0094769Y0238146D01*
X0094950Y0238199D01*
X0095133Y0238247D01*
X0095316Y0238290D01*
X0095500Y0238329D01*
X0095686Y0238364D01*
X0095872Y0238394D01*
X0096058Y0238419D01*
X0096246Y0238440D01*
X0096433Y0238456D01*
X0096621Y0238468D01*
X0096810Y0238475D01*
X0096998Y0238477D01*
X0097186Y0238475D01*
X0097375Y0238468D01*
X0097563Y0238456D01*
X0097750Y0238440D01*
X0097938Y0238419D01*
X0098124Y0238394D01*
X0098310Y0238364D01*
X0098496Y0238329D01*
X0098680Y0238290D01*
X0098863Y0238247D01*
X0099046Y0238199D01*
X0099227Y0238146D01*
X0099406Y0238090D01*
X0099584Y0238028D01*
X0099761Y0237963D01*
X0099936Y0237893D01*
X0100109Y0237818D01*
X0100280Y0237740D01*
X0100450Y0237657D01*
X0100617Y0237571D01*
X0100782Y0237480D01*
X0100945Y0237385D01*
X0101105Y0237286D01*
X0101263Y0237183D01*
X0101418Y0237077D01*
X0101571Y0236966D01*
X0101721Y0236852D01*
X0101868Y0236734D01*
X0102012Y0236613D01*
X0102154Y0236488D01*
X0102292Y0236360D01*
X0102426Y0236228D01*
X0102558Y0236094D01*
X0102686Y0235956D01*
X0102811Y0235814D01*
X0102932Y0235670D01*
X0103050Y0235523D01*
X0103164Y0235373D01*
X0103275Y0235220D01*
X0103381Y0235065D01*
X0103484Y0234907D01*
X0103583Y0234747D01*
X0103678Y0234584D01*
X0103769Y0234419D01*
X0103855Y0234252D01*
X0103938Y0234082D01*
X0104016Y0233911D01*
X0104091Y0233738D01*
X0104161Y0233563D01*
X0104226Y0233386D01*
X0104288Y0233208D01*
X0104344Y0233029D01*
X0104397Y0232848D01*
X0104445Y0232665D01*
X0104488Y0232482D01*
X0104527Y0232298D01*
X0104562Y0232112D01*
X0104592Y0231926D01*
X0104617Y0231740D01*
X0104638Y0231552D01*
X0104654Y0231365D01*
X0104666Y0231177D01*
X0104673Y0230988D01*
X0104675Y0230800D01*
X0104673Y0230612D01*
X0104666Y0230423D01*
X0104654Y0230235D01*
X0104638Y0230048D01*
X0104617Y0229860D01*
X0104592Y0229674D01*
X0104562Y0229488D01*
X0104527Y0229302D01*
X0104488Y0229118D01*
X0104445Y0228935D01*
X0104397Y0228752D01*
X0104344Y0228571D01*
X0104288Y0228392D01*
X0104226Y0228214D01*
X0104161Y0228037D01*
X0104091Y0227862D01*
X0104016Y0227689D01*
X0103938Y0227518D01*
X0103855Y0227348D01*
X0103769Y0227181D01*
X0103678Y0227016D01*
X0103583Y0226853D01*
X0103484Y0226693D01*
X0103381Y0226535D01*
X0103275Y0226380D01*
X0103164Y0226227D01*
X0103050Y0226077D01*
X0102932Y0225930D01*
X0102811Y0225786D01*
X0102686Y0225644D01*
X0102558Y0225506D01*
X0102426Y0225372D01*
X0102292Y0225240D01*
X0102154Y0225112D01*
X0102012Y0224987D01*
X0101868Y0224866D01*
X0101721Y0224748D01*
X0101571Y0224634D01*
X0101418Y0224523D01*
X0101263Y0224417D01*
X0101105Y0224314D01*
X0100945Y0224215D01*
X0100782Y0224120D01*
X0100617Y0224029D01*
X0100450Y0223943D01*
X0100280Y0223860D01*
X0100109Y0223782D01*
X0099936Y0223707D01*
X0099761Y0223637D01*
X0099584Y0223572D01*
X0099406Y0223510D01*
X0099227Y0223454D01*
X0099046Y0223401D01*
X0098863Y0223353D01*
X0098680Y0223310D01*
X0098496Y0223271D01*
X0098310Y0223236D01*
X0098124Y0223206D01*
X0097938Y0223181D01*
X0097750Y0223160D01*
X0097563Y0223144D01*
X0097375Y0223132D01*
X0097186Y0223125D01*
X0096998Y0223123D01*
X0096810Y0223125D01*
X0096621Y0223132D01*
X0096433Y0223144D01*
X0096246Y0223160D01*
X0096058Y0223181D01*
X0095872Y0223206D01*
X0095686Y0223236D01*
X0095500Y0223271D01*
X0095316Y0223310D01*
X0095133Y0223353D01*
X0094950Y0223401D01*
X0094769Y0223454D01*
X0094590Y0223510D01*
X0094412Y0223572D01*
X0094235Y0223637D01*
X0094060Y0223707D01*
X0093887Y0223782D01*
X0093716Y0223860D01*
X0093546Y0223943D01*
X0093379Y0224029D01*
X0093214Y0224120D01*
X0093051Y0224215D01*
X0092891Y0224314D01*
X0092733Y0224417D01*
X0092578Y0224523D01*
X0092425Y0224634D01*
X0092275Y0224748D01*
X0092128Y0224866D01*
X0091984Y0224987D01*
X0091842Y0225112D01*
X0091704Y0225240D01*
X0091570Y0225372D01*
X0091438Y0225506D01*
X0091310Y0225644D01*
X0091185Y0225786D01*
X0091064Y0225930D01*
X0090946Y0226077D01*
X0090832Y0226227D01*
X0090721Y0226380D01*
X0090615Y0226535D01*
X0090512Y0226693D01*
X0090413Y0226853D01*
X0090318Y0227016D01*
X0090227Y0227181D01*
X0090141Y0227348D01*
X0090058Y0227518D01*
X0089980Y0227689D01*
X0089905Y0227862D01*
X0089835Y0228037D01*
X0089770Y0228214D01*
X0089708Y0228392D01*
X0089652Y0228571D01*
X0089599Y0228752D01*
X0089551Y0228935D01*
X0089508Y0229118D01*
X0089469Y0229302D01*
X0089434Y0229488D01*
X0089404Y0229674D01*
X0089379Y0229860D01*
X0089358Y0230048D01*
X0089342Y0230235D01*
X0089330Y0230423D01*
X0089323Y0230612D01*
X0089321Y0230800D01*
X0083535Y0225777D02*
X0084302Y0225010D01*
X0084302Y0223475D01*
X0083535Y0222708D01*
X0084302Y0221173D02*
X0084302Y0218104D01*
X0082000Y0218104D01*
X0082767Y0219639D01*
X0082767Y0220406D01*
X0082000Y0221173D01*
X0080465Y0221173D01*
X0079698Y0220406D01*
X0079698Y0218871D01*
X0080465Y0218104D01*
X0079302Y0218104D02*
X0077000Y0218104D01*
X0077767Y0219639D01*
X0077767Y0220406D01*
X0077000Y0221173D01*
X0075465Y0221173D01*
X0074698Y0220406D01*
X0074698Y0218871D01*
X0075465Y0218104D01*
X0075465Y0216965D02*
X0074698Y0216198D01*
X0074698Y0214663D01*
X0075465Y0213896D01*
X0076233Y0213896D01*
X0077000Y0214663D01*
X0077000Y0216198D01*
X0076233Y0216965D01*
X0075465Y0216965D01*
X0074698Y0216569D02*
X0076233Y0215035D01*
X0076233Y0215802D02*
X0076233Y0213500D01*
X0077000Y0212361D02*
X0077000Y0209292D01*
X0079302Y0211594D01*
X0074698Y0211594D01*
X0074698Y0213500D02*
X0079302Y0213500D01*
X0079302Y0215802D01*
X0078535Y0216569D01*
X0077000Y0216569D01*
X0076233Y0215802D01*
X0077000Y0216198D02*
X0077767Y0216965D01*
X0078535Y0216965D01*
X0079302Y0216198D01*
X0079302Y0214663D01*
X0078535Y0213896D01*
X0077767Y0213896D01*
X0077000Y0214663D01*
X0079698Y0213500D02*
X0084302Y0213500D01*
X0084302Y0215802D01*
X0083535Y0216569D01*
X0082000Y0216569D01*
X0081233Y0215802D01*
X0081233Y0213500D01*
X0081233Y0215035D02*
X0079698Y0216569D01*
X0079302Y0218104D02*
X0079302Y0221173D01*
X0079698Y0222708D02*
X0082767Y0225777D01*
X0083535Y0225777D01*
X0079698Y0225777D02*
X0079698Y0222708D01*
X0079302Y0223475D02*
X0079302Y0225010D01*
X0078535Y0225777D01*
X0075465Y0222708D01*
X0074698Y0223475D01*
X0074698Y0225010D01*
X0075465Y0225777D01*
X0078535Y0225777D01*
X0079302Y0223475D02*
X0078535Y0222708D01*
X0075465Y0222708D01*
X0085349Y0217202D02*
X0085349Y0214398D01*
X0088699Y0214398D02*
X0088699Y0217202D01*
X0089698Y0220406D02*
X0094302Y0220406D01*
X0092000Y0218104D01*
X0090109Y0234146D02*
X0090192Y0234313D01*
X0090279Y0234477D01*
X0090371Y0234640D01*
X0090466Y0234800D01*
X0090565Y0234957D01*
X0090668Y0235112D01*
X0090775Y0235265D01*
X0090886Y0235415D01*
X0091000Y0235562D01*
X0091117Y0235707D01*
X0091238Y0235848D01*
X0091363Y0235987D01*
X0091490Y0236122D01*
X0091621Y0236255D01*
X0091756Y0236384D01*
X0091893Y0236510D01*
X0092033Y0236632D01*
X0092177Y0236751D01*
X0092323Y0236867D01*
X0092472Y0236978D01*
X0092623Y0237087D01*
X0092777Y0237191D01*
X0092934Y0237292D01*
X0093093Y0237389D01*
X0093254Y0237482D01*
X0093418Y0237571D01*
X0093584Y0237656D01*
X0093751Y0237737D01*
X0093921Y0237814D01*
X0094093Y0237887D01*
X0094266Y0237955D01*
X0094441Y0238019D01*
X0094617Y0238079D01*
X0094795Y0238135D01*
X0094974Y0238187D01*
X0095154Y0238234D01*
X0095335Y0238276D01*
X0095517Y0238315D01*
X0095701Y0238348D01*
X0095884Y0238378D01*
X0096069Y0238402D01*
X0096254Y0238423D01*
X0096440Y0238439D01*
X0096626Y0238450D01*
X0096812Y0238457D01*
X0096998Y0238459D01*
X0097184Y0238457D01*
X0097370Y0238450D01*
X0097556Y0238439D01*
X0097742Y0238423D01*
X0097927Y0238402D01*
X0098112Y0238378D01*
X0098295Y0238348D01*
X0098479Y0238315D01*
X0098661Y0238276D01*
X0098842Y0238234D01*
X0099022Y0238187D01*
X0099201Y0238135D01*
X0099379Y0238079D01*
X0099555Y0238019D01*
X0099730Y0237955D01*
X0099903Y0237887D01*
X0100075Y0237814D01*
X0100245Y0237737D01*
X0100412Y0237656D01*
X0100578Y0237571D01*
X0100742Y0237482D01*
X0100903Y0237389D01*
X0101062Y0237292D01*
X0101219Y0237191D01*
X0101373Y0237087D01*
X0101524Y0236978D01*
X0101673Y0236867D01*
X0101819Y0236751D01*
X0101963Y0236632D01*
X0102103Y0236510D01*
X0102240Y0236384D01*
X0102375Y0236255D01*
X0102506Y0236122D01*
X0102633Y0235987D01*
X0102758Y0235848D01*
X0102879Y0235707D01*
X0102996Y0235562D01*
X0103110Y0235415D01*
X0103221Y0235265D01*
X0103328Y0235112D01*
X0103431Y0234957D01*
X0103530Y0234800D01*
X0103625Y0234640D01*
X0103717Y0234477D01*
X0103804Y0234313D01*
X0103887Y0234146D01*
X0103887Y0227454D02*
X0103804Y0227287D01*
X0103717Y0227123D01*
X0103625Y0226960D01*
X0103530Y0226800D01*
X0103431Y0226643D01*
X0103328Y0226488D01*
X0103221Y0226335D01*
X0103110Y0226185D01*
X0102996Y0226038D01*
X0102879Y0225893D01*
X0102758Y0225752D01*
X0102633Y0225613D01*
X0102506Y0225478D01*
X0102375Y0225345D01*
X0102240Y0225216D01*
X0102103Y0225090D01*
X0101963Y0224968D01*
X0101819Y0224849D01*
X0101673Y0224733D01*
X0101524Y0224622D01*
X0101373Y0224513D01*
X0101219Y0224409D01*
X0101062Y0224308D01*
X0100903Y0224211D01*
X0100742Y0224118D01*
X0100578Y0224029D01*
X0100412Y0223944D01*
X0100245Y0223863D01*
X0100075Y0223786D01*
X0099903Y0223713D01*
X0099730Y0223645D01*
X0099555Y0223581D01*
X0099379Y0223521D01*
X0099201Y0223465D01*
X0099022Y0223413D01*
X0098842Y0223366D01*
X0098661Y0223324D01*
X0098479Y0223285D01*
X0098295Y0223252D01*
X0098112Y0223222D01*
X0097927Y0223198D01*
X0097742Y0223177D01*
X0097556Y0223161D01*
X0097370Y0223150D01*
X0097184Y0223143D01*
X0096998Y0223141D01*
X0096812Y0223143D01*
X0096626Y0223150D01*
X0096440Y0223161D01*
X0096254Y0223177D01*
X0096069Y0223198D01*
X0095884Y0223222D01*
X0095701Y0223252D01*
X0095517Y0223285D01*
X0095335Y0223324D01*
X0095154Y0223366D01*
X0094974Y0223413D01*
X0094795Y0223465D01*
X0094617Y0223521D01*
X0094441Y0223581D01*
X0094266Y0223645D01*
X0094093Y0223713D01*
X0093921Y0223786D01*
X0093751Y0223863D01*
X0093584Y0223944D01*
X0093418Y0224029D01*
X0093254Y0224118D01*
X0093093Y0224211D01*
X0092934Y0224308D01*
X0092777Y0224409D01*
X0092623Y0224513D01*
X0092472Y0224622D01*
X0092323Y0224733D01*
X0092177Y0224849D01*
X0092033Y0224968D01*
X0091893Y0225090D01*
X0091756Y0225216D01*
X0091621Y0225345D01*
X0091490Y0225478D01*
X0091363Y0225613D01*
X0091238Y0225752D01*
X0091117Y0225893D01*
X0091000Y0226038D01*
X0090886Y0226185D01*
X0090775Y0226335D01*
X0090668Y0226488D01*
X0090565Y0226643D01*
X0090466Y0226800D01*
X0090371Y0226960D01*
X0090279Y0227123D01*
X0090192Y0227287D01*
X0090109Y0227454D01*
X0080739Y0236669D02*
X0080739Y0238971D01*
X0079972Y0239739D01*
X0076902Y0239739D01*
X0076135Y0238971D01*
X0076135Y0236669D01*
X0080739Y0236669D01*
X0079204Y0241273D02*
X0080739Y0242808D01*
X0076135Y0242808D01*
X0076135Y0244342D02*
X0076135Y0241273D01*
X0088730Y0249737D02*
X0093061Y0254068D01*
X0105266Y0254068D01*
X0105266Y0249146D01*
X0089321Y0245800D02*
X0089323Y0245988D01*
X0089330Y0246177D01*
X0089342Y0246365D01*
X0089358Y0246552D01*
X0089379Y0246740D01*
X0089404Y0246926D01*
X0089434Y0247112D01*
X0089469Y0247298D01*
X0089508Y0247482D01*
X0089551Y0247665D01*
X0089599Y0247848D01*
X0089652Y0248029D01*
X0089708Y0248208D01*
X0089770Y0248386D01*
X0089835Y0248563D01*
X0089905Y0248738D01*
X0089980Y0248911D01*
X0090058Y0249082D01*
X0090141Y0249252D01*
X0090227Y0249419D01*
X0090318Y0249584D01*
X0090413Y0249747D01*
X0090512Y0249907D01*
X0090615Y0250065D01*
X0090721Y0250220D01*
X0090832Y0250373D01*
X0090946Y0250523D01*
X0091064Y0250670D01*
X0091185Y0250814D01*
X0091310Y0250956D01*
X0091438Y0251094D01*
X0091570Y0251228D01*
X0091704Y0251360D01*
X0091842Y0251488D01*
X0091984Y0251613D01*
X0092128Y0251734D01*
X0092275Y0251852D01*
X0092425Y0251966D01*
X0092578Y0252077D01*
X0092733Y0252183D01*
X0092891Y0252286D01*
X0093051Y0252385D01*
X0093214Y0252480D01*
X0093379Y0252571D01*
X0093546Y0252657D01*
X0093716Y0252740D01*
X0093887Y0252818D01*
X0094060Y0252893D01*
X0094235Y0252963D01*
X0094412Y0253028D01*
X0094590Y0253090D01*
X0094769Y0253146D01*
X0094950Y0253199D01*
X0095133Y0253247D01*
X0095316Y0253290D01*
X0095500Y0253329D01*
X0095686Y0253364D01*
X0095872Y0253394D01*
X0096058Y0253419D01*
X0096246Y0253440D01*
X0096433Y0253456D01*
X0096621Y0253468D01*
X0096810Y0253475D01*
X0096998Y0253477D01*
X0097186Y0253475D01*
X0097375Y0253468D01*
X0097563Y0253456D01*
X0097750Y0253440D01*
X0097938Y0253419D01*
X0098124Y0253394D01*
X0098310Y0253364D01*
X0098496Y0253329D01*
X0098680Y0253290D01*
X0098863Y0253247D01*
X0099046Y0253199D01*
X0099227Y0253146D01*
X0099406Y0253090D01*
X0099584Y0253028D01*
X0099761Y0252963D01*
X0099936Y0252893D01*
X0100109Y0252818D01*
X0100280Y0252740D01*
X0100450Y0252657D01*
X0100617Y0252571D01*
X0100782Y0252480D01*
X0100945Y0252385D01*
X0101105Y0252286D01*
X0101263Y0252183D01*
X0101418Y0252077D01*
X0101571Y0251966D01*
X0101721Y0251852D01*
X0101868Y0251734D01*
X0102012Y0251613D01*
X0102154Y0251488D01*
X0102292Y0251360D01*
X0102426Y0251228D01*
X0102558Y0251094D01*
X0102686Y0250956D01*
X0102811Y0250814D01*
X0102932Y0250670D01*
X0103050Y0250523D01*
X0103164Y0250373D01*
X0103275Y0250220D01*
X0103381Y0250065D01*
X0103484Y0249907D01*
X0103583Y0249747D01*
X0103678Y0249584D01*
X0103769Y0249419D01*
X0103855Y0249252D01*
X0103938Y0249082D01*
X0104016Y0248911D01*
X0104091Y0248738D01*
X0104161Y0248563D01*
X0104226Y0248386D01*
X0104288Y0248208D01*
X0104344Y0248029D01*
X0104397Y0247848D01*
X0104445Y0247665D01*
X0104488Y0247482D01*
X0104527Y0247298D01*
X0104562Y0247112D01*
X0104592Y0246926D01*
X0104617Y0246740D01*
X0104638Y0246552D01*
X0104654Y0246365D01*
X0104666Y0246177D01*
X0104673Y0245988D01*
X0104675Y0245800D01*
X0104673Y0245612D01*
X0104666Y0245423D01*
X0104654Y0245235D01*
X0104638Y0245048D01*
X0104617Y0244860D01*
X0104592Y0244674D01*
X0104562Y0244488D01*
X0104527Y0244302D01*
X0104488Y0244118D01*
X0104445Y0243935D01*
X0104397Y0243752D01*
X0104344Y0243571D01*
X0104288Y0243392D01*
X0104226Y0243214D01*
X0104161Y0243037D01*
X0104091Y0242862D01*
X0104016Y0242689D01*
X0103938Y0242518D01*
X0103855Y0242348D01*
X0103769Y0242181D01*
X0103678Y0242016D01*
X0103583Y0241853D01*
X0103484Y0241693D01*
X0103381Y0241535D01*
X0103275Y0241380D01*
X0103164Y0241227D01*
X0103050Y0241077D01*
X0102932Y0240930D01*
X0102811Y0240786D01*
X0102686Y0240644D01*
X0102558Y0240506D01*
X0102426Y0240372D01*
X0102292Y0240240D01*
X0102154Y0240112D01*
X0102012Y0239987D01*
X0101868Y0239866D01*
X0101721Y0239748D01*
X0101571Y0239634D01*
X0101418Y0239523D01*
X0101263Y0239417D01*
X0101105Y0239314D01*
X0100945Y0239215D01*
X0100782Y0239120D01*
X0100617Y0239029D01*
X0100450Y0238943D01*
X0100280Y0238860D01*
X0100109Y0238782D01*
X0099936Y0238707D01*
X0099761Y0238637D01*
X0099584Y0238572D01*
X0099406Y0238510D01*
X0099227Y0238454D01*
X0099046Y0238401D01*
X0098863Y0238353D01*
X0098680Y0238310D01*
X0098496Y0238271D01*
X0098310Y0238236D01*
X0098124Y0238206D01*
X0097938Y0238181D01*
X0097750Y0238160D01*
X0097563Y0238144D01*
X0097375Y0238132D01*
X0097186Y0238125D01*
X0096998Y0238123D01*
X0096810Y0238125D01*
X0096621Y0238132D01*
X0096433Y0238144D01*
X0096246Y0238160D01*
X0096058Y0238181D01*
X0095872Y0238206D01*
X0095686Y0238236D01*
X0095500Y0238271D01*
X0095316Y0238310D01*
X0095133Y0238353D01*
X0094950Y0238401D01*
X0094769Y0238454D01*
X0094590Y0238510D01*
X0094412Y0238572D01*
X0094235Y0238637D01*
X0094060Y0238707D01*
X0093887Y0238782D01*
X0093716Y0238860D01*
X0093546Y0238943D01*
X0093379Y0239029D01*
X0093214Y0239120D01*
X0093051Y0239215D01*
X0092891Y0239314D01*
X0092733Y0239417D01*
X0092578Y0239523D01*
X0092425Y0239634D01*
X0092275Y0239748D01*
X0092128Y0239866D01*
X0091984Y0239987D01*
X0091842Y0240112D01*
X0091704Y0240240D01*
X0091570Y0240372D01*
X0091438Y0240506D01*
X0091310Y0240644D01*
X0091185Y0240786D01*
X0091064Y0240930D01*
X0090946Y0241077D01*
X0090832Y0241227D01*
X0090721Y0241380D01*
X0090615Y0241535D01*
X0090512Y0241693D01*
X0090413Y0241853D01*
X0090318Y0242016D01*
X0090227Y0242181D01*
X0090141Y0242348D01*
X0090058Y0242518D01*
X0089980Y0242689D01*
X0089905Y0242862D01*
X0089835Y0243037D01*
X0089770Y0243214D01*
X0089708Y0243392D01*
X0089652Y0243571D01*
X0089599Y0243752D01*
X0089551Y0243935D01*
X0089508Y0244118D01*
X0089469Y0244302D01*
X0089434Y0244488D01*
X0089404Y0244674D01*
X0089379Y0244860D01*
X0089358Y0245048D01*
X0089342Y0245235D01*
X0089330Y0245423D01*
X0089323Y0245612D01*
X0089321Y0245800D01*
X0090109Y0242454D02*
X0090192Y0242287D01*
X0090279Y0242123D01*
X0090371Y0241960D01*
X0090466Y0241800D01*
X0090565Y0241643D01*
X0090668Y0241488D01*
X0090775Y0241335D01*
X0090886Y0241185D01*
X0091000Y0241038D01*
X0091117Y0240893D01*
X0091238Y0240752D01*
X0091363Y0240613D01*
X0091490Y0240478D01*
X0091621Y0240345D01*
X0091756Y0240216D01*
X0091893Y0240090D01*
X0092033Y0239968D01*
X0092177Y0239849D01*
X0092323Y0239733D01*
X0092472Y0239622D01*
X0092623Y0239513D01*
X0092777Y0239409D01*
X0092934Y0239308D01*
X0093093Y0239211D01*
X0093254Y0239118D01*
X0093418Y0239029D01*
X0093584Y0238944D01*
X0093751Y0238863D01*
X0093921Y0238786D01*
X0094093Y0238713D01*
X0094266Y0238645D01*
X0094441Y0238581D01*
X0094617Y0238521D01*
X0094795Y0238465D01*
X0094974Y0238413D01*
X0095154Y0238366D01*
X0095335Y0238324D01*
X0095517Y0238285D01*
X0095701Y0238252D01*
X0095884Y0238222D01*
X0096069Y0238198D01*
X0096254Y0238177D01*
X0096440Y0238161D01*
X0096626Y0238150D01*
X0096812Y0238143D01*
X0096998Y0238141D01*
X0097184Y0238143D01*
X0097370Y0238150D01*
X0097556Y0238161D01*
X0097742Y0238177D01*
X0097927Y0238198D01*
X0098112Y0238222D01*
X0098295Y0238252D01*
X0098479Y0238285D01*
X0098661Y0238324D01*
X0098842Y0238366D01*
X0099022Y0238413D01*
X0099201Y0238465D01*
X0099379Y0238521D01*
X0099555Y0238581D01*
X0099730Y0238645D01*
X0099903Y0238713D01*
X0100075Y0238786D01*
X0100245Y0238863D01*
X0100412Y0238944D01*
X0100578Y0239029D01*
X0100742Y0239118D01*
X0100903Y0239211D01*
X0101062Y0239308D01*
X0101219Y0239409D01*
X0101373Y0239513D01*
X0101524Y0239622D01*
X0101673Y0239733D01*
X0101819Y0239849D01*
X0101963Y0239968D01*
X0102103Y0240090D01*
X0102240Y0240216D01*
X0102375Y0240345D01*
X0102506Y0240478D01*
X0102633Y0240613D01*
X0102758Y0240752D01*
X0102879Y0240893D01*
X0102996Y0241038D01*
X0103110Y0241185D01*
X0103221Y0241335D01*
X0103328Y0241488D01*
X0103431Y0241643D01*
X0103530Y0241800D01*
X0103625Y0241960D01*
X0103717Y0242123D01*
X0103804Y0242287D01*
X0103887Y0242454D01*
X0103887Y0249146D02*
X0103804Y0249313D01*
X0103717Y0249477D01*
X0103625Y0249640D01*
X0103530Y0249800D01*
X0103431Y0249957D01*
X0103328Y0250112D01*
X0103221Y0250265D01*
X0103110Y0250415D01*
X0102996Y0250562D01*
X0102879Y0250707D01*
X0102758Y0250848D01*
X0102633Y0250987D01*
X0102506Y0251122D01*
X0102375Y0251255D01*
X0102240Y0251384D01*
X0102103Y0251510D01*
X0101963Y0251632D01*
X0101819Y0251751D01*
X0101673Y0251867D01*
X0101524Y0251978D01*
X0101373Y0252087D01*
X0101219Y0252191D01*
X0101062Y0252292D01*
X0100903Y0252389D01*
X0100742Y0252482D01*
X0100578Y0252571D01*
X0100412Y0252656D01*
X0100245Y0252737D01*
X0100075Y0252814D01*
X0099903Y0252887D01*
X0099730Y0252955D01*
X0099555Y0253019D01*
X0099379Y0253079D01*
X0099201Y0253135D01*
X0099022Y0253187D01*
X0098842Y0253234D01*
X0098661Y0253276D01*
X0098479Y0253315D01*
X0098295Y0253348D01*
X0098112Y0253378D01*
X0097927Y0253402D01*
X0097742Y0253423D01*
X0097556Y0253439D01*
X0097370Y0253450D01*
X0097184Y0253457D01*
X0096998Y0253459D01*
X0096812Y0253457D01*
X0096626Y0253450D01*
X0096440Y0253439D01*
X0096254Y0253423D01*
X0096069Y0253402D01*
X0095884Y0253378D01*
X0095701Y0253348D01*
X0095517Y0253315D01*
X0095335Y0253276D01*
X0095154Y0253234D01*
X0094974Y0253187D01*
X0094795Y0253135D01*
X0094617Y0253079D01*
X0094441Y0253019D01*
X0094266Y0252955D01*
X0094093Y0252887D01*
X0093921Y0252814D01*
X0093751Y0252737D01*
X0093584Y0252656D01*
X0093418Y0252571D01*
X0093254Y0252482D01*
X0093093Y0252389D01*
X0092934Y0252292D01*
X0092777Y0252191D01*
X0092623Y0252087D01*
X0092472Y0251978D01*
X0092323Y0251867D01*
X0092177Y0251751D01*
X0092033Y0251632D01*
X0091893Y0251510D01*
X0091756Y0251384D01*
X0091621Y0251255D01*
X0091490Y0251122D01*
X0091363Y0250987D01*
X0091238Y0250848D01*
X0091117Y0250707D01*
X0091000Y0250562D01*
X0090886Y0250415D01*
X0090775Y0250265D01*
X0090668Y0250112D01*
X0090565Y0249957D01*
X0090466Y0249800D01*
X0090371Y0249640D01*
X0090279Y0249477D01*
X0090192Y0249313D01*
X0090109Y0249146D01*
X0063531Y0213104D02*
X0064298Y0212337D01*
X0064298Y0209267D01*
X0063531Y0208500D01*
X0061996Y0208500D01*
X0061229Y0209267D01*
X0059694Y0209267D02*
X0058927Y0208500D01*
X0057392Y0208500D01*
X0056625Y0209267D01*
X0056625Y0212337D01*
X0057392Y0213104D01*
X0058927Y0213104D01*
X0059694Y0212337D01*
X0059694Y0211569D01*
X0058927Y0210802D01*
X0056625Y0210802D01*
X0061229Y0212337D02*
X0061996Y0213104D01*
X0063531Y0213104D01*
X0063400Y0207501D02*
X0060597Y0207501D01*
X0060597Y0204150D02*
X0063400Y0204150D01*
X0074698Y0204688D02*
X0079302Y0204688D01*
X0079302Y0206990D01*
X0078535Y0207757D01*
X0077000Y0207757D01*
X0076233Y0206990D01*
X0076233Y0204688D01*
X0076233Y0206223D02*
X0074698Y0207757D01*
X0040266Y0212532D02*
X0040266Y0224737D01*
X0035935Y0229068D01*
X0028061Y0229068D01*
X0023730Y0224737D01*
X0023730Y0212532D01*
X0028652Y0212532D01*
X0028755Y0214073D02*
X0035229Y0214073D01*
X0035345Y0214107D02*
X0033376Y0213517D01*
X0030423Y0213517D01*
X0028652Y0214107D01*
X0026486Y0215879D01*
X0037510Y0215879D01*
X0037707Y0215879D01*
X0035345Y0214107D01*
X0035830Y0214471D02*
X0028207Y0214471D01*
X0027720Y0214870D02*
X0036361Y0214870D01*
X0036893Y0215268D02*
X0027233Y0215268D01*
X0026746Y0215667D02*
X0037424Y0215667D01*
X0037904Y0216076D02*
X0026093Y0216076D01*
X0023730Y0212532D02*
X0040266Y0212532D01*
X0035345Y0212532D01*
X0033901Y0213674D02*
X0029951Y0213674D01*
X0028927Y0208104D02*
X0027392Y0208104D01*
X0026625Y0207337D01*
X0026625Y0206569D01*
X0027392Y0205802D01*
X0026625Y0205035D01*
X0026625Y0204267D01*
X0027392Y0203500D01*
X0028927Y0203500D01*
X0029694Y0204267D01*
X0031229Y0203500D02*
X0032763Y0205035D01*
X0031996Y0205035D02*
X0034298Y0205035D01*
X0034298Y0203500D02*
X0034298Y0208104D01*
X0031996Y0208104D01*
X0031229Y0207337D01*
X0031229Y0205802D01*
X0031996Y0205035D01*
X0031996Y0203104D02*
X0031229Y0202337D01*
X0031229Y0200802D01*
X0031996Y0200035D01*
X0034298Y0200035D01*
X0032763Y0200035D02*
X0031229Y0198500D01*
X0029694Y0200802D02*
X0026625Y0200802D01*
X0027392Y0198500D02*
X0027392Y0203104D01*
X0029694Y0200802D01*
X0031996Y0203104D02*
X0034298Y0203104D01*
X0034298Y0198500D01*
X0033531Y0193104D02*
X0034298Y0192337D01*
X0034298Y0189267D01*
X0033531Y0188500D01*
X0031996Y0188500D01*
X0031229Y0189267D01*
X0030833Y0188104D02*
X0033902Y0188104D01*
X0033902Y0185802D01*
X0032367Y0186569D01*
X0031600Y0186569D01*
X0030833Y0185802D01*
X0030833Y0184267D01*
X0031600Y0183500D01*
X0033135Y0183500D01*
X0033902Y0184267D01*
X0033400Y0184150D02*
X0030597Y0184150D01*
X0031229Y0183500D02*
X0032763Y0185035D01*
X0031996Y0185035D02*
X0034298Y0185035D01*
X0035437Y0185802D02*
X0036204Y0185035D01*
X0038506Y0185035D01*
X0036971Y0185035D02*
X0035437Y0183500D01*
X0034298Y0183500D02*
X0034298Y0188104D01*
X0031996Y0188104D01*
X0031229Y0187337D01*
X0031229Y0185802D01*
X0031996Y0185035D01*
X0029694Y0185802D02*
X0027392Y0185802D01*
X0026625Y0185035D01*
X0026625Y0184267D01*
X0027392Y0183500D01*
X0028927Y0183500D01*
X0029694Y0184267D01*
X0029694Y0185802D01*
X0028160Y0187337D01*
X0026625Y0188104D01*
X0027392Y0188500D02*
X0027392Y0193104D01*
X0029694Y0190802D01*
X0026625Y0190802D01*
X0031229Y0192337D02*
X0031996Y0193104D01*
X0033531Y0193104D01*
X0033400Y0187501D02*
X0030597Y0187501D01*
X0035437Y0187337D02*
X0035437Y0185802D01*
X0035437Y0187337D02*
X0036204Y0188104D01*
X0038506Y0188104D01*
X0038506Y0183500D01*
X0028160Y0205802D02*
X0027392Y0205802D01*
X0029694Y0207337D02*
X0028927Y0208104D01*
X0023730Y0212532D02*
X0023730Y0224737D01*
X0028061Y0229068D01*
X0030833Y0228500D02*
X0033902Y0228500D01*
X0032367Y0228500D02*
X0032367Y0233104D01*
X0033902Y0231569D01*
X0035437Y0230802D02*
X0036204Y0230035D01*
X0038506Y0230035D01*
X0036971Y0230035D02*
X0035437Y0228500D01*
X0035935Y0229068D02*
X0040266Y0224737D01*
X0040266Y0212532D01*
X0024321Y0220800D02*
X0024323Y0220988D01*
X0024330Y0221177D01*
X0024342Y0221365D01*
X0024358Y0221552D01*
X0024379Y0221740D01*
X0024404Y0221926D01*
X0024434Y0222112D01*
X0024469Y0222298D01*
X0024508Y0222482D01*
X0024551Y0222665D01*
X0024599Y0222848D01*
X0024652Y0223029D01*
X0024708Y0223208D01*
X0024770Y0223386D01*
X0024835Y0223563D01*
X0024905Y0223738D01*
X0024980Y0223911D01*
X0025058Y0224082D01*
X0025141Y0224252D01*
X0025227Y0224419D01*
X0025318Y0224584D01*
X0025413Y0224747D01*
X0025512Y0224907D01*
X0025615Y0225065D01*
X0025721Y0225220D01*
X0025832Y0225373D01*
X0025946Y0225523D01*
X0026064Y0225670D01*
X0026185Y0225814D01*
X0026310Y0225956D01*
X0026438Y0226094D01*
X0026570Y0226228D01*
X0026704Y0226360D01*
X0026842Y0226488D01*
X0026984Y0226613D01*
X0027128Y0226734D01*
X0027275Y0226852D01*
X0027425Y0226966D01*
X0027578Y0227077D01*
X0027733Y0227183D01*
X0027891Y0227286D01*
X0028051Y0227385D01*
X0028214Y0227480D01*
X0028379Y0227571D01*
X0028546Y0227657D01*
X0028716Y0227740D01*
X0028887Y0227818D01*
X0029060Y0227893D01*
X0029235Y0227963D01*
X0029412Y0228028D01*
X0029590Y0228090D01*
X0029769Y0228146D01*
X0029950Y0228199D01*
X0030133Y0228247D01*
X0030316Y0228290D01*
X0030500Y0228329D01*
X0030686Y0228364D01*
X0030872Y0228394D01*
X0031058Y0228419D01*
X0031246Y0228440D01*
X0031433Y0228456D01*
X0031621Y0228468D01*
X0031810Y0228475D01*
X0031998Y0228477D01*
X0032186Y0228475D01*
X0032375Y0228468D01*
X0032563Y0228456D01*
X0032750Y0228440D01*
X0032938Y0228419D01*
X0033124Y0228394D01*
X0033310Y0228364D01*
X0033496Y0228329D01*
X0033680Y0228290D01*
X0033863Y0228247D01*
X0034046Y0228199D01*
X0034227Y0228146D01*
X0034406Y0228090D01*
X0034584Y0228028D01*
X0034761Y0227963D01*
X0034936Y0227893D01*
X0035109Y0227818D01*
X0035280Y0227740D01*
X0035450Y0227657D01*
X0035617Y0227571D01*
X0035782Y0227480D01*
X0035945Y0227385D01*
X0036105Y0227286D01*
X0036263Y0227183D01*
X0036418Y0227077D01*
X0036571Y0226966D01*
X0036721Y0226852D01*
X0036868Y0226734D01*
X0037012Y0226613D01*
X0037154Y0226488D01*
X0037292Y0226360D01*
X0037426Y0226228D01*
X0037558Y0226094D01*
X0037686Y0225956D01*
X0037811Y0225814D01*
X0037932Y0225670D01*
X0038050Y0225523D01*
X0038164Y0225373D01*
X0038275Y0225220D01*
X0038381Y0225065D01*
X0038484Y0224907D01*
X0038583Y0224747D01*
X0038678Y0224584D01*
X0038769Y0224419D01*
X0038855Y0224252D01*
X0038938Y0224082D01*
X0039016Y0223911D01*
X0039091Y0223738D01*
X0039161Y0223563D01*
X0039226Y0223386D01*
X0039288Y0223208D01*
X0039344Y0223029D01*
X0039397Y0222848D01*
X0039445Y0222665D01*
X0039488Y0222482D01*
X0039527Y0222298D01*
X0039562Y0222112D01*
X0039592Y0221926D01*
X0039617Y0221740D01*
X0039638Y0221552D01*
X0039654Y0221365D01*
X0039666Y0221177D01*
X0039673Y0220988D01*
X0039675Y0220800D01*
X0039673Y0220612D01*
X0039666Y0220423D01*
X0039654Y0220235D01*
X0039638Y0220048D01*
X0039617Y0219860D01*
X0039592Y0219674D01*
X0039562Y0219488D01*
X0039527Y0219302D01*
X0039488Y0219118D01*
X0039445Y0218935D01*
X0039397Y0218752D01*
X0039344Y0218571D01*
X0039288Y0218392D01*
X0039226Y0218214D01*
X0039161Y0218037D01*
X0039091Y0217862D01*
X0039016Y0217689D01*
X0038938Y0217518D01*
X0038855Y0217348D01*
X0038769Y0217181D01*
X0038678Y0217016D01*
X0038583Y0216853D01*
X0038484Y0216693D01*
X0038381Y0216535D01*
X0038275Y0216380D01*
X0038164Y0216227D01*
X0038050Y0216077D01*
X0037932Y0215930D01*
X0037811Y0215786D01*
X0037686Y0215644D01*
X0037558Y0215506D01*
X0037426Y0215372D01*
X0037292Y0215240D01*
X0037154Y0215112D01*
X0037012Y0214987D01*
X0036868Y0214866D01*
X0036721Y0214748D01*
X0036571Y0214634D01*
X0036418Y0214523D01*
X0036263Y0214417D01*
X0036105Y0214314D01*
X0035945Y0214215D01*
X0035782Y0214120D01*
X0035617Y0214029D01*
X0035450Y0213943D01*
X0035280Y0213860D01*
X0035109Y0213782D01*
X0034936Y0213707D01*
X0034761Y0213637D01*
X0034584Y0213572D01*
X0034406Y0213510D01*
X0034227Y0213454D01*
X0034046Y0213401D01*
X0033863Y0213353D01*
X0033680Y0213310D01*
X0033496Y0213271D01*
X0033310Y0213236D01*
X0033124Y0213206D01*
X0032938Y0213181D01*
X0032750Y0213160D01*
X0032563Y0213144D01*
X0032375Y0213132D01*
X0032186Y0213125D01*
X0031998Y0213123D01*
X0031810Y0213125D01*
X0031621Y0213132D01*
X0031433Y0213144D01*
X0031246Y0213160D01*
X0031058Y0213181D01*
X0030872Y0213206D01*
X0030686Y0213236D01*
X0030500Y0213271D01*
X0030316Y0213310D01*
X0030133Y0213353D01*
X0029950Y0213401D01*
X0029769Y0213454D01*
X0029590Y0213510D01*
X0029412Y0213572D01*
X0029235Y0213637D01*
X0029060Y0213707D01*
X0028887Y0213782D01*
X0028716Y0213860D01*
X0028546Y0213943D01*
X0028379Y0214029D01*
X0028214Y0214120D01*
X0028051Y0214215D01*
X0027891Y0214314D01*
X0027733Y0214417D01*
X0027578Y0214523D01*
X0027425Y0214634D01*
X0027275Y0214748D01*
X0027128Y0214866D01*
X0026984Y0214987D01*
X0026842Y0215112D01*
X0026704Y0215240D01*
X0026570Y0215372D01*
X0026438Y0215506D01*
X0026310Y0215644D01*
X0026185Y0215786D01*
X0026064Y0215930D01*
X0025946Y0216077D01*
X0025832Y0216227D01*
X0025721Y0216380D01*
X0025615Y0216535D01*
X0025512Y0216693D01*
X0025413Y0216853D01*
X0025318Y0217016D01*
X0025227Y0217181D01*
X0025141Y0217348D01*
X0025058Y0217518D01*
X0024980Y0217689D01*
X0024905Y0217862D01*
X0024835Y0218037D01*
X0024770Y0218214D01*
X0024708Y0218392D01*
X0024652Y0218571D01*
X0024599Y0218752D01*
X0024551Y0218935D01*
X0024508Y0219118D01*
X0024469Y0219302D01*
X0024434Y0219488D01*
X0024404Y0219674D01*
X0024379Y0219860D01*
X0024358Y0220048D01*
X0024342Y0220235D01*
X0024330Y0220423D01*
X0024323Y0220612D01*
X0024321Y0220800D01*
X0035344Y0213911D02*
X0035511Y0213994D01*
X0035675Y0214081D01*
X0035838Y0214173D01*
X0035998Y0214268D01*
X0036155Y0214367D01*
X0036310Y0214470D01*
X0036463Y0214577D01*
X0036613Y0214688D01*
X0036760Y0214802D01*
X0036905Y0214919D01*
X0037046Y0215040D01*
X0037185Y0215165D01*
X0037320Y0215292D01*
X0037453Y0215423D01*
X0037582Y0215558D01*
X0037708Y0215695D01*
X0037830Y0215835D01*
X0037949Y0215979D01*
X0038065Y0216125D01*
X0038176Y0216274D01*
X0038285Y0216425D01*
X0038389Y0216579D01*
X0038490Y0216736D01*
X0038587Y0216895D01*
X0038680Y0217056D01*
X0038769Y0217220D01*
X0038854Y0217386D01*
X0038935Y0217553D01*
X0039012Y0217723D01*
X0039085Y0217895D01*
X0039153Y0218068D01*
X0039217Y0218243D01*
X0039277Y0218419D01*
X0039333Y0218597D01*
X0039385Y0218776D01*
X0039432Y0218956D01*
X0039474Y0219137D01*
X0039513Y0219319D01*
X0039546Y0219503D01*
X0039576Y0219686D01*
X0039600Y0219871D01*
X0039621Y0220056D01*
X0039637Y0220242D01*
X0039648Y0220428D01*
X0039655Y0220614D01*
X0039657Y0220800D01*
X0039655Y0220986D01*
X0039648Y0221172D01*
X0039637Y0221358D01*
X0039621Y0221544D01*
X0039600Y0221729D01*
X0039576Y0221914D01*
X0039546Y0222097D01*
X0039513Y0222281D01*
X0039474Y0222463D01*
X0039432Y0222644D01*
X0039385Y0222824D01*
X0039333Y0223003D01*
X0039277Y0223181D01*
X0039217Y0223357D01*
X0039153Y0223532D01*
X0039085Y0223705D01*
X0039012Y0223877D01*
X0038935Y0224047D01*
X0038854Y0224214D01*
X0038769Y0224380D01*
X0038680Y0224544D01*
X0038587Y0224705D01*
X0038490Y0224864D01*
X0038389Y0225021D01*
X0038285Y0225175D01*
X0038176Y0225326D01*
X0038065Y0225475D01*
X0037949Y0225621D01*
X0037830Y0225765D01*
X0037708Y0225905D01*
X0037582Y0226042D01*
X0037453Y0226177D01*
X0037320Y0226308D01*
X0037185Y0226435D01*
X0037046Y0226560D01*
X0036905Y0226681D01*
X0036760Y0226798D01*
X0036613Y0226912D01*
X0036463Y0227023D01*
X0036310Y0227130D01*
X0036155Y0227233D01*
X0035998Y0227332D01*
X0035838Y0227427D01*
X0035675Y0227519D01*
X0035511Y0227606D01*
X0035344Y0227689D01*
X0035437Y0230802D02*
X0035437Y0232337D01*
X0036204Y0233104D01*
X0038506Y0233104D01*
X0038506Y0228500D01*
X0028652Y0227689D02*
X0028485Y0227606D01*
X0028321Y0227519D01*
X0028158Y0227427D01*
X0027998Y0227332D01*
X0027841Y0227233D01*
X0027686Y0227130D01*
X0027533Y0227023D01*
X0027383Y0226912D01*
X0027236Y0226798D01*
X0027091Y0226681D01*
X0026950Y0226560D01*
X0026811Y0226435D01*
X0026676Y0226308D01*
X0026543Y0226177D01*
X0026414Y0226042D01*
X0026288Y0225905D01*
X0026166Y0225765D01*
X0026047Y0225621D01*
X0025931Y0225475D01*
X0025820Y0225326D01*
X0025711Y0225175D01*
X0025607Y0225021D01*
X0025506Y0224864D01*
X0025409Y0224705D01*
X0025316Y0224544D01*
X0025227Y0224380D01*
X0025142Y0224214D01*
X0025061Y0224047D01*
X0024984Y0223877D01*
X0024911Y0223705D01*
X0024843Y0223532D01*
X0024779Y0223357D01*
X0024719Y0223181D01*
X0024663Y0223003D01*
X0024611Y0222824D01*
X0024564Y0222644D01*
X0024522Y0222463D01*
X0024483Y0222281D01*
X0024450Y0222097D01*
X0024420Y0221914D01*
X0024396Y0221729D01*
X0024375Y0221544D01*
X0024359Y0221358D01*
X0024348Y0221172D01*
X0024341Y0220986D01*
X0024339Y0220800D01*
X0024341Y0220614D01*
X0024348Y0220428D01*
X0024359Y0220242D01*
X0024375Y0220056D01*
X0024396Y0219871D01*
X0024420Y0219686D01*
X0024450Y0219503D01*
X0024483Y0219319D01*
X0024522Y0219137D01*
X0024564Y0218956D01*
X0024611Y0218776D01*
X0024663Y0218597D01*
X0024719Y0218419D01*
X0024779Y0218243D01*
X0024843Y0218068D01*
X0024911Y0217895D01*
X0024984Y0217723D01*
X0025061Y0217553D01*
X0025142Y0217386D01*
X0025227Y0217220D01*
X0025316Y0217056D01*
X0025409Y0216895D01*
X0025506Y0216736D01*
X0025607Y0216579D01*
X0025711Y0216425D01*
X0025820Y0216274D01*
X0025931Y0216125D01*
X0026047Y0215979D01*
X0026166Y0215835D01*
X0026288Y0215695D01*
X0026414Y0215558D01*
X0026543Y0215423D01*
X0026676Y0215292D01*
X0026811Y0215165D01*
X0026950Y0215040D01*
X0027091Y0214919D01*
X0027236Y0214802D01*
X0027383Y0214688D01*
X0027533Y0214577D01*
X0027686Y0214470D01*
X0027841Y0214367D01*
X0027998Y0214268D01*
X0028158Y0214173D01*
X0028321Y0214081D01*
X0028485Y0213994D01*
X0028652Y0213911D01*
X0030090Y0267733D02*
X0027021Y0267733D01*
X0025486Y0268500D02*
X0022417Y0268500D01*
X0025486Y0268500D02*
X0025486Y0273104D01*
X0031625Y0272337D02*
X0031625Y0271569D01*
X0034694Y0268500D01*
X0031625Y0268500D01*
X0031625Y0272337D02*
X0032392Y0273104D01*
X0033927Y0273104D01*
X0034694Y0272337D01*
X0036229Y0272337D02*
X0036229Y0269267D01*
X0036996Y0268500D01*
X0038531Y0268500D01*
X0039298Y0269267D01*
X0039298Y0272337D01*
X0038531Y0273104D01*
X0036996Y0273104D01*
X0036229Y0272337D01*
X0037763Y0270035D02*
X0036229Y0268500D01*
X0134698Y0221965D02*
X0134698Y0218896D01*
X0137767Y0221965D01*
X0138535Y0221965D01*
X0139302Y0221198D01*
X0139302Y0219663D01*
X0138535Y0218896D01*
X0138535Y0217361D02*
X0137000Y0217361D01*
X0136233Y0216594D01*
X0136233Y0214292D01*
X0136233Y0215827D02*
X0134698Y0217361D01*
X0134698Y0214292D02*
X0139302Y0214292D01*
X0139302Y0216594D01*
X0138535Y0217361D01*
X0142021Y0242733D02*
X0145090Y0242733D01*
X0146625Y0243500D02*
X0149694Y0243500D01*
X0148160Y0243500D02*
X0148160Y0248104D01*
X0149694Y0246569D01*
X0151229Y0247337D02*
X0151229Y0244267D01*
X0151996Y0243500D01*
X0153531Y0243500D01*
X0154298Y0244267D01*
X0154298Y0247337D01*
X0153531Y0248104D01*
X0151996Y0248104D01*
X0151229Y0247337D01*
X0152763Y0245035D02*
X0151229Y0243500D01*
X0150935Y0257532D02*
X0143061Y0257532D01*
X0138730Y0261863D01*
X0138730Y0274068D01*
X0143652Y0274068D01*
X0144188Y0272654D02*
X0149862Y0272654D01*
X0150345Y0272493D02*
X0152510Y0270721D01*
X0141486Y0270721D01*
X0141289Y0270721D01*
X0143652Y0272493D01*
X0145620Y0273083D01*
X0148573Y0273083D01*
X0150345Y0272493D01*
X0150635Y0272255D02*
X0143335Y0272255D01*
X0142803Y0271857D02*
X0151122Y0271857D01*
X0151609Y0271458D02*
X0142272Y0271458D01*
X0141741Y0271060D02*
X0152096Y0271060D01*
X0152904Y0270524D02*
X0141093Y0270524D01*
X0138730Y0274068D02*
X0155266Y0274068D01*
X0150345Y0274068D01*
X0148667Y0273052D02*
X0145516Y0273052D01*
X0138730Y0274068D02*
X0138730Y0261863D01*
X0143061Y0257532D01*
X0150344Y0258911D02*
X0150511Y0258994D01*
X0150675Y0259081D01*
X0150838Y0259173D01*
X0150998Y0259268D01*
X0151155Y0259367D01*
X0151310Y0259470D01*
X0151463Y0259577D01*
X0151613Y0259688D01*
X0151760Y0259802D01*
X0151905Y0259919D01*
X0152046Y0260040D01*
X0152185Y0260165D01*
X0152320Y0260292D01*
X0152453Y0260423D01*
X0152582Y0260558D01*
X0152708Y0260695D01*
X0152830Y0260835D01*
X0152949Y0260979D01*
X0153065Y0261125D01*
X0153176Y0261274D01*
X0153285Y0261425D01*
X0153389Y0261579D01*
X0153490Y0261736D01*
X0153587Y0261895D01*
X0153680Y0262056D01*
X0153769Y0262220D01*
X0153854Y0262386D01*
X0153935Y0262553D01*
X0154012Y0262723D01*
X0154085Y0262895D01*
X0154153Y0263068D01*
X0154217Y0263243D01*
X0154277Y0263419D01*
X0154333Y0263597D01*
X0154385Y0263776D01*
X0154432Y0263956D01*
X0154474Y0264137D01*
X0154513Y0264319D01*
X0154546Y0264503D01*
X0154576Y0264686D01*
X0154600Y0264871D01*
X0154621Y0265056D01*
X0154637Y0265242D01*
X0154648Y0265428D01*
X0154655Y0265614D01*
X0154657Y0265800D01*
X0154655Y0265986D01*
X0154648Y0266172D01*
X0154637Y0266358D01*
X0154621Y0266544D01*
X0154600Y0266729D01*
X0154576Y0266914D01*
X0154546Y0267097D01*
X0154513Y0267281D01*
X0154474Y0267463D01*
X0154432Y0267644D01*
X0154385Y0267824D01*
X0154333Y0268003D01*
X0154277Y0268181D01*
X0154217Y0268357D01*
X0154153Y0268532D01*
X0154085Y0268705D01*
X0154012Y0268877D01*
X0153935Y0269047D01*
X0153854Y0269214D01*
X0153769Y0269380D01*
X0153680Y0269544D01*
X0153587Y0269705D01*
X0153490Y0269864D01*
X0153389Y0270021D01*
X0153285Y0270175D01*
X0153176Y0270326D01*
X0153065Y0270475D01*
X0152949Y0270621D01*
X0152830Y0270765D01*
X0152708Y0270905D01*
X0152582Y0271042D01*
X0152453Y0271177D01*
X0152320Y0271308D01*
X0152185Y0271435D01*
X0152046Y0271560D01*
X0151905Y0271681D01*
X0151760Y0271798D01*
X0151613Y0271912D01*
X0151463Y0272023D01*
X0151310Y0272130D01*
X0151155Y0272233D01*
X0150998Y0272332D01*
X0150838Y0272427D01*
X0150675Y0272519D01*
X0150511Y0272606D01*
X0150344Y0272689D01*
X0155266Y0274068D02*
X0155266Y0261863D01*
X0150935Y0257532D01*
X0155266Y0261863D01*
X0155266Y0274068D01*
X0139321Y0265800D02*
X0139323Y0265988D01*
X0139330Y0266177D01*
X0139342Y0266365D01*
X0139358Y0266552D01*
X0139379Y0266740D01*
X0139404Y0266926D01*
X0139434Y0267112D01*
X0139469Y0267298D01*
X0139508Y0267482D01*
X0139551Y0267665D01*
X0139599Y0267848D01*
X0139652Y0268029D01*
X0139708Y0268208D01*
X0139770Y0268386D01*
X0139835Y0268563D01*
X0139905Y0268738D01*
X0139980Y0268911D01*
X0140058Y0269082D01*
X0140141Y0269252D01*
X0140227Y0269419D01*
X0140318Y0269584D01*
X0140413Y0269747D01*
X0140512Y0269907D01*
X0140615Y0270065D01*
X0140721Y0270220D01*
X0140832Y0270373D01*
X0140946Y0270523D01*
X0141064Y0270670D01*
X0141185Y0270814D01*
X0141310Y0270956D01*
X0141438Y0271094D01*
X0141570Y0271228D01*
X0141704Y0271360D01*
X0141842Y0271488D01*
X0141984Y0271613D01*
X0142128Y0271734D01*
X0142275Y0271852D01*
X0142425Y0271966D01*
X0142578Y0272077D01*
X0142733Y0272183D01*
X0142891Y0272286D01*
X0143051Y0272385D01*
X0143214Y0272480D01*
X0143379Y0272571D01*
X0143546Y0272657D01*
X0143716Y0272740D01*
X0143887Y0272818D01*
X0144060Y0272893D01*
X0144235Y0272963D01*
X0144412Y0273028D01*
X0144590Y0273090D01*
X0144769Y0273146D01*
X0144950Y0273199D01*
X0145133Y0273247D01*
X0145316Y0273290D01*
X0145500Y0273329D01*
X0145686Y0273364D01*
X0145872Y0273394D01*
X0146058Y0273419D01*
X0146246Y0273440D01*
X0146433Y0273456D01*
X0146621Y0273468D01*
X0146810Y0273475D01*
X0146998Y0273477D01*
X0147186Y0273475D01*
X0147375Y0273468D01*
X0147563Y0273456D01*
X0147750Y0273440D01*
X0147938Y0273419D01*
X0148124Y0273394D01*
X0148310Y0273364D01*
X0148496Y0273329D01*
X0148680Y0273290D01*
X0148863Y0273247D01*
X0149046Y0273199D01*
X0149227Y0273146D01*
X0149406Y0273090D01*
X0149584Y0273028D01*
X0149761Y0272963D01*
X0149936Y0272893D01*
X0150109Y0272818D01*
X0150280Y0272740D01*
X0150450Y0272657D01*
X0150617Y0272571D01*
X0150782Y0272480D01*
X0150945Y0272385D01*
X0151105Y0272286D01*
X0151263Y0272183D01*
X0151418Y0272077D01*
X0151571Y0271966D01*
X0151721Y0271852D01*
X0151868Y0271734D01*
X0152012Y0271613D01*
X0152154Y0271488D01*
X0152292Y0271360D01*
X0152426Y0271228D01*
X0152558Y0271094D01*
X0152686Y0270956D01*
X0152811Y0270814D01*
X0152932Y0270670D01*
X0153050Y0270523D01*
X0153164Y0270373D01*
X0153275Y0270220D01*
X0153381Y0270065D01*
X0153484Y0269907D01*
X0153583Y0269747D01*
X0153678Y0269584D01*
X0153769Y0269419D01*
X0153855Y0269252D01*
X0153938Y0269082D01*
X0154016Y0268911D01*
X0154091Y0268738D01*
X0154161Y0268563D01*
X0154226Y0268386D01*
X0154288Y0268208D01*
X0154344Y0268029D01*
X0154397Y0267848D01*
X0154445Y0267665D01*
X0154488Y0267482D01*
X0154527Y0267298D01*
X0154562Y0267112D01*
X0154592Y0266926D01*
X0154617Y0266740D01*
X0154638Y0266552D01*
X0154654Y0266365D01*
X0154666Y0266177D01*
X0154673Y0265988D01*
X0154675Y0265800D01*
X0154673Y0265612D01*
X0154666Y0265423D01*
X0154654Y0265235D01*
X0154638Y0265048D01*
X0154617Y0264860D01*
X0154592Y0264674D01*
X0154562Y0264488D01*
X0154527Y0264302D01*
X0154488Y0264118D01*
X0154445Y0263935D01*
X0154397Y0263752D01*
X0154344Y0263571D01*
X0154288Y0263392D01*
X0154226Y0263214D01*
X0154161Y0263037D01*
X0154091Y0262862D01*
X0154016Y0262689D01*
X0153938Y0262518D01*
X0153855Y0262348D01*
X0153769Y0262181D01*
X0153678Y0262016D01*
X0153583Y0261853D01*
X0153484Y0261693D01*
X0153381Y0261535D01*
X0153275Y0261380D01*
X0153164Y0261227D01*
X0153050Y0261077D01*
X0152932Y0260930D01*
X0152811Y0260786D01*
X0152686Y0260644D01*
X0152558Y0260506D01*
X0152426Y0260372D01*
X0152292Y0260240D01*
X0152154Y0260112D01*
X0152012Y0259987D01*
X0151868Y0259866D01*
X0151721Y0259748D01*
X0151571Y0259634D01*
X0151418Y0259523D01*
X0151263Y0259417D01*
X0151105Y0259314D01*
X0150945Y0259215D01*
X0150782Y0259120D01*
X0150617Y0259029D01*
X0150450Y0258943D01*
X0150280Y0258860D01*
X0150109Y0258782D01*
X0149936Y0258707D01*
X0149761Y0258637D01*
X0149584Y0258572D01*
X0149406Y0258510D01*
X0149227Y0258454D01*
X0149046Y0258401D01*
X0148863Y0258353D01*
X0148680Y0258310D01*
X0148496Y0258271D01*
X0148310Y0258236D01*
X0148124Y0258206D01*
X0147938Y0258181D01*
X0147750Y0258160D01*
X0147563Y0258144D01*
X0147375Y0258132D01*
X0147186Y0258125D01*
X0146998Y0258123D01*
X0146810Y0258125D01*
X0146621Y0258132D01*
X0146433Y0258144D01*
X0146246Y0258160D01*
X0146058Y0258181D01*
X0145872Y0258206D01*
X0145686Y0258236D01*
X0145500Y0258271D01*
X0145316Y0258310D01*
X0145133Y0258353D01*
X0144950Y0258401D01*
X0144769Y0258454D01*
X0144590Y0258510D01*
X0144412Y0258572D01*
X0144235Y0258637D01*
X0144060Y0258707D01*
X0143887Y0258782D01*
X0143716Y0258860D01*
X0143546Y0258943D01*
X0143379Y0259029D01*
X0143214Y0259120D01*
X0143051Y0259215D01*
X0142891Y0259314D01*
X0142733Y0259417D01*
X0142578Y0259523D01*
X0142425Y0259634D01*
X0142275Y0259748D01*
X0142128Y0259866D01*
X0141984Y0259987D01*
X0141842Y0260112D01*
X0141704Y0260240D01*
X0141570Y0260372D01*
X0141438Y0260506D01*
X0141310Y0260644D01*
X0141185Y0260786D01*
X0141064Y0260930D01*
X0140946Y0261077D01*
X0140832Y0261227D01*
X0140721Y0261380D01*
X0140615Y0261535D01*
X0140512Y0261693D01*
X0140413Y0261853D01*
X0140318Y0262016D01*
X0140227Y0262181D01*
X0140141Y0262348D01*
X0140058Y0262518D01*
X0139980Y0262689D01*
X0139905Y0262862D01*
X0139835Y0263037D01*
X0139770Y0263214D01*
X0139708Y0263392D01*
X0139652Y0263571D01*
X0139599Y0263752D01*
X0139551Y0263935D01*
X0139508Y0264118D01*
X0139469Y0264302D01*
X0139434Y0264488D01*
X0139404Y0264674D01*
X0139379Y0264860D01*
X0139358Y0265048D01*
X0139342Y0265235D01*
X0139330Y0265423D01*
X0139323Y0265612D01*
X0139321Y0265800D01*
X0143652Y0272689D02*
X0143485Y0272606D01*
X0143321Y0272519D01*
X0143158Y0272427D01*
X0142998Y0272332D01*
X0142841Y0272233D01*
X0142686Y0272130D01*
X0142533Y0272023D01*
X0142383Y0271912D01*
X0142236Y0271798D01*
X0142091Y0271681D01*
X0141950Y0271560D01*
X0141811Y0271435D01*
X0141676Y0271308D01*
X0141543Y0271177D01*
X0141414Y0271042D01*
X0141288Y0270905D01*
X0141166Y0270765D01*
X0141047Y0270621D01*
X0140931Y0270475D01*
X0140820Y0270326D01*
X0140711Y0270175D01*
X0140607Y0270021D01*
X0140506Y0269864D01*
X0140409Y0269705D01*
X0140316Y0269544D01*
X0140227Y0269380D01*
X0140142Y0269214D01*
X0140061Y0269047D01*
X0139984Y0268877D01*
X0139911Y0268705D01*
X0139843Y0268532D01*
X0139779Y0268357D01*
X0139719Y0268181D01*
X0139663Y0268003D01*
X0139611Y0267824D01*
X0139564Y0267644D01*
X0139522Y0267463D01*
X0139483Y0267281D01*
X0139450Y0267097D01*
X0139420Y0266914D01*
X0139396Y0266729D01*
X0139375Y0266544D01*
X0139359Y0266358D01*
X0139348Y0266172D01*
X0139341Y0265986D01*
X0139339Y0265800D01*
X0139341Y0265614D01*
X0139348Y0265428D01*
X0139359Y0265242D01*
X0139375Y0265056D01*
X0139396Y0264871D01*
X0139420Y0264686D01*
X0139450Y0264503D01*
X0139483Y0264319D01*
X0139522Y0264137D01*
X0139564Y0263956D01*
X0139611Y0263776D01*
X0139663Y0263597D01*
X0139719Y0263419D01*
X0139779Y0263243D01*
X0139843Y0263068D01*
X0139911Y0262895D01*
X0139984Y0262723D01*
X0140061Y0262553D01*
X0140142Y0262386D01*
X0140227Y0262220D01*
X0140316Y0262056D01*
X0140409Y0261895D01*
X0140506Y0261736D01*
X0140607Y0261579D01*
X0140711Y0261425D01*
X0140820Y0261274D01*
X0140931Y0261125D01*
X0141047Y0260979D01*
X0141166Y0260835D01*
X0141288Y0260695D01*
X0141414Y0260558D01*
X0141543Y0260423D01*
X0141676Y0260292D01*
X0141811Y0260165D01*
X0141950Y0260040D01*
X0142091Y0259919D01*
X0142236Y0259802D01*
X0142383Y0259688D01*
X0142533Y0259577D01*
X0142686Y0259470D01*
X0142841Y0259367D01*
X0142998Y0259268D01*
X0143158Y0259173D01*
X0143321Y0259081D01*
X0143485Y0258994D01*
X0143652Y0258911D01*
X0140486Y0248104D02*
X0138184Y0248104D01*
X0137417Y0247337D01*
X0137417Y0245802D01*
X0138184Y0245035D01*
X0140486Y0245035D01*
X0138952Y0245035D02*
X0137417Y0243500D01*
X0140486Y0243500D02*
X0140486Y0248104D01*
D11*
X0137179Y0267048D02*
X0134710Y0267048D01*
X0134093Y0267665D01*
X0134093Y0268900D01*
X0134710Y0269517D01*
X0134093Y0270731D02*
X0134093Y0273200D01*
X0134093Y0271966D02*
X0137796Y0271966D01*
X0136562Y0270731D01*
X0137179Y0269517D02*
X0137796Y0268900D01*
X0137796Y0267665D01*
X0137179Y0267048D01*
X0105313Y0258091D02*
X0105313Y0255622D01*
X0104696Y0255005D01*
X0103461Y0255005D01*
X0102844Y0255622D01*
X0101630Y0255005D02*
X0099161Y0257474D01*
X0099161Y0258091D01*
X0099778Y0258708D01*
X0101012Y0258708D01*
X0101630Y0258091D01*
X0102844Y0258091D02*
X0103461Y0258708D01*
X0104696Y0258708D01*
X0105313Y0258091D01*
X0101630Y0255005D02*
X0099161Y0255005D01*
X0098816Y0221598D02*
X0099433Y0220981D01*
X0099433Y0218512D01*
X0098816Y0217895D01*
X0097581Y0217895D01*
X0096964Y0218512D01*
X0095750Y0219746D02*
X0093281Y0219746D01*
X0092067Y0220364D02*
X0090832Y0221598D01*
X0090832Y0217895D01*
X0089598Y0217895D02*
X0092067Y0217895D01*
X0093898Y0217895D02*
X0093898Y0221598D01*
X0095750Y0219746D01*
X0096964Y0220981D02*
X0097581Y0221598D01*
X0098816Y0221598D01*
X0044906Y0218020D02*
X0044906Y0216786D01*
X0044289Y0216169D01*
X0044289Y0214954D02*
X0044906Y0214337D01*
X0044906Y0213103D01*
X0044289Y0212485D01*
X0041820Y0212485D01*
X0041203Y0213103D01*
X0041203Y0214337D01*
X0041820Y0214954D01*
X0041820Y0216169D02*
X0041203Y0216786D01*
X0041203Y0218020D01*
X0041820Y0218637D01*
X0042438Y0218637D01*
X0043055Y0218020D01*
X0043055Y0217403D01*
X0043055Y0218020D02*
X0043672Y0218637D01*
X0044289Y0218637D01*
X0044906Y0218020D01*
D12*
X0031998Y0212631D03*
X0146998Y0273969D03*
D13*
X0146998Y0257532D03*
X0031998Y0229068D03*
D14*
X0031998Y0231800D02*
X0031998Y0239800D01*
X0027998Y0235800D02*
X0035998Y0235800D01*
X0031998Y0224800D02*
X0031998Y0216800D01*
X0027998Y0220800D02*
X0035998Y0220800D01*
X0031998Y0204800D02*
X0031998Y0196800D01*
X0031998Y0194800D02*
X0031998Y0186800D01*
X0031998Y0184800D02*
X0031998Y0176800D01*
X0031998Y0181800D02*
X0031998Y0189800D01*
X0031998Y0191800D02*
X0031998Y0199800D01*
X0027998Y0200800D02*
X0035998Y0200800D01*
X0035998Y0195800D02*
X0027998Y0195800D01*
X0027998Y0190800D02*
X0035998Y0190800D01*
X0035998Y0185800D02*
X0027998Y0185800D01*
X0027998Y0180800D02*
X0035998Y0180800D01*
X0052998Y0170800D02*
X0060998Y0170800D01*
X0062998Y0170800D02*
X0070998Y0170800D01*
X0065998Y0170800D02*
X0057998Y0170800D01*
X0056998Y0166800D02*
X0056998Y0174800D01*
X0061998Y0174800D02*
X0061998Y0166800D01*
X0066998Y0166800D02*
X0066998Y0174800D01*
X0077998Y0180800D02*
X0085998Y0180800D01*
X0081998Y0176800D02*
X0081998Y0184800D01*
X0092998Y0195800D02*
X0100998Y0195800D01*
X0096998Y0191800D02*
X0096998Y0199800D01*
X0096998Y0211800D02*
X0096998Y0219800D01*
X0092998Y0215800D02*
X0100998Y0215800D01*
X0096998Y0226800D02*
X0096998Y0234800D01*
X0092998Y0230800D02*
X0100998Y0230800D01*
X0096998Y0241800D02*
X0096998Y0249800D01*
X0092998Y0245800D02*
X0100998Y0245800D01*
X0107998Y0240800D02*
X0115998Y0240800D01*
X0111998Y0236800D02*
X0111998Y0244800D01*
X0090998Y0215800D02*
X0082998Y0215800D01*
X0080998Y0215800D02*
X0072998Y0215800D01*
X0071998Y0211800D02*
X0071998Y0219800D01*
X0076998Y0219800D02*
X0076998Y0211800D01*
X0075998Y0215800D02*
X0067998Y0215800D01*
X0061998Y0209800D02*
X0061998Y0201800D01*
X0057998Y0205800D02*
X0065998Y0205800D01*
X0077998Y0215800D02*
X0085998Y0215800D01*
X0086998Y0211800D02*
X0086998Y0219800D01*
X0081998Y0219800D02*
X0081998Y0211800D01*
X0071998Y0236800D02*
X0071998Y0244800D01*
X0067998Y0240800D02*
X0075998Y0240800D01*
X0035998Y0260800D02*
X0027998Y0260800D01*
X0031998Y0256800D02*
X0031998Y0264800D01*
X0096998Y0169800D02*
X0096998Y0161800D01*
X0092998Y0165800D02*
X0100998Y0165800D01*
X0101998Y0154800D02*
X0101998Y0146800D01*
X0097998Y0150800D02*
X0105998Y0150800D01*
X0117998Y0170800D02*
X0125998Y0170800D01*
X0127998Y0170800D02*
X0135998Y0170800D01*
X0130998Y0170800D02*
X0122998Y0170800D01*
X0121998Y0166800D02*
X0121998Y0174800D01*
X0126998Y0174800D02*
X0126998Y0166800D01*
X0131998Y0166800D02*
X0131998Y0174800D01*
X0110998Y0180800D02*
X0102998Y0180800D01*
X0106998Y0176800D02*
X0106998Y0184800D01*
X0137998Y0220800D02*
X0145998Y0220800D01*
X0141998Y0216800D02*
X0141998Y0224800D01*
X0146998Y0231800D02*
X0146998Y0239800D01*
X0142998Y0235800D02*
X0150998Y0235800D01*
X0146998Y0261800D02*
X0146998Y0269800D01*
X0142998Y0265800D02*
X0150998Y0265800D01*
X0091998Y0114800D02*
X0091998Y0106800D01*
X0090998Y0110800D02*
X0082998Y0110800D01*
X0080998Y0110800D02*
X0072998Y0110800D01*
X0071998Y0106800D02*
X0071998Y0114800D01*
X0076998Y0114800D02*
X0076998Y0106800D01*
X0075998Y0110800D02*
X0067998Y0110800D01*
X0060998Y0105800D02*
X0052998Y0105800D01*
X0056998Y0101800D02*
X0056998Y0109800D01*
X0061998Y0094800D02*
X0061998Y0086800D01*
X0057998Y0090800D02*
X0065998Y0090800D01*
X0071998Y0079800D02*
X0071998Y0071800D01*
X0067998Y0075800D02*
X0075998Y0075800D01*
X0081998Y0106800D02*
X0081998Y0114800D01*
X0086998Y0114800D02*
X0086998Y0106800D01*
X0085998Y0110800D02*
X0077998Y0110800D01*
X0087998Y0110800D02*
X0095998Y0110800D01*
X0040998Y0110800D02*
X0032998Y0110800D01*
X0036998Y0109800D02*
X0036998Y0101800D01*
X0036998Y0104800D02*
X0036998Y0096800D01*
X0036998Y0094800D02*
X0036998Y0086800D01*
X0036998Y0089800D02*
X0036998Y0081800D01*
X0032998Y0085800D02*
X0040998Y0085800D01*
X0040998Y0090800D02*
X0032998Y0090800D01*
X0032998Y0100800D02*
X0040998Y0100800D01*
X0040998Y0105800D02*
X0032998Y0105800D01*
X0036998Y0106800D02*
X0036998Y0114800D01*
D15*
X0031199Y0114670D02*
X0031199Y0106930D01*
X0042797Y0106930D01*
X0042797Y0114670D01*
X0031199Y0114670D01*
X0031199Y0109670D02*
X0031199Y0101930D01*
X0042797Y0101930D01*
X0042797Y0109670D01*
X0031199Y0109670D01*
X0031199Y0104670D02*
X0031199Y0096930D01*
X0042797Y0096930D01*
X0042797Y0104670D01*
X0031199Y0104670D01*
X0031199Y0094670D02*
X0031199Y0086930D01*
X0042797Y0086930D01*
X0042797Y0094670D01*
X0031199Y0094670D01*
X0031199Y0089670D02*
X0031199Y0081930D01*
X0042797Y0081930D01*
X0042797Y0089670D01*
X0031199Y0089670D01*
X0051199Y0101930D02*
X0062797Y0101930D01*
X0062797Y0109670D01*
X0051199Y0109670D01*
X0051199Y0101930D01*
X0068128Y0105001D02*
X0075868Y0105001D01*
X0075868Y0116599D01*
X0068128Y0116599D01*
X0068128Y0105001D01*
X0073128Y0105001D02*
X0080868Y0105001D01*
X0080868Y0116599D01*
X0073128Y0116599D01*
X0073128Y0105001D01*
X0078128Y0105001D02*
X0085868Y0105001D01*
X0085868Y0116599D01*
X0078128Y0116599D01*
X0078128Y0105001D01*
X0083128Y0105001D02*
X0090868Y0105001D01*
X0090868Y0116599D01*
X0083128Y0116599D01*
X0083128Y0105001D01*
X0088128Y0105001D02*
X0095868Y0105001D01*
X0095868Y0116599D01*
X0088128Y0116599D01*
X0088128Y0105001D01*
X0075868Y0081599D02*
X0068128Y0081599D01*
X0068128Y0070001D01*
X0075868Y0070001D01*
X0075868Y0081599D01*
X0096199Y0146930D02*
X0096199Y0154670D01*
X0107797Y0154670D01*
X0107797Y0146930D01*
X0096199Y0146930D01*
X0118128Y0165001D02*
X0118128Y0176599D01*
X0125868Y0176599D01*
X0125868Y0165001D01*
X0118128Y0165001D01*
X0123128Y0165001D02*
X0130868Y0165001D01*
X0130868Y0176599D01*
X0123128Y0176599D01*
X0123128Y0165001D01*
X0128128Y0165001D02*
X0135868Y0165001D01*
X0135868Y0176599D01*
X0128128Y0176599D01*
X0128128Y0165001D01*
X0112797Y0176930D02*
X0112797Y0184670D01*
X0101199Y0184670D01*
X0101199Y0176930D01*
X0112797Y0176930D01*
X0087797Y0176930D02*
X0087797Y0184670D01*
X0076199Y0184670D01*
X0076199Y0176930D01*
X0087797Y0176930D01*
X0070868Y0176599D02*
X0070868Y0165001D01*
X0063128Y0165001D01*
X0063128Y0176599D01*
X0070868Y0176599D01*
X0065868Y0176599D02*
X0058128Y0176599D01*
X0058128Y0165001D01*
X0065868Y0165001D01*
X0065868Y0176599D01*
X0060868Y0176599D02*
X0053128Y0176599D01*
X0053128Y0165001D01*
X0060868Y0165001D01*
X0060868Y0176599D01*
X0056199Y0201930D02*
X0067797Y0201930D01*
X0067797Y0209670D01*
X0056199Y0209670D01*
X0056199Y0201930D01*
X0068128Y0210001D02*
X0075868Y0210001D01*
X0075868Y0221599D01*
X0068128Y0221599D01*
X0068128Y0210001D01*
X0073128Y0210001D02*
X0080868Y0210001D01*
X0080868Y0221599D01*
X0073128Y0221599D01*
X0073128Y0210001D01*
X0078128Y0210001D02*
X0085868Y0210001D01*
X0085868Y0221599D01*
X0078128Y0221599D01*
X0078128Y0210001D01*
X0083128Y0210001D02*
X0090868Y0210001D01*
X0090868Y0221599D01*
X0083128Y0221599D01*
X0083128Y0210001D01*
X0093128Y0210001D02*
X0100868Y0210001D01*
X0100868Y0221599D01*
X0093128Y0221599D01*
X0093128Y0210001D01*
X0138128Y0215001D02*
X0145868Y0215001D01*
X0145868Y0226599D01*
X0138128Y0226599D01*
X0138128Y0215001D01*
X0037797Y0204670D02*
X0037797Y0196930D01*
X0026199Y0196930D01*
X0026199Y0204670D01*
X0037797Y0204670D01*
X0037797Y0199670D02*
X0037797Y0191930D01*
X0026199Y0191930D01*
X0026199Y0199670D01*
X0037797Y0199670D01*
X0037797Y0194670D02*
X0026199Y0194670D01*
X0026199Y0186930D01*
X0037797Y0186930D01*
X0037797Y0194670D01*
X0037797Y0189670D02*
X0037797Y0181930D01*
X0026199Y0181930D01*
X0026199Y0189670D01*
X0037797Y0189670D01*
X0037797Y0184670D02*
X0037797Y0176930D01*
X0026199Y0176930D01*
X0026199Y0184670D01*
X0037797Y0184670D01*
X0037797Y0231930D02*
X0026199Y0231930D01*
X0026199Y0239670D01*
X0037797Y0239670D01*
X0037797Y0231930D01*
D16*
X0059714Y0205820D03*
X0064314Y0205820D03*
X0079714Y0180820D03*
X0084314Y0180820D03*
X0104714Y0180820D03*
X0109314Y0180820D03*
X0104283Y0150780D03*
X0099683Y0150780D03*
X0059314Y0105820D03*
X0054714Y0105820D03*
X0039314Y0100820D03*
X0034714Y0100820D03*
X0034314Y0185820D03*
X0029714Y0185820D03*
D17*
X0088829Y0230800D03*
X0105167Y0245800D03*
D18*
X0105266Y0230800D03*
X0088730Y0245800D03*
D19*
X0087018Y0218084D03*
X0087018Y0213484D03*
X0061978Y0173116D03*
X0061978Y0168516D03*
X0082018Y0113084D03*
X0082018Y0108484D03*
X0071978Y0078116D03*
X0071978Y0073516D03*
X0121978Y0168516D03*
X0121978Y0173116D03*
D20*
X0114754Y0236469D02*
X0109242Y0236469D01*
X0109242Y0245131D01*
X0114754Y0245131D01*
X0114754Y0236469D01*
X0074754Y0236469D02*
X0069242Y0236469D01*
X0069242Y0245131D01*
X0074754Y0245131D01*
X0074754Y0236469D01*
D21*
X0071900Y0234599D03*
X0071900Y0247001D03*
X0112097Y0247001D03*
X0112097Y0234599D03*
D22*
X0111900Y0243162D03*
X0072097Y0238438D03*
D23*
X0089518Y0205249D02*
X0089518Y0186351D01*
X0102510Y0186351D01*
X0102510Y0205249D01*
X0089518Y0205249D01*
X0102510Y0205249D02*
X0104478Y0205249D01*
X0104478Y0186351D01*
X0102510Y0186351D01*
X0102510Y0175249D02*
X0102510Y0156351D01*
X0104478Y0156351D01*
X0104478Y0175249D01*
X0102510Y0175249D01*
X0089518Y0175249D01*
X0089518Y0156351D01*
X0102510Y0156351D01*
X0069478Y0100249D02*
X0069478Y0081351D01*
X0056486Y0081351D01*
X0056486Y0100249D01*
X0054518Y0100249D01*
X0054518Y0081351D01*
X0056486Y0081351D01*
X0056486Y0100249D02*
X0069478Y0100249D01*
D24*
X0070597Y0109099D02*
X0070597Y0112501D01*
X0073400Y0112501D02*
X0073400Y0109099D01*
X0075597Y0109099D02*
X0075597Y0112501D01*
X0078400Y0112501D02*
X0078400Y0109099D01*
X0085597Y0109099D02*
X0085597Y0112501D01*
X0088400Y0112501D02*
X0088400Y0109099D01*
X0090597Y0109099D02*
X0090597Y0112501D01*
X0093400Y0112501D02*
X0093400Y0109099D01*
X0075683Y0080004D02*
X0074215Y0080004D01*
X0074949Y0080004D02*
X0074949Y0075600D01*
X0075683Y0075600D02*
X0074215Y0075600D01*
X0072614Y0076334D02*
X0071880Y0075600D01*
X0070412Y0075600D01*
X0069678Y0076334D01*
X0068010Y0076334D02*
X0067276Y0075600D01*
X0065808Y0075600D01*
X0065074Y0076334D01*
X0065074Y0077068D01*
X0065808Y0077802D01*
X0066542Y0077802D01*
X0065808Y0077802D02*
X0065074Y0078536D01*
X0065074Y0079270D01*
X0065808Y0080004D01*
X0067276Y0080004D01*
X0068010Y0079270D01*
X0069678Y0079270D02*
X0070412Y0080004D01*
X0071880Y0080004D01*
X0072614Y0079270D01*
X0072614Y0076334D01*
X0063406Y0074866D02*
X0060470Y0074866D01*
X0058802Y0075600D02*
X0058802Y0080004D01*
X0056600Y0080004D01*
X0055866Y0079270D01*
X0055866Y0077802D01*
X0056600Y0077068D01*
X0058802Y0077068D01*
X0057334Y0077068D02*
X0055866Y0075600D01*
X0038699Y0084398D02*
X0035297Y0084398D01*
X0035297Y0087202D02*
X0038699Y0087202D01*
X0038699Y0089398D02*
X0035297Y0089398D01*
X0035297Y0092202D02*
X0038699Y0092202D01*
X0038699Y0104398D02*
X0035297Y0104398D01*
X0035297Y0107202D02*
X0038699Y0107202D01*
X0038699Y0109398D02*
X0035297Y0109398D01*
X0035297Y0112202D02*
X0038699Y0112202D01*
X0055597Y0169099D02*
X0055597Y0172501D01*
X0058400Y0172501D02*
X0058400Y0169099D01*
X0065597Y0169099D02*
X0065597Y0172501D01*
X0068400Y0172501D02*
X0068400Y0169099D01*
X0084381Y0176600D02*
X0085849Y0178068D01*
X0085115Y0178068D02*
X0087317Y0178068D01*
X0087317Y0176600D02*
X0087317Y0181004D01*
X0085115Y0181004D01*
X0084381Y0180270D01*
X0084381Y0178802D01*
X0085115Y0178068D01*
X0088985Y0175866D02*
X0091921Y0175866D01*
X0093589Y0176600D02*
X0096525Y0176600D01*
X0093589Y0179536D01*
X0093589Y0180270D01*
X0094323Y0181004D01*
X0095791Y0181004D01*
X0096525Y0180270D01*
X0098193Y0180270D02*
X0098927Y0181004D01*
X0100395Y0181004D01*
X0101129Y0180270D01*
X0101129Y0177334D01*
X0100395Y0176600D01*
X0098927Y0176600D01*
X0098193Y0177334D01*
X0102730Y0176600D02*
X0104198Y0176600D01*
X0103464Y0176600D02*
X0103464Y0181004D01*
X0104198Y0181004D02*
X0102730Y0181004D01*
X0102730Y0206600D02*
X0104198Y0206600D01*
X0103464Y0206600D02*
X0103464Y0211004D01*
X0104198Y0211004D02*
X0102730Y0211004D01*
X0101129Y0210270D02*
X0101129Y0207334D01*
X0100395Y0206600D01*
X0098927Y0206600D01*
X0098193Y0207334D01*
X0096525Y0206600D02*
X0093589Y0206600D01*
X0095057Y0206600D02*
X0095057Y0211004D01*
X0096525Y0209536D01*
X0098193Y0210270D02*
X0098927Y0211004D01*
X0100395Y0211004D01*
X0101129Y0210270D01*
X0098400Y0214099D02*
X0098400Y0217501D01*
X0095597Y0217501D02*
X0095597Y0214099D01*
X0083400Y0214099D02*
X0083400Y0217501D01*
X0080597Y0217501D02*
X0080597Y0214099D01*
X0078400Y0214099D02*
X0078400Y0217501D01*
X0075597Y0217501D02*
X0075597Y0214099D01*
X0073400Y0214099D02*
X0073400Y0217501D01*
X0070597Y0217501D02*
X0070597Y0214099D01*
X0033699Y0202202D02*
X0030297Y0202202D01*
X0030297Y0199398D02*
X0033699Y0199398D01*
X0033699Y0197202D02*
X0030297Y0197202D01*
X0030297Y0194398D02*
X0033699Y0194398D01*
X0033699Y0192202D02*
X0030297Y0192202D01*
X0030297Y0189398D02*
X0033699Y0189398D01*
X0033699Y0182202D02*
X0030297Y0182202D01*
X0030297Y0179398D02*
X0033699Y0179398D01*
X0033699Y0234398D02*
X0030297Y0234398D01*
X0030297Y0237202D02*
X0033699Y0237202D01*
X0125597Y0172501D02*
X0125597Y0169099D01*
X0128400Y0169099D02*
X0128400Y0172501D01*
X0130597Y0172501D02*
X0130597Y0169099D01*
X0133400Y0169099D02*
X0133400Y0172501D01*
X0140597Y0219099D02*
X0140597Y0222501D01*
X0143400Y0222501D02*
X0143400Y0219099D01*
D25*
X0107037Y0203300D03*
X0107037Y0198300D03*
X0107037Y0193300D03*
X0107037Y0188300D03*
X0107037Y0173300D03*
X0107037Y0168300D03*
X0107037Y0163300D03*
X0107037Y0158300D03*
X0086959Y0158300D03*
X0086959Y0163300D03*
X0086959Y0168300D03*
X0086959Y0173300D03*
X0086959Y0188300D03*
X0086959Y0193300D03*
X0086959Y0198300D03*
X0086959Y0203300D03*
X0072038Y0098300D03*
X0072038Y0093300D03*
X0072038Y0088300D03*
X0072038Y0083300D03*
X0051959Y0083300D03*
X0051959Y0088300D03*
X0051959Y0093300D03*
X0051959Y0098300D03*
D26*
X0141398Y0233200D02*
X0152598Y0233200D01*
X0152598Y0238400D01*
X0141398Y0238400D01*
X0141398Y0233200D01*
X0037598Y0258200D02*
X0037598Y0263400D01*
X0026398Y0263400D01*
X0026398Y0258200D01*
X0037598Y0258200D01*
D27*
X0035698Y0256850D03*
X0031998Y0264750D03*
X0028298Y0256850D03*
X0143298Y0231850D03*
X0146998Y0239750D03*
X0150698Y0231850D03*
D28*
X0039498Y0110800D03*
X0034498Y0110800D03*
X0034498Y0105800D03*
X0039498Y0105800D03*
X0039498Y0090800D03*
X0034498Y0090800D03*
X0034498Y0085800D03*
X0039498Y0085800D03*
X0034498Y0180800D03*
X0029498Y0180800D03*
X0029498Y0190800D03*
X0029498Y0195800D03*
X0029498Y0200800D03*
X0034498Y0200800D03*
X0034498Y0195800D03*
X0034498Y0190800D03*
X0034498Y0235800D03*
X0029498Y0235800D03*
D29*
X0071998Y0218300D03*
X0071998Y0213300D03*
X0076998Y0213300D03*
X0076998Y0218300D03*
X0081998Y0218300D03*
X0081998Y0213300D03*
X0096998Y0213300D03*
X0096998Y0218300D03*
X0066998Y0173300D03*
X0066998Y0168300D03*
X0056998Y0168300D03*
X0056998Y0173300D03*
X0071998Y0113300D03*
X0071998Y0108300D03*
X0076998Y0108300D03*
X0076998Y0113300D03*
X0086998Y0113300D03*
X0086998Y0108300D03*
X0091998Y0108300D03*
X0091998Y0113300D03*
X0126998Y0168300D03*
X0126998Y0173300D03*
X0131998Y0173300D03*
X0131998Y0168300D03*
X0141998Y0218300D03*
X0141998Y0223300D03*
M02*
