G75*
%MOIN*%
%OFA0B0*%
%FSLAX25Y25*%
%IPPOS*%
%LPD*%
%AMOC8*
5,1,8,0,0,1.08239X$1,22.5*
%
%ADD10C,0.00000*%
%ADD11C,0.00600*%
%ADD12C,0.00200*%
%ADD13OC8,0.07000*%
%ADD14OC8,0.07400*%
%ADD15OC8,0.05200*%
%ADD16OC8,0.06299*%
%ADD17OC8,0.15024*%
%ADD18R,0.07400X0.07400*%
%ADD19OC8,0.10000*%
%ADD20C,0.06000*%
%ADD21C,0.01600*%
%ADD22C,0.02978*%
%ADD23C,0.00800*%
%ADD24C,0.02387*%
%ADD25C,0.01200*%
%ADD26C,0.02781*%
D10*
X0016998Y0005800D02*
X0016998Y0280761D01*
X0165699Y0280761D01*
X0165699Y0005800D01*
X0016998Y0005800D01*
X0047667Y0230800D02*
X0047669Y0230931D01*
X0047675Y0231063D01*
X0047685Y0231194D01*
X0047699Y0231325D01*
X0047717Y0231455D01*
X0047739Y0231584D01*
X0047764Y0231713D01*
X0047794Y0231841D01*
X0047828Y0231968D01*
X0047865Y0232095D01*
X0047906Y0232219D01*
X0047951Y0232343D01*
X0048000Y0232465D01*
X0048052Y0232586D01*
X0048108Y0232704D01*
X0048168Y0232822D01*
X0048231Y0232937D01*
X0048298Y0233050D01*
X0048368Y0233162D01*
X0048441Y0233271D01*
X0048517Y0233377D01*
X0048597Y0233482D01*
X0048680Y0233584D01*
X0048766Y0233683D01*
X0048855Y0233780D01*
X0048947Y0233874D01*
X0049042Y0233965D01*
X0049139Y0234054D01*
X0049239Y0234139D01*
X0049342Y0234221D01*
X0049447Y0234300D01*
X0049554Y0234376D01*
X0049664Y0234448D01*
X0049776Y0234517D01*
X0049890Y0234583D01*
X0050005Y0234645D01*
X0050123Y0234704D01*
X0050242Y0234759D01*
X0050363Y0234811D01*
X0050486Y0234858D01*
X0050610Y0234902D01*
X0050735Y0234943D01*
X0050861Y0234979D01*
X0050989Y0235012D01*
X0051117Y0235040D01*
X0051246Y0235065D01*
X0051376Y0235086D01*
X0051506Y0235103D01*
X0051637Y0235116D01*
X0051768Y0235125D01*
X0051899Y0235130D01*
X0052031Y0235131D01*
X0052162Y0235128D01*
X0052294Y0235121D01*
X0052425Y0235110D01*
X0052555Y0235095D01*
X0052685Y0235076D01*
X0052815Y0235053D01*
X0052943Y0235027D01*
X0053071Y0234996D01*
X0053198Y0234961D01*
X0053324Y0234923D01*
X0053448Y0234881D01*
X0053572Y0234835D01*
X0053693Y0234785D01*
X0053813Y0234732D01*
X0053932Y0234675D01*
X0054049Y0234615D01*
X0054163Y0234551D01*
X0054276Y0234483D01*
X0054387Y0234412D01*
X0054496Y0234338D01*
X0054602Y0234261D01*
X0054706Y0234180D01*
X0054807Y0234097D01*
X0054906Y0234010D01*
X0055002Y0233920D01*
X0055095Y0233827D01*
X0055186Y0233732D01*
X0055273Y0233634D01*
X0055358Y0233533D01*
X0055439Y0233430D01*
X0055517Y0233324D01*
X0055592Y0233216D01*
X0055664Y0233106D01*
X0055732Y0232994D01*
X0055797Y0232880D01*
X0055858Y0232763D01*
X0055916Y0232645D01*
X0055970Y0232525D01*
X0056021Y0232404D01*
X0056068Y0232281D01*
X0056111Y0232157D01*
X0056150Y0232032D01*
X0056186Y0231905D01*
X0056217Y0231777D01*
X0056245Y0231649D01*
X0056269Y0231520D01*
X0056289Y0231390D01*
X0056305Y0231259D01*
X0056317Y0231128D01*
X0056325Y0230997D01*
X0056329Y0230866D01*
X0056329Y0230734D01*
X0056325Y0230603D01*
X0056317Y0230472D01*
X0056305Y0230341D01*
X0056289Y0230210D01*
X0056269Y0230080D01*
X0056245Y0229951D01*
X0056217Y0229823D01*
X0056186Y0229695D01*
X0056150Y0229568D01*
X0056111Y0229443D01*
X0056068Y0229319D01*
X0056021Y0229196D01*
X0055970Y0229075D01*
X0055916Y0228955D01*
X0055858Y0228837D01*
X0055797Y0228720D01*
X0055732Y0228606D01*
X0055664Y0228494D01*
X0055592Y0228384D01*
X0055517Y0228276D01*
X0055439Y0228170D01*
X0055358Y0228067D01*
X0055273Y0227966D01*
X0055186Y0227868D01*
X0055095Y0227773D01*
X0055002Y0227680D01*
X0054906Y0227590D01*
X0054807Y0227503D01*
X0054706Y0227420D01*
X0054602Y0227339D01*
X0054496Y0227262D01*
X0054387Y0227188D01*
X0054276Y0227117D01*
X0054164Y0227049D01*
X0054049Y0226985D01*
X0053932Y0226925D01*
X0053813Y0226868D01*
X0053693Y0226815D01*
X0053572Y0226765D01*
X0053448Y0226719D01*
X0053324Y0226677D01*
X0053198Y0226639D01*
X0053071Y0226604D01*
X0052943Y0226573D01*
X0052815Y0226547D01*
X0052685Y0226524D01*
X0052555Y0226505D01*
X0052425Y0226490D01*
X0052294Y0226479D01*
X0052162Y0226472D01*
X0052031Y0226469D01*
X0051899Y0226470D01*
X0051768Y0226475D01*
X0051637Y0226484D01*
X0051506Y0226497D01*
X0051376Y0226514D01*
X0051246Y0226535D01*
X0051117Y0226560D01*
X0050989Y0226588D01*
X0050861Y0226621D01*
X0050735Y0226657D01*
X0050610Y0226698D01*
X0050486Y0226742D01*
X0050363Y0226789D01*
X0050242Y0226841D01*
X0050123Y0226896D01*
X0050005Y0226955D01*
X0049890Y0227017D01*
X0049776Y0227083D01*
X0049664Y0227152D01*
X0049554Y0227224D01*
X0049447Y0227300D01*
X0049342Y0227379D01*
X0049239Y0227461D01*
X0049139Y0227546D01*
X0049042Y0227635D01*
X0048947Y0227726D01*
X0048855Y0227820D01*
X0048766Y0227917D01*
X0048680Y0228016D01*
X0048597Y0228118D01*
X0048517Y0228223D01*
X0048441Y0228329D01*
X0048368Y0228438D01*
X0048298Y0228550D01*
X0048231Y0228663D01*
X0048168Y0228778D01*
X0048108Y0228896D01*
X0048052Y0229014D01*
X0048000Y0229135D01*
X0047951Y0229257D01*
X0047906Y0229381D01*
X0047865Y0229505D01*
X0047828Y0229632D01*
X0047794Y0229759D01*
X0047764Y0229887D01*
X0047739Y0230016D01*
X0047717Y0230145D01*
X0047699Y0230275D01*
X0047685Y0230406D01*
X0047675Y0230537D01*
X0047669Y0230669D01*
X0047667Y0230800D01*
X0127667Y0230800D02*
X0127669Y0230931D01*
X0127675Y0231063D01*
X0127685Y0231194D01*
X0127699Y0231325D01*
X0127717Y0231455D01*
X0127739Y0231584D01*
X0127764Y0231713D01*
X0127794Y0231841D01*
X0127828Y0231968D01*
X0127865Y0232095D01*
X0127906Y0232219D01*
X0127951Y0232343D01*
X0128000Y0232465D01*
X0128052Y0232586D01*
X0128108Y0232704D01*
X0128168Y0232822D01*
X0128231Y0232937D01*
X0128298Y0233050D01*
X0128368Y0233162D01*
X0128441Y0233271D01*
X0128517Y0233377D01*
X0128597Y0233482D01*
X0128680Y0233584D01*
X0128766Y0233683D01*
X0128855Y0233780D01*
X0128947Y0233874D01*
X0129042Y0233965D01*
X0129139Y0234054D01*
X0129239Y0234139D01*
X0129342Y0234221D01*
X0129447Y0234300D01*
X0129554Y0234376D01*
X0129664Y0234448D01*
X0129776Y0234517D01*
X0129890Y0234583D01*
X0130005Y0234645D01*
X0130123Y0234704D01*
X0130242Y0234759D01*
X0130363Y0234811D01*
X0130486Y0234858D01*
X0130610Y0234902D01*
X0130735Y0234943D01*
X0130861Y0234979D01*
X0130989Y0235012D01*
X0131117Y0235040D01*
X0131246Y0235065D01*
X0131376Y0235086D01*
X0131506Y0235103D01*
X0131637Y0235116D01*
X0131768Y0235125D01*
X0131899Y0235130D01*
X0132031Y0235131D01*
X0132162Y0235128D01*
X0132294Y0235121D01*
X0132425Y0235110D01*
X0132555Y0235095D01*
X0132685Y0235076D01*
X0132815Y0235053D01*
X0132943Y0235027D01*
X0133071Y0234996D01*
X0133198Y0234961D01*
X0133324Y0234923D01*
X0133448Y0234881D01*
X0133572Y0234835D01*
X0133693Y0234785D01*
X0133813Y0234732D01*
X0133932Y0234675D01*
X0134049Y0234615D01*
X0134163Y0234551D01*
X0134276Y0234483D01*
X0134387Y0234412D01*
X0134496Y0234338D01*
X0134602Y0234261D01*
X0134706Y0234180D01*
X0134807Y0234097D01*
X0134906Y0234010D01*
X0135002Y0233920D01*
X0135095Y0233827D01*
X0135186Y0233732D01*
X0135273Y0233634D01*
X0135358Y0233533D01*
X0135439Y0233430D01*
X0135517Y0233324D01*
X0135592Y0233216D01*
X0135664Y0233106D01*
X0135732Y0232994D01*
X0135797Y0232880D01*
X0135858Y0232763D01*
X0135916Y0232645D01*
X0135970Y0232525D01*
X0136021Y0232404D01*
X0136068Y0232281D01*
X0136111Y0232157D01*
X0136150Y0232032D01*
X0136186Y0231905D01*
X0136217Y0231777D01*
X0136245Y0231649D01*
X0136269Y0231520D01*
X0136289Y0231390D01*
X0136305Y0231259D01*
X0136317Y0231128D01*
X0136325Y0230997D01*
X0136329Y0230866D01*
X0136329Y0230734D01*
X0136325Y0230603D01*
X0136317Y0230472D01*
X0136305Y0230341D01*
X0136289Y0230210D01*
X0136269Y0230080D01*
X0136245Y0229951D01*
X0136217Y0229823D01*
X0136186Y0229695D01*
X0136150Y0229568D01*
X0136111Y0229443D01*
X0136068Y0229319D01*
X0136021Y0229196D01*
X0135970Y0229075D01*
X0135916Y0228955D01*
X0135858Y0228837D01*
X0135797Y0228720D01*
X0135732Y0228606D01*
X0135664Y0228494D01*
X0135592Y0228384D01*
X0135517Y0228276D01*
X0135439Y0228170D01*
X0135358Y0228067D01*
X0135273Y0227966D01*
X0135186Y0227868D01*
X0135095Y0227773D01*
X0135002Y0227680D01*
X0134906Y0227590D01*
X0134807Y0227503D01*
X0134706Y0227420D01*
X0134602Y0227339D01*
X0134496Y0227262D01*
X0134387Y0227188D01*
X0134276Y0227117D01*
X0134164Y0227049D01*
X0134049Y0226985D01*
X0133932Y0226925D01*
X0133813Y0226868D01*
X0133693Y0226815D01*
X0133572Y0226765D01*
X0133448Y0226719D01*
X0133324Y0226677D01*
X0133198Y0226639D01*
X0133071Y0226604D01*
X0132943Y0226573D01*
X0132815Y0226547D01*
X0132685Y0226524D01*
X0132555Y0226505D01*
X0132425Y0226490D01*
X0132294Y0226479D01*
X0132162Y0226472D01*
X0132031Y0226469D01*
X0131899Y0226470D01*
X0131768Y0226475D01*
X0131637Y0226484D01*
X0131506Y0226497D01*
X0131376Y0226514D01*
X0131246Y0226535D01*
X0131117Y0226560D01*
X0130989Y0226588D01*
X0130861Y0226621D01*
X0130735Y0226657D01*
X0130610Y0226698D01*
X0130486Y0226742D01*
X0130363Y0226789D01*
X0130242Y0226841D01*
X0130123Y0226896D01*
X0130005Y0226955D01*
X0129890Y0227017D01*
X0129776Y0227083D01*
X0129664Y0227152D01*
X0129554Y0227224D01*
X0129447Y0227300D01*
X0129342Y0227379D01*
X0129239Y0227461D01*
X0129139Y0227546D01*
X0129042Y0227635D01*
X0128947Y0227726D01*
X0128855Y0227820D01*
X0128766Y0227917D01*
X0128680Y0228016D01*
X0128597Y0228118D01*
X0128517Y0228223D01*
X0128441Y0228329D01*
X0128368Y0228438D01*
X0128298Y0228550D01*
X0128231Y0228663D01*
X0128168Y0228778D01*
X0128108Y0228896D01*
X0128052Y0229014D01*
X0128000Y0229135D01*
X0127951Y0229257D01*
X0127906Y0229381D01*
X0127865Y0229505D01*
X0127828Y0229632D01*
X0127794Y0229759D01*
X0127764Y0229887D01*
X0127739Y0230016D01*
X0127717Y0230145D01*
X0127699Y0230275D01*
X0127685Y0230406D01*
X0127675Y0230537D01*
X0127669Y0230669D01*
X0127667Y0230800D01*
D11*
X0123071Y0213389D02*
X0120926Y0213389D01*
X0119409Y0211872D01*
X0119409Y0209728D01*
X0120098Y0209039D01*
X0120098Y0173439D01*
X0117228Y0170570D01*
X0124587Y0165898D02*
X0146641Y0143844D01*
X0146641Y0119085D01*
X0145996Y0118441D01*
X0137685Y0118441D01*
X0136919Y0119207D01*
X0135935Y0118222D01*
X0135935Y0037493D01*
X0128061Y0037493D02*
X0126197Y0037493D01*
X0121947Y0041743D01*
X0118812Y0041743D01*
X0092901Y0067653D01*
X0122985Y0031038D02*
X0122985Y0024632D01*
X0127255Y0024632D01*
X0114881Y0018514D02*
X0113813Y0019582D01*
X0111678Y0019582D01*
X0110611Y0018514D01*
X0110611Y0014244D01*
X0111678Y0013176D01*
X0113813Y0013176D01*
X0114881Y0014244D01*
X0114881Y0016379D01*
X0112746Y0016379D01*
X0148524Y0015528D02*
X0151727Y0015528D01*
X0152795Y0016595D01*
X0152795Y0018730D01*
X0151727Y0019798D01*
X0148524Y0019798D01*
X0148524Y0013393D01*
X0150660Y0015528D02*
X0152795Y0013393D01*
X0072885Y0013032D02*
X0070749Y0015167D01*
X0071817Y0015167D02*
X0068614Y0015167D01*
X0068614Y0013032D02*
X0068614Y0019438D01*
X0071817Y0019438D01*
X0072885Y0018370D01*
X0072885Y0016235D01*
X0071817Y0015167D01*
X0054767Y0026290D02*
X0050497Y0026290D01*
X0050497Y0032695D01*
X0034755Y0018226D02*
X0033687Y0019294D01*
X0031552Y0019294D01*
X0030484Y0018226D01*
X0030484Y0013956D01*
X0031552Y0012888D01*
X0033687Y0012888D01*
X0034755Y0013956D01*
X0034755Y0016091D01*
X0032620Y0016091D01*
X0124587Y0165898D02*
X0124587Y0211872D01*
X0123071Y0213389D01*
D12*
X0152680Y0211127D02*
X0152680Y0209258D01*
X0152680Y0207430D02*
X0155482Y0207430D01*
X0155482Y0206496D02*
X0155482Y0208364D01*
X0155482Y0209258D02*
X0155015Y0209258D01*
X0153147Y0211127D01*
X0152680Y0211127D01*
X0152680Y0207430D02*
X0153614Y0206496D01*
X0153147Y0205602D02*
X0155015Y0203734D01*
X0155482Y0204201D01*
X0155482Y0205135D01*
X0155015Y0205602D01*
X0153147Y0205602D01*
X0152680Y0205135D01*
X0152680Y0204201D01*
X0153147Y0203734D01*
X0155015Y0203734D01*
X0155482Y0202840D02*
X0155482Y0200971D01*
X0153614Y0202840D01*
X0153147Y0202840D01*
X0152680Y0202373D01*
X0152680Y0201438D01*
X0153147Y0200971D01*
X0153147Y0200077D02*
X0155015Y0198209D01*
X0154081Y0198209D02*
X0154081Y0200077D01*
X0155015Y0200077D02*
X0153147Y0198209D01*
X0153147Y0199143D02*
X0155015Y0199143D01*
X0155482Y0197315D02*
X0154081Y0195914D01*
X0154548Y0195447D02*
X0152680Y0197315D01*
X0152680Y0195447D02*
X0155482Y0195447D01*
X0155015Y0194553D02*
X0153147Y0194553D01*
X0152680Y0194086D01*
X0152680Y0193151D01*
X0153147Y0192684D01*
X0155015Y0192684D01*
X0155482Y0193151D01*
X0155482Y0194086D01*
X0155015Y0194553D01*
X0155482Y0191790D02*
X0152680Y0191790D01*
X0152680Y0189922D02*
X0155482Y0191790D01*
X0155482Y0189922D02*
X0152680Y0189922D01*
X0153147Y0189028D02*
X0152680Y0188561D01*
X0152680Y0187160D01*
X0155482Y0187160D01*
X0155482Y0188561D01*
X0155015Y0189028D01*
X0153147Y0189028D01*
X0153147Y0186266D02*
X0152680Y0185799D01*
X0152680Y0184864D01*
X0153147Y0184397D01*
X0155015Y0184397D01*
X0155482Y0184864D01*
X0155482Y0185799D01*
X0155015Y0186266D01*
X0153147Y0186266D01*
X0153147Y0183503D02*
X0154081Y0183503D01*
X0154548Y0183036D01*
X0154548Y0181635D01*
X0154548Y0182569D02*
X0155482Y0183503D01*
X0155482Y0181635D02*
X0152680Y0181635D01*
X0152680Y0183036D01*
X0153147Y0183503D01*
X0155482Y0177979D02*
X0155482Y0176110D01*
X0155482Y0177044D02*
X0152680Y0177044D01*
X0153614Y0176110D01*
X0153147Y0175216D02*
X0155015Y0173348D01*
X0155482Y0173815D01*
X0155482Y0174749D01*
X0155015Y0175216D01*
X0153147Y0175216D01*
X0152680Y0174749D01*
X0152680Y0173815D01*
X0153147Y0173348D01*
X0155015Y0173348D01*
X0155015Y0172434D02*
X0155482Y0172434D01*
X0155482Y0171967D01*
X0155015Y0171967D01*
X0155015Y0172434D01*
X0153614Y0171073D02*
X0155482Y0170139D01*
X0153614Y0169204D01*
X0154081Y0168310D02*
X0154548Y0168310D01*
X0154548Y0166442D01*
X0155015Y0166442D02*
X0154081Y0166442D01*
X0153614Y0166909D01*
X0153614Y0167843D01*
X0154081Y0168310D01*
X0155482Y0167843D02*
X0155482Y0166909D01*
X0155015Y0166442D01*
X0153614Y0165541D02*
X0153614Y0165074D01*
X0154548Y0164140D01*
X0155482Y0164140D02*
X0153614Y0164140D01*
X0152680Y0163246D02*
X0155482Y0161378D01*
X0155482Y0158615D02*
X0152680Y0160484D01*
X0153614Y0214783D02*
X0152680Y0215717D01*
X0153147Y0216625D02*
X0155015Y0216625D01*
X0155482Y0217092D01*
X0155482Y0218026D01*
X0155015Y0218493D01*
X0155015Y0219387D02*
X0155482Y0219854D01*
X0155482Y0220788D01*
X0155015Y0221255D01*
X0155482Y0222149D02*
X0154548Y0223084D01*
X0153614Y0223084D01*
X0152680Y0222149D01*
X0153147Y0221255D02*
X0152680Y0220788D01*
X0152680Y0219854D01*
X0153147Y0219387D01*
X0155015Y0219387D01*
X0153147Y0218493D02*
X0152680Y0218026D01*
X0152680Y0217092D01*
X0153147Y0216625D01*
X0153614Y0214783D02*
X0154548Y0214783D01*
X0155482Y0215717D01*
X0030331Y0070670D02*
X0027529Y0072538D01*
X0027529Y0069776D02*
X0030331Y0067908D01*
X0030331Y0064251D02*
X0030331Y0062383D01*
X0027529Y0062383D01*
X0027529Y0064251D01*
X0028930Y0063317D02*
X0028930Y0062383D01*
X0030331Y0061489D02*
X0030331Y0059621D01*
X0027529Y0059621D01*
X0027529Y0058726D02*
X0029864Y0058726D01*
X0030331Y0058259D01*
X0030331Y0057325D01*
X0029864Y0056858D01*
X0027529Y0056858D01*
X0027996Y0055964D02*
X0027529Y0055497D01*
X0027529Y0054096D01*
X0030331Y0054096D01*
X0030331Y0055497D01*
X0029864Y0055964D01*
X0027996Y0055964D01*
X0027996Y0053202D02*
X0027529Y0052735D01*
X0027529Y0051801D01*
X0027996Y0051333D01*
X0029864Y0051333D01*
X0030331Y0051801D01*
X0030331Y0052735D01*
X0029864Y0053202D01*
X0027996Y0053202D01*
X0027529Y0050439D02*
X0030331Y0050439D01*
X0030331Y0048571D02*
X0027529Y0048571D01*
X0028463Y0049505D01*
X0027529Y0050439D01*
X0027529Y0044915D02*
X0027529Y0043046D01*
X0027529Y0042152D02*
X0029864Y0042152D01*
X0030331Y0041685D01*
X0030331Y0040751D01*
X0029864Y0040284D01*
X0027529Y0040284D01*
X0027996Y0039390D02*
X0027529Y0038923D01*
X0027529Y0037522D01*
X0030331Y0037522D01*
X0029397Y0037522D02*
X0029397Y0038923D01*
X0028930Y0039390D01*
X0027996Y0039390D01*
X0027529Y0036628D02*
X0027529Y0034759D01*
X0027529Y0033865D02*
X0029864Y0033865D01*
X0030331Y0033398D01*
X0030331Y0032464D01*
X0029864Y0031997D01*
X0027529Y0031997D01*
X0027996Y0031103D02*
X0027529Y0030636D01*
X0027529Y0029702D01*
X0027996Y0029235D01*
X0029864Y0029235D01*
X0030331Y0029702D01*
X0030331Y0030636D01*
X0029864Y0031103D01*
X0027996Y0031103D01*
X0027529Y0035693D02*
X0030331Y0035693D01*
X0030331Y0043981D02*
X0027529Y0043981D01*
D13*
X0051998Y0208300D03*
X0051998Y0218300D03*
X0051998Y0248300D03*
X0131998Y0248300D03*
X0131998Y0218300D03*
X0131998Y0208300D03*
D14*
X0111998Y0260800D03*
X0111998Y0270800D03*
X0101998Y0270800D03*
X0101998Y0260800D03*
X0091998Y0260800D03*
X0091998Y0270800D03*
X0081998Y0270800D03*
X0081998Y0260800D03*
X0071998Y0260800D03*
X0071998Y0270800D03*
D15*
X0056998Y0265800D03*
X0046998Y0265800D03*
X0126998Y0265800D03*
X0136998Y0265800D03*
D16*
X0135935Y0037493D03*
X0128061Y0037493D03*
X0120187Y0037493D03*
X0112313Y0037493D03*
X0143809Y0037493D03*
X0151683Y0037493D03*
D17*
X0154833Y0080800D03*
X0109163Y0080800D03*
D18*
X0122156Y0123241D03*
X0131998Y0123241D03*
X0141841Y0123241D03*
X0061841Y0123241D03*
X0051998Y0123241D03*
X0042156Y0123241D03*
D19*
X0033494Y0150800D03*
X0070502Y0150800D03*
X0113494Y0150800D03*
X0150502Y0150800D03*
D20*
X0141998Y0018800D02*
X0141998Y0012800D01*
X0131998Y0012800D02*
X0131998Y0018800D01*
X0121998Y0018800D02*
X0121998Y0012800D01*
X0061998Y0012800D02*
X0061998Y0018800D01*
X0051998Y0018800D02*
X0051998Y0012800D01*
X0041998Y0012800D02*
X0041998Y0018800D01*
D21*
X0041798Y0018551D02*
X0042198Y0018551D01*
X0042198Y0020149D02*
X0041798Y0020149D01*
X0041798Y0021748D02*
X0042198Y0021748D01*
X0042198Y0023346D02*
X0041798Y0023346D01*
X0041798Y0023600D02*
X0041620Y0023600D01*
X0040874Y0023482D01*
X0040156Y0023248D01*
X0039482Y0022905D01*
X0038871Y0022461D01*
X0038337Y0021927D01*
X0037893Y0021316D01*
X0037550Y0020643D01*
X0037316Y0019924D01*
X0037198Y0019178D01*
X0037198Y0016000D01*
X0041798Y0016000D01*
X0041798Y0015600D01*
X0037198Y0015600D01*
X0037198Y0012422D01*
X0037316Y0011676D01*
X0037550Y0010957D01*
X0037732Y0010600D01*
X0021798Y0010600D01*
X0021798Y0275961D01*
X0069663Y0275961D01*
X0066698Y0272995D01*
X0066698Y0268605D01*
X0069503Y0265800D01*
X0066698Y0262995D01*
X0066698Y0261999D01*
X0063598Y0265099D01*
X0063598Y0268017D01*
X0063233Y0268899D01*
X0060772Y0271359D01*
X0060097Y0272035D01*
X0059215Y0272400D01*
X0054781Y0272400D01*
X0053899Y0272035D01*
X0050301Y0268437D01*
X0048738Y0270000D01*
X0045258Y0270000D01*
X0042798Y0267540D01*
X0042798Y0264060D01*
X0045258Y0261600D01*
X0048738Y0261600D01*
X0050538Y0263400D01*
X0051536Y0263400D01*
X0052418Y0263765D01*
X0052798Y0264146D01*
X0052798Y0264060D01*
X0055258Y0261600D01*
X0058738Y0261600D01*
X0059523Y0262385D01*
X0068443Y0253465D01*
X0069325Y0253100D01*
X0114671Y0253100D01*
X0115553Y0253465D01*
X0116228Y0254141D01*
X0124473Y0262385D01*
X0125258Y0261600D01*
X0128738Y0261600D01*
X0131198Y0264060D01*
X0131198Y0267540D01*
X0128738Y0270000D01*
X0125258Y0270000D01*
X0122798Y0267540D01*
X0122798Y0267499D01*
X0117298Y0261999D01*
X0117298Y0262995D01*
X0114493Y0265800D01*
X0117298Y0268605D01*
X0117298Y0272995D01*
X0114333Y0275961D01*
X0160899Y0275961D01*
X0160899Y0087620D01*
X0158607Y0089912D01*
X0151059Y0089912D01*
X0145721Y0084574D01*
X0145721Y0077026D01*
X0151059Y0071688D01*
X0158607Y0071688D01*
X0160899Y0073980D01*
X0160899Y0010600D01*
X0146066Y0010600D01*
X0146598Y0011885D01*
X0146598Y0019715D01*
X0145898Y0021406D01*
X0144604Y0022700D01*
X0144198Y0022868D01*
X0144198Y0024467D01*
X0135922Y0032743D01*
X0137902Y0032743D01*
X0139731Y0034572D01*
X0141759Y0032543D01*
X0143625Y0032543D01*
X0143625Y0037309D01*
X0143993Y0037309D01*
X0143993Y0032543D01*
X0145859Y0032543D01*
X0147746Y0034430D01*
X0149633Y0032543D01*
X0151499Y0032543D01*
X0151499Y0037309D01*
X0146734Y0037309D01*
X0143993Y0037309D01*
X0143993Y0037677D01*
X0143625Y0037677D01*
X0143625Y0042443D01*
X0141759Y0042443D01*
X0139731Y0040414D01*
X0137902Y0042243D01*
X0137835Y0042243D01*
X0137835Y0116541D01*
X0146783Y0116541D01*
X0147896Y0117654D01*
X0148541Y0118298D01*
X0148541Y0144200D01*
X0153236Y0144200D01*
X0157102Y0148066D01*
X0157102Y0153534D01*
X0153236Y0157400D01*
X0147768Y0157400D01*
X0143902Y0153534D01*
X0143902Y0149270D01*
X0126487Y0166685D01*
X0126487Y0212659D01*
X0125374Y0213772D01*
X0123858Y0215289D01*
X0120139Y0215289D01*
X0119398Y0214548D01*
X0119398Y0216277D01*
X0119033Y0217159D01*
X0118358Y0217835D01*
X0118358Y0217835D01*
X0115087Y0221105D01*
X0115087Y0221414D01*
X0114617Y0222550D01*
X0113748Y0223419D01*
X0112613Y0223889D01*
X0111384Y0223889D01*
X0110248Y0223419D01*
X0109379Y0222550D01*
X0108909Y0221414D01*
X0108909Y0220186D01*
X0109379Y0219050D01*
X0110248Y0218181D01*
X0111384Y0217711D01*
X0111693Y0217711D01*
X0114598Y0214806D01*
X0114598Y0197768D01*
X0114379Y0197550D01*
X0113909Y0196414D01*
X0113909Y0195186D01*
X0114379Y0194050D01*
X0115248Y0193181D01*
X0116384Y0192711D01*
X0117613Y0192711D01*
X0118198Y0192954D01*
X0118198Y0175692D01*
X0118137Y0175840D01*
X0117602Y0176376D01*
X0117602Y0176628D01*
X0116430Y0177800D01*
X0094227Y0177800D01*
X0093692Y0178335D01*
X0092593Y0178791D01*
X0091403Y0178791D01*
X0090304Y0178335D01*
X0089463Y0177494D01*
X0089008Y0176395D01*
X0089008Y0175205D01*
X0080073Y0175205D01*
X0079554Y0175724D02*
X0078672Y0176089D01*
X0075324Y0176089D01*
X0074442Y0175724D01*
X0062067Y0163349D01*
X0061702Y0162467D01*
X0061702Y0147672D01*
X0062067Y0146790D01*
X0062743Y0146114D01*
X0064541Y0144316D01*
X0064541Y0128541D01*
X0059652Y0128541D01*
X0049198Y0138995D01*
X0049198Y0188632D01*
X0049617Y0189050D01*
X0049648Y0189125D01*
X0049973Y0188800D01*
X0056170Y0188800D01*
X0059998Y0184972D01*
X0059998Y0183029D01*
X0059463Y0182494D01*
X0059008Y0181395D01*
X0059008Y0180205D01*
X0059463Y0179106D01*
X0060304Y0178265D01*
X0061403Y0177809D01*
X0062593Y0177809D01*
X0063692Y0178265D01*
X0064498Y0179071D01*
X0065304Y0178265D01*
X0066403Y0177809D01*
X0067593Y0177809D01*
X0068692Y0178265D01*
X0069533Y0179106D01*
X0069989Y0180205D01*
X0069989Y0181395D01*
X0069533Y0182494D01*
X0068692Y0183335D01*
X0067593Y0183791D01*
X0066836Y0183791D01*
X0066589Y0184038D01*
X0066589Y0186301D01*
X0065417Y0187472D01*
X0056972Y0195917D01*
X0055800Y0197089D01*
X0044393Y0197089D01*
X0043222Y0195917D01*
X0041881Y0194577D01*
X0040709Y0193405D01*
X0040709Y0135983D01*
X0031979Y0127253D01*
X0030808Y0126081D01*
X0030808Y0072396D01*
X0027886Y0074343D01*
X0026505Y0074067D01*
X0025724Y0072895D01*
X0026000Y0071514D01*
X0026446Y0071217D01*
X0025724Y0070133D01*
X0026000Y0068752D01*
X0029974Y0066102D01*
X0030808Y0066269D01*
X0030808Y0065951D01*
X0029627Y0065951D01*
X0028930Y0065254D01*
X0028233Y0065951D01*
X0026825Y0065951D01*
X0025829Y0064955D01*
X0025829Y0061679D01*
X0026506Y0061002D01*
X0025829Y0060325D01*
X0025829Y0058022D01*
X0026059Y0057792D01*
X0025829Y0057562D01*
X0025829Y0049735D01*
X0026059Y0049505D01*
X0025829Y0049275D01*
X0025829Y0047867D01*
X0026825Y0046871D01*
X0031036Y0046871D01*
X0032031Y0047867D01*
X0032031Y0049275D01*
X0031801Y0049505D01*
X0032031Y0049735D01*
X0032031Y0056201D01*
X0031821Y0056411D01*
X0032031Y0056621D01*
X0032031Y0062012D01*
X0054072Y0039972D01*
X0055243Y0038800D01*
X0056764Y0038800D01*
X0068369Y0027195D01*
X0112718Y0027195D01*
X0118266Y0032743D01*
X0121825Y0032743D01*
X0121914Y0032654D01*
X0121085Y0031825D01*
X0121085Y0023845D01*
X0121370Y0023560D01*
X0120874Y0023482D01*
X0120156Y0023248D01*
X0119482Y0022905D01*
X0118871Y0022461D01*
X0118337Y0021927D01*
X0117893Y0021316D01*
X0117550Y0020643D01*
X0117316Y0019924D01*
X0117198Y0019178D01*
X0117198Y0016000D01*
X0121798Y0016000D01*
X0121798Y0015600D01*
X0117198Y0015600D01*
X0117198Y0012422D01*
X0117316Y0011676D01*
X0117550Y0010957D01*
X0117732Y0010600D01*
X0066066Y0010600D01*
X0066598Y0011885D01*
X0066598Y0019715D01*
X0065898Y0021406D01*
X0064604Y0022700D01*
X0062913Y0023400D01*
X0061083Y0023400D01*
X0059392Y0022700D01*
X0058098Y0021406D01*
X0057398Y0019715D01*
X0057398Y0011885D01*
X0057930Y0010600D01*
X0056066Y0010600D01*
X0056598Y0011885D01*
X0056598Y0019715D01*
X0055898Y0021406D01*
X0054604Y0022700D01*
X0052913Y0023400D01*
X0051083Y0023400D01*
X0049392Y0022700D01*
X0048098Y0021406D01*
X0047398Y0019715D01*
X0047398Y0011885D01*
X0047930Y0010600D01*
X0046264Y0010600D01*
X0046446Y0010957D01*
X0046680Y0011676D01*
X0046798Y0012422D01*
X0046798Y0015600D01*
X0042198Y0015600D01*
X0042198Y0016000D01*
X0041798Y0016000D01*
X0041798Y0023600D01*
X0042198Y0023600D02*
X0042198Y0016000D01*
X0046798Y0016000D01*
X0046798Y0019178D01*
X0046680Y0019924D01*
X0046446Y0020643D01*
X0046103Y0021316D01*
X0045659Y0021927D01*
X0045125Y0022461D01*
X0044514Y0022905D01*
X0043841Y0023248D01*
X0043122Y0023482D01*
X0042376Y0023600D01*
X0042198Y0023600D01*
X0043539Y0023346D02*
X0050954Y0023346D01*
X0049710Y0024390D02*
X0055554Y0024390D01*
X0056667Y0025503D01*
X0056667Y0027077D01*
X0055554Y0028190D01*
X0052397Y0028190D01*
X0052397Y0033482D01*
X0051284Y0034595D01*
X0049710Y0034595D01*
X0048597Y0033482D01*
X0048597Y0025503D01*
X0049710Y0024390D01*
X0049155Y0024945D02*
X0021798Y0024945D01*
X0021798Y0026543D02*
X0048597Y0026543D01*
X0048597Y0028142D02*
X0031176Y0028142D01*
X0031036Y0028002D02*
X0032031Y0028998D01*
X0032031Y0031340D01*
X0031821Y0031550D01*
X0032031Y0031760D01*
X0032031Y0034102D01*
X0031588Y0034546D01*
X0032031Y0034989D01*
X0032031Y0036398D01*
X0031821Y0036608D01*
X0032031Y0036818D01*
X0032031Y0038226D01*
X0031121Y0039136D01*
X0032031Y0040047D01*
X0032031Y0042389D01*
X0031588Y0042833D01*
X0032031Y0043276D01*
X0032031Y0044685D01*
X0031036Y0045681D01*
X0029167Y0045681D01*
X0028233Y0046615D01*
X0026825Y0046615D01*
X0025829Y0045619D01*
X0025829Y0041448D01*
X0026059Y0041218D01*
X0025829Y0040988D01*
X0025829Y0033161D01*
X0026059Y0032931D01*
X0025829Y0032701D01*
X0025829Y0029932D01*
X0025829Y0028998D01*
X0026296Y0028530D01*
X0027292Y0027535D01*
X0030569Y0027535D01*
X0031036Y0028002D01*
X0032031Y0029740D02*
X0048597Y0029740D01*
X0048597Y0031339D02*
X0032031Y0031339D01*
X0032031Y0032937D02*
X0048597Y0032937D01*
X0049650Y0034536D02*
X0031598Y0034536D01*
X0032031Y0036134D02*
X0059429Y0036134D01*
X0061028Y0034536D02*
X0051343Y0034536D01*
X0052397Y0032937D02*
X0062626Y0032937D01*
X0064225Y0031339D02*
X0052397Y0031339D01*
X0052397Y0029740D02*
X0065824Y0029740D01*
X0067422Y0028142D02*
X0055602Y0028142D01*
X0056667Y0026543D02*
X0121085Y0026543D01*
X0121085Y0024945D02*
X0056109Y0024945D01*
X0055556Y0021748D02*
X0058441Y0021748D01*
X0057578Y0020149D02*
X0056418Y0020149D01*
X0056598Y0018551D02*
X0057398Y0018551D01*
X0057398Y0016952D02*
X0056598Y0016952D01*
X0056598Y0015354D02*
X0057398Y0015354D01*
X0057398Y0013755D02*
X0056598Y0013755D01*
X0056598Y0012157D02*
X0057398Y0012157D01*
X0060954Y0023346D02*
X0053042Y0023346D01*
X0048441Y0021748D02*
X0045789Y0021748D01*
X0046607Y0020149D02*
X0047578Y0020149D01*
X0047398Y0018551D02*
X0046798Y0018551D01*
X0046798Y0016952D02*
X0047398Y0016952D01*
X0047398Y0015354D02*
X0046798Y0015354D01*
X0046798Y0013755D02*
X0047398Y0013755D01*
X0047398Y0012157D02*
X0046756Y0012157D01*
X0042198Y0016952D02*
X0041798Y0016952D01*
X0038207Y0021748D02*
X0021798Y0021748D01*
X0021798Y0023346D02*
X0040457Y0023346D01*
X0037390Y0020149D02*
X0035518Y0020149D01*
X0034490Y0021178D02*
X0034474Y0021194D01*
X0030765Y0021194D01*
X0029697Y0020126D01*
X0028584Y0019013D01*
X0028584Y0013169D01*
X0029652Y0012101D01*
X0030765Y0010988D01*
X0034474Y0010988D01*
X0035542Y0012056D01*
X0035580Y0012094D01*
X0036655Y0013169D01*
X0036655Y0016878D01*
X0036374Y0017159D01*
X0036655Y0017439D01*
X0036655Y0019013D01*
X0034490Y0021178D01*
X0036655Y0018551D02*
X0037198Y0018551D01*
X0037198Y0016952D02*
X0036580Y0016952D01*
X0036655Y0015354D02*
X0037198Y0015354D01*
X0037198Y0013755D02*
X0036655Y0013755D01*
X0037240Y0012157D02*
X0035643Y0012157D01*
X0029721Y0020149D02*
X0021798Y0020149D01*
X0021798Y0018551D02*
X0028584Y0018551D01*
X0028584Y0016952D02*
X0021798Y0016952D01*
X0021798Y0015354D02*
X0028584Y0015354D01*
X0028584Y0013755D02*
X0021798Y0013755D01*
X0021798Y0012157D02*
X0029596Y0012157D01*
X0026685Y0028142D02*
X0021798Y0028142D01*
X0021798Y0029740D02*
X0025829Y0029740D01*
X0025829Y0031339D02*
X0021798Y0031339D01*
X0021798Y0032937D02*
X0026053Y0032937D01*
X0025829Y0034536D02*
X0021798Y0034536D01*
X0021798Y0036134D02*
X0025829Y0036134D01*
X0025829Y0037733D02*
X0021798Y0037733D01*
X0021798Y0039332D02*
X0025829Y0039332D01*
X0025829Y0040930D02*
X0021798Y0040930D01*
X0021798Y0042529D02*
X0025829Y0042529D01*
X0025829Y0044127D02*
X0021798Y0044127D01*
X0021798Y0045726D02*
X0025936Y0045726D01*
X0026372Y0047324D02*
X0021798Y0047324D01*
X0021798Y0048923D02*
X0025829Y0048923D01*
X0025829Y0050521D02*
X0021798Y0050521D01*
X0021798Y0052120D02*
X0025829Y0052120D01*
X0025829Y0053718D02*
X0021798Y0053718D01*
X0021798Y0055317D02*
X0025829Y0055317D01*
X0025829Y0056915D02*
X0021798Y0056915D01*
X0021798Y0058514D02*
X0025829Y0058514D01*
X0025829Y0060112D02*
X0021798Y0060112D01*
X0021798Y0061711D02*
X0025829Y0061711D01*
X0025829Y0063309D02*
X0021798Y0063309D01*
X0021798Y0064908D02*
X0025829Y0064908D01*
X0029369Y0066506D02*
X0021798Y0066506D01*
X0021798Y0068105D02*
X0026971Y0068105D01*
X0025810Y0069703D02*
X0021798Y0069703D01*
X0021798Y0071302D02*
X0026319Y0071302D01*
X0025727Y0072900D02*
X0021798Y0072900D01*
X0021798Y0074499D02*
X0030808Y0074499D01*
X0030808Y0076097D02*
X0021798Y0076097D01*
X0021798Y0077696D02*
X0030808Y0077696D01*
X0030808Y0079294D02*
X0021798Y0079294D01*
X0021798Y0080893D02*
X0030808Y0080893D01*
X0030808Y0082491D02*
X0021798Y0082491D01*
X0021798Y0084090D02*
X0030808Y0084090D01*
X0030808Y0085688D02*
X0021798Y0085688D01*
X0021798Y0087287D02*
X0030808Y0087287D01*
X0030808Y0088885D02*
X0021798Y0088885D01*
X0021798Y0090484D02*
X0030808Y0090484D01*
X0030808Y0092082D02*
X0021798Y0092082D01*
X0021798Y0093681D02*
X0030808Y0093681D01*
X0030808Y0095279D02*
X0021798Y0095279D01*
X0021798Y0096878D02*
X0030808Y0096878D01*
X0030808Y0098476D02*
X0021798Y0098476D01*
X0021798Y0100075D02*
X0030808Y0100075D01*
X0030808Y0101673D02*
X0021798Y0101673D01*
X0021798Y0103272D02*
X0030808Y0103272D01*
X0030808Y0104870D02*
X0021798Y0104870D01*
X0021798Y0106469D02*
X0030808Y0106469D01*
X0030808Y0108068D02*
X0021798Y0108068D01*
X0021798Y0109666D02*
X0030808Y0109666D01*
X0030808Y0111265D02*
X0021798Y0111265D01*
X0021798Y0112863D02*
X0030808Y0112863D01*
X0030808Y0114462D02*
X0021798Y0114462D01*
X0021798Y0116060D02*
X0030808Y0116060D01*
X0030808Y0117659D02*
X0021798Y0117659D01*
X0021798Y0119257D02*
X0030808Y0119257D01*
X0030808Y0120856D02*
X0021798Y0120856D01*
X0021798Y0122454D02*
X0030808Y0122454D01*
X0030808Y0124053D02*
X0021798Y0124053D01*
X0021798Y0125651D02*
X0030808Y0125651D01*
X0031976Y0127250D02*
X0021798Y0127250D01*
X0021798Y0128848D02*
X0033575Y0128848D01*
X0035173Y0130447D02*
X0021798Y0130447D01*
X0021798Y0132045D02*
X0036772Y0132045D01*
X0038370Y0133644D02*
X0021798Y0133644D01*
X0021798Y0135242D02*
X0039969Y0135242D01*
X0040709Y0136841D02*
X0021798Y0136841D01*
X0021798Y0138439D02*
X0040709Y0138439D01*
X0040709Y0140038D02*
X0021798Y0140038D01*
X0021798Y0141636D02*
X0040709Y0141636D01*
X0040709Y0143235D02*
X0021798Y0143235D01*
X0021798Y0144833D02*
X0030127Y0144833D01*
X0030760Y0144200D02*
X0036228Y0144200D01*
X0040094Y0148066D01*
X0040094Y0153534D01*
X0036228Y0157400D01*
X0030760Y0157400D01*
X0026894Y0153534D01*
X0026894Y0148066D01*
X0030760Y0144200D01*
X0028529Y0146432D02*
X0021798Y0146432D01*
X0021798Y0148030D02*
X0026930Y0148030D01*
X0026894Y0149629D02*
X0021798Y0149629D01*
X0021798Y0151227D02*
X0026894Y0151227D01*
X0026894Y0152826D02*
X0021798Y0152826D01*
X0021798Y0154424D02*
X0027785Y0154424D01*
X0029383Y0156023D02*
X0021798Y0156023D01*
X0021798Y0157621D02*
X0040709Y0157621D01*
X0040709Y0156023D02*
X0037605Y0156023D01*
X0039204Y0154424D02*
X0040709Y0154424D01*
X0040709Y0152826D02*
X0040094Y0152826D01*
X0040094Y0151227D02*
X0040709Y0151227D01*
X0040709Y0149629D02*
X0040094Y0149629D01*
X0040058Y0148030D02*
X0040709Y0148030D01*
X0040709Y0146432D02*
X0038460Y0146432D01*
X0036861Y0144833D02*
X0040709Y0144833D01*
X0049198Y0144833D02*
X0064024Y0144833D01*
X0064541Y0143235D02*
X0049198Y0143235D01*
X0049198Y0141636D02*
X0064541Y0141636D01*
X0064541Y0140038D02*
X0049198Y0140038D01*
X0049754Y0138439D02*
X0064541Y0138439D01*
X0064541Y0136841D02*
X0051352Y0136841D01*
X0052951Y0135242D02*
X0064541Y0135242D01*
X0064541Y0133644D02*
X0054549Y0133644D01*
X0056148Y0132045D02*
X0064541Y0132045D01*
X0064541Y0130447D02*
X0057746Y0130447D01*
X0059345Y0128848D02*
X0064541Y0128848D01*
X0069341Y0128848D02*
X0091935Y0128848D01*
X0090337Y0127250D02*
X0069341Y0127250D01*
X0069341Y0125651D02*
X0088738Y0125651D01*
X0087139Y0124053D02*
X0069341Y0124053D01*
X0069341Y0122454D02*
X0085541Y0122454D01*
X0083942Y0120856D02*
X0069341Y0120856D01*
X0069341Y0119257D02*
X0082344Y0119257D01*
X0080745Y0117659D02*
X0068999Y0117659D01*
X0068975Y0117602D02*
X0069341Y0118484D01*
X0069341Y0144200D01*
X0073236Y0144200D01*
X0077102Y0148066D01*
X0077102Y0153534D01*
X0073236Y0157400D01*
X0067768Y0157400D01*
X0066502Y0156134D01*
X0066502Y0160995D01*
X0076796Y0171289D01*
X0077201Y0171289D01*
X0077487Y0171003D01*
X0077487Y0147434D01*
X0077852Y0146552D01*
X0078528Y0145876D01*
X0089964Y0134441D01*
X0089964Y0134441D01*
X0090639Y0133765D01*
X0091521Y0133400D01*
X0095030Y0133400D01*
X0095248Y0133181D01*
X0095969Y0132883D01*
X0061976Y0098889D01*
X0061384Y0098889D01*
X0060248Y0098419D01*
X0059379Y0097550D01*
X0058909Y0096414D01*
X0058909Y0095186D01*
X0059379Y0094050D01*
X0060130Y0093300D01*
X0059630Y0092800D01*
X0052827Y0092800D01*
X0038998Y0106628D01*
X0038998Y0113185D01*
X0039715Y0113902D01*
X0040186Y0115038D01*
X0040186Y0116266D01*
X0039715Y0117402D01*
X0039376Y0117741D01*
X0041971Y0117741D01*
X0041971Y0123057D01*
X0036656Y0123057D01*
X0036656Y0119304D01*
X0036778Y0118846D01*
X0036839Y0118741D01*
X0036482Y0118741D01*
X0036408Y0118710D01*
X0036408Y0123762D01*
X0036656Y0124010D01*
X0036656Y0123425D01*
X0041971Y0123425D01*
X0041971Y0123057D01*
X0042340Y0123057D01*
X0042340Y0117741D01*
X0044571Y0117741D01*
X0044379Y0117550D01*
X0043909Y0116414D01*
X0043909Y0115186D01*
X0044379Y0114050D01*
X0045248Y0113181D01*
X0046384Y0112711D01*
X0047613Y0112711D01*
X0048748Y0113181D01*
X0049617Y0114050D01*
X0050087Y0115186D01*
X0050087Y0115778D01*
X0050250Y0115941D01*
X0065160Y0115941D01*
X0065643Y0115741D01*
X0066598Y0115741D01*
X0067480Y0116106D01*
X0068300Y0116926D01*
X0068975Y0117602D01*
X0068300Y0116926D02*
X0068300Y0116926D01*
X0067368Y0116060D02*
X0079147Y0116060D01*
X0077548Y0114462D02*
X0049787Y0114462D01*
X0047980Y0112863D02*
X0075950Y0112863D01*
X0074351Y0111265D02*
X0038998Y0111265D01*
X0038998Y0112863D02*
X0046017Y0112863D01*
X0044209Y0114462D02*
X0039947Y0114462D01*
X0040186Y0116060D02*
X0043909Y0116060D01*
X0044488Y0117659D02*
X0039458Y0117659D01*
X0036668Y0119257D02*
X0036408Y0119257D01*
X0036408Y0120856D02*
X0036656Y0120856D01*
X0036656Y0122454D02*
X0036408Y0122454D01*
X0041387Y0128741D02*
X0046309Y0133663D01*
X0046309Y0135661D01*
X0053429Y0128541D01*
X0047635Y0128541D01*
X0047218Y0128124D01*
X0046961Y0128381D01*
X0046550Y0128618D01*
X0046093Y0128741D01*
X0042340Y0128741D01*
X0042340Y0123425D01*
X0041971Y0123425D01*
X0041971Y0128741D01*
X0041387Y0128741D01*
X0041494Y0128848D02*
X0053122Y0128848D01*
X0051524Y0130447D02*
X0043093Y0130447D01*
X0044691Y0132045D02*
X0049925Y0132045D01*
X0048327Y0133644D02*
X0046290Y0133644D01*
X0046309Y0135242D02*
X0046728Y0135242D01*
X0042340Y0127250D02*
X0041971Y0127250D01*
X0041971Y0125651D02*
X0042340Y0125651D01*
X0042340Y0124053D02*
X0041971Y0124053D01*
X0041971Y0122454D02*
X0042340Y0122454D01*
X0042340Y0120856D02*
X0041971Y0120856D01*
X0041971Y0119257D02*
X0042340Y0119257D01*
X0038998Y0109666D02*
X0072753Y0109666D01*
X0071154Y0108068D02*
X0038998Y0108068D01*
X0039158Y0106469D02*
X0069556Y0106469D01*
X0067957Y0104870D02*
X0040756Y0104870D01*
X0042355Y0103272D02*
X0066359Y0103272D01*
X0064760Y0101673D02*
X0043953Y0101673D01*
X0045552Y0100075D02*
X0063162Y0100075D01*
X0060388Y0098476D02*
X0047150Y0098476D01*
X0048749Y0096878D02*
X0059101Y0096878D01*
X0058909Y0095279D02*
X0050347Y0095279D01*
X0051946Y0093681D02*
X0059749Y0093681D01*
X0063867Y0093300D02*
X0064617Y0094050D01*
X0065087Y0095186D01*
X0065087Y0095778D01*
X0111509Y0142200D01*
X0117056Y0142200D01*
X0118345Y0143489D01*
X0120805Y0145949D01*
X0122094Y0147238D01*
X0122094Y0147785D01*
X0124198Y0149889D01*
X0127020Y0152711D01*
X0127613Y0152711D01*
X0128748Y0153181D01*
X0129617Y0154050D01*
X0129833Y0154571D01*
X0139598Y0144806D01*
X0139598Y0128541D01*
X0137478Y0128541D01*
X0136919Y0127982D01*
X0136361Y0128541D01*
X0127635Y0128541D01*
X0127218Y0128124D01*
X0126961Y0128381D01*
X0126550Y0128618D01*
X0126093Y0128741D01*
X0122340Y0128741D01*
X0122340Y0123425D01*
X0121971Y0123425D01*
X0121971Y0123057D01*
X0116656Y0123057D01*
X0116656Y0119304D01*
X0116778Y0118846D01*
X0117015Y0118436D01*
X0117350Y0118101D01*
X0117761Y0117864D01*
X0118219Y0117741D01*
X0121971Y0117741D01*
X0121971Y0123057D01*
X0122340Y0123057D01*
X0122340Y0117741D01*
X0126093Y0117741D01*
X0126550Y0117864D01*
X0126961Y0118101D01*
X0127218Y0118358D01*
X0127635Y0117941D01*
X0134035Y0117941D01*
X0134035Y0042243D01*
X0133968Y0042243D01*
X0131998Y0040273D01*
X0130028Y0042243D01*
X0126094Y0042243D01*
X0125114Y0041263D01*
X0123847Y0042530D01*
X0122734Y0043643D01*
X0119598Y0043643D01*
X0095990Y0067251D01*
X0095990Y0068268D01*
X0095519Y0069403D01*
X0094650Y0070272D01*
X0093515Y0070742D01*
X0092286Y0070742D01*
X0091151Y0070272D01*
X0090282Y0069403D01*
X0089812Y0068268D01*
X0089812Y0067039D01*
X0090282Y0065904D01*
X0091151Y0065035D01*
X0092286Y0064564D01*
X0093303Y0064564D01*
X0116912Y0040956D01*
X0116922Y0040945D01*
X0116250Y0040273D01*
X0114280Y0042243D01*
X0110346Y0042243D01*
X0107596Y0039493D01*
X0086137Y0039493D01*
X0083998Y0041632D01*
X0082827Y0042803D01*
X0077544Y0042803D01*
X0075628Y0044720D01*
X0069894Y0044720D01*
X0070087Y0045186D01*
X0070087Y0046414D01*
X0069617Y0047550D01*
X0068998Y0048168D01*
X0068998Y0068432D01*
X0069617Y0069050D01*
X0070087Y0070186D01*
X0070087Y0071414D01*
X0069617Y0072550D01*
X0068748Y0073419D01*
X0067613Y0073889D01*
X0066384Y0073889D01*
X0065248Y0073419D01*
X0064379Y0072550D01*
X0063909Y0071414D01*
X0063909Y0070186D01*
X0064379Y0069050D01*
X0064998Y0068432D01*
X0064998Y0048168D01*
X0064379Y0047550D01*
X0063909Y0046414D01*
X0063909Y0045186D01*
X0064233Y0044403D01*
X0057560Y0044403D01*
X0036408Y0065555D01*
X0036408Y0103562D01*
X0051170Y0088800D01*
X0059630Y0088800D01*
X0060248Y0088181D01*
X0061384Y0087711D01*
X0062613Y0087711D01*
X0063748Y0088181D01*
X0064617Y0089050D01*
X0065087Y0090186D01*
X0065087Y0091414D01*
X0064617Y0092550D01*
X0063867Y0093300D01*
X0064248Y0093681D02*
X0085881Y0093681D01*
X0086384Y0093889D02*
X0085248Y0093419D01*
X0084379Y0092550D01*
X0083909Y0091414D01*
X0083909Y0090186D01*
X0084379Y0089050D01*
X0085130Y0088300D01*
X0084379Y0087550D01*
X0083909Y0086414D01*
X0083909Y0085186D01*
X0084379Y0084050D01*
X0085248Y0083181D01*
X0086384Y0082711D01*
X0087613Y0082711D01*
X0088748Y0083181D01*
X0089617Y0084050D01*
X0090087Y0085186D01*
X0090087Y0085495D01*
X0102303Y0097711D01*
X0102613Y0097711D01*
X0103748Y0098181D01*
X0104617Y0099050D01*
X0105087Y0100186D01*
X0105087Y0101414D01*
X0104617Y0102550D01*
X0103748Y0103419D01*
X0102613Y0103889D01*
X0101384Y0103889D01*
X0100248Y0103419D01*
X0099498Y0102668D01*
X0098748Y0103419D01*
X0097613Y0103889D01*
X0096384Y0103889D01*
X0095248Y0103419D01*
X0094379Y0102550D01*
X0093909Y0101414D01*
X0093909Y0100822D01*
X0086976Y0093889D01*
X0086384Y0093889D01*
X0088366Y0095279D02*
X0065087Y0095279D01*
X0066187Y0096878D02*
X0089965Y0096878D01*
X0091563Y0098476D02*
X0067786Y0098476D01*
X0069384Y0100075D02*
X0093162Y0100075D01*
X0094016Y0101673D02*
X0070983Y0101673D01*
X0072581Y0103272D02*
X0095102Y0103272D01*
X0098895Y0103272D02*
X0100102Y0103272D01*
X0101998Y0100800D02*
X0086998Y0085800D01*
X0083909Y0085688D02*
X0036408Y0085688D01*
X0036408Y0084090D02*
X0084363Y0084090D01*
X0084271Y0087287D02*
X0036408Y0087287D01*
X0036408Y0088885D02*
X0051084Y0088885D01*
X0049486Y0090484D02*
X0036408Y0090484D01*
X0036408Y0092082D02*
X0047887Y0092082D01*
X0046289Y0093681D02*
X0036408Y0093681D01*
X0036408Y0095279D02*
X0044690Y0095279D01*
X0043092Y0096878D02*
X0036408Y0096878D01*
X0036408Y0098476D02*
X0041493Y0098476D01*
X0039895Y0100075D02*
X0036408Y0100075D01*
X0036408Y0101673D02*
X0038296Y0101673D01*
X0036698Y0103272D02*
X0036408Y0103272D01*
X0036408Y0082491D02*
X0100052Y0082491D01*
X0100052Y0080893D02*
X0036408Y0080893D01*
X0036408Y0079294D02*
X0100052Y0079294D01*
X0100052Y0077696D02*
X0036408Y0077696D01*
X0036408Y0076097D02*
X0100980Y0076097D01*
X0100052Y0077026D02*
X0105389Y0071688D01*
X0112938Y0071688D01*
X0118275Y0077026D01*
X0118275Y0084574D01*
X0112938Y0089912D01*
X0105389Y0089912D01*
X0100052Y0084574D01*
X0100052Y0077026D01*
X0102579Y0074499D02*
X0036408Y0074499D01*
X0036408Y0072900D02*
X0064730Y0072900D01*
X0063909Y0071302D02*
X0036408Y0071302D01*
X0036408Y0069703D02*
X0064109Y0069703D01*
X0064998Y0068105D02*
X0036408Y0068105D01*
X0036408Y0066506D02*
X0064998Y0066506D01*
X0064998Y0064908D02*
X0037055Y0064908D01*
X0038654Y0063309D02*
X0064998Y0063309D01*
X0064998Y0061711D02*
X0040252Y0061711D01*
X0041851Y0060112D02*
X0064998Y0060112D01*
X0064998Y0058514D02*
X0043449Y0058514D01*
X0045048Y0056915D02*
X0064998Y0056915D01*
X0064998Y0055317D02*
X0046646Y0055317D01*
X0048245Y0053718D02*
X0064998Y0053718D01*
X0064998Y0052120D02*
X0049843Y0052120D01*
X0051442Y0050521D02*
X0064998Y0050521D01*
X0064998Y0048923D02*
X0053040Y0048923D01*
X0054639Y0047324D02*
X0064286Y0047324D01*
X0063909Y0045726D02*
X0056237Y0045726D01*
X0051515Y0042529D02*
X0031892Y0042529D01*
X0032031Y0044127D02*
X0049916Y0044127D01*
X0048318Y0045726D02*
X0029122Y0045726D01*
X0031489Y0047324D02*
X0046719Y0047324D01*
X0045121Y0048923D02*
X0032031Y0048923D01*
X0032031Y0050521D02*
X0043522Y0050521D01*
X0041924Y0052120D02*
X0032031Y0052120D01*
X0032031Y0053718D02*
X0040325Y0053718D01*
X0038727Y0055317D02*
X0032031Y0055317D01*
X0032031Y0056915D02*
X0037128Y0056915D01*
X0035530Y0058514D02*
X0032031Y0058514D01*
X0032031Y0060112D02*
X0033931Y0060112D01*
X0032333Y0061711D02*
X0032031Y0061711D01*
X0030808Y0072900D02*
X0030051Y0072900D01*
X0032031Y0040930D02*
X0053113Y0040930D01*
X0054712Y0039332D02*
X0031316Y0039332D01*
X0032031Y0037733D02*
X0057831Y0037733D01*
X0063042Y0023346D02*
X0120457Y0023346D01*
X0118207Y0021748D02*
X0065556Y0021748D01*
X0066418Y0020149D02*
X0066714Y0020149D01*
X0066714Y0020225D02*
X0066714Y0014380D01*
X0066714Y0012245D01*
X0067827Y0011132D01*
X0069401Y0011132D01*
X0070514Y0012245D01*
X0070514Y0012716D01*
X0072098Y0011132D01*
X0073672Y0011132D01*
X0074785Y0012245D01*
X0074785Y0013819D01*
X0073970Y0014634D01*
X0074785Y0015448D01*
X0074785Y0019157D01*
X0073710Y0020232D01*
X0073672Y0020270D01*
X0073672Y0020270D01*
X0072604Y0021338D01*
X0067827Y0021338D01*
X0066714Y0020225D01*
X0066714Y0018551D02*
X0066598Y0018551D01*
X0066598Y0016952D02*
X0066714Y0016952D01*
X0066714Y0015354D02*
X0066598Y0015354D01*
X0066598Y0013755D02*
X0066714Y0013755D01*
X0066803Y0012157D02*
X0066598Y0012157D01*
X0070426Y0012157D02*
X0071073Y0012157D01*
X0074696Y0012157D02*
X0110011Y0012157D01*
X0109778Y0012389D02*
X0110891Y0011276D01*
X0114600Y0011276D01*
X0115154Y0011830D01*
X0115668Y0012344D01*
X0115706Y0012383D01*
X0116781Y0013457D01*
X0116781Y0017166D01*
X0116500Y0017447D01*
X0116781Y0017727D01*
X0116781Y0019301D01*
X0114616Y0021466D01*
X0114600Y0021482D01*
X0110891Y0021482D01*
X0109824Y0020414D01*
X0108711Y0019301D01*
X0108711Y0013457D01*
X0109778Y0012389D01*
X0108711Y0013755D02*
X0074785Y0013755D01*
X0074690Y0015354D02*
X0108711Y0015354D01*
X0108711Y0016952D02*
X0074785Y0016952D01*
X0074785Y0018551D02*
X0108711Y0018551D01*
X0109559Y0020149D02*
X0073792Y0020149D01*
X0084700Y0040930D02*
X0109033Y0040930D01*
X0113740Y0044127D02*
X0076220Y0044127D01*
X0070087Y0045726D02*
X0112141Y0045726D01*
X0110543Y0047324D02*
X0069710Y0047324D01*
X0068998Y0048923D02*
X0108944Y0048923D01*
X0107346Y0050521D02*
X0068998Y0050521D01*
X0068998Y0052120D02*
X0105747Y0052120D01*
X0104149Y0053718D02*
X0068998Y0053718D01*
X0068998Y0055317D02*
X0102550Y0055317D01*
X0100952Y0056915D02*
X0068998Y0056915D01*
X0068998Y0058514D02*
X0099353Y0058514D01*
X0097755Y0060112D02*
X0068998Y0060112D01*
X0068998Y0061711D02*
X0096156Y0061711D01*
X0094558Y0063309D02*
X0068998Y0063309D01*
X0068998Y0064908D02*
X0091457Y0064908D01*
X0090032Y0066506D02*
X0068998Y0066506D01*
X0068998Y0068105D02*
X0089812Y0068105D01*
X0090582Y0069703D02*
X0069887Y0069703D01*
X0070087Y0071302D02*
X0134035Y0071302D01*
X0134035Y0072900D02*
X0114150Y0072900D01*
X0115748Y0074499D02*
X0134035Y0074499D01*
X0134035Y0076097D02*
X0117347Y0076097D01*
X0118275Y0077696D02*
X0134035Y0077696D01*
X0134035Y0079294D02*
X0118275Y0079294D01*
X0118275Y0080893D02*
X0134035Y0080893D01*
X0134035Y0082491D02*
X0118275Y0082491D01*
X0118275Y0084090D02*
X0134035Y0084090D01*
X0134035Y0085688D02*
X0117161Y0085688D01*
X0115563Y0087287D02*
X0134035Y0087287D01*
X0134035Y0088885D02*
X0113964Y0088885D01*
X0105041Y0100075D02*
X0134035Y0100075D01*
X0134035Y0101673D02*
X0104980Y0101673D01*
X0103895Y0103272D02*
X0134035Y0103272D01*
X0134035Y0104870D02*
X0074180Y0104870D01*
X0075778Y0106469D02*
X0134035Y0106469D01*
X0134035Y0108068D02*
X0077377Y0108068D01*
X0078975Y0109666D02*
X0134035Y0109666D01*
X0134035Y0111265D02*
X0080574Y0111265D01*
X0082172Y0112863D02*
X0134035Y0112863D01*
X0134035Y0114462D02*
X0083771Y0114462D01*
X0085369Y0116060D02*
X0134035Y0116060D01*
X0134035Y0117659D02*
X0086968Y0117659D01*
X0088566Y0119257D02*
X0116668Y0119257D01*
X0116656Y0120856D02*
X0090165Y0120856D01*
X0091764Y0122454D02*
X0116656Y0122454D01*
X0116656Y0123425D02*
X0121971Y0123425D01*
X0121971Y0128741D01*
X0118219Y0128741D01*
X0117761Y0128618D01*
X0117350Y0128381D01*
X0117015Y0128046D01*
X0116778Y0127636D01*
X0116656Y0127178D01*
X0116656Y0123425D01*
X0116656Y0124053D02*
X0093362Y0124053D01*
X0094961Y0125651D02*
X0116656Y0125651D01*
X0116675Y0127250D02*
X0096559Y0127250D01*
X0098158Y0128848D02*
X0139598Y0128848D01*
X0139598Y0130447D02*
X0099756Y0130447D01*
X0101355Y0132045D02*
X0139598Y0132045D01*
X0139598Y0133644D02*
X0102953Y0133644D01*
X0104552Y0135242D02*
X0139598Y0135242D01*
X0139598Y0136841D02*
X0106150Y0136841D01*
X0107749Y0138439D02*
X0139598Y0138439D01*
X0139598Y0140038D02*
X0109347Y0140038D01*
X0110946Y0141636D02*
X0139598Y0141636D01*
X0139598Y0143235D02*
X0118091Y0143235D01*
X0119690Y0144833D02*
X0139571Y0144833D01*
X0137972Y0146432D02*
X0121288Y0146432D01*
X0122340Y0148030D02*
X0136374Y0148030D01*
X0134775Y0149629D02*
X0123938Y0149629D01*
X0125537Y0151227D02*
X0133177Y0151227D01*
X0131578Y0152826D02*
X0127890Y0152826D01*
X0129772Y0154424D02*
X0129980Y0154424D01*
X0125769Y0158635D02*
X0125248Y0158419D01*
X0124379Y0157550D01*
X0123909Y0156414D01*
X0123909Y0155822D01*
X0121087Y0153000D01*
X0120094Y0152007D01*
X0120094Y0153534D01*
X0116228Y0157400D01*
X0110760Y0157400D01*
X0106894Y0153534D01*
X0106894Y0148066D01*
X0109024Y0145937D01*
X0108398Y0145311D01*
X0099916Y0136829D01*
X0099617Y0137550D01*
X0098748Y0138419D01*
X0097613Y0138889D01*
X0096384Y0138889D01*
X0095248Y0138419D01*
X0095030Y0138200D01*
X0092992Y0138200D01*
X0082287Y0148905D01*
X0082287Y0172474D01*
X0081922Y0173356D01*
X0081247Y0174031D01*
X0079554Y0175724D01*
X0081247Y0174031D02*
X0081247Y0174031D01*
X0081671Y0173606D02*
X0089962Y0173606D01*
X0090304Y0173265D02*
X0091403Y0172809D01*
X0092593Y0172809D01*
X0093692Y0173265D01*
X0094227Y0173800D01*
X0112611Y0173800D01*
X0112611Y0173552D01*
X0113066Y0172452D01*
X0113908Y0171611D01*
X0114256Y0171467D01*
X0114139Y0171184D01*
X0114139Y0169955D01*
X0114610Y0168820D01*
X0115479Y0167951D01*
X0116614Y0167481D01*
X0117843Y0167481D01*
X0118978Y0167951D01*
X0119598Y0168571D01*
X0119598Y0165323D01*
X0119964Y0164441D01*
X0125769Y0158635D01*
X0125184Y0159220D02*
X0082287Y0159220D01*
X0082287Y0160818D02*
X0123586Y0160818D01*
X0121987Y0162417D02*
X0082287Y0162417D01*
X0082287Y0164015D02*
X0120389Y0164015D01*
X0119598Y0165614D02*
X0082287Y0165614D01*
X0082287Y0167212D02*
X0119598Y0167212D01*
X0121998Y0165800D02*
X0141998Y0145800D01*
X0141998Y0123398D01*
X0141841Y0123241D01*
X0137835Y0116060D02*
X0160899Y0116060D01*
X0160899Y0114462D02*
X0137835Y0114462D01*
X0137835Y0112863D02*
X0160899Y0112863D01*
X0160899Y0111265D02*
X0137835Y0111265D01*
X0137835Y0109666D02*
X0160899Y0109666D01*
X0160899Y0108068D02*
X0137835Y0108068D01*
X0137835Y0106469D02*
X0160899Y0106469D01*
X0160899Y0104870D02*
X0137835Y0104870D01*
X0137835Y0103272D02*
X0160899Y0103272D01*
X0160899Y0101673D02*
X0137835Y0101673D01*
X0137835Y0100075D02*
X0160899Y0100075D01*
X0160899Y0098476D02*
X0137835Y0098476D01*
X0137835Y0096878D02*
X0160899Y0096878D01*
X0160899Y0095279D02*
X0137835Y0095279D01*
X0137835Y0093681D02*
X0160899Y0093681D01*
X0160899Y0092082D02*
X0137835Y0092082D01*
X0137835Y0090484D02*
X0160899Y0090484D01*
X0160899Y0088885D02*
X0159633Y0088885D01*
X0150032Y0088885D02*
X0137835Y0088885D01*
X0137835Y0087287D02*
X0148434Y0087287D01*
X0146835Y0085688D02*
X0137835Y0085688D01*
X0137835Y0084090D02*
X0145721Y0084090D01*
X0145721Y0082491D02*
X0137835Y0082491D01*
X0137835Y0080893D02*
X0145721Y0080893D01*
X0145721Y0079294D02*
X0137835Y0079294D01*
X0137835Y0077696D02*
X0145721Y0077696D01*
X0146649Y0076097D02*
X0137835Y0076097D01*
X0137835Y0074499D02*
X0148248Y0074499D01*
X0149846Y0072900D02*
X0137835Y0072900D01*
X0137835Y0071302D02*
X0160899Y0071302D01*
X0160899Y0072900D02*
X0159819Y0072900D01*
X0160899Y0069703D02*
X0137835Y0069703D01*
X0137835Y0068105D02*
X0160899Y0068105D01*
X0160899Y0066506D02*
X0137835Y0066506D01*
X0137835Y0064908D02*
X0160899Y0064908D01*
X0160899Y0063309D02*
X0137835Y0063309D01*
X0137835Y0061711D02*
X0160899Y0061711D01*
X0160899Y0060112D02*
X0137835Y0060112D01*
X0137835Y0058514D02*
X0160899Y0058514D01*
X0160899Y0056915D02*
X0137835Y0056915D01*
X0137835Y0055317D02*
X0160899Y0055317D01*
X0160899Y0053718D02*
X0137835Y0053718D01*
X0137835Y0052120D02*
X0160899Y0052120D01*
X0160899Y0050521D02*
X0137835Y0050521D01*
X0137835Y0048923D02*
X0160899Y0048923D01*
X0160899Y0047324D02*
X0137835Y0047324D01*
X0137835Y0045726D02*
X0160899Y0045726D01*
X0160899Y0044127D02*
X0137835Y0044127D01*
X0137835Y0042529D02*
X0160899Y0042529D01*
X0160899Y0040930D02*
X0155246Y0040930D01*
X0156633Y0039543D02*
X0153733Y0042443D01*
X0151867Y0042443D01*
X0151867Y0037677D01*
X0151499Y0037677D01*
X0151499Y0037309D01*
X0151867Y0037309D01*
X0151867Y0032543D01*
X0153733Y0032543D01*
X0156633Y0035443D01*
X0156633Y0037309D01*
X0151867Y0037309D01*
X0151867Y0037677D01*
X0156633Y0037677D01*
X0156633Y0039543D01*
X0156633Y0039332D02*
X0160899Y0039332D01*
X0160899Y0037733D02*
X0156633Y0037733D01*
X0156633Y0036134D02*
X0160899Y0036134D01*
X0160899Y0034536D02*
X0155726Y0034536D01*
X0154128Y0032937D02*
X0160899Y0032937D01*
X0160899Y0031339D02*
X0137326Y0031339D01*
X0138097Y0032937D02*
X0141365Y0032937D01*
X0143625Y0032937D02*
X0143993Y0032937D01*
X0143993Y0034536D02*
X0143625Y0034536D01*
X0143625Y0036134D02*
X0143993Y0036134D01*
X0143993Y0037677D02*
X0151499Y0037677D01*
X0151499Y0042443D01*
X0149633Y0042443D01*
X0147746Y0040556D01*
X0145859Y0042443D01*
X0143993Y0042443D01*
X0143993Y0037677D01*
X0143993Y0037733D02*
X0143625Y0037733D01*
X0143625Y0039332D02*
X0143993Y0039332D01*
X0143993Y0040930D02*
X0143625Y0040930D01*
X0140246Y0040930D02*
X0139215Y0040930D01*
X0139695Y0034536D02*
X0139766Y0034536D01*
X0138925Y0029740D02*
X0160899Y0029740D01*
X0160899Y0028142D02*
X0140523Y0028142D01*
X0142122Y0026543D02*
X0160899Y0026543D01*
X0160899Y0024945D02*
X0143720Y0024945D01*
X0144198Y0023346D02*
X0160899Y0023346D01*
X0160899Y0021748D02*
X0145556Y0021748D01*
X0146624Y0020585D02*
X0146624Y0014741D01*
X0146624Y0012606D01*
X0147737Y0011493D01*
X0149311Y0011493D01*
X0150424Y0012606D01*
X0150424Y0013076D01*
X0152008Y0011493D01*
X0153582Y0011493D01*
X0154695Y0012606D01*
X0154695Y0014180D01*
X0153880Y0014994D01*
X0154695Y0015808D01*
X0154695Y0019517D01*
X0153620Y0020592D01*
X0153582Y0020630D01*
X0152514Y0021698D01*
X0147737Y0021698D01*
X0146624Y0020585D01*
X0146624Y0020149D02*
X0146418Y0020149D01*
X0146598Y0018551D02*
X0146624Y0018551D01*
X0146598Y0016952D02*
X0146624Y0016952D01*
X0146598Y0015354D02*
X0146624Y0015354D01*
X0146598Y0013755D02*
X0146624Y0013755D01*
X0146598Y0012157D02*
X0147073Y0012157D01*
X0149976Y0012157D02*
X0151343Y0012157D01*
X0154246Y0012157D02*
X0160899Y0012157D01*
X0160899Y0013755D02*
X0154695Y0013755D01*
X0154240Y0015354D02*
X0160899Y0015354D01*
X0160899Y0016952D02*
X0154695Y0016952D01*
X0154695Y0018551D02*
X0160899Y0018551D01*
X0160899Y0020149D02*
X0154063Y0020149D01*
X0151867Y0032937D02*
X0151499Y0032937D01*
X0151499Y0034536D02*
X0151867Y0034536D01*
X0151867Y0036134D02*
X0151499Y0036134D01*
X0151499Y0037733D02*
X0151867Y0037733D01*
X0151867Y0039332D02*
X0151499Y0039332D01*
X0151499Y0040930D02*
X0151867Y0040930D01*
X0148120Y0040930D02*
X0147372Y0040930D01*
X0146253Y0032937D02*
X0149239Y0032937D01*
X0134035Y0042529D02*
X0123848Y0042529D01*
X0123847Y0042530D02*
X0123847Y0042530D01*
X0119114Y0044127D02*
X0134035Y0044127D01*
X0134035Y0045726D02*
X0117515Y0045726D01*
X0115917Y0047324D02*
X0134035Y0047324D01*
X0134035Y0048923D02*
X0114318Y0048923D01*
X0112720Y0050521D02*
X0134035Y0050521D01*
X0134035Y0052120D02*
X0111121Y0052120D01*
X0109523Y0053718D02*
X0134035Y0053718D01*
X0134035Y0055317D02*
X0107924Y0055317D01*
X0106326Y0056915D02*
X0134035Y0056915D01*
X0134035Y0058514D02*
X0104727Y0058514D01*
X0103129Y0060112D02*
X0134035Y0060112D01*
X0134035Y0061711D02*
X0101530Y0061711D01*
X0099932Y0063309D02*
X0134035Y0063309D01*
X0134035Y0064908D02*
X0098333Y0064908D01*
X0096735Y0066506D02*
X0134035Y0066506D01*
X0134035Y0068105D02*
X0095990Y0068105D01*
X0095219Y0069703D02*
X0134035Y0069703D01*
X0134035Y0090484D02*
X0095076Y0090484D01*
X0096675Y0092082D02*
X0134035Y0092082D01*
X0134035Y0093681D02*
X0098273Y0093681D01*
X0099872Y0095279D02*
X0134035Y0095279D01*
X0134035Y0096878D02*
X0101470Y0096878D01*
X0104043Y0098476D02*
X0134035Y0098476D01*
X0147901Y0117659D02*
X0160899Y0117659D01*
X0160899Y0119257D02*
X0148541Y0119257D01*
X0148541Y0120856D02*
X0160899Y0120856D01*
X0160899Y0122454D02*
X0148541Y0122454D01*
X0148541Y0124053D02*
X0160899Y0124053D01*
X0160899Y0125651D02*
X0148541Y0125651D01*
X0148541Y0127250D02*
X0160899Y0127250D01*
X0160899Y0128848D02*
X0148541Y0128848D01*
X0148541Y0130447D02*
X0160899Y0130447D01*
X0160899Y0132045D02*
X0148541Y0132045D01*
X0148541Y0133644D02*
X0160899Y0133644D01*
X0160899Y0135242D02*
X0148541Y0135242D01*
X0148541Y0136841D02*
X0160899Y0136841D01*
X0160899Y0138439D02*
X0148541Y0138439D01*
X0148541Y0140038D02*
X0160899Y0140038D01*
X0160899Y0141636D02*
X0148541Y0141636D01*
X0148541Y0143235D02*
X0160899Y0143235D01*
X0160899Y0144833D02*
X0153869Y0144833D01*
X0155468Y0146432D02*
X0160899Y0146432D01*
X0160899Y0148030D02*
X0157066Y0148030D01*
X0157102Y0149629D02*
X0160899Y0149629D01*
X0160899Y0151227D02*
X0157102Y0151227D01*
X0157102Y0152826D02*
X0160899Y0152826D01*
X0160899Y0154424D02*
X0156212Y0154424D01*
X0154613Y0156023D02*
X0160899Y0156023D01*
X0160899Y0157621D02*
X0156863Y0157621D01*
X0156506Y0157086D02*
X0157287Y0158258D01*
X0157011Y0159639D01*
X0156565Y0159937D01*
X0157287Y0161021D01*
X0157011Y0162402D01*
X0156493Y0162747D01*
X0157182Y0163436D01*
X0157182Y0164844D01*
X0156502Y0165525D01*
X0156715Y0165738D01*
X0157182Y0166205D01*
X0157182Y0168547D01*
X0156822Y0168908D01*
X0156872Y0168933D01*
X0157057Y0169486D01*
X0157318Y0170008D01*
X0157274Y0170139D01*
X0157318Y0170269D01*
X0157057Y0170791D01*
X0156970Y0171051D01*
X0157182Y0171263D01*
X0157182Y0178683D01*
X0156187Y0179679D01*
X0154778Y0179679D01*
X0153844Y0178744D01*
X0151976Y0178744D01*
X0150980Y0177749D01*
X0150980Y0176340D01*
X0151423Y0175897D01*
X0150980Y0175453D01*
X0150980Y0173111D01*
X0151976Y0172115D01*
X0152148Y0171942D01*
X0151779Y0171203D01*
X0152134Y0170138D01*
X0151779Y0169074D01*
X0151999Y0168633D01*
X0151914Y0168547D01*
X0151914Y0164826D01*
X0151656Y0164775D01*
X0150875Y0163603D01*
X0151151Y0162222D01*
X0151597Y0161925D01*
X0150875Y0160841D01*
X0151151Y0159460D01*
X0155125Y0156810D01*
X0156506Y0157086D01*
X0157095Y0159220D02*
X0160899Y0159220D01*
X0160899Y0160818D02*
X0157153Y0160818D01*
X0156988Y0162417D02*
X0160899Y0162417D01*
X0160899Y0164015D02*
X0157182Y0164015D01*
X0156591Y0165614D02*
X0160899Y0165614D01*
X0160899Y0167212D02*
X0157182Y0167212D01*
X0156919Y0168811D02*
X0160899Y0168811D01*
X0160899Y0170409D02*
X0157248Y0170409D01*
X0157182Y0172008D02*
X0160899Y0172008D01*
X0160899Y0173606D02*
X0157182Y0173606D01*
X0157182Y0175205D02*
X0160899Y0175205D01*
X0160899Y0176803D02*
X0157182Y0176803D01*
X0157182Y0178402D02*
X0160899Y0178402D01*
X0160899Y0180001D02*
X0156252Y0180001D01*
X0156187Y0179935D02*
X0155252Y0179935D01*
X0151976Y0179935D01*
X0150980Y0180931D01*
X0150980Y0183740D01*
X0151190Y0183950D01*
X0150980Y0184160D01*
X0150980Y0189407D01*
X0150875Y0189565D01*
X0150980Y0190090D01*
X0150980Y0190626D01*
X0151114Y0190760D01*
X0151146Y0190920D01*
X0150980Y0191086D01*
X0150980Y0196151D01*
X0151210Y0196381D01*
X0150980Y0196611D01*
X0150980Y0198019D01*
X0151447Y0198486D01*
X0151447Y0200267D01*
X0150980Y0200734D01*
X0150980Y0203077D01*
X0151190Y0203287D01*
X0150980Y0203497D01*
X0150980Y0205839D01*
X0151423Y0206283D01*
X0150980Y0206726D01*
X0150980Y0208134D01*
X0151190Y0208344D01*
X0150980Y0208554D01*
X0150980Y0211831D01*
X0151976Y0212827D01*
X0153851Y0212827D01*
X0155719Y0210958D01*
X0156187Y0210958D01*
X0157182Y0209963D01*
X0157182Y0200267D01*
X0156715Y0199800D01*
X0156715Y0198486D01*
X0157182Y0198019D01*
X0157182Y0196611D01*
X0156952Y0196381D01*
X0157182Y0196151D01*
X0157182Y0192305D01*
X0157287Y0192147D01*
X0157182Y0191622D01*
X0157182Y0191086D01*
X0157048Y0190952D01*
X0157016Y0190792D01*
X0157182Y0190626D01*
X0157182Y0182799D01*
X0156952Y0182569D01*
X0157182Y0182339D01*
X0157182Y0180931D01*
X0156187Y0179935D01*
X0157182Y0181599D02*
X0160899Y0181599D01*
X0160899Y0183198D02*
X0157182Y0183198D01*
X0157182Y0184796D02*
X0160899Y0184796D01*
X0160899Y0186395D02*
X0157182Y0186395D01*
X0157182Y0187993D02*
X0160899Y0187993D01*
X0160899Y0189592D02*
X0157182Y0189592D01*
X0157182Y0191190D02*
X0160899Y0191190D01*
X0160899Y0192789D02*
X0157182Y0192789D01*
X0157182Y0194387D02*
X0160899Y0194387D01*
X0160899Y0195986D02*
X0157182Y0195986D01*
X0157182Y0197584D02*
X0160899Y0197584D01*
X0160899Y0199183D02*
X0156715Y0199183D01*
X0157182Y0200781D02*
X0160899Y0200781D01*
X0160899Y0202380D02*
X0157182Y0202380D01*
X0157182Y0203978D02*
X0160899Y0203978D01*
X0160899Y0205577D02*
X0157182Y0205577D01*
X0157182Y0207175D02*
X0160899Y0207175D01*
X0160899Y0208774D02*
X0157182Y0208774D01*
X0156773Y0210372D02*
X0160899Y0210372D01*
X0160899Y0211971D02*
X0154707Y0211971D01*
X0155252Y0213083D02*
X0152910Y0213083D01*
X0150980Y0215013D01*
X0150980Y0218730D01*
X0151190Y0218940D01*
X0150980Y0219150D01*
X0150980Y0222854D01*
X0152910Y0224784D01*
X0155252Y0224784D01*
X0156248Y0223788D01*
X0157182Y0222854D01*
X0157182Y0219150D01*
X0156972Y0218940D01*
X0157182Y0218730D01*
X0157182Y0215013D01*
X0156248Y0214079D01*
X0155252Y0213083D01*
X0155738Y0213569D02*
X0160899Y0213569D01*
X0160899Y0215168D02*
X0157182Y0215168D01*
X0157182Y0216766D02*
X0160899Y0216766D01*
X0160899Y0218365D02*
X0157182Y0218365D01*
X0157182Y0219963D02*
X0160899Y0219963D01*
X0160899Y0221562D02*
X0157182Y0221562D01*
X0156876Y0223160D02*
X0160899Y0223160D01*
X0160899Y0224759D02*
X0155277Y0224759D01*
X0152885Y0224759D02*
X0138870Y0224759D01*
X0139739Y0225628D02*
X0141129Y0228984D01*
X0141129Y0232616D01*
X0139739Y0235972D01*
X0137170Y0238541D01*
X0133814Y0239931D01*
X0130182Y0239931D01*
X0126826Y0238541D01*
X0124257Y0235972D01*
X0122867Y0232616D01*
X0122867Y0228984D01*
X0124257Y0225628D01*
X0126826Y0223059D01*
X0128749Y0222263D01*
X0126898Y0220412D01*
X0126898Y0216188D01*
X0129644Y0213441D01*
X0126698Y0210495D01*
X0126698Y0208500D01*
X0131798Y0208500D01*
X0131798Y0208100D01*
X0126698Y0208100D01*
X0126698Y0206105D01*
X0129803Y0203000D01*
X0131798Y0203000D01*
X0131798Y0208100D01*
X0132198Y0208100D01*
X0132198Y0203000D01*
X0134193Y0203000D01*
X0137298Y0206105D01*
X0137298Y0208100D01*
X0132198Y0208100D01*
X0132198Y0208500D01*
X0137298Y0208500D01*
X0137298Y0210495D01*
X0134352Y0213441D01*
X0137098Y0216188D01*
X0137098Y0220412D01*
X0135248Y0222263D01*
X0137170Y0223059D01*
X0139739Y0225628D01*
X0140041Y0226357D02*
X0160899Y0226357D01*
X0160899Y0227956D02*
X0140703Y0227956D01*
X0141129Y0229554D02*
X0160899Y0229554D01*
X0160899Y0231153D02*
X0141129Y0231153D01*
X0141073Y0232751D02*
X0160899Y0232751D01*
X0160899Y0234350D02*
X0140411Y0234350D01*
X0139749Y0235948D02*
X0160899Y0235948D01*
X0160899Y0237547D02*
X0138164Y0237547D01*
X0135710Y0239145D02*
X0160899Y0239145D01*
X0160899Y0240744D02*
X0021798Y0240744D01*
X0021798Y0242342D02*
X0160899Y0242342D01*
X0160899Y0243941D02*
X0134852Y0243941D01*
X0134111Y0243200D02*
X0137098Y0246188D01*
X0137098Y0250412D01*
X0134111Y0253400D01*
X0129886Y0253400D01*
X0126898Y0250412D01*
X0126898Y0246188D01*
X0129886Y0243200D01*
X0134111Y0243200D01*
X0136450Y0245539D02*
X0160899Y0245539D01*
X0160899Y0247138D02*
X0137098Y0247138D01*
X0137098Y0248737D02*
X0160899Y0248737D01*
X0160899Y0250335D02*
X0137098Y0250335D01*
X0135577Y0251934D02*
X0160899Y0251934D01*
X0160899Y0253532D02*
X0115620Y0253532D01*
X0117218Y0255131D02*
X0160899Y0255131D01*
X0160899Y0256729D02*
X0118817Y0256729D01*
X0120415Y0258328D02*
X0160899Y0258328D01*
X0160899Y0259926D02*
X0122014Y0259926D01*
X0123612Y0261525D02*
X0160899Y0261525D01*
X0160899Y0263123D02*
X0140261Y0263123D01*
X0141198Y0264060D02*
X0138738Y0261600D01*
X0135258Y0261600D01*
X0132798Y0264060D01*
X0132798Y0267540D01*
X0135258Y0270000D01*
X0138738Y0270000D01*
X0141198Y0267540D01*
X0141198Y0264060D01*
X0141198Y0264722D02*
X0160899Y0264722D01*
X0160899Y0266320D02*
X0141198Y0266320D01*
X0140819Y0267919D02*
X0160899Y0267919D01*
X0160899Y0269517D02*
X0139221Y0269517D01*
X0134776Y0269517D02*
X0129221Y0269517D01*
X0130819Y0267919D02*
X0133177Y0267919D01*
X0132798Y0266320D02*
X0131198Y0266320D01*
X0131198Y0264722D02*
X0132798Y0264722D01*
X0133735Y0263123D02*
X0130261Y0263123D01*
X0126998Y0265800D02*
X0124493Y0265800D01*
X0114193Y0255500D01*
X0069803Y0255500D01*
X0061198Y0264105D01*
X0061198Y0267540D01*
X0058738Y0270000D01*
X0055258Y0270000D01*
X0051058Y0265800D01*
X0046998Y0265800D01*
X0043735Y0263123D02*
X0021798Y0263123D01*
X0021798Y0261525D02*
X0060384Y0261525D01*
X0061983Y0259926D02*
X0021798Y0259926D01*
X0021798Y0258328D02*
X0063581Y0258328D01*
X0065180Y0256729D02*
X0021798Y0256729D01*
X0021798Y0255131D02*
X0066778Y0255131D01*
X0068377Y0253532D02*
X0021798Y0253532D01*
X0021798Y0251934D02*
X0048419Y0251934D01*
X0049886Y0253400D02*
X0046898Y0250412D01*
X0046898Y0246188D01*
X0049886Y0243200D01*
X0054111Y0243200D01*
X0057098Y0246188D01*
X0057098Y0250412D01*
X0054111Y0253400D01*
X0049886Y0253400D01*
X0046898Y0250335D02*
X0021798Y0250335D01*
X0021798Y0248737D02*
X0046898Y0248737D01*
X0046898Y0247138D02*
X0021798Y0247138D01*
X0021798Y0245539D02*
X0047546Y0245539D01*
X0049145Y0243941D02*
X0021798Y0243941D01*
X0021798Y0239145D02*
X0048286Y0239145D01*
X0046826Y0238541D02*
X0044257Y0235972D01*
X0042867Y0232616D01*
X0042867Y0228984D01*
X0044257Y0225628D01*
X0046826Y0223059D01*
X0048749Y0222263D01*
X0046898Y0220412D01*
X0046898Y0216188D01*
X0049644Y0213441D01*
X0046698Y0210495D01*
X0046698Y0208500D01*
X0051798Y0208500D01*
X0051798Y0208100D01*
X0046698Y0208100D01*
X0046698Y0206105D01*
X0049803Y0203000D01*
X0051798Y0203000D01*
X0051798Y0208100D01*
X0052198Y0208100D01*
X0052198Y0203000D01*
X0054193Y0203000D01*
X0057298Y0206105D01*
X0057298Y0208100D01*
X0052198Y0208100D01*
X0052198Y0208500D01*
X0057298Y0208500D01*
X0057298Y0210495D01*
X0054352Y0213441D01*
X0057098Y0216188D01*
X0057098Y0220412D01*
X0055248Y0222263D01*
X0057170Y0223059D01*
X0059739Y0225628D01*
X0061129Y0228984D01*
X0061129Y0232616D01*
X0059739Y0235972D01*
X0057170Y0238541D01*
X0053814Y0239931D01*
X0050182Y0239931D01*
X0046826Y0238541D01*
X0045832Y0237547D02*
X0021798Y0237547D01*
X0021798Y0235948D02*
X0044248Y0235948D01*
X0043586Y0234350D02*
X0021798Y0234350D01*
X0021798Y0232751D02*
X0042923Y0232751D01*
X0042867Y0231153D02*
X0021798Y0231153D01*
X0021798Y0229554D02*
X0042867Y0229554D01*
X0043293Y0227956D02*
X0021798Y0227956D01*
X0021798Y0226357D02*
X0043955Y0226357D01*
X0045127Y0224759D02*
X0021798Y0224759D01*
X0021798Y0223160D02*
X0046725Y0223160D01*
X0048047Y0221562D02*
X0021798Y0221562D01*
X0021798Y0219963D02*
X0046898Y0219963D01*
X0046898Y0218365D02*
X0021798Y0218365D01*
X0021798Y0216766D02*
X0046898Y0216766D01*
X0047918Y0215168D02*
X0021798Y0215168D01*
X0021798Y0213569D02*
X0049516Y0213569D01*
X0048174Y0211971D02*
X0021798Y0211971D01*
X0021798Y0210372D02*
X0046698Y0210372D01*
X0046698Y0208774D02*
X0021798Y0208774D01*
X0021798Y0207175D02*
X0046698Y0207175D01*
X0047226Y0205577D02*
X0021798Y0205577D01*
X0021798Y0203978D02*
X0048825Y0203978D01*
X0051798Y0203978D02*
X0052198Y0203978D01*
X0052198Y0205577D02*
X0051798Y0205577D01*
X0051798Y0207175D02*
X0052198Y0207175D01*
X0055172Y0203978D02*
X0114598Y0203978D01*
X0114598Y0202380D02*
X0069687Y0202380D01*
X0069617Y0202550D02*
X0068748Y0203419D01*
X0067613Y0203889D01*
X0066384Y0203889D01*
X0065248Y0203419D01*
X0064379Y0202550D01*
X0063909Y0201414D01*
X0063909Y0200186D01*
X0064379Y0199050D01*
X0064798Y0198632D01*
X0064798Y0194889D01*
X0068909Y0190778D01*
X0068909Y0190186D01*
X0069379Y0189050D01*
X0070248Y0188181D01*
X0071384Y0187711D01*
X0072613Y0187711D01*
X0073748Y0188181D01*
X0074617Y0189050D01*
X0075087Y0190186D01*
X0075087Y0191414D01*
X0074617Y0192550D01*
X0073748Y0193419D01*
X0072613Y0193889D01*
X0072020Y0193889D01*
X0069198Y0196711D01*
X0069198Y0198632D01*
X0069617Y0199050D01*
X0070087Y0200186D01*
X0070087Y0201414D01*
X0069617Y0202550D01*
X0070087Y0200781D02*
X0114598Y0200781D01*
X0114598Y0199183D02*
X0069672Y0199183D01*
X0069198Y0197584D02*
X0114414Y0197584D01*
X0113909Y0195986D02*
X0069924Y0195986D01*
X0071522Y0194387D02*
X0114240Y0194387D01*
X0116196Y0192789D02*
X0074378Y0192789D01*
X0075087Y0191190D02*
X0118198Y0191190D01*
X0118198Y0189592D02*
X0074841Y0189592D01*
X0073293Y0187993D02*
X0118198Y0187993D01*
X0118198Y0186395D02*
X0066495Y0186395D01*
X0066589Y0184796D02*
X0118198Y0184796D01*
X0118198Y0183198D02*
X0068830Y0183198D01*
X0069904Y0181599D02*
X0118198Y0181599D01*
X0118198Y0180001D02*
X0069904Y0180001D01*
X0068829Y0178402D02*
X0090465Y0178402D01*
X0089177Y0176803D02*
X0049198Y0176803D01*
X0049198Y0175205D02*
X0073923Y0175205D01*
X0072325Y0173606D02*
X0049198Y0173606D01*
X0049198Y0172008D02*
X0070726Y0172008D01*
X0069128Y0170409D02*
X0049198Y0170409D01*
X0049198Y0168811D02*
X0067529Y0168811D01*
X0065931Y0167212D02*
X0049198Y0167212D01*
X0049198Y0165614D02*
X0064332Y0165614D01*
X0062734Y0164015D02*
X0049198Y0164015D01*
X0049198Y0162417D02*
X0061702Y0162417D01*
X0061702Y0160818D02*
X0049198Y0160818D01*
X0049198Y0159220D02*
X0061702Y0159220D01*
X0061702Y0157621D02*
X0049198Y0157621D01*
X0049198Y0156023D02*
X0061702Y0156023D01*
X0061702Y0154424D02*
X0049198Y0154424D01*
X0049198Y0152826D02*
X0061702Y0152826D01*
X0061702Y0151227D02*
X0049198Y0151227D01*
X0049198Y0149629D02*
X0061702Y0149629D01*
X0061702Y0148030D02*
X0049198Y0148030D01*
X0049198Y0146432D02*
X0062425Y0146432D01*
X0062743Y0146114D02*
X0062743Y0146114D01*
X0064102Y0148149D02*
X0064102Y0161990D01*
X0075801Y0173689D01*
X0078195Y0173689D01*
X0079887Y0171997D01*
X0079887Y0147911D01*
X0091998Y0135800D01*
X0096998Y0135800D01*
X0099911Y0136841D02*
X0099928Y0136841D01*
X0098698Y0138439D02*
X0101526Y0138439D01*
X0103125Y0140038D02*
X0091154Y0140038D01*
X0089556Y0141636D02*
X0104723Y0141636D01*
X0106322Y0143235D02*
X0087957Y0143235D01*
X0086359Y0144833D02*
X0107920Y0144833D01*
X0108529Y0146432D02*
X0084760Y0146432D01*
X0083162Y0148030D02*
X0106930Y0148030D01*
X0106894Y0149629D02*
X0082287Y0149629D01*
X0082287Y0151227D02*
X0106894Y0151227D01*
X0106894Y0152826D02*
X0082287Y0152826D01*
X0082287Y0154424D02*
X0107785Y0154424D01*
X0109383Y0156023D02*
X0082287Y0156023D01*
X0082287Y0157621D02*
X0124451Y0157621D01*
X0123909Y0156023D02*
X0117605Y0156023D01*
X0119204Y0154424D02*
X0122511Y0154424D01*
X0120913Y0152826D02*
X0120094Y0152826D01*
X0121998Y0165800D02*
X0121998Y0210800D01*
X0126487Y0210372D02*
X0126698Y0210372D01*
X0126698Y0208774D02*
X0126487Y0208774D01*
X0126487Y0207175D02*
X0126698Y0207175D01*
X0126487Y0205577D02*
X0127226Y0205577D01*
X0126487Y0203978D02*
X0128825Y0203978D01*
X0131798Y0203978D02*
X0132198Y0203978D01*
X0132198Y0205577D02*
X0131798Y0205577D01*
X0131798Y0207175D02*
X0132198Y0207175D01*
X0135172Y0203978D02*
X0150980Y0203978D01*
X0150980Y0202380D02*
X0126487Y0202380D01*
X0126487Y0200781D02*
X0150980Y0200781D01*
X0151447Y0199183D02*
X0126487Y0199183D01*
X0126487Y0197584D02*
X0150980Y0197584D01*
X0150980Y0195986D02*
X0126487Y0195986D01*
X0126487Y0194387D02*
X0150980Y0194387D01*
X0150980Y0192789D02*
X0126487Y0192789D01*
X0126487Y0191190D02*
X0150980Y0191190D01*
X0150880Y0189592D02*
X0126487Y0189592D01*
X0126487Y0187993D02*
X0150980Y0187993D01*
X0150980Y0186395D02*
X0126487Y0186395D01*
X0126487Y0184796D02*
X0150980Y0184796D01*
X0150980Y0183198D02*
X0126487Y0183198D01*
X0126487Y0181599D02*
X0150980Y0181599D01*
X0151910Y0180001D02*
X0126487Y0180001D01*
X0126487Y0178402D02*
X0151633Y0178402D01*
X0150980Y0176803D02*
X0126487Y0176803D01*
X0126487Y0175205D02*
X0150980Y0175205D01*
X0150980Y0173606D02*
X0126487Y0173606D01*
X0126487Y0172008D02*
X0152083Y0172008D01*
X0152043Y0170409D02*
X0126487Y0170409D01*
X0126487Y0168811D02*
X0151910Y0168811D01*
X0151914Y0167212D02*
X0126487Y0167212D01*
X0127558Y0165614D02*
X0151914Y0165614D01*
X0151150Y0164015D02*
X0129157Y0164015D01*
X0130755Y0162417D02*
X0151112Y0162417D01*
X0150879Y0160818D02*
X0132354Y0160818D01*
X0133952Y0159220D02*
X0151511Y0159220D01*
X0153909Y0157621D02*
X0135551Y0157621D01*
X0137149Y0156023D02*
X0146391Y0156023D01*
X0144793Y0154424D02*
X0138748Y0154424D01*
X0140346Y0152826D02*
X0143902Y0152826D01*
X0143902Y0151227D02*
X0141945Y0151227D01*
X0143543Y0149629D02*
X0143902Y0149629D01*
X0122340Y0127250D02*
X0121971Y0127250D01*
X0121971Y0125651D02*
X0122340Y0125651D01*
X0122340Y0124053D02*
X0121971Y0124053D01*
X0121971Y0122454D02*
X0122340Y0122454D01*
X0122340Y0120856D02*
X0121971Y0120856D01*
X0121971Y0119257D02*
X0122340Y0119257D01*
X0104363Y0088885D02*
X0093478Y0088885D01*
X0091879Y0087287D02*
X0102764Y0087287D01*
X0101166Y0085688D02*
X0090281Y0085688D01*
X0089633Y0084090D02*
X0100052Y0084090D01*
X0104177Y0072900D02*
X0069266Y0072900D01*
X0064452Y0088885D02*
X0084544Y0088885D01*
X0083909Y0090484D02*
X0065087Y0090484D01*
X0064810Y0092082D02*
X0084186Y0092082D01*
X0066121Y0118141D02*
X0066941Y0118961D01*
X0066941Y0145310D01*
X0064102Y0148149D01*
X0069341Y0143235D02*
X0081169Y0143235D01*
X0079571Y0144833D02*
X0073869Y0144833D01*
X0075468Y0146432D02*
X0077972Y0146432D01*
X0077487Y0148030D02*
X0077066Y0148030D01*
X0077102Y0149629D02*
X0077487Y0149629D01*
X0077487Y0151227D02*
X0077102Y0151227D01*
X0077102Y0152826D02*
X0077487Y0152826D01*
X0077487Y0154424D02*
X0076212Y0154424D01*
X0077487Y0156023D02*
X0074613Y0156023D01*
X0077487Y0157621D02*
X0066502Y0157621D01*
X0066502Y0159220D02*
X0077487Y0159220D01*
X0077487Y0160818D02*
X0066502Y0160818D01*
X0067923Y0162417D02*
X0077487Y0162417D01*
X0077487Y0164015D02*
X0069522Y0164015D01*
X0071121Y0165614D02*
X0077487Y0165614D01*
X0077487Y0167212D02*
X0072719Y0167212D01*
X0074318Y0168811D02*
X0077487Y0168811D01*
X0077487Y0170409D02*
X0075916Y0170409D01*
X0082287Y0170409D02*
X0114139Y0170409D01*
X0114619Y0168811D02*
X0082287Y0168811D01*
X0082287Y0172008D02*
X0113511Y0172008D01*
X0112611Y0173606D02*
X0094034Y0173606D01*
X0090304Y0173265D02*
X0089463Y0174106D01*
X0089008Y0175205D01*
X0093531Y0178402D02*
X0118198Y0178402D01*
X0118198Y0176803D02*
X0117426Y0176803D01*
X0117800Y0192789D02*
X0118198Y0192789D01*
X0116998Y0195800D02*
X0116998Y0215800D01*
X0111998Y0220800D01*
X0109990Y0223160D02*
X0057271Y0223160D01*
X0055949Y0221562D02*
X0108970Y0221562D01*
X0109001Y0219963D02*
X0057098Y0219963D01*
X0057098Y0218365D02*
X0110065Y0218365D01*
X0112638Y0216766D02*
X0057098Y0216766D01*
X0056078Y0215168D02*
X0114236Y0215168D01*
X0114598Y0213569D02*
X0054480Y0213569D01*
X0055823Y0211971D02*
X0114598Y0211971D01*
X0114598Y0210372D02*
X0057298Y0210372D01*
X0057298Y0208774D02*
X0114598Y0208774D01*
X0114598Y0207175D02*
X0057298Y0207175D01*
X0056770Y0205577D02*
X0114598Y0205577D01*
X0119398Y0215168D02*
X0120018Y0215168D01*
X0119196Y0216766D02*
X0126898Y0216766D01*
X0126898Y0218365D02*
X0117827Y0218365D01*
X0116229Y0219963D02*
X0126898Y0219963D01*
X0128047Y0221562D02*
X0115026Y0221562D01*
X0114006Y0223160D02*
X0126725Y0223160D01*
X0125127Y0224759D02*
X0058870Y0224759D01*
X0060041Y0226357D02*
X0123955Y0226357D01*
X0123293Y0227956D02*
X0060703Y0227956D01*
X0061129Y0229554D02*
X0122867Y0229554D01*
X0122867Y0231153D02*
X0061129Y0231153D01*
X0061073Y0232751D02*
X0122923Y0232751D01*
X0123586Y0234350D02*
X0060411Y0234350D01*
X0059749Y0235948D02*
X0124248Y0235948D01*
X0125832Y0237547D02*
X0058164Y0237547D01*
X0055710Y0239145D02*
X0128286Y0239145D01*
X0129145Y0243941D02*
X0054852Y0243941D01*
X0056450Y0245539D02*
X0127546Y0245539D01*
X0126898Y0247138D02*
X0057098Y0247138D01*
X0057098Y0248737D02*
X0126898Y0248737D01*
X0126898Y0250335D02*
X0057098Y0250335D01*
X0055577Y0251934D02*
X0128419Y0251934D01*
X0120021Y0264722D02*
X0115572Y0264722D01*
X0115014Y0266320D02*
X0121620Y0266320D01*
X0123177Y0267919D02*
X0116612Y0267919D01*
X0117298Y0269517D02*
X0124776Y0269517D01*
X0117298Y0271116D02*
X0160899Y0271116D01*
X0160899Y0272714D02*
X0117298Y0272714D01*
X0115981Y0274313D02*
X0160899Y0274313D01*
X0160899Y0275911D02*
X0114382Y0275911D01*
X0117170Y0263123D02*
X0118422Y0263123D01*
X0102198Y0263123D02*
X0101798Y0263123D01*
X0101798Y0261525D02*
X0102198Y0261525D01*
X0102198Y0261000D02*
X0102198Y0265300D01*
X0102198Y0270600D01*
X0101798Y0270600D01*
X0096498Y0270600D01*
X0092198Y0270600D01*
X0092198Y0265300D01*
X0092198Y0261000D01*
X0091798Y0261000D01*
X0091798Y0260600D01*
X0086498Y0260600D01*
X0082198Y0260600D01*
X0082198Y0261000D01*
X0082198Y0265300D01*
X0082198Y0270600D01*
X0081798Y0270600D01*
X0081798Y0261000D01*
X0082198Y0261000D01*
X0091798Y0261000D01*
X0091798Y0270600D01*
X0086498Y0270600D01*
X0082198Y0270600D01*
X0082198Y0271000D01*
X0091798Y0271000D01*
X0091798Y0270600D01*
X0092198Y0270600D01*
X0092198Y0271000D01*
X0101798Y0271000D01*
X0101798Y0270600D01*
X0101798Y0261000D01*
X0101798Y0260600D01*
X0096498Y0260600D01*
X0092198Y0260600D01*
X0092198Y0261000D01*
X0101798Y0261000D01*
X0102198Y0261000D01*
X0102198Y0264722D02*
X0101798Y0264722D01*
X0101798Y0266320D02*
X0102198Y0266320D01*
X0102198Y0267919D02*
X0101798Y0267919D01*
X0101798Y0269517D02*
X0102198Y0269517D01*
X0092198Y0269517D02*
X0091798Y0269517D01*
X0091798Y0267919D02*
X0092198Y0267919D01*
X0092198Y0266320D02*
X0091798Y0266320D01*
X0091798Y0264722D02*
X0092198Y0264722D01*
X0092198Y0263123D02*
X0091798Y0263123D01*
X0091798Y0261525D02*
X0092198Y0261525D01*
X0082198Y0261525D02*
X0081798Y0261525D01*
X0081798Y0263123D02*
X0082198Y0263123D01*
X0082198Y0264722D02*
X0081798Y0264722D01*
X0081798Y0266320D02*
X0082198Y0266320D01*
X0082198Y0267919D02*
X0081798Y0267919D01*
X0081798Y0269517D02*
X0082198Y0269517D01*
X0069614Y0275911D02*
X0021798Y0275911D01*
X0021798Y0274313D02*
X0068016Y0274313D01*
X0066698Y0272714D02*
X0021798Y0272714D01*
X0021798Y0271116D02*
X0052980Y0271116D01*
X0051381Y0269517D02*
X0049221Y0269517D01*
X0044776Y0269517D02*
X0021798Y0269517D01*
X0021798Y0267919D02*
X0043177Y0267919D01*
X0042798Y0266320D02*
X0021798Y0266320D01*
X0021798Y0264722D02*
X0042798Y0264722D01*
X0050261Y0263123D02*
X0053735Y0263123D01*
X0061016Y0271116D02*
X0066698Y0271116D01*
X0066698Y0269517D02*
X0062615Y0269517D01*
X0063598Y0267919D02*
X0067384Y0267919D01*
X0068983Y0266320D02*
X0063598Y0266320D01*
X0063975Y0264722D02*
X0068424Y0264722D01*
X0066826Y0263123D02*
X0065574Y0263123D01*
X0064309Y0202380D02*
X0021798Y0202380D01*
X0021798Y0200781D02*
X0063909Y0200781D01*
X0064325Y0199183D02*
X0021798Y0199183D01*
X0021798Y0197584D02*
X0064798Y0197584D01*
X0064798Y0195986D02*
X0056904Y0195986D01*
X0058502Y0194387D02*
X0065300Y0194387D01*
X0066898Y0192789D02*
X0060101Y0192789D01*
X0061699Y0191190D02*
X0068497Y0191190D01*
X0069155Y0189592D02*
X0063298Y0189592D01*
X0064896Y0187993D02*
X0070703Y0187993D01*
X0065167Y0178402D02*
X0063829Y0178402D01*
X0060167Y0178402D02*
X0049198Y0178402D01*
X0049198Y0180001D02*
X0059092Y0180001D01*
X0059092Y0181599D02*
X0049198Y0181599D01*
X0049198Y0183198D02*
X0059998Y0183198D01*
X0059998Y0184796D02*
X0049198Y0184796D01*
X0049198Y0186395D02*
X0058575Y0186395D01*
X0056977Y0187993D02*
X0049198Y0187993D01*
X0041691Y0194387D02*
X0021798Y0194387D01*
X0021798Y0192789D02*
X0040709Y0192789D01*
X0040709Y0191190D02*
X0021798Y0191190D01*
X0021798Y0189592D02*
X0040709Y0189592D01*
X0040709Y0187993D02*
X0021798Y0187993D01*
X0021798Y0186395D02*
X0040709Y0186395D01*
X0040709Y0184796D02*
X0021798Y0184796D01*
X0021798Y0183198D02*
X0040709Y0183198D01*
X0040709Y0181599D02*
X0021798Y0181599D01*
X0021798Y0180001D02*
X0040709Y0180001D01*
X0040709Y0178402D02*
X0021798Y0178402D01*
X0021798Y0176803D02*
X0040709Y0176803D01*
X0040709Y0175205D02*
X0021798Y0175205D01*
X0021798Y0173606D02*
X0040709Y0173606D01*
X0040709Y0172008D02*
X0021798Y0172008D01*
X0021798Y0170409D02*
X0040709Y0170409D01*
X0040709Y0168811D02*
X0021798Y0168811D01*
X0021798Y0167212D02*
X0040709Y0167212D01*
X0040709Y0165614D02*
X0021798Y0165614D01*
X0021798Y0164015D02*
X0040709Y0164015D01*
X0040709Y0162417D02*
X0021798Y0162417D01*
X0021798Y0160818D02*
X0040709Y0160818D01*
X0040709Y0159220D02*
X0021798Y0159220D01*
X0021798Y0195986D02*
X0043290Y0195986D01*
X0043222Y0195917D02*
X0043222Y0195917D01*
X0069341Y0141636D02*
X0082768Y0141636D01*
X0084366Y0140038D02*
X0069341Y0140038D01*
X0069341Y0138439D02*
X0085965Y0138439D01*
X0087563Y0136841D02*
X0069341Y0136841D01*
X0069341Y0135242D02*
X0089162Y0135242D01*
X0090932Y0133644D02*
X0069341Y0133644D01*
X0069341Y0132045D02*
X0095132Y0132045D01*
X0093534Y0130447D02*
X0069341Y0130447D01*
X0092753Y0138439D02*
X0095298Y0138439D01*
X0136770Y0205577D02*
X0150980Y0205577D01*
X0150980Y0207175D02*
X0137298Y0207175D01*
X0137298Y0208774D02*
X0150980Y0208774D01*
X0150980Y0210372D02*
X0137298Y0210372D01*
X0135823Y0211971D02*
X0151120Y0211971D01*
X0152424Y0213569D02*
X0134480Y0213569D01*
X0136078Y0215168D02*
X0150980Y0215168D01*
X0150980Y0216766D02*
X0137098Y0216766D01*
X0137098Y0218365D02*
X0150980Y0218365D01*
X0150980Y0219963D02*
X0137098Y0219963D01*
X0135949Y0221562D02*
X0150980Y0221562D01*
X0151287Y0223160D02*
X0137271Y0223160D01*
X0129516Y0213569D02*
X0125577Y0213569D01*
X0126487Y0211971D02*
X0128174Y0211971D01*
X0127918Y0215168D02*
X0123979Y0215168D01*
X0115338Y0042529D02*
X0083101Y0042529D01*
X0113665Y0028142D02*
X0121085Y0028142D01*
X0121085Y0029740D02*
X0115263Y0029740D01*
X0116862Y0031339D02*
X0121085Y0031339D01*
X0124752Y0022732D02*
X0128042Y0022732D01*
X0129155Y0023845D01*
X0129155Y0025413D01*
X0129798Y0024771D01*
X0129798Y0022868D01*
X0129392Y0022700D01*
X0128098Y0021406D01*
X0127398Y0019715D01*
X0127398Y0011885D01*
X0127930Y0010600D01*
X0126264Y0010600D01*
X0126446Y0010957D01*
X0126680Y0011676D01*
X0126798Y0012422D01*
X0126798Y0015600D01*
X0122198Y0015600D01*
X0122198Y0016000D01*
X0126798Y0016000D01*
X0126798Y0019178D01*
X0126680Y0019924D01*
X0126446Y0020643D01*
X0126103Y0021316D01*
X0125659Y0021927D01*
X0125125Y0022461D01*
X0124752Y0022732D01*
X0125789Y0021748D02*
X0128441Y0021748D01*
X0128656Y0023346D02*
X0129798Y0023346D01*
X0129624Y0024945D02*
X0129155Y0024945D01*
X0127578Y0020149D02*
X0126607Y0020149D01*
X0126798Y0018551D02*
X0127398Y0018551D01*
X0127398Y0016952D02*
X0126798Y0016952D01*
X0126798Y0015354D02*
X0127398Y0015354D01*
X0127398Y0013755D02*
X0126798Y0013755D01*
X0126756Y0012157D02*
X0127398Y0012157D01*
X0117240Y0012157D02*
X0115481Y0012157D01*
X0115668Y0012344D02*
X0115668Y0012344D01*
X0116781Y0013755D02*
X0117198Y0013755D01*
X0117198Y0015354D02*
X0116781Y0015354D01*
X0116781Y0016952D02*
X0117198Y0016952D01*
X0117198Y0018551D02*
X0116781Y0018551D01*
X0117390Y0020149D02*
X0115933Y0020149D01*
X0115593Y0040930D02*
X0116907Y0040930D01*
X0116912Y0040956D02*
X0116912Y0040956D01*
X0131341Y0040930D02*
X0132655Y0040930D01*
D22*
X0092901Y0067653D03*
X0086998Y0085800D03*
X0086998Y0090800D03*
X0096998Y0100800D03*
X0101998Y0100800D03*
X0096998Y0135800D03*
X0076798Y0165800D03*
X0076998Y0185800D03*
X0071998Y0190800D03*
X0066998Y0200800D03*
X0071998Y0205800D03*
X0046998Y0190800D03*
X0046998Y0130800D03*
X0046998Y0115800D03*
X0055201Y0112598D03*
X0061998Y0100800D03*
X0061998Y0095800D03*
X0061998Y0090800D03*
X0066998Y0070800D03*
X0066998Y0045800D03*
X0041998Y0095800D03*
X0037097Y0115652D03*
X0111998Y0220800D03*
X0121998Y0210800D03*
X0116998Y0195800D03*
X0117228Y0170570D03*
X0126998Y0155800D03*
D23*
X0115602Y0174146D02*
X0115602Y0175800D01*
X0091998Y0175800D01*
X0076998Y0165800D02*
X0076798Y0165800D01*
X0066998Y0180800D02*
X0064589Y0183209D01*
X0064589Y0185472D01*
X0054972Y0195089D01*
X0045222Y0195089D01*
X0042709Y0192577D01*
X0042709Y0135154D01*
X0032808Y0125253D01*
X0032808Y0064064D01*
X0056072Y0040800D01*
X0057592Y0040800D01*
X0069197Y0029195D01*
X0111889Y0029195D01*
X0120187Y0037493D01*
X0112313Y0037493D02*
X0085308Y0037493D01*
X0081998Y0040803D01*
X0076716Y0040803D01*
X0074799Y0042720D01*
X0069197Y0042720D01*
X0068881Y0042403D01*
X0056731Y0042403D01*
X0034408Y0064727D01*
X0034408Y0124590D01*
X0044309Y0134492D01*
X0044309Y0191914D01*
X0045884Y0193489D01*
X0048112Y0193489D01*
X0050801Y0190800D01*
X0056998Y0190800D01*
X0061998Y0185800D01*
X0061998Y0180800D01*
X0046998Y0130800D02*
X0046998Y0119603D01*
X0044309Y0116914D01*
X0044309Y0114686D01*
X0045884Y0113111D01*
X0054687Y0113111D01*
X0055201Y0112598D01*
X0068935Y0107025D02*
X0068961Y0106998D01*
X0069097Y0106998D01*
X0061998Y0090800D02*
X0051998Y0090800D01*
X0036998Y0105800D01*
X0036998Y0115800D01*
X0036998Y0115750D01*
X0037097Y0115652D01*
X0066998Y0070800D02*
X0066998Y0045800D01*
X0071998Y0260800D02*
X0071998Y0270800D01*
D24*
X0069097Y0106998D03*
D25*
X0066121Y0118141D02*
X0049339Y0118141D01*
X0046998Y0115800D01*
X0061841Y0123241D02*
X0046998Y0138083D01*
X0046998Y0190800D01*
X0066998Y0195800D02*
X0071998Y0190800D01*
X0066998Y0195800D02*
X0066998Y0200800D01*
X0110598Y0144400D02*
X0116145Y0144400D01*
X0119894Y0148149D01*
X0119894Y0148696D01*
X0121998Y0150800D01*
X0126998Y0155800D01*
X0110598Y0144400D02*
X0061998Y0095800D01*
X0086998Y0090800D02*
X0096998Y0100800D01*
X0120187Y0037493D02*
X0131998Y0025682D01*
X0131998Y0015800D01*
X0141998Y0015800D02*
X0141998Y0023556D01*
X0128061Y0037493D01*
D26*
X0115602Y0174146D03*
X0091998Y0175800D03*
X0066998Y0180800D03*
X0061998Y0180800D03*
M02*
